<?xml version="1.0" encoding="utf-8"?>
<!-- Generator: Adobe Illustrator 16.0.4, SVG Export Plug-In . SVG Version: 6.00 Build 0)  -->
<!DOCTYPE svg PUBLIC "-//W3C//DTD SVG 1.1//EN" "http://www.w3.org/Graphics/SVG/1.1/DTD/svg11.dtd">
<svg version="1.1" id="Layer_1" xmlns="http://www.w3.org/2000/svg" xmlns:xlink="http://www.w3.org/1999/xlink" x="0px" y="0px"
	 width="130px" height="130px" viewBox="0 0 130 130" enable-background="new 0 0 130 130" xml:space="preserve">
<path fill="none" stroke="#F37463" stroke-width="5.5" stroke-linecap="round" stroke-miterlimit="10" d="M65.07,3.151
	c20.85,0,37.752,6.162,37.752,13.763c0,7.601-16.9,13.763-37.752,13.763s-37.752-6.162-37.752-13.763
	C27.318,9.312,44.219,3.151,65.07,3.151"/>
<path fill="none" stroke="#F37463" stroke-width="5.5" stroke-linecap="round" stroke-miterlimit="10" d="M27.318,16.913
	c0,4.067,0,7.735,0,11.969c0,46.296,16.901,83.826,37.752,83.826c20.85,0,37.752-37.529,37.752-83.826c0-4.198,0.27-8.324,0-12.356"
	/>
<path fill="none" stroke="#F37463" stroke-width="5.5" stroke-linecap="round" stroke-miterlimit="10" d="M44.626,110.058
	c-2.616,1.719-4.144,3.79-4.144,6.022c0,5.946,10.862,10.769,24.261,10.769c13.398,0,24.26-4.822,24.26-10.769
	c0-2.148-1.418-4.15-3.861-5.831"/>
<path fill="none" stroke="#F37463" stroke-width="5.5" stroke-linecap="round" stroke-miterlimit="10" d="M20.572,85.837
	c0,2.386,2.176,6.636,6.746,6.636c2.391,0,7.071-2.394,7.071-6.744c0-5.55-3.44-8.343-10.047-14.371
	c-2.593-2.36-5.352-4.874-8.012-7.641l0,0c-5.294-6.156-9.9-12.912-9.199-22.965h0.009c0-4.771,3.895-9.639,8.646-10.076
	c7.073-0.651,11.533,4.044,11.533,8.814c0,3.854-2.502,10.662-7.29,11.75"/>
<path fill="none" stroke="#F37463" stroke-width="5.5" stroke-linecap="round" stroke-miterlimit="10" d="M109.971,51.239
	c-4.787-1.087-7.291-7.896-7.291-11.75c0-4.771,4.463-9.465,11.533-8.814c4.752,0.438,8.646,5.305,8.646,10.076h0.01
	c0.701,10.053-3.906,16.809-9.199,22.965l0,0c-2.66,2.766-5.42,5.278-8.012,7.641c-6.607,6.031-10.047,8.821-10.047,14.371
	c0,4.351,4.68,6.744,7.07,6.744c4.57,0,6.746-4.25,6.746-6.636"/>
</svg>
