<?xml version="1.0" encoding="utf-8"?>
<!-- Generator: Adobe Illustrator 16.0.4, SVG Export Plug-In . SVG Version: 6.00 Build 0)  -->
<!DOCTYPE svg PUBLIC "-//W3C//DTD SVG 1.1//EN" "http://www.w3.org/Graphics/SVG/1.1/DTD/svg11.dtd">
<svg version="1.1" id="Layer_1" xmlns="http://www.w3.org/2000/svg" xmlns:xlink="http://www.w3.org/1999/xlink" x="0px" y="0px"
	 width="130px" height="130px" viewBox="0 0 130 130" enable-background="new 0 0 130 130" xml:space="preserve">
<g transform="translate(520 1440)">
</g>
<path fill="none" stroke="#F37363" stroke-width="5.5" stroke-miterlimit="10" d="M64.997,36.316
	c15.839,0,28.679,12.84,28.679,28.678c0,15.839-12.839,28.679-28.679,28.679c-15.838,0-28.679-12.839-28.679-28.679
	C36.318,49.157,49.159,36.316,64.997,36.316"/>
<path fill="none" stroke="#F37363" stroke-width="5.5" stroke-miterlimit="10" d="M64.997,50.488
	c8.012,0,14.506,6.494,14.506,14.506c0,8.011-6.495,14.506-14.506,14.506c-8.011,0-14.505-6.496-14.505-14.506
	C50.491,56.982,56.985,50.488,64.997,50.488"/>
<path fill="none" stroke="#F37363" stroke-width="5.5" stroke-miterlimit="10" d="M50.655,40.155c0,0-11.564-17.66-14.486-20.779
	c-4.045-4.316-11.984-3.788-16.309,0.543h-0.007c-4.374,4.278-5.157,12.129-0.882,16.219c3.09,2.952,21.186,14.516,21.186,14.516"/>
<path fill="none" stroke="#F37363" stroke-width="5.5" stroke-miterlimit="10" d="M40.157,50.654c0,0-19.378-9.527-23.469-10.767
	c-5.662-1.714-11.958,2.746-13.535,8.66l-0.01,0.004c-1.646,5.89,1.711,13.137,7.458,14.541c4.152,1.012,25.716,1.903,25.716,1.903"
	/>
<path fill="none" stroke="#F37363" stroke-width="5.5" stroke-miterlimit="10" d="M36.318,64.995c0,0-21.42,0.984-25.58,1.956
	c-5.761,1.345-9.199,8.444-7.61,14.355l-0.004,0.005c1.518,5.925,7.996,10.474,13.674,8.817c4.101-1.2,23.359-10.792,23.359-10.792"
	/>
<path fill="none" stroke="#F37363" stroke-width="5.5" stroke-miterlimit="10" d="M40.157,79.335c0,0-18.123,11.7-21.24,14.623
	c-4.317,4.045-3.671,11.861,0.66,16.185v0.008c4.278,4.373,12.23,5.09,16.32,0.815c2.951-3.091,14.594-21.132,14.594-21.132"/>
<path fill="none" stroke="#F37363" stroke-width="5.5" stroke-miterlimit="10" d="M50.491,89.835c0,0-9.089,19.569-10.328,23.659
	c-1.716,5.661,2.697,11.992,8.611,13.57l0.004,0.006c5.89,1.649,13.104-1.608,14.507-7.355c1.011-4.151,1.711-26.042,1.711-26.042"
	/>
<path fill="none" stroke="#F37363" stroke-width="5.5" stroke-miterlimit="10" d="M64.997,93.673c0,0,0.931,21.665,1.903,25.825
	c1.345,5.762,8.38,9.178,14.292,7.589l0.008,0.002c5.925-1.516,10.586-7.917,8.931-13.597c-1.2-4.101-10.792-23.658-10.792-23.658"
	/>
<path fill="none" stroke="#F37363" stroke-width="5.5" stroke-miterlimit="10" d="M64.997,36.316c0,0-1.107-21.753-2.119-25.906
	C61.474,4.665,54.22,1.271,48.33,2.917l-0.004,0.01c-5.913,1.578-10.311,8.312-8.597,13.976c1.24,4.089,10.927,23.251,10.927,23.251
	"/>
<path fill="none" stroke="#F37363" stroke-width="5.5" stroke-miterlimit="10" d="M79.218,40.086c0,0,9.521-19.462,10.721-23.562
	c1.658-5.681-2.924-12.107-8.849-13.626l-0.007,0.004c-5.91-1.589-12.975,1.882-14.32,7.644c-0.972,4.161-1.767,25.771-1.767,25.771
	"/>
<path fill="none" stroke="#F37363" stroke-width="5.5" stroke-miterlimit="10" d="M89.769,50.539c0,0,17.974-11.963,21.064-14.916
	c4.274-4.088,3.469-11.994-0.904-16.271h-0.008c-4.324-4.332-12.188-4.916-16.233-0.6c-2.922,3.118-14.47,21.334-14.47,21.334"/>
<path fill="none" stroke="#F37363" stroke-width="5.5" stroke-miterlimit="10" d="M93.675,64.995c0,0,21.649-0.891,25.799-1.901
	c5.747-1.404,9.023-8.651,7.374-14.542l-0.007-0.003c-1.578-5.914-7.956-10.349-13.618-8.632
	c-4.089,1.239-23.455,10.623-23.455,10.623"/>
<path fill="none" stroke="#F37363" stroke-width="5.5" stroke-miterlimit="10" d="M89.878,79.359c0,0,19.354,9.296,23.455,10.496
	c5.679,1.657,12.02-2.957,13.535-8.882l-0.002-0.006c1.589-5.912-1.63-12.94-7.391-14.287c-4.16-0.971-25.799-1.685-25.799-1.685"/>
<path fill="none" stroke="#F37363" stroke-width="5.5" stroke-miterlimit="10" d="M79.338,89.835c0,0,12.379,18.093,15.302,21.212
	c4.045,4.315,11.924,3.71,16.247-0.621h0.009c4.373-4.277,5.135-12.134,0.861-16.223c-3.09-2.952-21.878-14.844-21.878-14.844"/>
</svg>
