<?xml version="1.0" encoding="utf-8"?>
<!-- Generator: Adobe Illustrator 16.0.4, SVG Export Plug-In . SVG Version: 6.00 Build 0)  -->
<!DOCTYPE svg PUBLIC "-//W3C//DTD SVG 1.1//EN" "http://www.w3.org/Graphics/SVG/1.1/DTD/svg11.dtd">
<svg version="1.1" id="Layer_1" xmlns="http://www.w3.org/2000/svg" xmlns:xlink="http://www.w3.org/1999/xlink" x="0px" y="0px"
	 width="100px" height="100px" viewBox="0 0 100 100" enable-background="new 0 0 100 100" xml:space="preserve">
<path fill="none" stroke="#F37363" stroke-width="4" stroke-miterlimit="10" d="M50,28.01c12.145,0,21.99,9.846,21.99,21.99
	c0,12.145-9.845,21.99-21.99,21.99c-12.144,0-21.99-9.845-21.99-21.99C28.01,37.856,37.856,28.01,50,28.01"/>
<path fill="none" stroke="#F37363" stroke-width="4" stroke-miterlimit="10" d="M50,38.877c6.143,0,11.123,4.979,11.123,11.123
	c0,6.143-4.979,11.123-11.123,11.123S38.877,56.143,38.877,50C38.877,43.856,43.857,38.877,50,38.877"/>
<path fill="none" stroke="#F37363" stroke-width="4" stroke-miterlimit="10" d="M39.003,30.954c0,0-8.867-13.542-11.107-15.933
	c-3.102-3.31-9.189-2.904-12.505,0.417h-0.006c-3.354,3.28-3.954,9.3-0.676,12.436c2.37,2.264,16.245,11.13,16.245,11.13"/>
<path fill="none" stroke="#F37363" stroke-width="4" stroke-miterlimit="10" d="M30.954,39.004c0,0-14.858-7.305-17.995-8.255
	c-4.342-1.315-9.169,2.105-10.378,6.64l-0.007,0.003c-1.262,4.517,1.312,10.073,5.718,11.15C11.475,49.317,28.01,50,28.01,50"/>
<path fill="none" stroke="#F37363" stroke-width="4" stroke-miterlimit="10" d="M28.01,50c0,0-16.425,0.754-19.614,1.5
	c-4.417,1.032-7.053,6.475-5.835,11.007l-0.003,0.004c1.164,4.543,6.13,8.031,10.484,6.76c3.145-0.92,17.911-8.275,17.911-8.275"/>
<path fill="none" stroke="#F37363" stroke-width="4" stroke-miterlimit="10" d="M30.954,60.996c0,0-13.896,8.971-16.286,11.212
	c-3.311,3.102-2.815,9.095,0.506,12.41v0.006c3.28,3.353,9.377,3.903,12.514,0.625c2.263-2.37,11.19-16.204,11.19-16.204"/>
<path fill="none" stroke="#F37363" stroke-width="4" stroke-miterlimit="10" d="M38.877,69.046c0,0-6.969,15.005-7.919,18.141
	c-1.316,4.341,2.068,9.195,6.603,10.405l0.003,0.005c4.517,1.265,10.048-1.233,11.124-5.64C49.463,88.775,50,71.99,50,71.99"/>
<path fill="none" stroke="#F37363" stroke-width="4" stroke-miterlimit="10" d="M50,71.99c0,0,0.714,16.612,1.459,19.802
	c1.032,4.417,6.426,7.038,10.958,5.819l0.006,0.002c4.543-1.163,8.118-6.071,6.848-10.426c-0.92-3.145-8.275-18.14-8.275-18.14"/>
<path fill="none" stroke="#F37363" stroke-width="4" stroke-miterlimit="10" d="M50,28.01c0,0-0.849-16.68-1.625-19.864
	c-1.077-4.405-6.639-7.007-11.155-5.745l-0.003,0.007c-4.534,1.21-7.906,6.374-6.592,10.716c0.951,3.135,8.378,17.829,8.378,17.829"
	/>
<path fill="none" stroke="#F37363" stroke-width="4" stroke-miterlimit="10" d="M60.904,30.901c0,0,7.301-14.923,8.221-18.067
	c1.271-4.355-2.242-9.283-6.785-10.448l-0.005,0.003c-4.532-1.218-9.949,1.443-10.98,5.861C50.609,11.44,50,28.01,50,28.01"/>
<path fill="none" stroke="#F37363" stroke-width="4" stroke-miterlimit="10" d="M68.995,38.916c0,0,13.782-9.173,16.151-11.437
	c3.277-3.135,2.66-9.197-0.693-12.477h-0.006c-3.315-3.321-9.346-3.77-12.447-0.46c-2.241,2.391-11.096,16.358-11.096,16.358"/>
<path fill="none" stroke="#F37363" stroke-width="4" stroke-miterlimit="10" d="M71.99,50c0,0,16.6-0.683,19.782-1.458
	c4.406-1.076,6.919-6.633,5.654-11.15l-0.005-0.003c-1.21-4.534-6.101-7.935-10.441-6.619c-3.136,0.95-17.984,8.145-17.984,8.145"/>
<path fill="none" stroke="#F37363" stroke-width="4" stroke-miterlimit="10" d="M69.078,61.015c0,0,14.84,7.128,17.984,8.048
	c4.355,1.271,9.216-2.268,10.378-6.811l-0.002-0.005c1.219-4.532-1.25-9.922-5.667-10.955C88.582,50.548,71.99,50,71.99,50"/>
<path fill="none" stroke="#F37363" stroke-width="4" stroke-miterlimit="10" d="M60.997,69.046c0,0,9.492,13.874,11.733,16.265
	c3.102,3.309,9.143,2.845,12.458-0.476h0.006c3.353-3.28,3.938-9.304,0.66-12.439c-2.37-2.264-16.776-11.381-16.776-11.381"/>
</svg>
