<?xml version="1.0" encoding="utf-8"?>
<!-- Generator: Adobe Illustrator 16.0.4, SVG Export Plug-In . SVG Version: 6.00 Build 0)  -->
<!DOCTYPE svg PUBLIC "-//W3C//DTD SVG 1.1//EN" "http://www.w3.org/Graphics/SVG/1.1/DTD/svg11.dtd">
<svg version="1.1" id="Layer_1" xmlns="http://www.w3.org/2000/svg" xmlns:xlink="http://www.w3.org/1999/xlink" x="0px" y="0px"
	 width="100px" height="100px" viewBox="0 0 100 100" enable-background="new 0 0 100 100" xml:space="preserve">
<g>
	<path fill="#F37463" d="M99.148,65.792L87.465,52.157c-1.312-1.528-3.178-2.429-5.121-2.468c-1.943-0.039-3.848,0.78-5.217,2.25
		L67.012,62.774c-1.195-1.807-2.726-3.381-4.533-4.654c-2.934-2.06-6.389-3.148-9.988-3.148c-3.831,0-7.463,1.219-10.506,3.527
		c-1.851,1.404-3.408,3.177-4.571,5.184l-9.668-11.477c-1.302-1.552-3.163-2.451-5.104-2.483c-1.941-0.029-3.821,0.826-5.169,2.344
		L0.877,70.737c-0.911,1.025-0.821,2.599,0.209,3.513c1.03,0.913,2.596,0.821,3.512-0.209l16.596-18.67
		c0.394-0.442,0.877-0.68,1.382-0.67c0.498,0,0.986,0.258,1.365,0.709l36.595,43.457c0.491,0.578,1.19,0.884,1.904,0.884
		c0.568,0,1.132-0.194,1.604-0.588c1.049-0.884,1.181-2.448,0.296-3.498L54.273,83.713l13.715-14.687
		c0.189-0.155,0.364-0.335,0.496-0.539L80.76,55.336c0.417-0.442,0.942-0.685,1.477-0.675c0.54,0.01,1.06,0.271,1.448,0.733
		l11.688,13.637c0.895,1.045,2.463,1.166,3.508,0.268C99.926,68.405,100.047,66.836,99.148,65.792z M40.908,67.832
		c1.851-4.688,6.469-7.885,11.578-7.885c4.61,0,8.852,2.604,10.989,6.612L51.047,79.871L40.908,67.832z"/>
	<path fill="#F37463" d="M52.486,49.998c-1.373,0-2.488-1.115-2.488-2.487v-4.975c0-1.373,1.115-2.488,2.488-2.488
		c1.37,0,2.487,1.115,2.487,2.488v4.975C54.973,48.883,53.856,49.998,52.486,49.998z"/>
	<path fill="#F37463" d="M64.922,54.973c-0.636,0-1.272-0.243-1.758-0.729c-0.972-0.967-0.972-2.546,0-3.515l4.975-4.975
		c0.967-0.969,2.545-0.969,3.517,0c0.967,0.969,0.967,2.548,0,3.518l-4.975,4.972c-0.491,0.491-1.127,0.729-1.764,0.729H64.922z"/>
	<path fill="#F37463" d="M40.049,54.973c-0.637,0-1.273-0.243-1.761-0.729l-4.975-4.972c-0.969-0.969-0.969-2.548,0-3.518
		c0.97-0.969,2.548-0.969,3.518,0l4.975,4.975c0.969,0.969,0.969,2.548,0,3.515c-0.488,0.491-1.125,0.734-1.761,0.734L40.049,54.973
		z"/>
	<path fill="#F37463" d="M72.351,10.219c-0.316,0-0.646-0.063-0.952-0.194c-0.928-0.398-1.521-1.288-1.502-2.298
		c-0.009-0.238-0.097-0.916-0.408-1.481c-0.282-0.503-0.738-1.02-2.079-1.02c-1.37,0-2.488-1.115-2.488-2.488S66.04,0.25,67.41,0.25
		c3.104,0,5.082,1.433,6.218,3.219c2.206-1.542,5.363-3.219,8.706-3.219c1.37,0,2.488,1.115,2.488,2.487s-1.118,2.488-2.488,2.488
		c-3.206,0-7.005,3.07-8.19,4.248C73.658,9.956,73.006,10.219,72.351,10.219z"/>
	<path fill="#F37463" d="M45.023,10.199c-0.284,0-0.561,0.015-0.84,0.034C42.138,4.423,36.597,0.25,30.099,0.25
		c-4.81,0-9.309,2.358-12.09,6.175c-1.646-0.782-3.461-1.2-5.322-1.2c-6.855,0-12.437,5.582-12.437,12.437
		s5.582,12.437,12.437,12.437h32.336c5.487,0,9.95-4.463,9.95-9.95S50.51,10.199,45.023,10.199z M45.023,25.124H12.687
		c-4.115,0-7.462-3.347-7.462-7.462c0-4.115,3.347-7.462,7.462-7.462c2.14,0,4.178,0.92,5.597,2.526
		c0.911,1.03,2.483,1.13,3.513,0.219c1.03-0.909,1.129-2.483,0.218-3.51C22.005,9.422,22,9.417,21.991,9.408
		c1.851-2.587,4.87-4.183,8.108-4.183c5.487,0,9.95,4.462,9.95,9.949c0,1.373,1.115,2.488,2.487,2.488
		c1.372,0,2.487-1.115,2.487-2.488c2.74,0,4.975,2.235,4.975,4.975C49.998,22.889,47.763,25.124,45.023,25.124z"/>
	<path fill="#F37463" d="M87.275,20.168c-0.316,0-0.646-0.063-0.953-0.194c-0.928-0.398-1.52-1.287-1.501-2.298
		c-0.01-0.238-0.097-0.916-0.408-1.481c-0.282-0.503-0.739-1.021-2.08-1.021c-1.37,0-2.487-1.115-2.487-2.487
		s1.117-2.487,2.487-2.487c3.105,0,5.082,1.433,6.219,3.218c2.206-1.542,5.364-3.218,8.706-3.218c1.37,0,2.487,1.115,2.487,2.487
		s-1.117,2.487-2.487,2.487c-3.207,0-7.006,3.071-8.191,4.249C88.582,19.906,87.931,20.168,87.275,20.168z"/>
	<path fill="#F37463" d="M72.351,35.093c-0.316,0-0.646-0.063-0.952-0.194c-0.928-0.398-1.521-1.288-1.502-2.298
		c-0.009-0.238-0.097-0.916-0.408-1.481c-0.282-0.503-0.738-1.02-2.079-1.02c-1.37,0-2.488-1.115-2.488-2.488
		s1.118-2.487,2.488-2.487c3.104,0,5.082,1.434,6.218,3.219c2.206-1.542,5.363-3.219,8.706-3.219c1.37,0,2.488,1.115,2.488,2.487
		s-1.118,2.488-2.488,2.488c-3.206,0-7.005,3.07-8.19,4.248C73.658,34.83,73.006,35.093,72.351,35.093z"/>
</g>
</svg>
