<?xml version="1.0" encoding="utf-8"?>
<!-- Generator: Adobe Illustrator 16.0.4, SVG Export Plug-In . SVG Version: 6.00 Build 0)  -->
<!DOCTYPE svg PUBLIC "-//W3C//DTD SVG 1.1//EN" "http://www.w3.org/Graphics/SVG/1.1/DTD/svg11.dtd">
<svg version="1.1" id="Layer_1" xmlns="http://www.w3.org/2000/svg" xmlns:xlink="http://www.w3.org/1999/xlink" x="0px" y="0px"
	 width="130px" height="130px" viewBox="0 0 130 130" enable-background="new 0 0 130 130" xml:space="preserve">
<path fill="none" stroke="#F37463" stroke-width="5.5" stroke-linecap="round" stroke-linejoin="round" stroke-miterlimit="10" d="
	M57.496,14.833c-0.336,0-0.662,0.018-0.993,0.041C54.086,8.007,47.538,3.075,39.859,3.075c-5.684,0-11.001,2.788-14.289,7.298
	c-1.945-0.925-4.089-1.418-6.289-1.418c-8.102,0-14.698,6.597-14.698,14.698c0,8.102,6.597,14.698,14.698,14.698h38.214
	c6.485,0,11.759-5.274,11.759-11.759S63.981,14.833,57.496,14.833z"/>
<path fill="none" stroke="#F37463" stroke-width="5.5" stroke-linecap="round" stroke-linejoin="round" stroke-miterlimit="10" d="
	M87.366,35.287c0,0,6.736-0.082,6.893,6.476c0,0,6.631-6.881,12.861-6.476"/>
<path fill="none" stroke="#F37463" stroke-width="5.5" stroke-linecap="round" stroke-linejoin="round" stroke-miterlimit="10" d="
	M107.222,15.812c0,0,6.736-0.082,6.892,6.475c0,0,6.631-6.88,12.861-6.475"/>
<path fill="none" stroke="#F37463" stroke-width="5.5" stroke-linecap="round" stroke-linejoin="round" stroke-miterlimit="10" d="
	M87.366,2.776c0,0,6.736-0.082,6.893,6.475c0,0,6.631-6.881,12.861-6.475"/>
<path fill="none" stroke="#F37463" stroke-width="5.5" stroke-linecap="round" stroke-linejoin="round" stroke-miterlimit="10" d="
	M44.69,60.833l7.322,7.376"/>
<path fill="none" stroke="#F37463" stroke-width="5.5" stroke-linecap="round" stroke-linejoin="round" stroke-miterlimit="10" d="
	M68.167,53.947v8.142"/>
<path fill="none" stroke="#F37463" stroke-width="5.5" stroke-linecap="round" stroke-linejoin="round" stroke-miterlimit="10" d="
	M91.398,61.021l-7.322,7.376"/>
<path fill="none" stroke="#F37463" stroke-width="5.5" stroke-linecap="round" stroke-linejoin="round" stroke-miterlimit="10" d="
	M84.743,83.837c0,0-4.699-9.344-16.337-9.344c-12.531,0-18.087,10.71-18.087,10.71"/>
<path fill="none" stroke="#F37463" stroke-width="5.5" stroke-linecap="round" stroke-linejoin="round" stroke-miterlimit="10" d="
	M3,94.438l23.851-25.993c0.516-0.58,1.405-1.179,2.066-1.166c0.653,0,1.293,0.338,1.791,0.931l50.266,59.012"/>
<path fill="none" stroke="#F37463" stroke-width="5.5" stroke-linecap="round" stroke-linejoin="round" stroke-miterlimit="10" d="
	M68.6,107.31l19.929-20.746c0.249-0.203,0.478-0.439,0.65-0.707l16.1-17.247c0.547-0.58,1.236-0.898,1.936-0.885
	c0.708,0.013,1.39,0.356,1.899,0.962l17.213,19.956"/>
</svg>
