<?xml version="1.0" encoding="utf-8"?>
<!-- Generator: Adobe Illustrator 16.0.4, SVG Export Plug-In . SVG Version: 6.00 Build 0)  -->
<!DOCTYPE svg PUBLIC "-//W3C//DTD SVG 1.1//EN" "http://www.w3.org/Graphics/SVG/1.1/DTD/svg11.dtd">
<svg version="1.1" id="Layer_1" xmlns="http://www.w3.org/2000/svg" xmlns:xlink="http://www.w3.org/1999/xlink" x="0px" y="0px"
	 width="50px" height="50px" viewBox="0 0 50 50" enable-background="new 0 0 50 50" xml:space="preserve">
<g>
	<path fill="#565B70" d="M1.296,28.821c-0.3,0-0.6-0.107-0.836-0.321c-0.512-0.463-0.552-1.25-0.088-1.762L22.402,2.392
		c0.683-0.757,1.607-1.173,2.6-1.173l0,0c0.991,0,1.913,0.417,2.6,1.173L49.63,26.738c0.461,0.512,0.422,1.299-0.087,1.762
		c-0.51,0.463-1.299,0.421-1.762-0.088L25.752,4.066c-0.204-0.229-0.471-0.351-0.748-0.351c-0.276,0-0.543,0.122-0.748,0.351
		L2.227,28.412c-0.248,0.272-0.586,0.412-0.926,0.412L1.296,28.821z"/>
	<path fill="#565B70" d="M38.722,48.781h-9.98c-0.687,0-1.247-0.56-1.247-1.247v-8.732h-4.99v8.732c0,0.688-0.559,1.247-1.248,1.247
		h-9.98c-2.064,0-3.743-1.679-3.743-3.742v-19.96c0-0.687,0.559-1.248,1.248-1.248s1.248,0.561,1.248,1.248v19.96
		c0,0.688,0.559,1.248,1.248,1.248h8.732v-8.733c0-0.687,0.56-1.247,1.248-1.247h7.485c0.688,0,1.248,0.561,1.248,1.247v8.733h8.732
		c0.688,0,1.248-0.561,1.248-1.248v-19.96c0-0.687,0.56-1.248,1.247-1.248s1.248,0.561,1.248,1.248v19.96
		C42.465,47.103,40.785,48.781,38.722,48.781z"/>
</g>
</svg>
