<?xml version="1.0" encoding="utf-8"?>
<!-- Generator: Adobe Illustrator 16.0.4, SVG Export Plug-In . SVG Version: 6.00 Build 0)  -->
<!DOCTYPE svg PUBLIC "-//W3C//DTD SVG 1.1//EN" "http://www.w3.org/Graphics/SVG/1.1/DTD/svg11.dtd">
<svg version="1.1" id="Layer_1" xmlns="http://www.w3.org/2000/svg" xmlns:xlink="http://www.w3.org/1999/xlink" x="0px" y="0px"
	 width="70px" height="70px" viewBox="0 0 70 70" enable-background="new 0 0 70 70" xml:space="preserve">
<path fill="#FFF0C9" d="M34.833,69.791c-19.236,0-34.885-15.65-34.885-34.887c0-19.235,15.649-34.883,34.885-34.883
	c19.235,0,34.886,15.648,34.886,34.883C69.719,54.141,54.068,69.791,34.833,69.791z M34.833,2.758
	c-17.726,0-32.148,14.421-32.148,32.146c0,17.728,14.422,32.151,32.148,32.151c17.728,0,32.149-14.424,32.149-32.151
	C66.982,17.179,52.561,2.758,34.833,2.758z"/>
<line fill="none" stroke="#FFF0C9" stroke-width="2.75" stroke-linecap="round" stroke-linejoin="round" stroke-miterlimit="10" x1="16.833" y1="35.031" x2="55.613" y2="35.031"/>
<line fill="none" stroke="#FFF0C9" stroke-width="2.75" stroke-linecap="round" stroke-linejoin="round" stroke-miterlimit="10" x1="33.013" y1="18.461" x2="16.833" y2="35.171"/>
<line fill="none" stroke="#FFF0C9" stroke-width="2.75" stroke-linecap="round" stroke-linejoin="round" stroke-miterlimit="10" x1="33.013" y1="51.352" x2="16.833" y2="35.171"/>
</svg>
