<?xml version="1.0" encoding="utf-8"?>
<!-- Generator: Adobe Illustrator 16.0.4, SVG Export Plug-In . SVG Version: 6.00 Build 0)  -->
<!DOCTYPE svg PUBLIC "-//W3C//DTD SVG 1.1//EN" "http://www.w3.org/Graphics/SVG/1.1/DTD/svg11.dtd">
<svg version="1.1" id="Layer_1" xmlns="http://www.w3.org/2000/svg" xmlns:xlink="http://www.w3.org/1999/xlink" x="0px" y="0px"
	 width="70px" height="70px" viewBox="0 0 70 70" enable-background="new 0 0 70 70" xml:space="preserve">
<path fill="#FFF0C9" d="M34.833,69.791c-19.236,0-34.885-15.65-34.885-34.887c0-19.235,15.649-34.883,34.885-34.883
	c19.235,0,34.886,15.648,34.886,34.883C69.719,54.141,54.068,69.791,34.833,69.791z M34.833,2.758
	c-17.726,0-32.148,14.421-32.148,32.146c0,17.728,14.422,32.15,32.148,32.15c17.727,0,32.149-14.423,32.149-32.15
	C66.982,17.179,52.56,2.758,34.833,2.758z"/>
<g>
	<rect x="16.833" y="33.771" fill="#FFF0C9" width="38.78" height="2.75"/>
	<polygon fill="#FFF0C9" points="32.699,52.329 15.269,35.155 32.691,17.733 34.637,19.678 19.173,35.142 34.629,50.37 	"/>
</g>
</svg>
