<?xml version="1.0" encoding="utf-8"?>
<!-- Generator: Adobe Illustrator 16.0.4, SVG Export Plug-In . SVG Version: 6.00 Build 0)  -->
<!DOCTYPE svg PUBLIC "-//W3C//DTD SVG 1.1//EN" "http://www.w3.org/Graphics/SVG/1.1/DTD/svg11.dtd">
<svg version="1.1" id="Layer_1" xmlns="http://www.w3.org/2000/svg" xmlns:xlink="http://www.w3.org/1999/xlink" x="0px" y="0px"
	 width="50px" height="50px" viewBox="0 0 50 50" enable-background="new 0 0 50 50" xml:space="preserve">
<path fill="#565B70" d="M43.39,35.594l-10.87-9.879l1.27-1.415c1.075,0.405,2.208,0.61,3.377,0.61c5.287,0,9.587-4.299,9.587-9.587
	c0-1.533-0.373-3.055-1.074-4.408c-0.176-0.34-0.502-0.576-0.877-0.632c-0.379-0.057-0.76,0.066-1.033,0.337l-4.701,4.703h-1.899
	v-1.901l4.701-4.702c0.272-0.272,0.395-0.651,0.339-1.031c-0.059-0.378-0.294-0.704-0.634-0.879
	c-1.351-0.702-2.876-1.072-4.406-1.072c-5.289,0-9.588,4.298-9.588,9.587c0,1.17,0.205,2.301,0.611,3.375l-1.703,1.53l-5.915-5.378
	c-0.227-0.208-0.352-0.481-0.36-0.779c-0.008-0.296,0.107-0.578,0.326-0.795l5.497-5.496c0.342-0.343,0.445-0.857,0.258-1.306
	c-0.188-0.448-0.624-0.741-1.108-0.741c-0.099,0-2.46,0.002-5.014,0.151c-4.875,0.289-6.064,0.841-6.622,1.397L5.16,15.673
	c-0.224,0.226-0.349,0.53-0.349,0.849v1.197H3.616c-0.318,0-0.623,0.127-0.85,0.351L0.37,20.466c-0.466,0.467-0.466,1.228,0,1.695
	l4.793,4.793c0.468,0.466,1.229,0.466,1.695,0l2.396-2.398c0.227-0.225,0.352-0.53,0.352-0.848v-1.198h1.199
	c0.316,0,0.621-0.128,0.847-0.349l1.9-1.902c0.211-0.211,0.488-0.326,0.77-0.326c0.308,0,0.59,0.13,0.803,0.363l5.076,5.583
	L9.387,35.596c-0.723,0.648-1.129,1.533-1.158,2.488c-0.025,0.954,0.336,1.862,1.025,2.546l2.603,2.603
	c0.662,0.664,1.532,1.029,2.45,1.029c0.031,0,0.064,0,0.096-0.003c0.958-0.028,1.841-0.436,2.488-1.158l9.426-10.489l9.548,10.502
	c0.663,0.729,1.604,1.151,2.578,1.151c0.928,0,1.801-0.366,2.463-1.031l2.602-2.603c0.687-0.685,1.05-1.587,1.027-2.544
	C44.508,37.129,44.107,36.245,43.39,35.594L43.39,35.594L43.39,35.594z M30.708,18.485c-0.487-0.989-0.729-2.054-0.729-3.161
	c0-3.963,3.227-7.19,7.191-7.19c0.582,0,1.146,0.066,1.7,0.201l-3.745,3.747c-0.228,0.226-0.353,0.529-0.353,0.848v3.595
	c0,0.662,0.537,1.198,1.197,1.198h3.596c0.317,0,0.622-0.127,0.847-0.35l3.747-3.747c0.135,0.552,0.203,1.119,0.203,1.7
	c0,3.964-3.229,7.19-7.191,7.19c-1.111,0-2.175-0.248-3.161-0.732c-0.482-0.237-1.065-0.124-1.419,0.277l-1.839,2.043l-2.479-2.253
	l2.164-1.944c0.397-0.359,0.509-0.938,0.274-1.419L30.708,18.485z M14.32,17.541c-0.928,0-1.801,0.366-2.462,1.029l-1.548,1.548
	H8.407c-0.66,0-1.198,0.538-1.198,1.2v1.9l-1.198,1.197l-3.1-3.097l1.198-1.2h1.901c0.659,0,1.198-0.537,1.198-1.197v-1.901
	l8.006-8.005c0.149-0.087,1.101-0.512,5.325-0.746c0.585-0.034,1.16-0.058,1.696-0.077l-3.394,3.392
	c-0.684,0.686-1.049,1.588-1.026,2.545c0.024,0.956,0.431,1.843,1.147,2.495l2.088,1.899L18.8,20.777l-1.9-2.09
	c-0.665-0.728-1.604-1.149-2.578-1.149L14.32,17.541z M15.109,41.501c-0.203,0.229-0.477,0.355-0.767,0.364
	c-0.294,0.007-0.576-0.107-0.791-0.322l-2.603-2.603c-0.215-0.216-0.329-0.496-0.322-0.791c0.01-0.291,0.137-0.564,0.365-0.768
	l10.822-9.728l2.889,3.177l-9.592,10.668V41.501z M41.816,38.94l-2.603,2.603c-0.21,0.211-0.485,0.327-0.77,0.327
	c-0.308,0-0.59-0.131-0.803-0.362L20.412,22.557l2.417-2.417l18.95,17.229c0.229,0.207,0.354,0.481,0.363,0.78
	c0.006,0.295-0.111,0.577-0.326,0.796V38.94z"/>
</svg>
