<?xml version="1.0" encoding="utf-8"?>
<!-- Generator: Adobe Illustrator 16.0.4, SVG Export Plug-In . SVG Version: 6.00 Build 0)  -->
<!DOCTYPE svg PUBLIC "-//W3C//DTD SVG 1.1//EN" "http://www.w3.org/Graphics/SVG/1.1/DTD/svg11.dtd">
<svg version="1.1" id="Layer_1" xmlns="http://www.w3.org/2000/svg" xmlns:xlink="http://www.w3.org/1999/xlink" x="0px" y="0px"
	 width="50px" height="50px" viewBox="0 0 50 50" enable-background="new 0 0 50 50" xml:space="preserve">
<path fill="#565B70" d="M46.332,36.297L34.74,25.762l1.354-1.508c1.146,0.432,2.355,0.651,3.601,0.651
	c5.638,0,10.224-4.585,10.224-10.224c0-1.635-0.397-3.258-1.145-4.701c-0.188-0.363-0.536-0.614-0.935-0.674
	c-0.405-0.061-0.812,0.071-1.102,0.36l-5.014,5.015h-2.026v-2.027l5.014-5.015c0.29-0.29,0.421-0.694,0.361-1.1
	c-0.062-0.403-0.313-0.75-0.676-0.937c-1.44-0.748-3.067-1.143-4.699-1.143c-5.64,0-10.225,4.584-10.225,10.224
	c0,1.248,0.22,2.454,0.652,3.599l-1.815,1.632l-6.309-5.735c-0.242-0.221-0.375-0.514-0.385-0.831
	c-0.008-0.316,0.115-0.616,0.348-0.848l5.862-5.861c0.365-0.366,0.475-0.915,0.274-1.393c-0.199-0.478-0.665-0.79-1.181-0.79
	c-0.105,0-2.624,0.003-5.348,0.161c-5.199,0.308-6.467,0.897-7.061,1.49l-8.946,8.946c-0.239,0.241-0.372,0.565-0.372,0.905v1.277
	H3.916c-0.339,0-0.664,0.136-0.906,0.374l-2.556,2.556c-0.497,0.498-0.497,1.31,0,1.808l5.112,5.112
	c0.499,0.497,1.311,0.497,1.808,0l2.555-2.557c0.242-0.24,0.375-0.565,0.375-0.905v-1.278h1.278c0.338,0,0.663-0.136,0.904-0.372
	l2.026-2.028c0.225-0.225,0.52-0.348,0.821-0.348c0.328,0,0.629,0.139,0.856,0.387l5.413,5.953L10.071,36.3
	c-0.771,0.691-1.205,1.635-1.235,2.653c-0.027,1.018,0.359,1.987,1.093,2.715l2.776,2.776c0.706,0.709,1.634,1.097,2.613,1.097
	c0.033,0,0.068,0,0.102-0.003c1.021-0.03,1.964-0.465,2.653-1.235l10.053-11.186l10.182,11.2c0.707,0.777,1.71,1.227,2.749,1.227
	c0.989,0,1.921-0.39,2.626-1.099l2.775-2.776c0.732-0.729,1.12-1.692,1.096-2.713c-0.028-1.021-0.457-1.964-1.221-2.66V36.297z
	 M32.809,18.052c-0.521-1.055-0.78-2.19-0.78-3.371c0-4.227,3.441-7.668,7.67-7.668c0.621,0,1.222,0.071,1.812,0.215l-3.994,3.995
	c-0.242,0.241-0.375,0.565-0.375,0.905v3.833c0,0.706,0.574,1.278,1.278,1.278h3.834c0.339,0,0.664-0.135,0.903-0.373l3.996-3.996
	c0.143,0.589,0.216,1.194,0.216,1.813c0,4.228-3.443,7.668-7.669,7.668c-1.184,0-2.319-0.264-3.371-0.78
	c-0.515-0.253-1.135-0.132-1.513,0.295l-1.961,2.18l-2.643-2.403l2.307-2.073c0.424-0.383,0.544-1,0.294-1.514L32.809,18.052z
	 M15.331,17.045c-0.989,0-1.921,0.39-2.626,1.097l-1.651,1.651H9.025c-0.704,0-1.277,0.573-1.277,1.279v2.026L6.47,24.375
	l-3.305-3.303l1.278-1.279H6.47c0.703,0,1.278-0.573,1.278-1.277v-2.027l8.537-8.537c0.16-0.093,1.175-0.546,5.68-0.795
	c0.624-0.036,1.236-0.062,1.808-0.082l-3.619,3.617c-0.729,0.731-1.119,1.694-1.095,2.714c0.026,1.02,0.46,1.966,1.224,2.661
	l2.227,2.026l-2.401,2.403l-2.027-2.229c-0.709-0.776-1.711-1.225-2.749-1.225L15.331,17.045z M16.173,42.598
	c-0.216,0.244-0.509,0.378-0.818,0.388c-0.314,0.007-0.614-0.114-0.843-0.344l-2.776-2.776c-0.229-0.229-0.351-0.528-0.344-0.842
	c0.011-0.311,0.146-0.602,0.389-0.819l11.541-10.374l3.08,3.387L16.173,42.595V42.598z M44.655,39.866l-2.776,2.776
	c-0.225,0.225-0.518,0.349-0.821,0.349c-0.327,0-0.629-0.14-0.856-0.386l-18.374-20.21l2.578-2.577l20.209,18.374
	c0.244,0.22,0.378,0.512,0.387,0.832c0.007,0.314-0.118,0.614-0.347,0.848V39.866z"/>
</svg>
