<?xml version="1.0" encoding="utf-8"?>
<!-- Generator: Adobe Illustrator 16.0.4, SVG Export Plug-In . SVG Version: 6.00 Build 0)  -->
<!DOCTYPE svg PUBLIC "-//W3C//DTD SVG 1.1//EN" "http://www.w3.org/Graphics/SVG/1.1/DTD/svg11.dtd">
<svg version="1.1" id="Layer_1" xmlns="http://www.w3.org/2000/svg" xmlns:xlink="http://www.w3.org/1999/xlink" x="0px" y="0px"
	 width="50px" height="50px" viewBox="0 0 50 50" enable-background="new 0 0 50 50" xml:space="preserve">
<g>
	<path fill="#565B70" d="M42.062,49.941H7.935c-2.174,0-3.938-1.768-3.938-3.938V3.997c0-2.171,1.765-3.938,3.938-3.938h34.127
		c2.176,0,3.941,1.768,3.941,3.938v42.007C46.004,48.175,44.236,49.941,42.062,49.941z M7.935,2.684
		c-0.724,0-1.313,0.587-1.313,1.313v42.007c0,0.723,0.587,1.311,1.313,1.311h34.127c0.724,0,1.314-0.588,1.314-1.311V3.997
		c0-0.726-0.592-1.313-1.314-1.313H7.935z"/>
	<path fill="#565B70" d="M21.062,10.56h-7.876c-0.723,0-1.312-0.588-1.312-1.313c0-0.723,0.589-1.312,1.312-1.312h7.878
		c0.722,0,1.312,0.587,1.312,1.312C22.374,9.972,21.785,10.56,21.062,10.56z"/>
	<path fill="#565B70" d="M21.062,15.812h-7.876c-0.723,0-1.312-0.589-1.312-1.313c0-0.726,0.589-1.313,1.312-1.313h7.878
		c0.722,0,1.312,0.588,1.312,1.313C22.374,15.223,21.785,15.812,21.062,15.812z"/>
	<path fill="#565B70" d="M21.062,21.062h-7.876c-0.723,0-1.312-0.588-1.312-1.313c0-0.723,0.589-1.312,1.312-1.312h7.878
		c0.722,0,1.312,0.588,1.312,1.312C22.374,20.475,21.785,21.062,21.062,21.062z"/>
	<path fill="#565B70" d="M21.062,26.314h-7.876c-0.723,0-1.312-0.592-1.312-1.313c0-0.725,0.589-1.313,1.312-1.313h7.878
		c0.722,0,1.312,0.589,1.312,1.313C22.374,25.723,21.785,26.314,21.062,26.314z"/>
	<path fill="#565B70" d="M36.816,31.564h-23.63c-0.723,0-1.312-0.592-1.312-1.312c0-0.727,0.589-1.312,1.312-1.312h23.63
		c0.722,0,1.312,0.588,1.312,1.312C38.128,30.973,37.537,31.564,36.816,31.564z"/>
	<path fill="#565B70" d="M36.816,36.814h-23.63c-0.723,0-1.312-0.59-1.312-1.312c0-0.72,0.589-1.312,1.312-1.312h23.63
		c0.722,0,1.312,0.593,1.312,1.312C38.128,36.227,37.537,36.814,36.816,36.814z"/>
	<path fill="#565B70" d="M36.816,42.066h-23.63c-0.723,0-1.312-0.59-1.312-1.313c0-0.722,0.589-1.313,1.312-1.313h23.63
		c0.722,0,1.312,0.593,1.312,1.313C38.128,41.477,37.537,42.066,36.816,42.066z"/>
	<path fill="#565B70" d="M36.816,26.314H26.314c-0.725,0-1.312-0.592-1.312-1.313V9.246c0-0.723,0.589-1.312,1.312-1.312h10.502
		c0.721,0,1.312,0.587,1.312,1.312v15.753C38.128,25.723,37.537,26.314,36.816,26.314z M27.622,23.686h7.88V10.56h-7.88V23.686z"/>
</g>
</svg>
