<?xml version="1.0" encoding="utf-8"?>
<!-- Generator: Adobe Illustrator 16.0.4, SVG Export Plug-In . SVG Version: 6.00 Build 0)  -->
<!DOCTYPE svg PUBLIC "-//W3C//DTD SVG 1.1//EN" "http://www.w3.org/Graphics/SVG/1.1/DTD/svg11.dtd">
<svg version="1.1" id="Layer_1" xmlns="http://www.w3.org/2000/svg" xmlns:xlink="http://www.w3.org/1999/xlink" x="0px" y="0px"
	 width="50px" height="50px" viewBox="0 0 50 50" enable-background="new 0 0 50 50" xml:space="preserve">
<path fill="#565B70" d="M46.109,9.339H34.932V5.613c0-2.054-1.67-3.725-3.724-3.725H18.79c-2.052,0-3.726,1.671-3.726,3.725v3.726
	H3.888c-2.054,0-3.726,1.671-3.726,3.725v27.325c0,2.053,1.672,3.723,3.726,3.723h42.221c2.056,0,3.729-1.67,3.729-3.723V13.063
	C49.838,11.01,48.165,9.339,46.109,9.339z M17.549,5.613c0-0.685,0.557-1.24,1.241-1.24h12.418c0.687,0,1.245,0.556,1.245,1.24
	v3.726H17.549V5.613z M3.888,11.823h42.221c0.688,0,1.246,0.557,1.246,1.24v18.628h-4.972v-1.24c0-0.686-0.558-1.241-1.241-1.241
	h-4.967c-0.685,0-1.24,0.556-1.24,1.241v1.24H15.064v-1.24c0-0.686-0.558-1.241-1.242-1.241H8.854c-0.685,0-1.243,0.556-1.243,1.241
	v1.24H2.645V13.063C2.645,12.38,3.202,11.823,3.888,11.823z M39.9,31.695v2.481h-2.482v-2.481H39.9z M12.581,31.695v2.481h-2.484
	v-2.481H12.581z M46.109,41.625H3.888c-0.686,0-1.241-0.555-1.241-1.236v-6.211h4.966v1.241c0,0.685,0.559,1.243,1.243,1.243h4.969
	c0.685,0,1.242-0.561,1.242-1.243v-1.241h19.869v1.241c0,0.685,0.56,1.243,1.246,1.243h4.965c0.684,0,1.24-0.561,1.24-1.243v-1.241
	h4.969v6.211C47.355,41.07,46.795,41.625,46.109,41.625z"/>
</svg>
