<?xml version="1.0" encoding="utf-8"?>
<!-- Generator: Adobe Illustrator 16.0.4, SVG Export Plug-In . SVG Version: 6.00 Build 0)  -->
<!DOCTYPE svg PUBLIC "-//W3C//DTD SVG 1.1//EN" "http://www.w3.org/Graphics/SVG/1.1/DTD/svg11.dtd">
<svg version="1.1" id="Layer_1" xmlns="http://www.w3.org/2000/svg" xmlns:xlink="http://www.w3.org/1999/xlink" x="0px" y="0px"
	 width="29px" height="35px" viewBox="0 0 29 35" enable-background="new 0 0 29 35" xml:space="preserve">
<path fill="#C1735B" d="M13,0h2v1h1v1h-1v1h-1V1h-1V0z"/>
<path fill="#E8947A" d="M15,2h1v1h1v1h1v1h1v1h1v1h1v1h1v1h-2v1H10V9H9V8h1V7h1V6h2V5h1V3h1V2z"/>
<path fill="#C1735B" d="M16,2h1v1h-1V2z"/>
<path fill="#C1735B" d="M13,3h1v1h-1V3z"/>
<path fill="#C1735B" d="M17,3h1v1h-1V3z"/>
<path fill="#C1735B" d="M11,4h2v1h-2V4z"/>
<path fill="#E8896C" d="M13,4h1v1h-1V4z"/>
<path fill="#E89D86" d="M15,4h1v1h1v1h1v1h1v1h-1v1h-5V7h1V6h1V4z"/>
<path fill="#C1735B" d="M18,4h1v1h-1V4z"/>
<path fill="#C1735B" d="M9,5h2v1H9V5z"/>
<path fill="#E8896C" d="M11,5h2v1h-2V5z"/>
<path fill="#C1735B" d="M19,5h1v1h-1V5z"/>
<path fill="#C1735B" d="M8,6h1v1H8V6z"/>
<path fill="#E8896C" d="M9,6h2v1h-1v1H9v1h1v1h10V9h2v1h-1v1h3v1h-4v-1H9v1H7v1H6v1h1v1h13v1H6v2h3v1h13v1H7v-1H3v-1H2v-3h3v-1H4v-2
	h1v-1h3v-1H7V8h1V7h1V6z"/>
<path fill="#C1735B" d="M20,6h1v1h-1V6z"/>
<path fill="#C1735B" d="M7,7h1v1H7V7z"/>
<path fill="#C1735B" d="M21,7h1v1h-1V7z"/>
<path fill="#C1735B" d="M6,8h1v2h1v1H5v-1h1V8z"/>
<path fill="#C1735B" d="M22,8h1v2h1v1h-3v-1h1V8z"/>
<path fill="#C1735B" d="M4,11h1v1H4V11z"/>
<path fill="#E8947A" d="M9,11h11v1h5v1h-4v1h-1v1H7v-1H6v-1h1v-1h2V11z"/>
<path fill="#C1735B" d="M24,11h1v1h-1V11z"/>
<path fill="#C1735B" d="M3,12h1v2h1v1H2v-1h1V12z"/>
<path fill="#E89D86" d="M12,12h7v2h-8v-1h1V12z"/>
<path fill="#C1735B" d="M25,12h1v2h1v1h-4v-1h2V12z"/>
<path fill="#E8896C" d="M21,13h4v1h-2v1h4v1h-5v-1h-2v-1h1V13z"/>
<path fill="#C1735B" d="M1,15h1v3h1v1H1V15z"/>
<path fill="#E8947A" d="M20,15h2v1h5v2h-1v1H9v-1H6v-2h14V15z"/>
<path fill="#C1735B" d="M27,15h1v4h-2v-1h1V15z"/>
<path fill="#E89D86" d="M12,17h12v1H12V17z"/>
<path fill="#966B38" d="M0,18h1v3H0V18z"/>
<path fill="#896233" d="M28,18h1v3h-1V18z"/>
<path fill="#B59474" d="M1,19h2v1h4v2H3v-1H1V19z"/>
<path fill="#C1735B" d="M3,19h4v1H3V19z"/>
<path fill="#C1735B" d="M22,19h4v1h-4V19z"/>
<path fill="#A4876B" d="M26,19h2v2h-2v1h-1v-1h-1v-1h2V19z"/>
<path fill="#C1735B" d="M7,20h15v1H7V20z"/>
<path fill="#A4876B" d="M22,20h1v1h-1V20z"/>
<path fill="#AA8C6F" d="M23,20h1v1h-1V20z"/>
<path fill="#966B38" d="M1,21h2v1H1V21z"/>
<path fill="#AA8C6F" d="M7,21h1v1H7V21z"/>
<path fill="#B59474" d="M8,21h1v1H8V21z"/>
<path fill="#AA8C6F" d="M9,21h12v1h1v1H10v-1H9V21z"/>
<path fill="#A4876B" d="M21,21h1v1h-1V21z"/>
<path fill="#AA8C6F" d="M22,21h1v1h-1V21z"/>
<path fill="#A4876B" d="M23,21h1v1h-1V21z"/>
<path fill="#AA8C6F" d="M24,21h1v1h-1V21z"/>
<path fill="#896233" d="M26,21h2v1h-2V21z"/>
<path fill="#453826" d="M1,22h1v2H1V22z"/>
<path fill="#5F4C34" d="M2,22h1v1H2V22z"/>
<path fill="#966B38" d="M3,22h4v1H3V22z"/>
<path fill="#B59474" d="M7,22h1v1H7V22z"/>
<path fill="#AA8C6F" d="M8,22h1v1H8V22z"/>
<path fill="#B59474" d="M9,22h1v1H9V22z"/>
<path fill="#896233" d="M22,22h4v1h-4V22z"/>
<path fill="#50412C" d="M26,22h1v1h-1V22z"/>
<path fill="#292117" d="M27,22h1v2h-1V22z"/>
<path fill="#715C3E" d="M2,23h1v1H2V23z"/>
<path fill="#5F4C34" d="M3,23h1v4H3V23z"/>
<path fill="#715C3E" d="M4,23h1v3h1v5H5v-4H4V23z"/>
<path fill="#5F4C34" d="M5,23h1v3H5V23z"/>
<path fill="#715C3E" d="M6,23h1v1H6V23z"/>
<path fill="#966B38" d="M7,23h3v1H7V23z"/>
<path fill="#896233" d="M10,23h12v1H10V23z"/>
<path fill="#5F4C34" d="M22,23h1v3h-1v4h-1v-6h1V23z"/>
<path fill="#50412C" d="M23,23h1v3h-1V23z"/>
<path fill="#5F4C34" d="M24,23h1v4h-1v4h-1v2h-1v-3h1v-4h1V23z"/>
<path fill="#50412C" d="M25,23h1v4h-1V23z"/>
<path fill="#5F4C34" d="M26,23h1v1h-1V23z"/>
<path fill="#453826" d="M2,24h1v4H2V24z"/>
<path fill="#675339" d="M6,24h1v1H6V24z"/>
<path fill="#715C3E" d="M7,24h1v1H7V24z"/>
<path fill="#5F4C34" d="M8,24h1v4H8V24z"/>
<path fill="#675339" d="M9,24h2v10h-1v-6H9V24z"/>
<path fill="#584730" d="M11,24h1v10h-1V24z"/>
<path fill="#675339" d="M12,24h1v10h-1V24z"/>
<path fill="#584730" d="M13,24h1v10h-1V24z"/>
<path fill="#675339" d="M14,24h1v10h-1V24z"/>
<path fill="#584730" d="M15,24h1v10h-1V24z"/>
<path fill="#5F4C34" d="M16,24h1v1h-1V24z"/>
<path fill="#584730" d="M17,24h1v10h-1V24z"/>
<path fill="#5F4C34" d="M18,24h2v1h-2V24z"/>
<path fill="#584730" d="M20,24h1v4h-1V24z"/>
<path fill="#292117" d="M26,24h1v4h-1V24z"/>
<path fill="#715C3E" d="M6,25h1v1H6V25z"/>
<path fill="#675339" d="M7,25h1v1H7V25z"/>
<path fill="#675339" d="M16,25h1v9h-1V25z"/>
<path fill="#675339" d="M18,25h2v3h-1v4h-1V25z"/>
<path fill="#5F4C34" d="M6,26h1v4H6V26z"/>
<path fill="#715C3E" d="M7,26h1v1H7V26z"/>
<path fill="#50412C" d="M22,26h1v4h-1V26z"/>
<path fill="#715C3E" d="M3,27h1v1H3V27z"/>
<path fill="#5F4C34" d="M4,27h1v4H4V27z"/>
<path fill="#675339" d="M7,27h1v1H7V27z"/>
<path fill="#50412C" d="M24,27h1v4h-1V27z"/>
<path fill="#5F4C34" d="M25,27h1v1h-1V27z"/>
<path fill="#453826" d="M3,28h1v4H3V28z"/>
<path fill="#715C3E" d="M7,28h1v1H7V28z"/>
<path fill="#675339" d="M8,28h1v1H8V28z"/>
<path fill="#5F4C34" d="M9,28h1v6H9V28z"/>
<path fill="#584730" d="M19,28h1v6h-1V28z"/>
<path fill="#675339" d="M20,28h1v2h-1V28z"/>
<path fill="#292117" d="M25,28h1v4h-1V28z"/>
<path fill="#675339" d="M7,29h1v1H7V29z"/>
<path fill="#715C3E" d="M8,29h1v1H8V29z"/>
<path fill="#675339" d="M6,30h1v1H6V30z"/>
<path fill="#5F4C34" d="M7,30h1v3H7V30z"/>
<path fill="#675339" d="M8,30h1v1H8V30z"/>
<path fill="#5F4C34" d="M20,30h1v1h-1V30z"/>
<path fill="#50412C" d="M21,30h1v3h-1V30z"/>
<path fill="#715C3E" d="M4,31h1v1H4V31z"/>
<path fill="#5F4C34" d="M5,31h1v1H5V31z"/>
<path fill="#715C3E" d="M6,31h1v1H6V31z"/>
<path fill="#715C3E" d="M8,31h1v1H8V31z"/>
<path fill="#675339" d="M20,31h1v1h-1V31z"/>
<path fill="#50412C" d="M23,31h1v1h-1V31z"/>
<path fill="#5F4C34" d="M24,31h1v1h-1V31z"/>
<path fill="#453826" d="M4,32h2v1H4V32z"/>
<path fill="#675339" d="M6,32h1v1H6V32z"/>
<path fill="#675339" d="M8,32h1v1H8V32z"/>
<path fill="#5F4C34" d="M18,32h1v1h-1V32z"/>
<path fill="#5F4C34" d="M20,32h1v1h-1V32z"/>
<path fill="#292117" d="M23,32h2v1h-2V32z"/>
<path fill="#453826" d="M6,33h3v1H6V33z"/>
<path fill="#675339" d="M18,33h1v1h-1V33z"/>
<path fill="#292117" d="M20,33h3v1h-3V33z"/>
<path fill="#453826" d="M9,34h11v1H9V34z"/>
</svg>
