<?xml version="1.0" encoding="utf-8"?>
<!-- Generator: Adobe Illustrator 16.0.4, SVG Export Plug-In . SVG Version: 6.00 Build 0)  -->
<!DOCTYPE svg PUBLIC "-//W3C//DTD SVG 1.1//EN" "http://www.w3.org/Graphics/SVG/1.1/DTD/svg11.dtd">
<svg version="1.1" id="Layer_1" xmlns="http://www.w3.org/2000/svg" xmlns:xlink="http://www.w3.org/1999/xlink" x="0px" y="0px"
	 width="19px" height="20px" viewBox="0 0 19 20" enable-background="new 0 0 19 20" xml:space="preserve">
<path fill="#6B5446" d="M8,0h1v1H8V0z"/>
<path fill="#70B35A" d="M9,0h1v2H9V0z"/>
<path fill="#6B952D" d="M10,0h1v2h-1V0z"/>
<path fill="#70B35A" d="M5,1h1v2H5V1z"/>
<path fill="#6B952D" d="M6,1h1v2H6V1z"/>
<path fill="#6B5446" d="M7,1h1v1H7V1z"/>
<path fill="#846556" d="M8,1h1v1H8V1z"/>
<path fill="#685043" d="M11,1h1v1h-1V1z"/>
<path fill="#6B5446" d="M12,1h1v1h-1V1z"/>
<path fill="#6B5446" d="M4,2h1v1H4V2z"/>
<path fill="#685043" d="M7,2h1v1H7V2z"/>
<path fill="#70B35A" d="M8,2h1v2H8V2z"/>
<path fill="#6B952D" d="M9,2h1v2H9V2z"/>
<path fill="#685043" d="M10,2h1v2h-1V2z"/>
<path fill="#7B5F50" d="M11,2h2v3h-1v1h-1v1H9V6h1V4h1V2z"/>
<path fill="#6B5446" d="M13,2h2v1h-2V2z"/>
<path fill="#6B5446" d="M2,3h2v1H2V3z"/>
<path fill="#70B35A" d="M4,3h1v2H4V3z"/>
<path fill="#6B952D" d="M5,3h1v2H5V3z"/>
<path fill="#685043" d="M6,3h1v2H6V3z"/>
<path fill="#846556" d="M7,3h1v1H7V3z"/>
<path fill="#705749" d="M13,3h2v1h2v1h1v1h-1v1h-2v1h-2v1h-2v1H8V8h1V7h2V6h1V5h1V3z"/>
<path fill="#6B5446" d="M15,3h2v1h-2V3z"/>
<path fill="#6B5446" d="M1,4h1v1H1V4z"/>
<path fill="#846556" d="M2,4h2v1H3v1H2V4z"/>
<path fill="#70B35A" d="M7,4h1v2H7V4z"/>
<path fill="#6B952D" d="M8,4h1v2H8V4z"/>
<path fill="#685043" d="M9,4h1v2H9V4z"/>
<path fill="#6B5446" d="M17,4h1v1h-1V4z"/>
<path fill="#5C473C" d="M0,5h1v1h1v1H1v8H0V5z"/>
<path fill="#7E6151" d="M1,5h1v1H1V5z"/>
<path fill="#70B35A" d="M3,5h1v2H3V5z"/>
<path fill="#6B952D" d="M4,5h1v2H4V5z"/>
<path fill="#685043" d="M5,5h1v2H5V5z"/>
<path fill="#846556" d="M6,5h1v1H6V5z"/>
<path fill="#4C3A32" d="M18,5h1v10h-1V7h-1V6h1V5z"/>
<path fill="#7E6151" d="M2,6h1v1H2V6z"/>
<path fill="#70B35A" d="M6,6h1v2H6V6z"/>
<path fill="#6B952D" d="M7,6h1v2H7V6z"/>
<path fill="#685043" d="M8,6h1v2H8V6z"/>
<path fill="#705748" d="M1,7h1v8H1V7z"/>
<path fill="#70B35A" d="M2,7h1v10H2V7z"/>
<path fill="#6B952D" d="M3,7h1v10H3V7z"/>
<path fill="#685043" d="M4,7h1v1H4V7z"/>
<path fill="#846556" d="M5,7h1v1H5V7z"/>
<path fill="#5C473C" d="M15,7h2v1h-2V7z"/>
<path fill="#5F493D" d="M17,7h1v8h-1v1h-2v1h-2v1h-2v1h-1v-2h2v-1h2v-1h1v-1h1v-2h1V7z"/>
<path fill="#5C473C" d="M4,8h1v1H4V8z"/>
<path fill="#70B35A" d="M5,8h1v10H5V8z"/>
<path fill="#6B952D" d="M6,8h1v11H6V8z"/>
<path fill="#685043" d="M7,8h1v1H7V8z"/>
<path fill="#5C473C" d="M13,8h2v1h-2V8z"/>
<path fill="#685043" d="M15,8h2v2h-2v2h-1V9h1V8z"/>
<path fill="#685043" d="M4,9h1v8H4V9z"/>
<path fill="#5C473C" d="M7,9h1v1H7V9z"/>
<path fill="#5C473C" d="M11,9h2v1h-2V9z"/>
<path fill="#705749" d="M13,9h1v2h-1v1h-1v1h-1v1h-1v-3h1v-1h2V9z"/>
<path fill="#685043" d="M7,10h1v8H7V10z"/>
<path fill="#5C473C" d="M8,10h3v1h-1v8h1v1H8v-1h1v-8H8V10z"/>
<path fill="#6B952D" d="M15,10h2v1h-1v1h-1V10z"/>
<path fill="#695243" d="M8,11h1v8H8V11z"/>
<path fill="#6B952D" d="M13,11h1v1h-1V11z"/>
<path fill="#70B25A" d="M16,11h1v1h-1V11z"/>
<path fill="#6B952D" d="M12,12h1v2h-1V12z"/>
<path fill="#70B25A" d="M13,12h3v2h-1v1h-1v-1h-1V12z"/>
<path fill="#685043" d="M11,13h1v1h2v2h-2v1h-2v-3h1V13z"/>
<path fill="#5C473C" d="M1,15h1v1H1V15z"/>
<path fill="#4C3A32" d="M17,15h1v1h-1V15z"/>
<path fill="#4C3A32" d="M15,16h2v1h-2V16z"/>
<path fill="#5C473C" d="M4,17h1v1H4V17z"/>
<path fill="#4C3A32" d="M13,17h2v1h-2V17z"/>
<path fill="#5C473C" d="M7,18h1v1H7V18z"/>
<path fill="#4C3A32" d="M11,18h2v1h-2V18z"/>
</svg>
