<?xml version="1.0" encoding="utf-8"?>
<!-- Generator: Adobe Illustrator 16.0.4, SVG Export Plug-In . SVG Version: 6.00 Build 0)  -->
<!DOCTYPE svg PUBLIC "-//W3C//DTD SVG 1.1//EN" "http://www.w3.org/Graphics/SVG/1.1/DTD/svg11.dtd">
<svg version="1.1" id="Layer_1" xmlns="http://www.w3.org/2000/svg" xmlns:xlink="http://www.w3.org/1999/xlink" x="0px" y="0px"
	 width="19px" height="20px" viewBox="0 0 19 20" enable-background="new 0 0 19 20" xml:space="preserve">
<path fill="#6A5245" d="M7,0h3v1H7V0z"/>
<path fill="#C16F18" d="M10,0h1v1h-1V0z"/>
<path fill="#995813" d="M11,0h1v1h-1V0z"/>
<path fill="#6A5245" d="M5,1h2v1H5V1z"/>
<path fill="#7B5F50" d="M7,1h2v1H7V1z"/>
<path fill="#C16F18" d="M9,1h1v1H9V1z"/>
<path fill="#995813" d="M10,1h1v1h-1V1z"/>
<path fill="#7B5F50" d="M11,1h1v1h-1V1z"/>
<path fill="#C16F18" d="M12,1h1v1h-1V1z"/>
<path fill="#995813" d="M13,1h1v1h-1V1z"/>
<path fill="#6A5245" d="M3,2h2v1H3V2z"/>
<path fill="#7B5F50" d="M5,2h2v1H6v1H5v4H3V3h2V2z"/>
<path fill="#775B4D" d="M7,2h1v1H7V2z"/>
<path fill="#C16F18" d="M8,2h1v1H8V2z"/>
<path fill="#995813" d="M9,2h1v1H9V2z"/>
<path fill="#836655" d="M10,2h1v1h-1V2z"/>
<path fill="#C16F18" d="M11,2h1v1h-1V2z"/>
<path fill="#995813" d="M12,2h1v1h-1V2z"/>
<path fill="#6C5346" d="M13,2h1v1h-1V2z"/>
<path fill="#C16F18" d="M14,2h1v1h-1V2z"/>
<path fill="#995813" d="M15,2h1v1h-1V2z"/>
<path fill="#6A5245" d="M2,3h1v2H2V3z"/>
<path fill="#A07B67" d="M6,3h1v1H6V3z"/>
<path fill="#C16F18" d="M7,3h1v1H7V3z"/>
<path fill="#995813" d="M8,3h1v1H8V3z"/>
<path fill="#836655" d="M9,3h1v1H9V3z"/>
<path fill="#C16F18" d="M10,3h1v1h-1V3z"/>
<path fill="#995813" d="M11,3h1v1h-1V3z"/>
<path fill="#6C5346" d="M12,3h1v1h-1V3z"/>
<path fill="#C16F18" d="M13,3h1v1h-1V3z"/>
<path fill="#995813" d="M14,3h1v1h-1V3z"/>
<path fill="#6C5346" d="M15,3h1v1h-1V3z"/>
<path fill="#6A5245" d="M16,3h1v2h-1V3z"/>
<path fill="#A07B67" d="M5,4h1v2H5V4z"/>
<path fill="#C16F18" d="M6,4h1v2H6V4z"/>
<path fill="#995813" d="M7,4h1v2H7V4z"/>
<path fill="#836655" d="M8,4h1v2H8V4z"/>
<path fill="#C16F18" d="M9,4h1v2H9V4z"/>
<path fill="#995813" d="M10,4h1v2h-1V4z"/>
<path fill="#6C5346" d="M11,4h1v2h-1V4z"/>
<path fill="#C16F18" d="M12,4h1v2h-1V4z"/>
<path fill="#995813" d="M13,4h1v2h-1V4z"/>
<path fill="#6C5346" d="M14,4h1v2h-1V4z"/>
<path fill="#725948" d="M15,4h1v1h1v4h-1v1h-1v1h-1v1h-1V8h1V6h1V4z"/>
<path fill="#6A5245" d="M1,5h1v2H1V5z"/>
<path fill="#775C4C" d="M2,5h1v3h2v1H4v4H2v-1H1V7h1V5z"/>
<path fill="#584439" d="M17,5h1v2h-1V5z"/>
<path fill="#C16F18" d="M5,6h1v3H5V6z"/>
<path fill="#995813" d="M6,6h1v3H6V6z"/>
<path fill="#836655" d="M7,6h1v1H7V6z"/>
<path fill="#C16F18" d="M8,6h1v3H8V6z"/>
<path fill="#995813" d="M9,6h1v3H9V6z"/>
<path fill="#6C5346" d="M10,6h1v3h-1V6z"/>
<path fill="#C16F18" d="M11,6h1v3h-1V6z"/>
<path fill="#995813" d="M12,6h1v3h-1V6z"/>
<path fill="#6C5346" d="M13,6h1v2h-1V6z"/>
<path fill="#6A5245" d="M0,7h1v5H0V7z"/>
<path fill="#7B5F50" d="M7,7h1v2H7V7z"/>
<path fill="#6C5346" d="M17,7h1v5h-1v2h-1v2h-2v1h-2V9h1v3h1v-1h1v-1h1V9h1V7z"/>
<path fill="#584439" d="M18,7h1v5h-1V7z"/>
<path fill="#C16F18" d="M4,9h1v7H4V9z"/>
<path fill="#995813" d="M5,9h1v7H5V9z"/>
<path fill="#775C4C" d="M6,9h1v3H6V9z"/>
<path fill="#C16F18" d="M7,9h1v8H7V9z"/>
<path fill="#995813" d="M8,9h1v8H8V9z"/>
<path fill="#6C5346" d="M9,9h1v8H9V9z"/>
<path fill="#C16F18" d="M10,9h1v8h-1V9z"/>
<path fill="#995813" d="M11,9h1v8h-1V9z"/>
<path fill="#6A5245" d="M1,12h1v2H1V12z"/>
<path fill="#725948" d="M6,12h1v3H6V12z"/>
<path fill="#584439" d="M17,12h1v2h-1V12z"/>
<path fill="#725948" d="M2,13h2v3H3v-2H2V13z"/>
<path fill="#6A5245" d="M2,14h1v2H2V14z"/>
<path fill="#584439" d="M16,14h1v2h-1V14z"/>
<path fill="#6C5346" d="M6,15h1v1H6V15z"/>
<path fill="#44352A" d="M2,16h1v1H2V16z"/>
<path fill="#584439" d="M3,16h2v1H3V16z"/>
<path fill="#C16F18" d="M5,16h1v2H5V16z"/>
<path fill="#8E5112" d="M6,16h1v2H6V16z"/>
<path fill="#584439" d="M14,16h2v1h-2V16z"/>
<path fill="#44352A" d="M16,16h1v1h-1V16z"/>
<path fill="#44352A" d="M3,17h2v1h2v1h6v1H6v-1H4v-1H3V17z"/>
<path fill="#6C5346" d="M7,17h1v1H7V17z"/>
<path fill="#C16F18" d="M8,17h1v2H8V17z"/>
<path fill="#995813" d="M9,17h1v2H9V17z"/>
<path fill="#6C5346" d="M10,17h1v1h-1V17z"/>
<path fill="#C16F18" d="M11,17h1v2h-1V17z"/>
<path fill="#995813" d="M12,17h1v2h-1V17z"/>
<path fill="#584439" d="M13,17h1v1h-1V17z"/>
<path fill="#44352A" d="M14,17h2v1h-1v1h-2v-1h1V17z"/>
<path fill="#584439" d="M7,18h1v1H7V18z"/>
<path fill="#584439" d="M10,18h1v1h-1V18z"/>
</svg>
