<?xml version="1.0" encoding="utf-8"?>
<!-- Generator: Adobe Illustrator 16.0.4, SVG Export Plug-In . SVG Version: 6.00 Build 0)  -->
<!DOCTYPE svg PUBLIC "-//W3C//DTD SVG 1.1//EN" "http://www.w3.org/Graphics/SVG/1.1/DTD/svg11.dtd">
<svg version="1.1" id="Layer_1" xmlns="http://www.w3.org/2000/svg" xmlns:xlink="http://www.w3.org/1999/xlink" x="0px" y="0px"
	 width="19px" height="20px" viewBox="0 0 19 20" enable-background="new 0 0 19 20" xml:space="preserve">
<path fill="#B98A5B" d="M8,0h1v1H8V0z"/>
<path fill="#845639" d="M9,0h2v1H9V0z"/>
<path fill="#B98A5B" d="M6,1h1v1H6V1z"/>
<path fill="#845639" d="M7,1h2v1H7V1z"/>
<path fill="#583A25" d="M9,1h2v1H9V1z"/>
<path fill="#B98A5B" d="M11,1h2v1h-2V1z"/>
<path fill="#B98A5B" d="M4,2h1v1H4V2z"/>
<path fill="#845639" d="M5,2h2v1H5V2z"/>
<path fill="#583A25" d="M7,2h2v1H7V2z"/>
<path fill="#B58659" d="M9,2h2v1H9V2z"/>
<path fill="#845639" d="M11,2h2v1h-2V2z"/>
<path fill="#583A25" d="M13,2h2v1h-2V2z"/>
<path fill="#B98A5B" d="M2,3h1v1H2V3z"/>
<path fill="#845639" d="M3,3h2v1H3V3z"/>
<path fill="#583A25" d="M5,3h2v1H5V3z"/>
<path fill="#B58659" d="M7,3h2v1H7V3z"/>
<path fill="#845639" d="M9,3h2v1H9V3z"/>
<path fill="#583A25" d="M11,3h2v1h-2V3z"/>
<path fill="#B58659" d="M13,3h2v1h-2V3z"/>
<path fill="#B98A5B" d="M15,3h2v1h-2V3z"/>
<path fill="#845639" d="M1,4h2v1H2v1H1V4z"/>
<path fill="#583A25" d="M3,4h2v1H3V4z"/>
<path fill="#B58659" d="M5,4h2v1H5V4z"/>
<path fill="#845639" d="M7,4h2v1H7V4z"/>
<path fill="#583A25" d="M9,4h2v1H9V4z"/>
<path fill="#B58659" d="M11,4h2v1h-2V4z"/>
<path fill="#CCA074" d="M13,4h1v1h-1V4z"/>
<path fill="#845639" d="M14,4h2v1h-2V4z"/>
<path fill="#583A25" d="M16,4h2v1h-2V4z"/>
<path fill="#A27A50" d="M0,5h1v1H0V5z"/>
<path fill="#583A25" d="M2,5h1v1H2V5z"/>
<path fill="#B58659" d="M3,5h2v1H3V5z"/>
<path fill="#845639" d="M5,5h2v1H5V5z"/>
<path fill="#583A25" d="M7,5h2v1H7V5z"/>
<path fill="#B58659" d="M9,5h2v1H9V5z"/>
<path fill="#D7A97B" d="M11,5h1v1h-1V5z"/>
<path fill="#845639" d="M12,5h2v1h-2V5z"/>
<path fill="#583A25" d="M14,5h2v1h-2V5z"/>
<path fill="#B58659" d="M16,5h1v1h-1V5z"/>
<path fill="#CCA074" d="M17,5h1v1h-1V5z"/>
<path fill="#99724B" d="M18,5h1v10h-1V7h-1V6h1V5z"/>
<path fill="#845639" d="M0,6h1v9H0V6z"/>
<path fill="#583A25" d="M1,6h1v10H1V6z"/>
<path fill="#B58659" d="M2,6h1v1H2V6z"/>
<path fill="#845639" d="M3,6h2v1H4v10H3V6z"/>
<path fill="#583A25" d="M5,6h2v1H5V6z"/>
<path fill="#B58659" d="M7,6h2v1H7V6z"/>
<path fill="#D7A97B" d="M9,6h1v1H9V6z"/>
<path fill="#845639" d="M10,6h2v1h-2V6z"/>
<path fill="#583A25" d="M12,6h2v1h-2V6z"/>
<path fill="#B58659" d="M14,6h2v1h-2V6z"/>
<path fill="#CCA074" d="M16,6h1v1h-1V6z"/>
<path fill="#A27A50" d="M2,7h1v1H2V7z"/>
<path fill="#583A25" d="M4,7h1v11H4V7z"/>
<path fill="#B58659" d="M5,7h2v1H5V7z"/>
<path fill="#D7A97B" d="M7,7h1v1H7V7z"/>
<path fill="#845639" d="M8,7h2v1H8V7z"/>
<path fill="#583A25" d="M10,7h2v1h-2V7z"/>
<path fill="#B58659" d="M12,7h2v1h-2V7z"/>
<path fill="#CCA074" d="M14,7h1v1h-1V7z"/>
<path fill="#99724B" d="M15,7h2v1h-2V7z"/>
<path fill="#A87D52" d="M17,7h1v8h-1v1h-2v1h-2v1h-2v1h-1v-2h2v-1h2v-1h2v-1h1V7z"/>
<path fill="#B58659" d="M2,8h1v8H2V8z"/>
<path fill="#A27A50" d="M5,8h1v1H5V8z"/>
<path fill="#845639" d="M6,8h2v1H7v10H6V8z"/>
<path fill="#583A25" d="M8,8h2v1H8V8z"/>
<path fill="#B58659" d="M10,8h2v1h-2V8z"/>
<path fill="#CCA074" d="M12,8h1v1h-1V8z"/>
<path fill="#99724B" d="M13,8h2v1h-2V8z"/>
<path fill="#B58659" d="M15,8h2v1h-1v1h-2V9h1V8z"/>
<path fill="#B58659" d="M5,9h1v8H5V9z"/>
<path fill="#583A25" d="M7,9h1v10H7V9z"/>
<path fill="#B58659" d="M8,9h2v1H8V9z"/>
<path fill="#CCA074" d="M10,9h1v1h-1V9z"/>
<path fill="#99724B" d="M11,9h2v1h-2V9z"/>
<path fill="#C3915F" d="M13,9h1v2h-2v1h-1v2h-1v-3h1v-1h2V9z"/>
<path fill="#623F2A" d="M16,9h1v2h-3v-1h2V9z"/>
<path fill="#A27A50" d="M8,10h3v1h-1v8h1v1H8v-1h1v-8H8V10z"/>
<path fill="#B58659" d="M8,11h1v8H8V11z"/>
<path fill="#623F2A" d="M12,11h2v1h-2V11z"/>
<path fill="#845639" d="M14,11h1v2h-1v1h-1v2h-1v-3h1v-1h1V11z"/>
<path fill="#774D33" d="M15,11h2v3h-1v1h-2v1h-1v-2h1v-1h1V11z"/>
<path fill="#623F2A" d="M11,12h1v4h-1V12z"/>
<path fill="#9B6541" d="M12,12h1v1h-1V12z"/>
<path fill="#B58659" d="M10,14h1v2h1v1h-2V14z"/>
<path fill="#99724B" d="M17,15h1v1h-1V15z"/>
<path fill="#A27A50" d="M2,16h1v1H2V16z"/>
<path fill="#99724B" d="M15,16h2v1h-2V16z"/>
<path fill="#A27A50" d="M5,17h1v1H5V17z"/>
<path fill="#99724B" d="M13,17h2v1h-2V17z"/>
<path fill="#99724B" d="M11,18h2v1h-2V18z"/>
</svg>
