<?xml version="1.0" encoding="utf-8"?>
<!-- Generator: Adobe Illustrator 16.0.4, SVG Export Plug-In . SVG Version: 6.00 Build 0)  -->
<!DOCTYPE svg PUBLIC "-//W3C//DTD SVG 1.1//EN" "http://www.w3.org/Graphics/SVG/1.1/DTD/svg11.dtd">
<svg version="1.1" id="Layer_1" xmlns="http://www.w3.org/2000/svg" xmlns:xlink="http://www.w3.org/1999/xlink" x="0px" y="0px"
	 width="19px" height="20px" viewBox="0 0 19 20" enable-background="new 0 0 19 20" xml:space="preserve">
<path fill="#C0BEAC" d="M7,0h5v1H7V0z"/>
<path fill="#C0BEAC" d="M5,1h2v1H5V1z"/>
<path fill="#F9F6E0" d="M7,1h1v1H7V1z"/>
<path fill="#5F473C" d="M8,1h2v1H9v1H7V2h1V1z"/>
<path fill="#D8D6C1" d="M10,1h2v1h-2V1z"/>
<path fill="#C0BEAC" d="M12,1h2v1h-2V1z"/>
<path fill="#C0BEAC" d="M3,2h2v1H3V2z"/>
<path fill="#F9F6E0" d="M5,2h2v1H6v1H4V3h1V2z"/>
<path fill="#413229" d="M9,2h3v3h-1V3H9V2z"/>
<path fill="#F9F6E0" d="M12,2h1v3h-1V2z"/>
<path fill="#F1EFD7" d="M13,2h1v6h-1v1h-3V8h1V7h1V6h1V2z"/>
<path fill="#C0BEAC" d="M14,2h1v1h-1V2z"/>
<path fill="#413229" d="M15,2h1v1h-1V2z"/>
<path fill="#C0BEAC" d="M2,3h1v2H2V3z"/>
<path fill="#F1EFD7" d="M3,3h1v2H3V3z"/>
<path fill="#FFFFF7" d="M6,3h2v1H7v1H5V4h1V3z"/>
<path fill="#FFFCE5" d="M8,3h2v2H9v1H6v1H5V6H4V5h3V4h1V3z"/>
<path fill="#5F473C" d="M10,3h1v2h-1V3z"/>
<path fill="#E7E5CE" d="M14,3h2v4h-1v1h-1V3z"/>
<path fill="#413229" d="M16,3h1v5h-1V3z"/>
<path fill="#F8F6E0" d="M4,4h1v1H4V4z"/>
<path fill="#C0BEAC" d="M1,5h1v1H1V5z"/>
<path fill="#F1EFD7" d="M2,5h1v1H2V5z"/>
<path fill="#F9F6E0" d="M3,5h1v1h1v1H3V5z"/>
<path fill="#5F473C" d="M9,5h1v1H9V5z"/>
<path fill="#413229" d="M10,5h1v1h-1V5z"/>
<path fill="#F8F6E0" d="M11,5h2v1h-2V5z"/>
<path fill="#AAA998" d="M17,5h1v2h-1V5z"/>
<path fill="#413229" d="M1,6h2v1H1V6z"/>
<path fill="#5F473C" d="M6,6h1v1H6V6z"/>
<path fill="#413229" d="M7,6h3v1H7V6z"/>
<path fill="#F9F6E0" d="M10,6h2v1h-1v1h-1v1H7V8h2V7h1V6z"/>
<path fill="#C0BEAC" d="M0,7h1v4H0V7z"/>
<path fill="#D8D6C1" d="M1,7h2v1H1V7z"/>
<path fill="#413229" d="M3,7h4v1H3V7z"/>
<path fill="#D8D6C1" d="M7,7h2v1H7V7z"/>
<path fill="#5F473C" d="M15,7h1v1h-1V7z"/>
<path fill="#D8D5C1" d="M17,7h1v4h-1v2h-2v1H9v-1h3v-1h1v-1h2v-1h1V9h1V7z"/>
<path fill="#AAA999" d="M18,7h1v4h-1V7z"/>
<path fill="#F1EFD7" d="M1,8h2v1h7v2H5v1H2v-1H1V8z"/>
<path fill="#D8D6C1" d="M3,8h4v1H3V8z"/>
<path fill="#5F473C" d="M13,8h1v1h-1V8z"/>
<path fill="#413229" d="M14,8h2v1h-2V8z"/>
<path fill="#D8D6C1" d="M16,8h1v1h-1V8z"/>
<path fill="#413229" d="M10,9h4v1h-4V9z"/>
<path fill="#D8D6C1" d="M14,9h2v1h-2V9z"/>
<path fill="#D8D6C1" d="M10,10h4v1h-4V10z"/>
<path fill="#E7E5CE" d="M14,10h1v1h-1V10z"/>
<path fill="#4C3A32" d="M0,11h1v1h1v1H1v3h1v1h1v1H1v-1H0V11z"/>
<path fill="#C0BEAC" d="M1,11h1v1H1V11z"/>
<path fill="#E7E5CE" d="M5,11h8v1h-1v1H9v1H4v-1H2v-1h3V11z"/>
<path fill="#D1D0BC" d="M17,11h1v1h-1V11z"/>
<path fill="#4C3A32" d="M18,11h1v6h-1v-4h-1v-1h1V11z"/>
<path fill="#6A5243" d="M1,13h1v1h2v1h1v1H4v1H2v-1H1V13z"/>
<path fill="#4C3A32" d="M2,13h2v1H2V13z"/>
<path fill="#4C3A32" d="M15,13h2v1h-2V13z"/>
<path fill="#5F493D" d="M17,13h1v4h-2v1h-3v1H6v-1h6v-1h3v-1h1v-1h1V13z"/>
<path fill="#4C3A32" d="M4,14h11v1H4V14z"/>
<path fill="#644E40" d="M15,14h2v1h-1v1h-1v1h-3v1H3v-1h1v-1h1v-1h10V14z"/>
<path fill="#4C3A32" d="M16,17h2v1h-2V17z"/>
<path fill="#4C3A32" d="M3,18h3v1H3V18z"/>
<path fill="#4C3A32" d="M13,18h3v1h-3V18z"/>
<path fill="#4C3A32" d="M6,19h7v1H6V19z"/>
</svg>
