<?xml version="1.0" encoding="utf-8"?>
<!-- Generator: Adobe Illustrator 16.0.4, SVG Export Plug-In . SVG Version: 6.00 Build 0)  -->
<!DOCTYPE svg PUBLIC "-//W3C//DTD SVG 1.1//EN" "http://www.w3.org/Graphics/SVG/1.1/DTD/svg11.dtd">
<svg version="1.1" id="Layer_1" xmlns="http://www.w3.org/2000/svg" xmlns:xlink="http://www.w3.org/1999/xlink" x="0px" y="0px"
	 width="19px" height="22px" viewBox="0 0 19 22" enable-background="new 0 0 19 22" xml:space="preserve">
<path fill="#614646" d="M8,0h4v1H8V0z"/>
<path fill="#614646" d="M7,1h1v2H7V1z"/>
<path fill="#7B5959" d="M8,1h2v1H9v1H8V1z"/>
<path fill="#6A4E4E" d="M10,1h2v2H9V2h1V1z"/>
<path fill="#614646" d="M12,1h1v2h-1V1z"/>
<path fill="#E1C99B" d="M5,3h2v1H5V3z"/>
<path fill="#E9CFA2" d="M7,3h1v1H7V3z"/>
<path fill="#614646" d="M8,3h4v1H8V3z"/>
<path fill="#E9CFA2" d="M12,3h1v1h-1V3z"/>
<path fill="#E1C99B" d="M13,3h1v1h-1V3z"/>
<path fill="#8A5A40" d="M3,4h1v1H3V4z"/>
<path fill="#BC7B56" d="M4,4h2v1H4V4z"/>
<path fill="#FEEBC5" d="M6,4h2v1H6V4z"/>
<path fill="#E9CFA2" d="M8,4h4v1H8V4z"/>
<path fill="#FEE2B0" d="M12,4h1v1h-1V4z"/>
<path fill="#BC7B56" d="M13,4h2v1h-2V4z"/>
<path fill="#8A5A40" d="M15,4h1v1h-1V4z"/>
<path fill="#E1C99B" d="M2,5h1v1H2V5z"/>
<path fill="#E9CFA2" d="M3,5h1v1H3V5z"/>
<path fill="#8A5A40" d="M4,5h2v1H4V5z"/>
<path fill="#BC7B56" d="M6,5h7v1H6V5z"/>
<path fill="#8A5A40" d="M13,5h2v1h-2V5z"/>
<path fill="#E9CFA2" d="M15,5h1v1h-1V5z"/>
<path fill="#E1C99B" d="M16,5h1v1h-1V5z"/>
<path fill="#8A5A40" d="M1,6h1v2H1V6z"/>
<path fill="#BC7B56" d="M2,6h1v1h2v1H2V6z"/>
<path fill="#FEE2B0" d="M3,6h1v1H3V6z"/>
<path fill="#E9CFA2" d="M4,6h2v1H4V6z"/>
<path fill="#8A5A40" d="M6,6h7v1H6V6z"/>
<path fill="#E9CFA2" d="M13,6h2v1h-2V6z"/>
<path fill="#EED3A5" d="M15,6h1v1h-1V6z"/>
<path fill="#BC7B56" d="M16,6h1v2h-3V7h2V6z"/>
<path fill="#8A5A40" d="M17,6h1v2h-1V6z"/>
<path fill="#FEEBC5" d="M5,7h1v1H5V7z"/>
<path fill="#E9CFA2" d="M6,7h7v1H6V7z"/>
<path fill="#F5DAA9" d="M13,7h1v1h-1V7z"/>
<path fill="#E1C99B" d="M1,8h1v1H1V8z"/>
<path fill="#8A5A40" d="M2,8h3v1H2V8z"/>
<path fill="#BC7B56" d="M5,8h9v1H5V8z"/>
<path fill="#8A5A40" d="M14,8h3v1h-3V8z"/>
<path fill="#D9C297" d="M17,8h1v1h-1V8z"/>
<path fill="#8A5A40" d="M0,9h1v2H0V9z"/>
<path fill="#BC7B56" d="M1,9h1v1h2v1H1V9z"/>
<path fill="#E9CFA2" d="M2,9h3v1H2V9z"/>
<path fill="#8A5A40" d="M5,9h9v1H5V9z"/>
<path fill="#E9CFA2" d="M14,9h3v1h-3V9z"/>
<path fill="#BC7B56" d="M17,9h1v2h-3v-1h2V9z"/>
<path fill="#8A5A40" d="M18,9h1v2h-1V9z"/>
<path fill="#F5DAA9" d="M4,10h1v1H4V10z"/>
<path fill="#E9CFA2" d="M5,10h9v1H5V10z"/>
<path fill="#EED3A5" d="M14,10h1v1h-1V10z"/>
<path fill="#E1C99B" d="M0,11h1v1H0V11z"/>
<path fill="#8A5A40" d="M1,11h3v1H1V11z"/>
<path fill="#BC7B56" d="M4,11h11v1H4V11z"/>
<path fill="#8A5A40" d="M15,11h3v1h-3V11z"/>
<path fill="#D9C297" d="M18,11h1v1h-1V11z"/>
<path fill="#E1C99C" d="M0,12h1v2H0V12z"/>
<path fill="#E9CFA2" d="M1,12h3v1H1V12z"/>
<path fill="#8A5A40" d="M4,12h11v1H4V12z"/>
<path fill="#E9CFA2" d="M15,12h3v2h-1v2h-1v2h-2v1h-2v1H7v-1H5v-2h4v-1h3v-1h1v-1H4v-1h11V12z"/>
<path fill="#DAC297" d="M18,12h1v2h-1V12z"/>
<path fill="#F5DAAA" d="M1,13h3v1h1v1H2v-1H1V13z"/>
<path fill="#E1C99C" d="M1,14h1v2H1V14z"/>
<path fill="#EED3A5" d="M5,14h8v1h-1v1H9v1H5v1H3v-2H2v-1h3V14z"/>
<path fill="#DAC297" d="M17,14h1v2h-1V14z"/>
<path fill="#E1C99C" d="M2,16h1v2H2V16z"/>
<path fill="#DAC297" d="M16,16h1v2h-1V16z"/>
<path fill="#C4AF88" d="M2,18h1v1H2V18z"/>
<path fill="#DAC297" d="M3,18h2v1H3V18z"/>
<path fill="#DAC297" d="M14,18h2v1h-2V18z"/>
<path fill="#C4AF88" d="M16,18h1v1h-1V18z"/>
<path fill="#C4AF88" d="M3,19h2v1h2v1h5v-1h2v-1h2v1h-1v1h-2v1H6v-1H4v-1H3V19z"/>
<path fill="#DAC297" d="M5,19h2v1H5V19z"/>
<path fill="#DAC297" d="M12,19h2v1h-2V19z"/>
<path fill="#DAC297" d="M7,20h5v1H7V20z"/>
</svg>
