<?xml version="1.0" encoding="utf-8"?>
<!-- Generator: Adobe Illustrator 16.0.4, SVG Export Plug-In . SVG Version: 6.00 Build 0)  -->
<!DOCTYPE svg PUBLIC "-//W3C//DTD SVG 1.1//EN" "http://www.w3.org/Graphics/SVG/1.1/DTD/svg11.dtd">
<svg version="1.1" id="Layer_1" xmlns="http://www.w3.org/2000/svg" xmlns:xlink="http://www.w3.org/1999/xlink" x="0px" y="0px"
	 width="19px" height="20px" viewBox="0 0 19 20" enable-background="new 0 0 19 20" xml:space="preserve">
<path fill="#E4CB9E" d="M8,0h3v1H8V0z"/>
<path fill="#E4CB9E" d="M6,1h2v1H6V1z"/>
<path fill="#FEE7B2" d="M8,1h1v2H8v1H7v1H6v1H1V5h1V4h2V3h2V2h2V1z"/>
<path fill="#F9E2B0" d="M9,1h2v1h2v1H9V1z"/>
<path fill="#E4CB9E" d="M11,1h2v1h-2V1z"/>
<path fill="#E4CB9E" d="M4,2h2v1H4V2z"/>
<path fill="#E4CB9E" d="M13,2h2v1h-2V2z"/>
<path fill="#E4CB9E" d="M2,3h2v1H2V3z"/>
<path fill="#F9E2B0" d="M8,3h1v1H8V3z"/>
<path fill="#8391FB" d="M9,3h1v1h2v1h-1v1h1v1h-2V6H9v1H7V6h1V5H7V4h2V3z"/>
<path fill="#E4CB9E" d="M10,3h3v5H7V7h2V6h1v1h2V6h-1V5h1V4h-2V3z"/>
<path fill="#F2DAA9" d="M13,3h2v1h2v1h1v1h-1v1h-2v1h-2V3z"/>
<path fill="#E4CB9E" d="M15,3h2v1h-2V3z"/>
<path fill="#E4CB9E" d="M1,4h1v1H1V4z"/>
<path fill="#E4CB9E" d="M17,4h1v1h-1V4z"/>
<path fill="#DDC599" d="M0,5h1v1h1v1H1v1H0V5z"/>
<path fill="#F9E2B0" d="M6,5h2v1H7v2H4V7H2V6h4V5z"/>
<path fill="#D5BD93" d="M18,5h1v3h-1V7h-1V6h1V5z"/>
<path fill="#F8DFAE" d="M1,7h1v1h2v2H3V9H1V7z"/>
<path fill="#DDC599" d="M2,7h2v1H2V7z"/>
<path fill="#D5BD93" d="M15,7h2v1h-2V7z"/>
<path fill="#E4CB9E" d="M17,7h1v2h-1V7z"/>
<path fill="#A3ACFD" d="M0,8h1v1H0V8z"/>
<path fill="#DDC599" d="M4,8h2v1H4V8z"/>
<path fill="#F2DAA9" d="M6,8h7v1h-2v1H8V9H6V8z"/>
<path fill="#D5BD93" d="M13,8h2v1h-2V8z"/>
<path fill="#E9CFA2" d="M15,8h2v1h-1v1h-2V9h1V8z"/>
<path fill="#A3ACFD" d="M18,8h1v1h-1V8z"/>
<path fill="#8391FB" d="M0,9h1v1H0V9z"/>
<path fill="#A3ACFD" d="M1,9h2v1H1V9z"/>
<path fill="#F4DBAA" d="M4,9h2v1h1v1H5v-1H4V9z"/>
<path fill="#DDC599" d="M6,9h2v1H6V9z"/>
<path fill="#D5BD93" d="M11,9h2v1h-2V9z"/>
<path fill="#F0D5A6" d="M13,9h1v2h-2v1h-2v-1h1v-1h2V9z"/>
<path fill="#A3ACFD" d="M16,9h2v1h-2V9z"/>
<path fill="#8391FB" d="M18,9h1v1h-1V9z"/>
<path fill="#DDC599" d="M0,10h1v1H0V10z"/>
<path fill="#8391FB" d="M1,10h2v1H1V10z"/>
<path fill="#A3ACFD" d="M3,10h2v1H3V10z"/>
<path fill="#EFD6A6" d="M7,10h1v1h1v1H7V10z"/>
<path fill="#DDC599" d="M8,10h3v1h-1v2H9v-2H8V10z"/>
<path fill="#A3ACFD" d="M14,10h2v1h-2V10z"/>
<path fill="#8391FB" d="M16,10h2v1h-2V10z"/>
<path fill="#DDC599" d="M18,10h1v1h-1V10z"/>
<path fill="#A3ACFD" d="M0,11h1v1H0V11z"/>
<path fill="#E9CFA2" d="M1,11h2v1H1V11z"/>
<path fill="#8391FB" d="M3,11h2v1H3V11z"/>
<path fill="#A3ACFD" d="M5,11h2v1H5V11z"/>
<path fill="#A3ACFD" d="M12,11h2v1h-2V11z"/>
<path fill="#8391FB" d="M14,11h2v1h-2V11z"/>
<path fill="#E9CFA2" d="M16,11h2v1h-2V11z"/>
<path fill="#A3ACFD" d="M18,11h1v1h-1V11z"/>
<path fill="#8391FB" d="M0,12h1v1H0V12z"/>
<path fill="#A3ACFD" d="M1,12h2v1H1V12z"/>
<path fill="#E9CFA2" d="M3,12h2v1H3V12z"/>
<path fill="#8391FB" d="M5,12h2v1H5V12z"/>
<path fill="#A3ACFD" d="M7,12h2v1H7V12z"/>
<path fill="#A3ACFD" d="M10,12h2v1h-2V12z"/>
<path fill="#8391FB" d="M12,12h2v1h-2V12z"/>
<path fill="#E9CFA2" d="M14,12h2v1h-2V12z"/>
<path fill="#A3ACFD" d="M16,12h2v1h-2V12z"/>
<path fill="#8391FB" d="M18,12h1v1h-1V12z"/>
<path fill="#DDC599" d="M0,13h1v2H0V13z"/>
<path fill="#8391FB" d="M1,13h2v1H1V13z"/>
<path fill="#A3ACFD" d="M3,13h2v1H3V13z"/>
<path fill="#E9CFA2" d="M5,13h2v1H5V13z"/>
<path fill="#8391FB" d="M7,13h2v1H7V13z"/>
<path fill="#A3ACFD" d="M9,13h1v1H9V13z"/>
<path fill="#8391FB" d="M10,13h2v1h-2V13z"/>
<path fill="#E9CFA2" d="M12,13h2v1h-2V13z"/>
<path fill="#A3ACFD" d="M14,13h2v1h-2V13z"/>
<path fill="#8391FB" d="M16,13h2v1h-2V13z"/>
<path fill="#D5BD93" d="M18,13h1v2h-1V13z"/>
<path fill="#E9CFA2" d="M1,14h2v1H1V14z"/>
<path fill="#8391FB" d="M3,14h2v1H3V14z"/>
<path fill="#A3ACFD" d="M5,14h2v1H5V14z"/>
<path fill="#E9CFA2" d="M7,14h2v1H7V14z"/>
<path fill="#8391FB" d="M9,14h1v1H9V14z"/>
<path fill="#E9CFA2" d="M10,14h2v1h-2V14z"/>
<path fill="#A3ACFD" d="M12,14h2v1h-2V14z"/>
<path fill="#8391FB" d="M14,14h2v1h-2V14z"/>
<path fill="#E9CFA2" d="M16,14h2v1h-1v1h-2v1h-2v1h-2v1h-1v-2h2v-1h2v-1h2V14z"/>
<path fill="#DDC599" d="M1,15h1v1H1V15z"/>
<path fill="#F8DFAE" d="M2,15h1v1H2V15z"/>
<path fill="#E9CFA2" d="M3,15h2v1H3V15z"/>
<path fill="#8391FB" d="M5,15h2v1H5V15z"/>
<path fill="#A3ACFD" d="M7,15h2v1H7V15z"/>
<path fill="#DDC599" d="M9,15h1v1H9V15z"/>
<path fill="#A3ACFD" d="M10,15h2v1h-2V15z"/>
<path fill="#8391FB" d="M12,15h2v1h-2V15z"/>
<path fill="#D5BD93" d="M17,15h1v1h-1V15z"/>
<path fill="#DDC599" d="M2,16h2v1H2V16z"/>
<path fill="#F4DBAA" d="M4,16h1v1H4V16z"/>
<path fill="#E9CFA2" d="M5,16h2v1H5V16z"/>
<path fill="#8391FB" d="M7,16h2v1H7V16z"/>
<path fill="#A3ACFD" d="M9,16h1v1H9V16z"/>
<path fill="#8391FB" d="M10,16h2v1h-2V16z"/>
<path fill="#D5BD93" d="M15,16h2v1h-2V16z"/>
<path fill="#DDC599" d="M4,17h2v1H4V17z"/>
<path fill="#F4DBAA" d="M6,17h1v1H6V17z"/>
<path fill="#E9CFA2" d="M7,17h2v1H7V17z"/>
<path fill="#8391FB" d="M9,17h1v1H9V17z"/>
<path fill="#D5BD93" d="M13,17h2v1h-2V17z"/>
<path fill="#DDC599" d="M6,18h2v1H6V18z"/>
<path fill="#EFD6A6" d="M8,18h1v1H8V18z"/>
<path fill="#DDC599" d="M9,18h1v1h1v1H8v-1h1V18z"/>
<path fill="#D5BD93" d="M11,18h2v1h-2V18z"/>
</svg>
