<?xml version="1.0" encoding="utf-8"?>
<!-- Generator: Adobe Illustrator 16.0.4, SVG Export Plug-In . SVG Version: 6.00 Build 0)  -->
<!DOCTYPE svg PUBLIC "-//W3C//DTD SVG 1.1//EN" "http://www.w3.org/Graphics/SVG/1.1/DTD/svg11.dtd">
<svg version="1.1" id="Layer_1" xmlns="http://www.w3.org/2000/svg" xmlns:xlink="http://www.w3.org/1999/xlink" x="0px" y="0px"
	 width="19px" height="20px" viewBox="0 0 19 20" enable-background="new 0 0 19 20" xml:space="preserve">
<path fill="#614646" d="M7,0h5v1H7V0z"/>
<path fill="#614646" d="M5,1h2v1H5V1z"/>
<path fill="#715354" d="M7,1h2v1H7V1z"/>
<path fill="#F686BB" d="M9,1h1v1h2v1h-1v1h1v1h-2V4H9v1H7V4h1V3H7V2h2V1z"/>
<path fill="#624748" d="M10,1h2v1h-2V1z"/>
<path fill="#614646" d="M12,1h2v1h-2V1z"/>
<path fill="#614646" d="M3,2h2v1H3V2z"/>
<path fill="#715354" d="M5,2h2v1H6v1H5v3h5V6h2v1h-1v1h-1v1H5V8H3V3h2V2z"/>
<path fill="#624748" d="M12,2h1v4H7V5h2V4h1v1h2V4h-1V3h1V2z"/>
<path fill="#6A4E4E" d="M13,2h1v6h-1v1h-1v1h-1v1H9v1H5v1H2v-1H1V7h1V5h1v3h2v1h5V8h1V7h1V6h1V2z"/>
<path fill="#614646" d="M14,2h2v1h-2V2z"/>
<path fill="#614646" d="M2,3h1v2H2V3z"/>
<path fill="#9A7173" d="M6,3h2v1H7v1H6v1H5V4h1V3z"/>
<path fill="#674B4C" d="M14,3h2v2h1v4h-1v1h-1v1h-1v1h-1v1h-1v1H9v1H5v1H3v-2H2v-1h3v-1h4v-1h2v-1h1V9h1V8h1V3z"/>
<path fill="#614646" d="M16,3h1v2h-1V3z"/>
<path fill="#614646" d="M1,5h1v2H1V5z"/>
<path fill="#7B5959" d="M6,5h1v1h3v1H5V6h1V5z"/>
<path fill="#563E3F" d="M17,5h1v2h-1V5z"/>
<path fill="#614646" d="M0,7h1v5H0V7z"/>
<path fill="#624748" d="M17,7h1v5h-1v2h-1v2h-2v1h-2v1H7v-1H5v-2h4v-1h3v-1h1v-1h1v-1h1v-1h1V9h1V7z"/>
<path fill="#563E3F" d="M18,7h1v5h-1V7z"/>
<path fill="#614646" d="M1,12h1v2H1V12z"/>
<path fill="#563E3F" d="M17,12h1v2h-1V12z"/>
<path fill="#614646" d="M2,14h1v2H2V14z"/>
<path fill="#563E3F" d="M16,14h1v2h-1V14z"/>
<path fill="#3A2C2C" d="M2,16h1v1H2V16z"/>
<path fill="#563E3F" d="M3,16h2v1H3V16z"/>
<path fill="#563E3F" d="M14,16h2v1h-2V16z"/>
<path fill="#3A2C2C" d="M16,16h1v1h-1V16z"/>
<path fill="#3A2C2C" d="M3,17h2v1h2v1h5v-1h2v-1h2v1h-1v1h-2v1H6v-1H4v-1H3V17z"/>
<path fill="#563E3F" d="M5,17h2v1H5V17z"/>
<path fill="#563E3F" d="M12,17h2v1h-2V17z"/>
<path fill="#563E3F" d="M7,18h5v1H7V18z"/>
</svg>
