<?xml version="1.0" encoding="utf-8"?>
<!-- Generator: Adobe Illustrator 16.0.4, SVG Export Plug-In . SVG Version: 6.00 Build 0)  -->
<!DOCTYPE svg PUBLIC "-//W3C//DTD SVG 1.1//EN" "http://www.w3.org/Graphics/SVG/1.1/DTD/svg11.dtd">
<svg version="1.1" id="Layer_1" xmlns="http://www.w3.org/2000/svg" xmlns:xlink="http://www.w3.org/1999/xlink" x="0px" y="0px"
	 width="60px" height="60px" viewBox="0 0 60 60" enable-background="new 0 0 60 60" xml:space="preserve">
<path fill="#FFF1CA" d="M29.966,0C13.416,0,0,13.416,0,29.967c0,16.552,13.416,29.967,29.966,29.967
	c16.553,0,29.968-13.415,29.968-29.967C59.934,13.416,46.519,0,29.966,0z M47.765,47.763c-2.314,2.312-5.005,4.128-8.002,5.396
	c-0.762,0.321-1.536,0.604-2.318,0.849v-4.492c0-2.36-0.811-4.097-2.429-5.209c1.012-0.098,1.943-0.233,2.797-0.41
	c0.846-0.174,1.744-0.429,2.688-0.76c0.948-0.332,1.795-0.727,2.549-1.186c0.749-0.457,1.472-1.054,2.164-1.784
	c0.691-0.732,1.273-1.562,1.742-2.487c0.467-0.928,0.84-2.04,1.11-3.338c0.275-1.297,0.409-2.726,0.409-4.287
	c0-3.023-0.985-5.599-2.956-7.725c0.897-2.341,0.801-4.888-0.292-7.639l-0.731-0.088c-0.506-0.058-1.419,0.157-2.735,0.644
	s-2.797,1.288-4.435,2.4c-2.322-0.644-4.731-0.966-7.227-0.966c-2.516,0-4.917,0.322-7.199,0.966
	c-1.035-0.702-2.016-1.283-2.942-1.741c-0.927-0.459-1.667-0.771-2.224-0.936c-0.557-0.166-1.074-0.268-1.551-0.308
	c-0.477-0.039-0.785-0.049-0.923-0.029c-0.137,0.02-0.234,0.04-0.292,0.059c-1.091,2.771-1.188,5.316-0.291,7.639
	c-1.974,2.126-2.956,4.702-2.956,7.725c0,1.561,0.137,2.99,0.409,4.287c0.271,1.298,0.644,2.41,1.112,3.338
	c0.469,0.925,1.049,1.755,1.741,2.487c0.692,0.73,1.415,1.327,2.167,1.784c0.748,0.459,1.6,0.854,2.543,1.186
	c0.948,0.331,1.843,0.586,2.694,0.76c0.846,0.177,1.778,0.312,2.794,0.41c-1.6,1.094-2.4,2.828-2.4,5.209v4.58
	c-0.884-0.265-1.754-0.574-2.609-0.937c-2.995-1.268-5.689-3.084-8.001-5.396c-2.312-2.313-4.129-5.005-5.395-8.002
	c-1.312-3.1-1.977-6.395-1.977-9.794c0-3.399,0.665-6.694,1.977-9.795c1.266-2.996,3.083-5.689,5.395-8
	c2.312-2.313,5.006-4.128,8.001-5.396c3.1-1.311,6.395-1.976,9.793-1.976c3.4,0,6.697,0.666,9.797,1.976
	c2.997,1.268,5.688,3.083,8.002,5.396c2.312,2.312,4.129,5.005,5.395,8c1.311,3.101,1.975,6.396,1.975,9.795
	c0,3.399-0.664,6.694-1.975,9.794C51.894,42.758,50.076,45.449,47.765,47.763z"/>
</svg>
