<?xml version="1.0" encoding="utf-8"?>
<!-- Generator: Adobe Illustrator 16.0.4, SVG Export Plug-In . SVG Version: 6.00 Build 0)  -->
<!DOCTYPE svg PUBLIC "-//W3C//DTD SVG 1.1//EN" "http://www.w3.org/Graphics/SVG/1.1/DTD/svg11.dtd">
<svg version="1.1" id="Layer_1" xmlns="http://www.w3.org/2000/svg" xmlns:xlink="http://www.w3.org/1999/xlink" x="0px" y="0px"
	 width="60px" height="60px" viewBox="0 0 60 60" enable-background="new 0 0 60 60" xml:space="preserve">
<path fill="#FFF0C9" d="M30.106,0C13.479,0,0,13.479,0,30.106c0,16.628,13.479,30.106,30.106,30.106s30.106-13.479,30.106-30.106
	C60.213,13.479,46.734,0,30.106,0z M48.478,22.126c0.017,0.382,0.025,0.768,0.025,1.155c0,11.797-8.979,25.4-25.4,25.4
	c-5.041,0-9.734-1.479-13.685-4.012c0.698,0.084,1.409,0.125,2.13,0.125c4.182,0,8.031-1.428,11.087-3.821
	c-3.907-0.071-7.203-2.653-8.339-6.2c0.545,0.104,1.104,0.16,1.68,0.16c0.814,0,1.602-0.108,2.352-0.312
	c-4.084-0.82-7.162-4.429-7.162-8.754c0-0.037,0-0.075,0.002-0.112c1.203,0.668,2.58,1.07,4.043,1.116
	c-2.396-1.601-3.971-4.333-3.971-7.431c0-1.636,0.439-3.169,1.208-4.488c4.403,5.401,10.981,8.955,18.4,9.328
	c-0.152-0.654-0.231-1.334-0.231-2.035c0-4.93,3.998-8.927,8.928-8.927c2.568,0,4.888,1.084,6.516,2.819
	c2.034-0.4,3.945-1.143,5.67-2.166c-0.666,2.084-2.082,3.834-3.926,4.938c1.807-0.215,3.527-0.695,5.128-1.405
	C51.735,19.295,50.222,20.868,48.478,22.126z"/>
</svg>
