<?xml version="1.0" encoding="utf-8"?>
<!-- Generator: Adobe Illustrator 16.0.4, SVG Export Plug-In . SVG Version: 6.00 Build 0)  -->
<!DOCTYPE svg PUBLIC "-//W3C//DTD SVG 1.1//EN" "http://www.w3.org/Graphics/SVG/1.1/DTD/svg11.dtd">
<svg version="1.1" id="Layer_1" xmlns="http://www.w3.org/2000/svg" xmlns:xlink="http://www.w3.org/1999/xlink" x="0px" y="0px"
	 width="60px" height="60px" viewBox="0 0 60 60" enable-background="new 0 0 60 60" xml:space="preserve">
<path fill="#FFF0C9" d="M30.106,0C13.479,0,0,13.479,0,30.106c0,16.628,13.479,30.106,30.106,30.106
	c16.626,0,30.106-13.479,30.106-30.106C60.213,13.479,46.734,0,30.106,0z M48.479,22.126c0.017,0.382,0.024,0.768,0.024,1.155
	c0,11.797-8.979,25.4-25.4,25.4c-5.041,0-9.734-1.479-13.685-4.013c0.698,0.084,1.409,0.125,2.13,0.125
	c4.182,0,8.031-1.428,11.087-3.821c-3.907-0.07-7.203-2.652-8.339-6.199c0.545,0.104,1.104,0.16,1.68,0.16
	c0.814,0,1.602-0.108,2.352-0.312c-4.084-0.82-7.162-4.429-7.162-8.754c0-0.037,0-0.075,0.002-0.112
	c1.203,0.668,2.58,1.07,4.043,1.116c-2.396-1.601-3.971-4.333-3.971-7.431c0-1.636,0.439-3.169,1.208-4.488
	c4.403,5.401,10.981,8.955,18.399,9.328c-0.152-0.654-0.23-1.334-0.23-2.035c0-4.93,3.998-8.927,8.928-8.927
	c2.568,0,4.889,1.084,6.516,2.819c2.035-0.4,3.945-1.143,5.67-2.166c-0.666,2.084-2.082,3.834-3.926,4.938
	c1.807-0.215,3.527-0.695,5.129-1.405C51.734,19.295,50.223,20.868,48.479,22.126z"/>
</svg>
