<?xml version="1.0" encoding="utf-8"?>
<!-- Generator: Adobe Illustrator 16.0.4, SVG Export Plug-In . SVG Version: 6.00 Build 0)  -->
<!DOCTYPE svg PUBLIC "-//W3C//DTD SVG 1.1//EN" "http://www.w3.org/Graphics/SVG/1.1/DTD/svg11.dtd">
<svg version="1.1" id="Layer_1" xmlns="http://www.w3.org/2000/svg" xmlns:xlink="http://www.w3.org/1999/xlink" x="0px" y="0px"
	 width="39px" height="23px" viewBox="0 0 39 23" enable-background="new 0 0 39 23" xml:space="preserve">
<path fill="#F86F81" d="M7,0h1v1h1V0h1v2H9v1H8V2H7V0z"/>
<path d="M3,4h1v1H3V4z"/>
<path d="M13,4h1v1h-1V4z"/>
<path d="M2,5h1v3H2V5z"/>
<path fill="#ACA094" d="M3,5h1v1h1v1h1v1h1v1h1V8h1v1h1V8h1V7h1V6h1V5h1v2h1v1h1v7h-1v1h-2v1H4v-1H2v-1H1v-5h1V8h1V5z"/>
<path d="M4,5h1v1H4V5z"/>
<path d="M12,5h1v1h-1V5z"/>
<path d="M14,5h1v2h-1V5z"/>
<path d="M5,6h1v1H5V6z"/>
<path d="M11,6h1v1h-1V6z"/>
<path d="M19,6h7v1h-7V6z"/>
<path d="M6,7h5v1H6V7z"/>
<path d="M15,7h4v1h-4V7z"/>
<path fill="#A4988D" d="M19,7h1v4h1v1h1v-1h1V7h1v5h2v-1h1V8h1v1h1v1h1v6h-1v2h-1v1H3v-1H2v-1H1v-2h1v1h2v1h9v-1h2v-1h1V8h3V7z"/>
<path fill="#50443B" d="M20,7h3v4h-1v1h-1v-1h-1V7z"/>
<path fill="#50443B" d="M24,7h2v1h1v3h-1v1h-2V7z"/>
<path d="M26,7h2v1h-2V7z"/>
<path d="M1,8h1v2H1V8z"/>
<path fill="#50443B" d="M7,8h1v1H7V8z"/>
<path fill="#50443B" d="M9,8h1v1H9V8z"/>
<path d="M28,8h1v1h-1V8z"/>
<path d="M29,9h1v1h-1V9z"/>
<path d="M0,10h1v8H0V10z"/>
<path d="M30,10h1v2h-1V10z"/>
<path d="M4,11h1v1H4V11z"/>
<path d="M12,11h1v1h-1V11z"/>
<path fill="#F86F81" d="M3,12h2v1H3V12z"/>
<path d="M8,12h1v1H8V12z"/>
<path fill="#F86F81" d="M12,12h2v1h-2V12z"/>
<path fill="#978C81" d="M30,12h1v6h-1v1h-1v1h-1v1H4v-1H3v-1h25v-1h1v-2h1V12z"/>
<path d="M31,12h1v1h-1V12z"/>
<path d="M7,13h1v1H7V13z"/>
<path d="M9,13h1v1H9V13z"/>
<path fill="#50443B" d="M31,13h1v3h-1V13z"/>
<path d="M32,13h2v1h-2V13z"/>
<path fill="#8D8379" d="M32,14h1v2h-1V14z"/>
<path fill="#50443B" d="M33,14h1v3h-1V14z"/>
<path d="M34,14h2v1h-2V14z"/>
<path fill="#8D8379" d="M34,15h1v2h-1V15z"/>
<path fill="#50443B" d="M35,15h1v3h-1V15z"/>
<path d="M36,15h1v1h-1V15z"/>
<path d="M31,16h2v1h-1v1h-1V16z"/>
<path fill="#8D8379" d="M36,16h1v3h-1V16z"/>
<path d="M37,16h1v1h-1V16z"/>
<path fill="#978C81" d="M1,17h1v1H1V17z"/>
<path d="M33,17h2v1h-2V17z"/>
<path fill="#50443B" d="M37,17h1v2h-1V17z"/>
<path d="M38,17h1v2h-1V17z"/>
<path d="M1,18h1v1H1V18z"/>
<path fill="#978C81" d="M2,18h1v1H2V18z"/>
<path d="M30,18h1v1h-1V18z"/>
<path d="M35,18h1v1h-1V18z"/>
<path d="M2,19h1v1H2V19z"/>
<path d="M29,19h1v1h-1V19z"/>
<path d="M36,19h2v1h-2V19z"/>
<path d="M3,20h1v1H3V20z"/>
<path d="M28,20h1v1h-1V20z"/>
<path d="M4,21h2v1H4V21z"/>
<path fill="#A4988D" d="M6,21h2v1H6V21z"/>
<path d="M8,21h3v1H8V21z"/>
<path fill="#A4988D" d="M11,21h2v1h-2V21z"/>
<path d="M13,21h7v1h-7V21z"/>
<path fill="#A4988D" d="M20,21h2v1h-2V21z"/>
<path d="M22,21h3v1h-3V21z"/>
<path fill="#A4988D" d="M25,21h2v1h-2V21z"/>
<path d="M27,21h1v1h-1V21z"/>
<path d="M6,22h2v1H6V22z"/>
<path d="M11,22h2v1h-2V22z"/>
<path d="M20,22h2v1h-2V22z"/>
<path d="M25,22h2v1h-2V22z"/>
</svg>
