<?xml version="1.0" encoding="utf-8"?>
<!-- Generator: Adobe Illustrator 16.0.4, SVG Export Plug-In . SVG Version: 6.00 Build 0)  -->
<!DOCTYPE svg PUBLIC "-//W3C//DTD SVG 1.1//EN" "http://www.w3.org/Graphics/SVG/1.1/DTD/svg11.dtd">
<svg version="1.1" id="Layer_1" xmlns="http://www.w3.org/2000/svg" xmlns:xlink="http://www.w3.org/1999/xlink" x="0px" y="0px"
	 width="39px" height="23px" viewBox="0 0 39 23" enable-background="new 0 0 39 23" xml:space="preserve">
<path fill="#F86F81" d="M7,0h1v1h1V0h1v2H9v1H8V2H7V0z"/>
<path d="M3,3h1v1H3V3z"/>
<path d="M13,3h1v1h-1V3z"/>
<path d="M2,4h1v3H2V4z"/>
<path fill="#ACA094" d="M3,4h1v1h1v1h1v1h1v1h1V7h1v1h1V7h1V6h1V5h1V4h1v2h1v1h1v7h-1v1h-2v1H4v-1H2v-1H1V9h1V7h1V4z"/>
<path d="M4,4h1v1H4V4z"/>
<path d="M12,4h1v1h-1V4z"/>
<path d="M14,4h1v2h-1V4z"/>
<path d="M5,5h1v1H5V5z"/>
<path d="M11,5h1v1h-1V5z"/>
<path d="M19,5h7v1h-7V5z"/>
<path d="M6,6h5v1H6V6z"/>
<path d="M15,6h4v1h-4V6z"/>
<path fill="#A4988D" d="M19,6h1v4h1v1h1v-1h1V6h1v5h2v-1h1V7h1v1h1v1h1v6h-1v2h-1v1h-2v1H6v-1H3v-1H2v-1H1v-2h1v1h2v1h9v-1h2v-1h1V7
	h3V6z"/>
<path fill="#50443B" d="M20,6h3v4h-1v1h-1v-1h-1V6z"/>
<path fill="#50443B" d="M24,6h2v1h1v3h-1v1h-2V6z"/>
<path d="M26,6h2v1h-2V6z"/>
<path d="M1,7h1v2H1V7z"/>
<path fill="#50443B" d="M7,7h1v1H7V7z"/>
<path fill="#50443B" d="M9,7h1v1H9V7z"/>
<path d="M28,7h1v1h-1V7z"/>
<path d="M29,8h1v1h-1V8z"/>
<path d="M36,8h2v1h-2V8z"/>
<path d="M0,9h1v8H0V9z"/>
<path d="M30,9h1v2h-1V9z"/>
<path d="M35,9h1v1h-1V9z"/>
<path fill="#8D8379" d="M36,9h1v3h-1V9z"/>
<path fill="#50443B" d="M37,9h1v2h-1V9z"/>
<path d="M38,9h1v2h-1V9z"/>
<path d="M4,10h1v1H4V10z"/>
<path d="M12,10h1v1h-1V10z"/>
<path d="M33,10h2v1h-2V10z"/>
<path fill="#50443B" d="M35,10h1v3h-1V10z"/>
<path fill="#F86F81" d="M3,11h2v1H3V11z"/>
<path d="M8,11h1v1H8V11z"/>
<path fill="#F86F81" d="M12,11h2v1h-2V11z"/>
<path fill="#978C81" d="M30,11h1v6h-1v2h-1v1h-1v1H5v-1H3v-1H2v-2h1v1h3v1h20v-1h2v-1h1v-2h1V11z"/>
<path d="M31,11h2v1h-2V11z"/>
<path fill="#50443B" d="M33,11h1v3h-1V11z"/>
<path fill="#8D8379" d="M34,11h1v2h-1V11z"/>
<path d="M37,11h1v1h-1V11z"/>
<path d="M7,12h1v1H7V12z"/>
<path d="M9,12h1v1H9V12z"/>
<path fill="#50443B" d="M31,12h1v3h-1V12z"/>
<path fill="#8D8379" d="M32,12h1v2h-1V12z"/>
<path d="M36,12h1v1h-1V12z"/>
<path d="M34,13h2v1h-2V13z"/>
<path d="M32,14h2v1h-2V14z"/>
<path d="M31,15h1v2h-1V15z"/>
<path fill="#978C81" d="M1,16h1v1H1V16z"/>
<path d="M1,17h1v2H1V17z"/>
<path d="M30,17h1v2h-1V17z"/>
<path d="M2,19h1v1H2V19z"/>
<path d="M29,19h1v1h-1V19z"/>
<path d="M3,20h2v1H3V20z"/>
<path d="M28,20h1v1h-1V20z"/>
<path d="M5,21h2v1H5V21z"/>
<path fill="#A4988D" d="M7,21h2v1H7V21z"/>
<path d="M9,21h3v1H9V21z"/>
<path fill="#A4988D" d="M12,21h2v1h-2V21z"/>
<path d="M14,21h5v1h-5V21z"/>
<path fill="#A4988D" d="M19,21h2v1h-2V21z"/>
<path d="M21,21h3v1h-3V21z"/>
<path fill="#A4988D" d="M24,21h2v1h-2V21z"/>
<path d="M26,21h2v1h-2V21z"/>
<path d="M7,22h2v1H7V22z"/>
<path d="M12,22h2v1h-2V22z"/>
<path d="M19,22h2v1h-2V22z"/>
<path d="M24,22h2v1h-2V22z"/>
</svg>
