<?xml version="1.0" encoding="utf-8"?>
<!-- Generator: Adobe Illustrator 16.0.4, SVG Export Plug-In . SVG Version: 6.00 Build 0)  -->
<!DOCTYPE svg PUBLIC "-//W3C//DTD SVG 1.1//EN" "http://www.w3.org/Graphics/SVG/1.1/DTD/svg11.dtd">
<svg version="1.1" id="Layer_1" xmlns="http://www.w3.org/2000/svg" xmlns:xlink="http://www.w3.org/1999/xlink" x="0px" y="0px"
	 width="39px" height="23px" viewBox="0 0 39 23" enable-background="new 0 0 39 23" xml:space="preserve">
<path fill="#F86F81" d="M7,0h1v1h1V0h1v2H9v1H8V2H7V0z"/>
<path d="M3,2h1v1H3V2z"/>
<path d="M13,2h1v1h-1V2z"/>
<path d="M2,3h1v3H2V3z"/>
<path fill="#ACA094" d="M3,3h1v1h1v1h1v1h1v1h1V6h1v1h1V6h1V5h1V4h1V3h1v2h1v1h1v7h-1v1h-2v1H4v-1H2v-1H1V8h1V6h1V3z"/>
<path d="M4,3h1v1H4V3z"/>
<path d="M12,3h1v1h-1V3z"/>
<path d="M14,3h1v2h-1V3z"/>
<path d="M5,4h1v1H5V4z"/>
<path d="M11,4h1v1h-1V4z"/>
<path d="M19,4h7v1h-7V4z"/>
<path d="M6,5h5v1H6V5z"/>
<path d="M15,5h4v1h-4V5z"/>
<path fill="#A4988D" d="M19,5h1v4h1v1h1V9h1V5h1v5h2V9h1V6h1v1h1v1h1v6h-1v2h-1v1h-2v1h-2v1H8v-1H6v-1H3v-1H2v-1H1v-2h1v1h2v1h9v-1
	h2v-1h1V6h3V5z"/>
<path fill="#50443B" d="M20,5h3v4h-1v1h-1V9h-1V5z"/>
<path fill="#50443B" d="M24,5h2v1h1v3h-1v1h-2V5z"/>
<path d="M26,5h2v1h-2V5z"/>
<path d="M1,6h1v2H1V6z"/>
<path fill="#50443B" d="M7,6h1v1H7V6z"/>
<path fill="#50443B" d="M9,6h1v1H9V6z"/>
<path d="M28,6h1v1h-1V6z"/>
<path d="M35,6h2v1h-2V6z"/>
<path d="M29,7h1v1h-1V7z"/>
<path d="M34,7h1v3h-2V9h1V7z"/>
<path fill="#8D8379" d="M35,7h2v1h-2V7z"/>
<path d="M37,7h1v4h-1V7z"/>
<path d="M0,8h1v8H0V8z"/>
<path d="M30,8h1v2h-1V8z"/>
<path fill="#50443B" d="M35,8h2v1h-2V8z"/>
<path d="M4,9h1v1H4V9z"/>
<path d="M12,9h1v1h-1V9z"/>
<path fill="#8D8379" d="M35,9h2v2h-1v-1h-1V9z"/>
<path fill="#F86F81" d="M3,10h2v1H3V10z"/>
<path d="M8,10h1v1H8V10z"/>
<path fill="#F86F81" d="M12,10h2v1h-2V10z"/>
<path fill="#978C81" d="M30,10h1v6h-1v2h-1v1h-1v1h-1v1H6v-1H4v-1H3v-1H2v-2h1v1h3v1h2v1h16v-1h2v-1h2v-1h1v-2h1V10z"/>
<path d="M31,10h2v1h-2V10z"/>
<path fill="#50443B" d="M33,10h1v3h-1V10z"/>
<path fill="#8D8379" d="M34,10h1v1h1v1h-2V10z"/>
<path fill="#50443B" d="M35,10h1v1h-1V10z"/>
<path d="M7,11h1v1H7V11z"/>
<path d="M9,11h1v1H9V11z"/>
<path fill="#50443B" d="M31,11h1v3h-1V11z"/>
<path fill="#8D8379" d="M32,11h1v2h-1V11z"/>
<path d="M36,11h1v1h-1V11z"/>
<path d="M34,12h2v1h-2V12z"/>
<path d="M32,13h2v1h-2V13z"/>
<path d="M31,14h1v2h-1V14z"/>
<path fill="#978C81" d="M1,15h1v1H1V15z"/>
<path d="M1,16h1v2H1V16z"/>
<path d="M30,16h1v2h-1V16z"/>
<path d="M2,18h1v1H2V18z"/>
<path d="M29,18h1v1h-1V18z"/>
<path d="M3,19h1v1H3V19z"/>
<path d="M28,19h1v1h-1V19z"/>
<path d="M4,20h2v1H4V20z"/>
<path d="M27,20h1v1h-1V20z"/>
<path d="M6,21h2v1H6V21z"/>
<path fill="#A4988D" d="M8,21h2v1H8V21z"/>
<path d="M10,21h3v1h-3V21z"/>
<path fill="#A4988D" d="M13,21h2v1h-2V21z"/>
<path d="M15,21h3v1h-3V21z"/>
<path fill="#A4988D" d="M18,21h2v1h-2V21z"/>
<path d="M20,21h3v1h-3V21z"/>
<path fill="#A4988D" d="M23,21h2v1h-2V21z"/>
<path d="M25,21h2v1h-2V21z"/>
<path d="M8,22h2v1H8V22z"/>
<path d="M13,22h2v1h-2V22z"/>
<path d="M18,22h2v1h-2V22z"/>
<path d="M23,22h2v1h-2V22z"/>
</svg>
