<?xml version="1.0" encoding="utf-8"?>
<!-- Generator: Adobe Illustrator 16.0.4, SVG Export Plug-In . SVG Version: 6.00 Build 0)  -->
<!DOCTYPE svg PUBLIC "-//W3C//DTD SVG 1.1//EN" "http://www.w3.org/Graphics/SVG/1.1/DTD/svg11.dtd">
<svg version="1.1" id="Layer_1" xmlns="http://www.w3.org/2000/svg" xmlns:xlink="http://www.w3.org/1999/xlink" x="0px" y="0px"
	 width="60px" height="60px" viewBox="0 0 60 60" enable-background="new 0 0 60 60" xml:space="preserve">
<path fill="#575C71" d="M30.002,60c-8.018,0-15.549-3.121-21.218-8.785c-5.671-5.664-8.786-13.198-8.786-21.209
	c0-8.019,3.12-15.546,8.786-21.215C14.448,3.12,21.984,0,30.002,0c8.015,0,15.544,3.12,21.216,8.791
	c5.671,5.668,8.784,13.198,8.784,21.215c0,8.018-3.123,15.545-8.784,21.215C45.548,56.881,38.015,60,30.002,60z M30.002,3.158
	c-14.805,0-26.847,12.039-26.847,26.844c0,14.801,12.042,26.842,26.847,26.842c14.804,0,26.843-12.041,26.843-26.842
	C56.845,15.199,44.806,3.158,30.002,3.158z"/>
<path fill="#575C71" d="M20.524,22.104c-2.61,0-4.735-2.124-4.735-4.737c0-2.612,2.125-4.735,4.735-4.735
	c2.614,0,4.739,2.124,4.739,4.735C25.264,19.98,23.136,22.104,20.524,22.104z M20.524,15.79c-0.867,0-1.578,0.706-1.578,1.577
	c0,0.873,0.711,1.578,1.578,1.578c0.871,0,1.581-0.706,1.581-1.578C22.105,16.496,21.396,15.79,20.524,15.79z"/>
<path fill="#575C71" d="M39.474,22.104c-2.614,0-4.736-2.124-4.736-4.737c0-2.612,2.124-4.735,4.736-4.735
	c2.611,0,4.737,2.124,4.737,4.735C44.211,19.98,42.085,22.104,39.474,22.104z M39.474,15.79c-0.869,0-1.579,0.706-1.579,1.577
	c0,0.873,0.712,1.578,1.579,1.578c0.869,0,1.579-0.706,1.579-1.578C41.053,16.496,40.343,15.79,39.474,15.79z"/>
<path fill="#575C71" d="M48.947,28.423H11.048c-0.866,0-1.576,0.707-1.576,1.58c0,11.32,9.207,20.526,20.528,20.526
	c11.317,0,20.527-9.206,20.527-20.526C50.526,29.13,49.816,28.423,48.947,28.423z M28.421,47.301
	c-2.254-0.207-4.394-0.842-6.315-1.828V31.578h6.315V47.301L28.421,47.301z M31.578,31.578h6.316v13.891
	c-1.923,0.986-4.062,1.619-6.316,1.824V31.578L31.578,31.578z M12.703,31.578h6.243v11.809c-3.471-2.873-5.815-7.068-6.245-11.809
	H12.703z M41.053,43.39V31.578h6.245C46.863,36.318,44.524,40.519,41.053,43.39z"/>
</svg>
