<?xml version="1.0" encoding="utf-8"?>
<!-- Generator: Adobe Illustrator 16.0.4, SVG Export Plug-In . SVG Version: 6.00 Build 0)  -->
<!DOCTYPE svg PUBLIC "-//W3C//DTD SVG 1.1//EN" "http://www.w3.org/Graphics/SVG/1.1/DTD/svg11.dtd">
<svg version="1.1" id="Layer_1" xmlns="http://www.w3.org/2000/svg" xmlns:xlink="http://www.w3.org/1999/xlink" x="0px" y="0px"
	 width="60px" height="60px" viewBox="0 0 60 60" enable-background="new 0 0 60 60" xml:space="preserve">
<path fill="#575C71" d="M52.331,42.766L39.232,30.861l1.531-1.705c1.294,0.489,2.66,0.734,4.069,0.734
	c6.371,0,11.552-5.178,11.552-11.55c0-1.849-0.45-3.682-1.296-5.313c-0.212-0.409-0.604-0.693-1.056-0.761
	c-0.457-0.068-0.915,0.08-1.245,0.407l-5.665,5.667h-2.288v-2.29l5.664-5.666c0.327-0.33,0.477-0.786,0.407-1.244
	c-0.069-0.457-0.353-0.849-0.763-1.06c-1.626-0.845-3.466-1.292-5.309-1.292c-6.373,0-11.554,5.179-11.554,11.552
	c0,1.411,0.248,2.772,0.737,4.066l-2.053,1.844l-7.126-6.48c-0.275-0.25-0.424-0.58-0.436-0.938
	c-0.009-0.357,0.13-0.697,0.395-0.959l6.62-6.622c0.413-0.414,0.539-1.033,0.312-1.572c-0.226-0.542-0.752-0.895-1.337-0.895
	c-0.119,0-2.964,0.004-6.04,0.183c-5.875,0.347-7.31,1.014-7.98,1.685L6.268,18.761c-0.271,0.272-0.421,0.638-0.421,1.023v1.442
	H4.407c-0.383,0-0.753,0.153-1.026,0.423l-2.888,2.887c-0.562,0.564-0.562,1.48,0,2.044l5.777,5.775c0.563,0.562,1.48,0.562,2.043,0
	l2.887-2.89c0.271-0.271,0.422-0.638,0.422-1.022v-1.441h1.444c0.384,0,0.751-0.156,1.022-0.422l2.288-2.291
	c0.255-0.254,0.59-0.393,0.93-0.393c0.369,0,0.71,0.155,0.967,0.436l6.116,6.727l-13.03,11.709c-0.87,0.781-1.361,1.848-1.395,2.998
	c-0.03,1.15,0.407,2.244,1.235,3.066l3.136,3.139c0.798,0.799,1.847,1.238,2.952,1.238c0.036,0,0.077,0,0.115-0.002
	c1.155-0.035,2.218-0.525,2.998-1.396L31.76,39.174l11.505,12.652c0.8,0.879,1.932,1.387,3.106,1.387
	c1.118,0,2.17-0.441,2.967-1.242l3.135-3.137c0.828-0.824,1.266-1.912,1.238-3.064c-0.032-1.154-0.514-2.221-1.379-3.006
	L52.331,42.766L52.331,42.766z M37.051,22.148c-0.588-1.191-0.879-2.475-0.879-3.808c0-4.776,3.888-8.664,8.665-8.664
	c0.701,0,1.381,0.08,2.048,0.242l-4.513,4.515c-0.274,0.273-0.424,0.637-0.424,1.022v4.332c0,0.797,0.646,1.443,1.443,1.443h4.33
	c0.384,0,0.752-0.152,1.021-0.423l4.516-4.513c0.161,0.665,0.243,1.348,0.243,2.048c0,4.777-3.889,8.663-8.664,8.663
	c-1.34,0-2.622-0.299-3.809-0.881c-0.581-0.285-1.285-0.148-1.71,0.336l-2.215,2.46l-2.987-2.714l2.607-2.342
	c0.479-0.433,0.613-1.129,0.332-1.71L37.051,22.148z M17.305,21.011c-1.118,0-2.172,0.442-2.969,1.24l-1.865,1.866h-2.293
	c-0.794,0-1.441,0.648-1.441,1.446v2.289l-1.443,1.441l-3.734-3.73L5,24.116h2.293c0.792,0,1.443-0.647,1.443-1.442v-2.291
	l9.645-9.646c0.181-0.105,1.328-0.617,6.419-0.897c0.704-0.041,1.396-0.07,2.043-0.092l-4.089,4.086
	c-0.826,0.825-1.267,1.913-1.236,3.067c0.027,1.151,0.517,2.22,1.382,3.006l2.513,2.289l-2.711,2.716l-2.289-2.518
	c-0.801-0.876-1.934-1.386-3.105-1.386L17.305,21.011z M18.254,49.883c-0.245,0.277-0.574,0.428-0.925,0.438
	c-0.354,0.01-0.693-0.129-0.952-0.387l-3.136-3.137c-0.26-0.258-0.397-0.598-0.389-0.951c0.013-0.352,0.166-0.682,0.439-0.926
	l13.039-11.721l3.481,3.828L18.254,49.881V49.883z M50.437,46.797L47.3,49.934c-0.253,0.254-0.584,0.395-0.927,0.395
	c-0.373,0-0.711-0.158-0.968-0.436l-20.76-22.836l2.913-2.912l22.833,20.759c0.274,0.252,0.426,0.58,0.436,0.941
	c0.009,0.354-0.132,0.695-0.391,0.957V46.797z"/>
</svg>
