<?xml version="1.0" encoding="utf-8"?>
<!-- Generator: Adobe Illustrator 16.0.4, SVG Export Plug-In . SVG Version: 6.00 Build 0)  -->
<!DOCTYPE svg PUBLIC "-//W3C//DTD SVG 1.1//EN" "http://www.w3.org/Graphics/SVG/1.1/DTD/svg11.dtd">
<svg version="1.1" id="Layer_1" xmlns="http://www.w3.org/2000/svg" xmlns:xlink="http://www.w3.org/1999/xlink" x="0px" y="0px"
	 width="60px" height="60px" viewBox="0 0 60 60" enable-background="new 0 0 60 60" xml:space="preserve">
<g>
	<path fill="#575C71" d="M50.523,60H9.475c-2.615,0-4.737-2.127-4.737-4.737V4.737C4.737,2.125,6.859,0,9.475,0h41.049
		c2.617,0,4.739,2.126,4.739,4.737v50.527C55.264,57.875,53.138,60,50.523,60z M9.475,3.157c-0.872,0-1.58,0.706-1.58,1.58v50.527
		c0,0.869,0.706,1.576,1.58,1.576h41.049c0.87,0,1.58-0.707,1.58-1.576V4.737c0-0.874-0.712-1.58-1.58-1.58H9.475z"/>
	<path fill="#575C71" d="M25.264,12.631h-9.475c-0.869,0-1.577-0.707-1.577-1.579c0-0.87,0.708-1.578,1.577-1.578h9.478
		c0.867,0,1.577,0.706,1.577,1.578C26.842,11.924,26.133,12.631,25.264,12.631z"/>
	<path fill="#575C71" d="M25.264,18.948h-9.475c-0.869,0-1.577-0.708-1.577-1.58c0-0.873,0.708-1.579,1.577-1.579h9.478
		c0.867,0,1.577,0.707,1.577,1.579C26.842,18.24,26.133,18.948,25.264,18.948z"/>
	<path fill="#575C71" d="M25.264,25.263h-9.475c-0.869,0-1.577-0.708-1.577-1.58c0-0.87,0.708-1.578,1.577-1.578h9.478
		c0.867,0,1.577,0.707,1.577,1.578C26.842,24.557,26.133,25.263,25.264,25.263z"/>
	<path fill="#575C71" d="M25.264,31.58h-9.475c-0.869,0-1.577-0.711-1.577-1.579c0-0.872,0.708-1.579,1.577-1.579h9.478
		c0.867,0,1.577,0.708,1.577,1.579C26.842,30.869,26.133,31.58,25.264,31.58z"/>
	<path fill="#575C71" d="M44.213,37.896H15.789c-0.869,0-1.577-0.712-1.577-1.579c0-0.873,0.708-1.578,1.577-1.578h28.424
		c0.868,0,1.578,0.707,1.578,1.578C45.791,37.184,45.08,37.896,44.213,37.896z"/>
	<path fill="#575C71" d="M44.213,44.211H15.789c-0.869,0-1.577-0.71-1.577-1.579c0-0.866,0.708-1.579,1.577-1.579h28.424
		c0.868,0,1.578,0.715,1.578,1.579C45.791,43.504,45.08,44.211,44.213,44.211z"/>
	<path fill="#575C71" d="M44.213,50.527H15.789c-0.869,0-1.577-0.709-1.577-1.58c0-0.867,0.708-1.579,1.577-1.579h28.424
		c0.868,0,1.578,0.714,1.578,1.579C45.791,49.818,45.08,50.527,44.213,50.527z"/>
	<path fill="#575C71" d="M44.213,31.58H31.581c-0.873,0-1.579-0.711-1.579-1.579V11.05c0-0.87,0.709-1.578,1.579-1.578h12.632
		c0.867,0,1.578,0.706,1.578,1.578v18.948C45.791,30.869,45.08,31.58,44.213,31.58z M33.154,28.42h9.478V12.631h-9.478V28.42z"/>
</g>
</svg>
