<?xml version="1.0" encoding="utf-8"?>
<!-- Generator: Adobe Illustrator 16.0.4, SVG Export Plug-In . SVG Version: 6.00 Build 0)  -->
<!DOCTYPE svg PUBLIC "-//W3C//DTD SVG 1.1//EN" "http://www.w3.org/Graphics/SVG/1.1/DTD/svg11.dtd">
<svg version="1.1" id="Layer_1" xmlns="http://www.w3.org/2000/svg" xmlns:xlink="http://www.w3.org/1999/xlink" x="0px" y="0px"
	 width="60px" height="60px" viewBox="0 0 60 60" enable-background="new 0 0 60 60" xml:space="preserve">
<path fill="#575C71" d="M55.496,11.5h-13.5V7c0-2.481-2.018-4.499-4.498-4.499H22.5c-2.479,0-4.501,2.018-4.501,4.499v4.5H4.5
	C2.02,11.5,0,13.518,0,16v33.002c0,2.48,2.02,4.497,4.5,4.497h50.996c2.483,0,4.504-2.017,4.504-4.497V15.999
	C60,13.518,57.979,11.5,55.496,11.5z M21,7c0-0.827,0.674-1.498,1.5-1.498h14.998c0.83,0,1.504,0.672,1.504,1.498v4.5H21V7z
	 M4.5,14.5h50.996c0.831,0,1.506,0.672,1.506,1.498v22.5h-6.006V37c0-0.828-0.674-1.5-1.498-1.5h-6.001C42.67,35.5,42,36.172,42,37
	v1.498H17.999V37c0-0.828-0.675-1.5-1.501-1.5h-6c-0.827,0-1.502,0.672-1.502,1.5v1.498H2.999v-22.5
	C2.999,15.173,3.672,14.5,4.5,14.5z M47.997,38.502v2.996h-2.998v-2.996H47.997z M15,38.502v2.996h-3v-2.996H15z M55.496,50.496H4.5
	c-0.828,0-1.498-0.67-1.498-1.494v-7.501h5.997V43c0,0.826,0.675,1.502,1.501,1.502h6.003c0.827,0,1.499-0.678,1.499-1.502v-1.499
	H42V43c0,0.826,0.678,1.502,1.506,1.502h5.996C50.329,44.502,51,43.824,51,43v-1.499h6.002v7.501
	C57.002,49.826,56.324,50.496,55.496,50.496z"/>
</svg>
