<?xml version="1.0" encoding="utf-8"?>
<!-- Generator: Adobe Illustrator 16.0.4, SVG Export Plug-In . SVG Version: 6.00 Build 0)  -->
<!DOCTYPE svg PUBLIC "-//W3C//DTD SVG 1.1//EN" "http://www.w3.org/Graphics/SVG/1.1/DTD/svg11.dtd">
<svg version="1.1" id="Layer_1" xmlns="http://www.w3.org/2000/svg" xmlns:xlink="http://www.w3.org/1999/xlink" x="0px" y="0px"
	 width="50px" height="50px" viewBox="0 0 50 50" enable-background="new 0 0 50 50" xml:space="preserve">
<g>
	<path fill="#565B70" d="M25.015,50.023c-6.684,0-12.963-2.601-17.69-7.324C2.597,37.977,0,31.696,0,25.017
		c0-6.686,2.601-12.962,7.325-17.688C12.048,2.601,18.331,0,25.015,0c6.682,0,12.96,2.601,17.688,7.329
		c4.728,4.726,7.324,11.004,7.324,17.688s-2.604,12.96-7.324,17.687C37.977,47.423,31.696,50.023,25.015,50.023z M25.015,2.633
		c-12.343,0-22.382,10.037-22.382,22.38c0,12.341,10.039,22.379,22.382,22.379s22.379-10.038,22.379-22.379
		S37.357,2.633,25.015,2.633z"/>
	<path fill="#565B70" d="M17.114,18.429c-2.177,0-3.948-1.771-3.948-3.949c0-2.178,1.771-3.948,3.948-3.948
		c2.179,0,3.95,1.771,3.95,3.948C21.064,16.658,19.291,18.429,17.114,18.429z M17.114,13.164c-0.724,0-1.316,0.589-1.316,1.315
		c0,0.728,0.593,1.316,1.316,1.316c0.726,0,1.317-0.589,1.317-1.316C18.432,13.753,17.84,13.164,17.114,13.164z"/>
	<path fill="#565B70" d="M32.912,18.429c-2.179,0-3.949-1.771-3.949-3.949c0-2.178,1.771-3.948,3.949-3.948
		c2.177,0,3.949,1.771,3.949,3.948C36.861,16.658,35.089,18.429,32.912,18.429z M32.912,13.164c-0.724,0-1.317,0.589-1.317,1.315
		c0,0.728,0.594,1.316,1.317,1.316c0.725,0,1.316-0.589,1.316-1.316C34.229,13.753,33.637,13.164,32.912,13.164z"/>
	<path fill="#565B70" d="M40.811,23.697H9.213c-0.723,0-1.315,0.589-1.315,1.317c0,9.438,7.677,17.114,17.116,17.114
		c9.435,0,17.114-7.676,17.114-17.114C42.127,24.286,41.535,23.697,40.811,23.697z M23.697,39.435
		c-1.879-0.172-3.663-0.701-5.266-1.524V26.327h5.266V39.435z M26.329,26.327h5.266v11.581c-1.603,0.823-3.386,1.351-5.266,1.522
		V26.327z M10.593,26.327h5.205v9.846c-2.894-2.396-4.849-5.894-5.207-9.846H10.593z M34.229,36.175v-9.848h5.206
		C39.073,30.279,37.123,33.781,34.229,36.175z"/>
</g>
</svg>
