<?xml version="1.0" encoding="utf-8"?>
<!-- Generator: Adobe Illustrator 16.0.4, SVG Export Plug-In . SVG Version: 6.00 Build 0)  -->
<!DOCTYPE svg PUBLIC "-//W3C//DTD SVG 1.1//EN" "http://www.w3.org/Graphics/SVG/1.1/DTD/svg11.dtd">
<svg version="1.1" id="Layer_1" xmlns="http://www.w3.org/2000/svg" xmlns:xlink="http://www.w3.org/1999/xlink" x="0px" y="0px"
	 width="185px" height="70px" viewBox="0 0 185 70" enable-background="new 0 0 185 70" xml:space="preserve">
<g>
	<polygon fill="#9DA6BF" points="100.162,44.264 100.167,44.269 100.167,44.265 	"/>
	<path fill="#C9D0E5" d="M138.977,30.553L138.977,30.553L138.977,30.553z"/>
	<path fill="#656F8C" d="M169.481,17.367L169.481,17.367L169.481,17.367z"/>
	<polygon fill="#F8A17B" points="76.864,15.246 61.737,-0.088 61.951,18.795 	"/>
	<polygon fill="#F8A17B" points="93.1,28.999 76.908,28.999 100.206,44.284 	"/>
	<polygon fill="#F8A17B" points="100.206,44.284 108.416,57.81 108.416,22.88 	"/>
	<polygon fill="#F8A17B" points="93.1,44.284 93.1,69.961 100.206,44.284 	"/>
	<polygon fill="#F8A17B" points="76.908,28.999 69.136,44.354 76.864,44.284 	"/>
	<polygon fill="#F8A17B" points="76.864,44.284 67.726,59.987 76.864,69.961 	"/>
	<polygon fill="#F8A17B" points="108.416,15.251 108.416,-0.088 93.1,15.246 	"/>
	<polygon fill="#F8A17B" points="31.241,-0.062 31.312,14.582 36.887,14.454 	"/>
	<polygon fill="#F8A17B" points="0.164,-0.062 15.079,14.582 31.241,-0.062 	"/>
	<polygon fill="#F8A17B" points="15.079,14.582 0.164,14.608 0.164,33.989 	"/>
	<polygon fill="#F8A17B" points="15.079,44.083 0.164,33.989 0.164,55.701 	"/>
	<polygon fill="#F8A17B" points="15.079,55.783 0.164,70.098 31.307,70.098 	"/>
	<polygon fill="#F8A17B" points="31.312,55.783 46.629,70.098 46.629,55.743 	"/>
	<polygon fill="#F8A17B" points="138.982,15.159 132.389,8.604 138.952,30.527 	"/>
	<polygon fill="#F8A17B" points="132.356,41.858 127.993,55.946 138.952,50.547 	"/>
	<polygon fill="#F8A17B" points="162.452,36.891 154.236,15.246 154.236,44.284 	"/>
	<polygon fill="#F8A17B" points="184.803,69.961 184.816,47.89 175.773,60.841 	"/>
	<polygon fill="#F8A17B" points="184.827,17.344 169.481,17.217 169.52,30.527 	"/>
	<polygon fill="#F47A53" points="154.236,15.246 138.982,-0.098 138.982,17.827 	"/>
	<polygon fill="#F47A53" points="87.778,36.134 76.908,28.999 76.864,44.284 	"/>
	<polygon fill="#F47A53" points="93.1,69.961 108.416,57.81 100.206,44.284 	"/>
	<polygon fill="#F47A53" points="69.136,44.354 61.951,18.795 61.951,44.367 	"/>
	<polygon fill="#F47A53" points="67.726,59.987 61.951,69.961 76.864,69.961 	"/>
	<polygon fill="#F47A53" points="108.416,15.251 93.1,15.246 108.416,22.88 	"/>
	<polygon fill="#F47A53" points="92.818,-0.088 76.693,-0.088 76.864,15.246 	"/>
	<polygon fill="#F47A53" points="31.312,22.776 36.887,14.454 31.312,14.582 	"/>
	<polygon fill="#F47A53" points="31.241,-0.062 15.079,14.582 31.312,14.582 	"/>
	<polygon fill="#F47A53" points="15.079,14.582 0.164,33.989 15.079,27.508 	"/>
	<polygon fill="#F47A53" points="0.164,55.701 0.164,70.098 15.079,55.783 	"/>
	<polygon fill="#F47A53" points="31.312,55.783 46.629,55.743 46.629,47.586 	"/>
	<polygon fill="#F47A53" points="138.952,30.527 132.389,8.604 123.7,30.521 	"/>
	<polygon fill="#F47A53" points="123.7,69.876 138.952,69.985 127.993,55.946 	"/>
	<polygon fill="#F47A53" points="123.7,30.521 123.7,46.802 132.356,41.858 	"/>
	<polygon fill="#F47A53" points="138.952,30.527 154.236,44.284 154.242,30.462 	"/>
	<polygon fill="#F47A53" points="184.836,-0.098 169.554,-0.098 184.827,17.344 	"/>
	<polygon fill="#F47A53" points="184.816,47.89 176.456,24.521 169.52,30.527 	"/>
	<polygon fill="#F47A53" points="169.52,69.961 184.816,47.89 169.52,47.89 	"/>
	<polygon fill="#F47A53" points="169.481,17.217 162.452,36.891 169.52,30.527 	"/>
	<polygon fill="#FCC9A2" points="93.1,15.246 93.1,28.999 108.416,22.88 	"/>
	<polygon fill="#FCC9A2" points="76.864,15.246 61.951,18.795 76.908,28.999 	"/>
	<polygon fill="#FCC9A2" points="100.206,44.284 87.778,36.134 76.864,44.284 	"/>
	<polygon fill="#FCC9A2" points="76.864,44.284 61.951,44.367 61.951,69.961 	"/>
	<polygon fill="#FCC9A2" points="92.818,-0.088 83.409,8.954 93.1,15.246 	"/>
	<polygon fill="#FCC9A2" points="15.079,55.783 31.307,70.098 31.312,55.783 	"/>
	<polygon fill="#FCC9A2" points="15.079,27.508 0.164,33.989 15.079,44.083 	"/>
	<polygon fill="#FCC9A2" points="123.7,-0.098 123.7,30.521 132.389,8.604 	"/>
	<polygon fill="#FCC9A2" points="138.952,30.527 123.7,30.521 138.952,50.547 	"/>
	<polygon fill="#FCC9A2" points="127.993,55.946 138.952,69.985 138.952,50.547 	"/>
	<polygon fill="#FCC9A2" points="154.236,15.246 138.952,30.527 154.242,30.462 	"/>
	<polygon fill="#FCC9A2" points="184.816,47.89 184.827,17.344 176.456,24.521 	"/>
	<polygon fill="#FCC9A2" points="169.554,-0.098 154.236,15.246 169.481,17.217 	"/>
	<polygon fill="#FCC9A2" points="31.312,22.776 46.629,22.776 46.629,-0.062 	"/>
	<polygon fill="#FFF0C9" points="138.982,17.827 138.952,30.527 154.236,15.246 	"/>
	<polygon fill="#FFF0C9" points="93.1,15.246 108.416,-0.088 92.818,-0.088 	"/>
	<polygon fill="#FFF0C9" points="76.693,-0.088 61.737,-0.088 76.864,15.246 	"/>
	<polygon fill="#FFF0C9" points="108.416,22.88 93.1,28.999 100.206,44.284 	"/>
	<polygon fill="#FFF0C9" points="93.1,69.961 108.416,69.961 108.416,57.81 	"/>
	<polygon fill="#FFF0C9" points="76.908,28.999 61.951,18.795 69.136,44.354 	"/>
	<polygon fill="#FFF0C9" points="31.241,-0.062 36.887,14.454 46.588,-0.062 	"/>
	<polygon fill="#FFF0C9" points="0.164,-0.062 0.164,14.608 15.079,14.582 	"/>
	<polygon fill="#FFF0C9" points="15.079,44.083 0.164,55.701 15.079,55.783 	"/>
	<polygon fill="#FFF0C9" points="31.312,47.586 31.312,55.783 46.629,47.586 	"/>
	<polygon fill="#FFF0C9" points="31.307,70.098 46.629,70.098 31.312,55.783 	"/>
	<polygon fill="#FFF0C9" points="138.982,-0.098 123.7,-0.098 138.982,15.159 	"/>
	<polygon fill="#FFF0C9" points="132.356,41.858 123.7,46.802 123.7,69.876 	"/>
	<polygon fill="#FFF0C9" points="175.773,60.841 169.52,69.961 184.803,69.961 	"/>
	<polygon fill="#FFF0C9" points="184.827,17.344 169.554,-0.098 169.481,17.217 	"/>
	<polygon fill="#FFF0C9" points="169.52,30.527 169.52,47.89 184.816,47.89 	"/>
	<polygon fill="#FFF0C9" points="154.236,15.246 162.452,36.891 169.481,17.217 	"/>
	<polygon fill="#FFF0C9" points="76.864,15.246 83.409,8.954 93.1,15.246 	"/>
	<polygon fill="#9DA6BF" points="100.162,44.264 100.167,44.269 100.167,44.265 	"/>
	<path fill="#C9D0E5" d="M138.979,30.553L138.979,30.553L138.979,30.553z"/>
	<path fill="#656F8C" d="M169.481,17.367L169.481,17.367L169.481,17.367z"/>
</g>
</svg>
