<?xml version="1.0" encoding="utf-8"?>
<!-- Generator: Adobe Illustrator 16.0.4, SVG Export Plug-In . SVG Version: 6.00 Build 0)  -->
<!DOCTYPE svg PUBLIC "-//W3C//DTD SVG 1.1//EN" "http://www.w3.org/Graphics/SVG/1.1/DTD/svg11.dtd">
<svg version="1.1" id="Layer_1" xmlns="http://www.w3.org/2000/svg" xmlns:xlink="http://www.w3.org/1999/xlink" x="0px" y="0px"
	 width="500px" height="500px" viewBox="0 0 500 500" enable-background="new 0 0 500 500" xml:space="preserve">
<g>
	<path fill="#414042" d="M266.005,238.019c2.5,3.331,4.009,7.502,4.009,11.981c0,2.114-0.405,4.379-1.016,6.291l9.344-19.448
		L266.005,238.019z"/>
	<path fill="#9ABA9A" d="M268.998,256.654c-0.044,0-0.09-0.009-0.134-0.025c-0.178-0.07-0.27-0.267-0.211-0.448
		c0.644-2.013,0.998-4.208,0.998-6.181c0-4.205-1.398-8.383-3.936-11.763c-0.079-0.105-0.095-0.245-0.042-0.365
		c0.053-0.12,0.167-0.202,0.298-0.215l12.337-1.176c0.127-0.015,0.256,0.046,0.332,0.153c0.074,0.107,0.086,0.246,0.029,0.364
		l-9.344,19.449C269.263,256.578,269.134,256.654,268.998,256.654z M266.672,238.319c2.393,3.409,3.705,7.532,3.705,11.681
		c0,1.001-0.087,2.056-0.255,3.116l7.616-15.852L266.672,238.319z"/>
</g>
<g>
	<polygon fill="#414042" points="214.795,225.197 212.036,216.993 202.324,233.766 	"/>
	<path fill="#9ABA9A" d="M202.324,234.129c-0.089,0-0.178-0.033-0.247-0.098c-0.125-0.115-0.152-0.301-0.068-0.447l9.713-16.772
		c0.071-0.123,0.212-0.189,0.35-0.179c0.142,0.014,0.262,0.109,0.308,0.245l2.758,8.203c0.052,0.154-0.005,0.323-0.138,0.415
		l-12.472,8.568C202.467,234.107,202.396,234.129,202.324,234.129z M211.948,217.87l-8.505,14.686l10.92-7.503L211.948,217.87z"/>
</g>
<g>
	<path fill="#414042" d="M202.324,233.766c2.797,1.585,5.216,3.905,6.939,6.879c0.588,1.016,1.099,2.153,1.476,3.221l4.056-18.668
		L202.324,233.766z"/>
	<path fill="#9ABA9A" d="M210.739,244.229c-0.153,0-0.291-0.096-0.342-0.241c-0.385-1.09-0.9-2.213-1.448-3.161
		c-1.629-2.813-3.982-5.146-6.805-6.745c-0.109-0.062-0.178-0.175-0.183-0.3s0.054-0.244,0.157-0.314l12.471-8.568
		c0.122-0.085,0.284-0.086,0.408-0.003c0.124,0.083,0.184,0.232,0.152,0.378l-4.055,18.669c-0.035,0.159-0.17,0.274-0.332,0.285
		C210.755,244.229,210.747,244.229,210.739,244.229z M202.999,233.741c2.713,1.649,4.98,3.963,6.579,6.722
		c0.38,0.657,0.744,1.395,1.063,2.147l3.605-16.596L202.999,233.741z"/>
</g>
<g>
	<path fill="#414042" d="M224.809,219.234c-4.178,0.695-8.805,0.036-12.773-2.241l2.759,8.204L224.809,219.234z"/>
	<path fill="#9ABA9A" d="M214.795,225.56c-0.042,0-0.085-0.007-0.126-0.022c-0.104-0.038-0.183-0.121-0.218-0.225l-2.759-8.204
		c-0.047-0.143-0.002-0.3,0.114-0.396c0.117-0.095,0.28-0.108,0.411-0.034c2.801,1.607,6.045,2.457,9.383,2.457
		c1.059,0,2.12-0.088,3.149-0.26c0.169-0.031,0.34,0.069,0.4,0.233s-0.005,0.347-0.155,0.437l-10.015,5.963
		C214.923,225.542,214.859,225.56,214.795,225.56z M212.674,217.751l2.322,6.904l8.152-4.854
		C219.508,220.082,215.836,219.361,212.674,217.751z"/>
</g>
<g>
	<path fill="#414042" d="M214.795,225.197l-4.056,18.668l14.07-24.631C224.749,219.245,214.795,225.197,214.795,225.197z"/>
	<path fill="#9ABA9A" d="M210.739,244.229c-0.043,0-0.087-0.008-0.13-0.024c-0.167-0.063-0.262-0.24-0.225-0.415l4.056-18.669
		c0.021-0.098,0.082-0.184,0.168-0.234c10.012-5.986,10.048-5.993,10.138-6.009c0.138-0.025,0.279,0.033,0.36,0.148
		c0.081,0.115,0.088,0.267,0.019,0.389l-14.07,24.632C210.988,244.161,210.867,244.229,210.739,244.229z M215.116,225.428
		l-3.521,16.209l12.224-21.4C221.704,221.491,217.237,224.16,215.116,225.428z"/>
</g>
<g>
	<path fill="#414042" d="M210.839,255.777c-1.39,4.259-4.302,8.05-8.498,10.486l9.711,16.771L210.839,255.777z"/>
	<path fill="#9ABA9A" d="M212.053,283.398c-0.127,0-0.249-0.067-0.314-0.182l-9.711-16.772c-0.101-0.173-0.042-0.395,0.131-0.495
		c3.961-2.3,6.922-5.953,8.335-10.285c0.054-0.166,0.224-0.27,0.394-0.246c0.174,0.023,0.306,0.168,0.313,0.343l1.214,27.258
		c0.008,0.168-0.1,0.318-0.261,0.365C212.122,283.394,212.087,283.398,212.053,283.398z M202.835,266.392l8.79,15.18l-1.07-24.019
		C208.973,261.214,206.284,264.303,202.835,266.392z"/>
</g>
<g>
	<path fill="#414042" d="M210.839,255.777l1.214,27.258c2.768-1.605,5.978-2.526,9.402-2.526c0.971,0,1.923,0.075,2.855,0.218
		L210.839,255.777z"/>
	<path fill="#9ABA9A" d="M212.053,283.398c-0.06,0-0.12-0.016-0.174-0.045c-0.111-0.061-0.183-0.176-0.189-0.302l-1.213-27.259
		c-0.008-0.168,0.103-0.32,0.266-0.365c0.163-0.047,0.335,0.027,0.416,0.177l13.472,24.949c0.065,0.121,0.057,0.27-0.023,0.382
		c-0.078,0.112-0.213,0.171-0.351,0.149c-4.144-0.632-8.424,0.177-12.021,2.264C212.179,283.382,212.117,283.398,212.053,283.398z
		 M211.272,257.343l1.117,25.089c3.417-1.843,7.366-2.605,11.264-2.159L211.272,257.343z"/>
</g>
<g>
	<polygon fill="#414042" points="224.311,280.727 227.297,263.704 210.839,255.777 	"/>
	<path fill="#9ABA9A" d="M224.311,281.089c-0.132,0-0.255-0.071-0.319-0.189l-13.472-24.95c-0.075-0.139-0.052-0.309,0.057-0.423
		c0.108-0.114,0.279-0.145,0.419-0.076l16.458,7.927c0.146,0.07,0.228,0.229,0.2,0.39l-2.985,17.022
		c-0.026,0.152-0.147,0.271-0.299,0.296C224.35,281.088,224.331,281.089,224.311,281.089z M211.69,256.59l12.444,23.046
		l2.758-15.725L211.69,256.59z"/>
</g>
<g>
	<path fill="#414042" d="M210.739,243.865c1.292,3.828,1.283,8.194,0.1,11.912l16.458,7.927L210.739,243.865z"/>
	<path fill="#9ABA9A" d="M227.297,264.066c-0.054,0-0.107-0.012-0.158-0.036l-16.457-7.927c-0.163-0.078-0.243-0.265-0.188-0.437
		c1.186-3.728,1.15-7.986-0.098-11.686c-0.056-0.165,0.014-0.347,0.167-0.433c0.151-0.087,0.343-0.049,0.456,0.084l16.557,19.839
		c0.109,0.131,0.113,0.32,0.008,0.455C227.512,264.018,227.406,264.066,227.297,264.066z M211.278,255.586l14.666,7.063
		l-14.386-17.236C212.341,248.729,212.249,252.339,211.278,255.586z"/>
</g>
<g>
	<polygon fill="#414042" points="225.812,236.971 210.739,243.865 226.448,248.422 	"/>
	<path fill="#9ABA9A" d="M226.448,248.784c-0.033,0-0.067-0.004-0.101-0.015l-15.709-4.556c-0.146-0.042-0.25-0.17-0.261-0.322
		c-0.011-0.151,0.073-0.293,0.21-0.356l15.073-6.896c0.109-0.049,0.236-0.041,0.338,0.02c0.104,0.062,0.168,0.171,0.175,0.291
		l0.637,11.451c0.007,0.118-0.044,0.231-0.136,0.305C226.609,248.758,226.53,248.784,226.448,248.784z M211.779,243.789
		l14.279,4.142l-0.578-10.409L211.779,243.789z"/>
</g>
<g>
	<polygon fill="#414042" points="227.297,263.704 226.448,248.422 210.739,243.865 	"/>
	<path fill="#9ABA9A" d="M227.297,264.066c-0.105,0-0.208-0.046-0.279-0.13l-16.557-19.839c-0.103-0.122-0.112-0.297-0.025-0.431
		c0.087-0.135,0.251-0.195,0.405-0.149l15.708,4.556c0.148,0.043,0.253,0.175,0.261,0.328l0.848,15.282
		c0.009,0.156-0.083,0.301-0.229,0.357C227.387,264.059,227.341,264.066,227.297,264.066z M211.779,244.545l15.095,18.086
		l-0.773-13.933L211.779,244.545z"/>
</g>
<g>
	<polygon fill="#414042" points="225.812,236.971 224.809,219.234 210.739,243.865 	"/>
	<path fill="#9ABA9A" d="M210.739,244.229c-0.099,0-0.197-0.041-0.268-0.118c-0.105-0.116-0.125-0.288-0.046-0.425l14.07-24.632
		c0.08-0.139,0.241-0.208,0.398-0.173c0.156,0.037,0.27,0.172,0.279,0.333l1.002,17.736c0.009,0.148-0.075,0.288-0.21,0.35
		l-15.073,6.896C210.842,244.218,210.791,244.229,210.739,244.229z M224.516,220.479l-12.903,22.588l13.822-6.323L224.516,220.479z"
		/>
</g>
<g>
	<path fill="#414042" d="M227.297,263.704l-2.986,17.022c3.982,0.635,7.717,2.6,10.45,5.327L227.297,263.704z"/>
	<path fill="#9ABA9A" d="M234.761,286.417c-0.094,0-0.186-0.036-0.256-0.106c-2.722-2.716-6.458-4.621-10.251-5.226
		c-0.096-0.016-0.181-0.069-0.239-0.147c-0.056-0.08-0.078-0.178-0.062-0.274l2.985-17.021c0.029-0.165,0.165-0.287,0.331-0.3
		c0.17-0.015,0.318,0.09,0.371,0.247l7.465,22.351c0.053,0.159-0.01,0.334-0.153,0.423
		C234.893,286.398,234.828,286.417,234.761,286.417z M224.731,280.43c3.396,0.61,6.618,2.148,9.237,4.396l-6.562-19.648
		L224.731,280.43z"/>
</g>
<g>
	<path fill="#414042" d="M239.782,267.157c-5.864-3.479-9.793-9.861-9.793-17.157c0-0.896,0.059-1.78,0.174-2.646l-2.866,16.35
		L239.782,267.157z"/>
	<path fill="#9ABA9A" d="M239.782,267.52c-0.032,0-0.064-0.004-0.096-0.013l-12.485-3.453c-0.18-0.051-0.293-0.229-0.261-0.412
		l2.867-16.35c0.034-0.194,0.217-0.324,0.413-0.296c0.195,0.03,0.331,0.211,0.305,0.406c-0.114,0.852-0.171,1.725-0.171,2.598
		c0,6.872,3.685,13.327,9.616,16.845c0.157,0.093,0.22,0.287,0.149,0.454C240.058,267.436,239.924,267.52,239.782,267.52z
		 M227.71,263.442l10.014,2.769c-4.521-3.417-7.444-8.614-8.001-14.245L227.71,263.442z"/>
</g>
<g>
	<path fill="#414042" d="M260.11,267.222c-2.948,1.706-6.453,2.73-10.108,2.73c-3.708,0-7.242-1.042-10.22-2.795l5.22,11.386
		L260.11,267.222z"/>
	<path fill="#9ABA9A" d="M245.001,278.906c-0.03,0-0.06-0.004-0.089-0.012c-0.106-0.027-0.195-0.101-0.241-0.2l-5.218-11.386
		c-0.066-0.145-0.031-0.314,0.087-0.421s0.291-0.124,0.427-0.043c3.05,1.796,6.521,2.745,10.036,2.745
		c3.462,0,6.895-0.928,9.927-2.682c0.167-0.098,0.379-0.046,0.485,0.114c0.105,0.16,0.068,0.375-0.085,0.49l-15.109,11.32
		C245.155,278.881,245.079,278.906,245.001,278.906z M240.571,268.008l4.573,9.976l11.923-8.934
		C251.723,271.017,245.634,270.631,240.571,268.008z"/>
</g>
<g>
	<polygon fill="#414042" points="239.782,267.157 227.297,263.704 234.761,286.054 	"/>
	<path fill="#9ABA9A" d="M234.761,286.417c-0.156,0-0.294-0.1-0.344-0.248l-7.465-22.351c-0.042-0.127-0.011-0.267,0.082-0.364
		c0.092-0.097,0.231-0.136,0.36-0.1l12.485,3.452c0.191,0.054,0.305,0.251,0.253,0.443l-5.02,18.897
		c-0.041,0.155-0.179,0.264-0.339,0.27C234.769,286.417,234.765,286.417,234.761,286.417z M227.856,264.235l6.866,20.555
		l4.618-17.379L227.856,264.235z"/>
</g>
<g>
	<polygon fill="#414042" points="239.782,267.157 234.761,286.054 245.001,278.543 	"/>
	<path fill="#9ABA9A" d="M234.761,286.417c-0.071,0-0.143-0.021-0.204-0.063c-0.127-0.087-0.186-0.244-0.146-0.393l5.021-18.897
		c0.04-0.147,0.167-0.255,0.32-0.269c0.15-0.014,0.297,0.071,0.361,0.211l5.218,11.386c0.072,0.157,0.024,0.342-0.115,0.444
		l-10.239,7.511C234.913,286.393,234.837,286.417,234.761,286.417z M239.873,268.227l-4.497,16.927l9.172-6.728L239.873,268.227z"/>
</g>
<g>
	<polygon fill="#414042" points="245.001,278.543 264.94,286.266 266.85,274.201 	"/>
	<path fill="#9ABA9A" d="M264.94,286.628c-0.044,0-0.088-0.008-0.13-0.024l-19.94-7.722c-0.151-0.059-0.245-0.209-0.23-0.37
		c0.014-0.16,0.133-0.293,0.291-0.324l21.85-4.342c0.118-0.024,0.237,0.012,0.323,0.095c0.085,0.082,0.125,0.2,0.106,0.317
		l-1.91,12.063c-0.017,0.109-0.083,0.204-0.177,0.259C265.066,286.611,265.003,286.628,264.94,286.628z M246.296,278.655
		l18.356,7.109l1.757-11.105L246.296,278.655z"/>
</g>
<g>
	<polygon fill="#414042" points="260.11,267.222 245.001,278.543 266.85,274.201 	"/>
	<path fill="#9ABA9A" d="M245.001,278.906c-0.141,0-0.272-0.082-0.332-0.216c-0.069-0.153-0.022-0.336,0.114-0.438l15.109-11.32
		c0.146-0.111,0.351-0.095,0.479,0.037l6.74,6.979c0.092,0.096,0.125,0.233,0.085,0.36c-0.039,0.127-0.146,0.222-0.275,0.247
		l-21.85,4.342C245.048,278.904,245.025,278.906,245.001,278.906z M260.072,267.704l-13.576,10.172l19.631-3.901L260.072,267.704z"
		/>
</g>
<g>
	<path fill="#414042" d="M266.85,274.201l-1.91,12.064c2.371-2.428,5.365-4.159,8.552-5.023l0.096-0.062L266.85,274.201z"/>
	<path fill="#9ABA9A" d="M264.94,286.628c-0.055,0-0.11-0.013-0.162-0.038c-0.142-0.071-0.221-0.226-0.196-0.381l1.91-12.064
		c0.021-0.136,0.119-0.248,0.249-0.289c0.13-0.042,0.274-0.005,0.37,0.094l6.739,6.979c0.075,0.078,0.111,0.187,0.099,0.295
		c-0.013,0.108-0.074,0.205-0.167,0.264l-0.097,0.061c-0.031,0.02-0.063,0.034-0.099,0.044c-3.182,0.863-6.083,2.567-8.387,4.927
		C265.13,286.591,265.036,286.628,264.94,286.628z M267.095,274.977l-1.626,10.273c2.136-1.95,4.69-3.397,7.464-4.227
		L267.095,274.977z"/>
</g>
<g>
	<path fill="#414042" d="M273.589,281.181l-0.096,0.062c0.041-0.012,0.081-0.024,0.122-0.034L273.589,281.181z"/>
	<path fill="#9ABA9A" d="M273.523,281.595c-0.144,0-0.285-0.078-0.344-0.21c-0.074-0.165-0.033-0.354,0.12-0.45l0.096-0.061
		c0.146-0.092,0.338-0.068,0.458,0.057c0.087,0.094,0.133,0.24,0.098,0.363s-0.12,0.232-0.244,0.265l-0.079,0.021
		C273.593,281.591,273.559,281.595,273.523,281.595z"/>
</g>
<g>
	<polygon fill="#414042" points="245.001,278.543 234.761,286.054 264.94,286.266 	"/>
	<path fill="#9ABA9A" d="M264.94,286.628c0,0-0.001,0-0.002,0l-30.179-0.211c-0.157-0.001-0.294-0.103-0.342-0.251
		c-0.048-0.149,0.004-0.312,0.13-0.405l10.24-7.511c0.101-0.072,0.23-0.089,0.346-0.045l19.939,7.722
		c0.164,0.063,0.258,0.234,0.226,0.406C265.264,286.505,265.115,286.628,264.94,286.628z M235.859,285.699l27.104,0.189
		l-17.908-6.936L235.859,285.699z"/>
</g>
<g>
	<path fill="#414042" d="M240.302,200.729c0.025,3.215-0.78,6.475-2.507,9.455c-0.16,0.276-0.554,0.891-0.727,1.156l22.642-10.587
		L240.302,200.729z"/>
	<path fill="#9ABA9A" d="M237.068,211.703c-0.103,0-0.204-0.043-0.274-0.125c-0.106-0.122-0.119-0.3-0.03-0.436
		c0.17-0.262,0.559-0.867,0.717-1.14c1.634-2.82,2.484-6.026,2.458-9.271c-0.001-0.097,0.038-0.19,0.105-0.26
		c0.068-0.067,0.161-0.106,0.257-0.106l0,0l19.409,0.024c0.169,0,0.317,0.118,0.354,0.284c0.036,0.166-0.047,0.335-0.201,0.407
		l-22.643,10.588C237.172,211.692,237.12,211.703,237.068,211.703z M240.665,201.093c-0.038,3.248-0.918,6.447-2.555,9.273
		c-0.021,0.035-0.045,0.075-0.072,0.12l20.045-9.373L240.665,201.093z"/>
</g>
<g>
	<path fill="#414042" d="M262.965,211.316c-2.044-3.019-3.255-6.639-3.255-10.562l-22.642,10.587L262.965,211.316z"/>
	<path fill="#9ABA9A" d="M237.068,211.703c-0.17,0-0.317-0.117-0.354-0.283s0.046-0.336,0.201-0.408l22.642-10.587
		c0.113-0.052,0.244-0.044,0.349,0.022s0.168,0.182,0.168,0.307c0,3.693,1.104,7.274,3.192,10.359
		c0.075,0.11,0.083,0.255,0.02,0.373c-0.063,0.118-0.186,0.193-0.32,0.193L237.068,211.703L237.068,211.703z M259.356,201.319
		l-20.652,9.657l23.591-0.022C260.466,208.041,259.456,204.734,259.356,201.319z"/>
</g>
<g>
	<path fill="#414042" d="M224.809,219.234l14.427,13.943l-2.168-21.837C234.144,215.582,229.622,218.381,224.809,219.234z"/>
	<path fill="#9ABA9A" d="M239.236,233.54c-0.092,0-0.183-0.035-0.252-0.102l-14.427-13.943c-0.098-0.095-0.134-0.236-0.095-0.366
		c0.04-0.131,0.149-0.228,0.283-0.252c4.84-0.858,9.222-3.68,12.024-7.742c0.086-0.126,0.242-0.183,0.389-0.146
		c0.147,0.038,0.256,0.164,0.271,0.315l2.169,21.837c0.015,0.151-0.066,0.297-0.203,0.362
		C239.344,233.528,239.29,233.54,239.236,233.54z M225.561,219.456l13.216,12.773l-1.976-19.905
		C234.026,215.94,230.004,218.496,225.561,219.456z"/>
</g>
<g>
	<path fill="#414042" d="M237.068,211.341l2.168,21.837c3.078-1.944,6.798-3.117,10.709-3.13L237.068,211.341z"/>
	<path fill="#9ABA9A" d="M239.236,233.54c-0.054,0-0.108-0.012-0.159-0.037c-0.113-0.055-0.189-0.164-0.202-0.29l-2.168-21.837
		c-0.016-0.164,0.081-0.319,0.236-0.376s0.33-0.002,0.423,0.135l12.877,18.707c0.077,0.11,0.085,0.255,0.023,0.374
		c-0.062,0.12-0.186,0.194-0.321,0.195c-3.714,0.011-7.351,1.074-10.517,3.073C239.371,233.521,239.304,233.54,239.236,233.54z
		 M237.568,212.707l1.972,19.859c2.965-1.76,6.302-2.743,9.724-2.868L237.568,212.707z"/>
</g>
<g>
	<path fill="#414042" d="M249.945,230.048l13.02-18.731c0,0-25.892,0.017-25.897,0.024
		C237.068,211.341,249.943,230.048,249.945,230.048z"/>
	<path fill="#9ABA9A" d="M249.945,230.411c-0.192,0-0.192,0-6.739-9.511l-6.438-9.354c-0.087-0.127-0.085-0.295,0.006-0.42
		c0.114-0.157,0.114-0.157,26.19-0.174c0,0,0,0,0,0c0.135,0,0.259,0.075,0.321,0.194c0.063,0.12,0.054,0.265-0.023,0.376
		l-13.02,18.731C250.175,230.353,250.064,230.411,249.945,230.411z M237.756,211.701c1.937,2.813,10.486,15.236,12.19,17.709
		l12.325-17.73C258.587,211.683,241.401,211.693,237.756,211.701z"/>
</g>
<g>
	<path fill="#414042" d="M262.965,211.316l-13.02,18.731l20.273-12.395C267.311,216.214,264.785,213.981,262.965,211.316z"/>
	<path fill="#9ABA9A" d="M249.945,230.411c-0.097,0-0.194-0.04-0.264-0.114c-0.118-0.125-0.132-0.315-0.035-0.456l13.02-18.731
		c0.068-0.098,0.18-0.156,0.298-0.156h0.001c0.12,0.001,0.231,0.06,0.299,0.158c1.817,2.663,4.278,4.812,7.113,6.217
		c0.119,0.059,0.196,0.178,0.202,0.309c0.006,0.132-0.061,0.257-0.173,0.326l-20.272,12.396
		C250.076,230.394,250.01,230.411,249.945,230.411z M262.966,211.95l-11.739,16.889l18.251-11.159
		C266.926,216.304,264.693,214.338,262.966,211.95z"/>
</g>
<g>
	<path fill="#414042" d="M249.945,230.048c1.214,0,2.462,0.107,3.615,0.314c1.028,0.184,2.029,0.446,2.995,0.78l9.056,2.358
		l4.606-15.848L249.945,230.048z"/>
	<path fill="#9ABA9A" d="M265.612,233.864c-0.031,0-0.062-0.004-0.092-0.012l-9.056-2.359c-0.984-0.338-1.974-0.596-2.968-0.774
		c-1.128-0.201-2.356-0.308-3.551-0.308c-0.163,0-0.305-0.108-0.349-0.265c-0.044-0.156,0.021-0.323,0.16-0.408l20.272-12.395
		c0.128-0.077,0.291-0.069,0.41,0.021c0.119,0.09,0.169,0.245,0.128,0.39l-4.606,15.849
		C265.915,233.761,265.769,233.864,265.612,233.864z M251.176,229.721c0.835,0.048,1.665,0.145,2.448,0.284
		c1.032,0.185,2.058,0.452,3.05,0.794l8.688,2.264l4.246-14.611L251.176,229.721z"/>
</g>
<g>
	<path fill="#414042" d="M276.466,219.478c-2.157-0.257-4.38-0.899-6.248-1.824l-4.606,15.848L276.466,219.478z"/>
	<path fill="#9ABA9A" d="M265.612,233.864c-0.056,0-0.112-0.013-0.164-0.039c-0.156-0.079-0.233-0.258-0.185-0.425l4.606-15.849
		c0.029-0.104,0.104-0.188,0.203-0.23c0.098-0.043,0.21-0.04,0.306,0.007c1.819,0.9,3.996,1.536,6.13,1.789
		c0.13,0.016,0.242,0.1,0.292,0.22c0.05,0.12,0.033,0.259-0.047,0.362l-10.854,14.024
		C265.828,233.815,265.721,233.864,265.612,233.864z M270.447,218.165l-3.954,13.605l9.301-12.019
		C273.936,219.47,272.072,218.917,270.447,218.165z"/>
</g>
<g>
	<polygon fill="#414042" points="276.466,219.478 265.612,233.501 278.342,236.843 	"/>
	<path fill="#9ABA9A" d="M278.342,237.205c-0.031,0-0.062-0.004-0.092-0.013l-12.731-3.34c-0.117-0.031-0.212-0.119-0.251-0.233
		c-0.04-0.116-0.018-0.243,0.057-0.34l10.854-14.024c0.09-0.116,0.242-0.167,0.385-0.126c0.143,0.039,0.247,0.162,0.262,0.31
		l1.876,17.365c0.013,0.118-0.034,0.236-0.124,0.313C278.512,237.175,278.428,237.205,278.342,237.205z M266.234,233.29
		l11.691,3.067l-1.723-15.946L266.234,233.29z"/>
</g>
<g>
	<path fill="#414042" d="M278.522,219.589c-0.694,0-1.382-0.037-2.056-0.111l1.876,17.365l9.623-19.806
		C285.22,218.611,281.907,219.589,278.522,219.589z"/>
	<path fill="#9ABA9A" d="M278.342,237.205c-0.02,0-0.041-0.002-0.062-0.006c-0.159-0.027-0.281-0.157-0.298-0.318l-1.876-17.365
		c-0.012-0.108,0.026-0.218,0.104-0.295s0.185-0.115,0.296-0.104c3.772,0.415,7.862-0.435,11.279-2.394
		c0.138-0.079,0.312-0.06,0.428,0.05c0.117,0.108,0.148,0.28,0.079,0.424l-9.622,19.805
		C278.607,237.127,278.479,237.205,278.342,237.205z M276.875,219.882l1.692,15.667l8.583-17.664
		C283.954,219.476,280.315,220.177,276.875,219.882z"/>
</g>
<g>
	<path fill="#414042" d="M278.342,236.843l12.751,3.298c1.589-2.532,3.806-4.727,6.583-6.33L278.342,236.843z"/>
	<path fill="#9ABA9A" d="M291.094,240.504c-0.03,0-0.061-0.004-0.091-0.012l-12.751-3.299c-0.167-0.043-0.28-0.197-0.272-0.368
		c0.008-0.173,0.136-0.314,0.306-0.342l19.334-3.031c0.173-0.026,0.34,0.073,0.398,0.237c0.058,0.165-0.009,0.348-0.161,0.436
		c-2.626,1.516-4.859,3.663-6.458,6.208C291.333,240.441,291.216,240.504,291.094,240.504z M280.128,236.93l10.801,2.794
		c1.335-2.062,3.074-3.863,5.094-5.287L280.128,236.93z"/>
</g>
<g>
	<polygon fill="#414042" points="287.965,217.037 278.342,236.843 297.677,233.811 	"/>
	<path fill="#9ABA9A" d="M278.342,237.205c-0.114,0-0.223-0.054-0.292-0.147c-0.08-0.107-0.093-0.252-0.034-0.374l9.622-19.805
		c0.059-0.121,0.179-0.199,0.314-0.204c0.141-0.009,0.26,0.064,0.326,0.181l9.712,16.773c0.06,0.103,0.065,0.229,0.013,0.338
		c-0.051,0.108-0.153,0.184-0.271,0.202l-19.334,3.031C278.38,237.203,278.36,237.205,278.342,237.205z M287.993,217.81
		l-9.021,18.567l18.125-2.843L287.993,217.81z"/>
</g>
<g>
	<path fill="#414042" d="M268.998,256.291c-1.041,3.1-2.839,5.906-5.154,8.118c-1.127,1.076-2.379,2.021-3.734,2.812l6.74,6.979
		L268.998,256.291z"/>
	<path fill="#9ABA9A" d="M266.85,274.564c-0.096,0-0.191-0.038-0.261-0.111l-6.74-6.979c-0.077-0.08-0.114-0.19-0.099-0.302
		c0.015-0.109,0.081-0.206,0.176-0.263c1.324-0.774,2.558-1.703,3.667-2.763c2.296-2.193,4.046-4.95,5.061-7.971
		c0.06-0.176,0.246-0.278,0.424-0.238c0.181,0.041,0.303,0.212,0.281,0.397l-2.148,17.91c-0.017,0.139-0.112,0.256-0.245,0.3
		C266.928,274.558,266.889,274.564,266.85,274.564z M260.689,267.298l5.893,6.103l1.74-14.51c-1.058,2.156-2.492,4.123-4.227,5.78
		C263.056,265.663,261.912,266.546,260.689,267.298z"/>
</g>
<g>
	<path fill="#414042" d="M265.612,233.501l-9.056-2.358c3.8,1.312,7.079,3.734,9.449,6.876L265.612,233.501z"/>
	<path fill="#9ABA9A" d="M266.005,238.382c-0.111,0-0.22-0.052-0.29-0.145c-2.368-3.139-5.576-5.474-9.278-6.752
		c-0.184-0.063-0.285-0.262-0.229-0.448c0.056-0.187,0.251-0.294,0.438-0.245l9.056,2.358c0.148,0.039,0.257,0.167,0.27,0.319
		l0.394,4.518c0.014,0.161-0.081,0.312-0.231,0.37C266.092,238.374,266.048,238.382,266.005,238.382z M260.39,232.516
		c1.938,1.146,3.676,2.608,5.15,4.342l-0.268-3.069L260.39,232.516z"/>
</g>
<g>
	<polygon fill="#414042" points="278.342,236.843 265.612,233.501 266.005,238.019 	"/>
	<path fill="#9ABA9A" d="M266.005,238.382c-0.084,0-0.167-0.029-0.232-0.085c-0.074-0.062-0.12-0.15-0.129-0.247l-0.393-4.517
		c-0.01-0.117,0.037-0.233,0.127-0.309c0.091-0.076,0.212-0.104,0.326-0.074l12.731,3.341c0.17,0.045,0.284,0.205,0.27,0.381
		c-0.015,0.174-0.152,0.314-0.327,0.331l-12.337,1.177C266.028,238.381,266.017,238.382,266.005,238.382z M266.018,233.983
		l0.316,3.64l9.94-0.948L266.018,233.983z"/>
</g>
<path fill="#414042" stroke="#9ABA9A" stroke-linejoin="round" stroke-miterlimit="10" d="M278.361,236.989"/>
<g>
	<path fill="#414042" d="M278.342,236.843c0,0-9.318,19.373-9.344,19.448l19.999-0.789
		C288.945,255.328,278.342,236.843,278.342,236.843z"/>
	<path fill="#9ABA9A" d="M268.998,256.654c-0.114,0-0.222-0.054-0.291-0.146c-0.071-0.097-0.091-0.221-0.053-0.334
		c0.01-0.028,0.032-0.096,9.36-19.489c0.059-0.122,0.179-0.201,0.314-0.206c0.132-0.006,0.261,0.065,0.328,0.183
		c10.624,18.521,10.672,18.683,10.688,18.735c0.032,0.107,0.013,0.224-0.052,0.315c-0.065,0.09-0.169,0.146-0.281,0.15l-19.998,0.79
		C269.008,256.654,269.003,256.654,268.998,256.654z M278.371,237.621c-2.866,5.959-7.638,15.883-8.787,18.284l18.819-0.744
		C287.168,252.974,281.658,243.354,278.371,237.621z"/>
</g>
<g>
	<polygon fill="#414042" points="268.998,256.291 266.85,274.201 288.997,255.502 	"/>
	<path fill="#9ABA9A" d="M266.85,274.564c-0.059,0-0.118-0.015-0.172-0.044c-0.131-0.07-0.206-0.214-0.188-0.362l2.148-17.91
		c0.021-0.177,0.168-0.312,0.346-0.319l19.998-0.79c0.147-0.016,0.296,0.086,0.353,0.23c0.056,0.145,0.014,0.31-0.104,0.409
		l-22.146,18.7C267.018,274.535,266.934,274.564,266.85,274.564z M269.321,256.642l-2.001,16.688l20.635-17.425L269.321,256.642z"/>
</g>
<path fill="#414042" stroke="#9ABA9A" stroke-linejoin="round" stroke-miterlimit="10" d="M278.432,236.843"/>
<g>
	<path fill="#414042" d="M278.342,236.843l10.654,18.659c-1.338-5.048-0.636-11.007,2.097-15.361L278.342,236.843z"/>
	<path fill="#9ABA9A" d="M288.997,255.863c-0.127,0-0.249-0.065-0.314-0.182l-10.655-18.659c-0.072-0.127-0.062-0.284,0.026-0.4
		c0.089-0.116,0.238-0.167,0.379-0.131l12.75,3.298c0.113,0.029,0.204,0.109,0.247,0.218c0.042,0.107,0.032,0.229-0.03,0.326
		c-2.624,4.181-3.41,9.956-2.053,15.075c0.047,0.176-0.045,0.359-0.214,0.429C289.089,255.855,289.043,255.863,288.997,255.863z
		 M279.084,237.408l9.104,15.946c-0.66-4.523,0.181-9.296,2.342-12.984L279.084,237.408z"/>
</g>
<g>
	<polygon fill="#414042" points="273.615,281.208 288.997,255.502 266.85,274.201 	"/>
	<path fill="#9ABA9A" d="M273.615,281.57c-0.098,0-0.193-0.039-0.261-0.11l-6.764-7.007c-0.07-0.072-0.106-0.17-0.102-0.271
		c0.005-0.1,0.052-0.194,0.128-0.259l22.147-18.7c0.136-0.114,0.334-0.114,0.469,0.001c0.135,0.115,0.167,0.311,0.076,0.463
		l-15.382,25.706c-0.058,0.098-0.158,0.162-0.271,0.174C273.642,281.569,273.628,281.57,273.615,281.57z M267.381,274.229
		l6.166,6.387l14.021-23.433L267.381,274.229z"/>
</g>
<g>
	<path fill="#414042" d="M290.712,259.456c-0.738-1.275-1.307-2.603-1.716-3.954l-15.382,25.706l23.995-14.898
		C294.85,264.726,292.416,262.396,290.712,259.456z"/>
	<path fill="#9ABA9A" d="M273.615,281.57c-0.093,0-0.185-0.035-0.255-0.104c-0.119-0.117-0.143-0.302-0.057-0.445l15.382-25.707
		c0.075-0.123,0.218-0.188,0.356-0.173c0.142,0.018,0.261,0.117,0.302,0.255c0.406,1.343,0.972,2.647,1.683,3.878
		c1.611,2.78,3.95,5.104,6.763,6.721c0.111,0.063,0.181,0.181,0.183,0.308c0.002,0.128-0.063,0.248-0.171,0.314l-23.995,14.898
		C273.747,281.553,273.68,281.57,273.615,281.57z M288.898,256.372l-14.205,23.738l22.217-13.795
		c-2.693-1.66-4.937-3.958-6.512-6.678C289.795,258.594,289.292,257.498,288.898,256.372z"/>
</g>
<g>
	<path fill="#414042" d="M273.615,281.208c4.633-1.211,9.787-0.691,14.282,1.874l7.815-13.497l1.897-3.275L273.615,281.208z"/>
	<path fill="#9ABA9A" d="M287.896,283.445c-0.061,0-0.123-0.016-0.18-0.049c-4.197-2.395-9.328-3.062-14.01-1.837
		c-0.176,0.044-0.354-0.044-0.425-0.209s-0.011-0.356,0.142-0.451l23.995-14.898c0.142-0.087,0.324-0.068,0.444,0.048
		c0.12,0.116,0.145,0.299,0.062,0.442l-9.714,16.772C288.143,283.38,288.021,283.445,287.896,283.445z M278.465,280.223
		c3.25,0,6.457,0.817,9.296,2.368l8.807-15.208l-21.035,13.061C276.502,280.296,277.482,280.223,278.465,280.223z"/>
</g>
<g>
	<path fill="#414042" d="M264.94,286.266l-30.179-0.212c3.246,3.37,5.46,8.166,5.488,13.217l13.452-7.081l0,0
		C253.701,292.189,264.934,286.271,264.94,286.266z"/>
	<path fill="#9ABA9A" d="M240.249,299.634c-0.065,0-0.129-0.018-0.187-0.052c-0.109-0.065-0.175-0.183-0.176-0.31
		c-0.026-4.713-1.989-9.439-5.386-12.967c-0.102-0.105-0.129-0.261-0.072-0.395c0.058-0.134,0.189-0.22,0.333-0.22
		c0.001,0,0.002,0,0.003,0l30.179,0.211c0.146,0.001,0.277,0.09,0.333,0.226c0.057,0.135,0.025,0.29-0.079,0.394
		c-0.045,0.045-0.045,0.045-11.327,5.988l-13.453,7.082C240.365,299.619,240.307,299.634,240.249,299.634z M235.595,286.423
		c3.038,3.432,4.833,7.826,5.003,12.254l12.934-6.809c0.087-0.046,7.041-3.709,9.963-5.25L235.595,286.423z"/>
</g>
<g>
	<path fill="#414042" d="M262.181,289.915c0.781-1.346,1.724-2.578,2.76-3.649l-11.239,5.924l5.973,7.081
		C259.666,296.089,260.475,292.864,262.181,289.915z"/>
	<path fill="#9ABA9A" d="M259.674,299.634c-0.104,0-0.207-0.045-0.277-0.129l-5.974-7.081c-0.07-0.084-0.099-0.196-0.079-0.304
		c0.021-0.108,0.09-0.2,0.188-0.252l11.239-5.924c0.158-0.083,0.353-0.04,0.459,0.103c0.106,0.143,0.095,0.343-0.03,0.471
		c-1.044,1.079-1.955,2.284-2.707,3.579c-1.615,2.793-2.465,5.965-2.457,9.173c0,0.152-0.095,0.289-0.238,0.342
		C259.758,299.626,259.716,299.634,259.674,299.634z M254.269,292.3l5.065,6.005c0.147-3.004,1.015-5.949,2.533-8.572
		c0.453-0.78,0.961-1.528,1.519-2.238L254.269,292.3z"/>
</g>
<g>
	<polygon fill="#414042" points="240.249,299.271 259.674,299.271 253.701,292.189 	"/>
	<path fill="#9ABA9A" d="M259.674,299.634h-19.425c-0.2,0-0.363-0.162-0.363-0.363c0-0.082,0-0.134,0.363-0.356l0.01-0.006
		c0.614-0.376,2.24-1.232,6.547-3.5l6.726-3.54c0.151-0.079,0.337-0.042,0.446,0.087l5.974,7.082
		c0.091,0.107,0.111,0.259,0.052,0.387S259.815,299.634,259.674,299.634z M241.716,298.908h17.177l-5.281-6.262
		C252.135,293.424,244.743,297.314,241.716,298.908z"/>
</g>
<g>
	<path fill="#414042" d="M225.812,236.971l1.485,26.733l2.866-16.35c0.073-0.55,0.286-1.629,0.286-1.629
		c1.128-5.156,4.512-9.73,8.788-12.548L225.812,236.971z"/>
	<path fill="#9ABA9A" d="M227.297,264.066c-0.007,0-0.015,0-0.022-0.001c-0.184-0.01-0.331-0.157-0.34-0.342l-1.485-26.733
		c-0.01-0.17,0.101-0.322,0.264-0.369l13.424-3.792c0.173-0.05,0.354,0.034,0.429,0.197c0.074,0.163,0.019,0.355-0.131,0.454
		c-4.343,2.862-7.57,7.469-8.632,12.322c0,0.004-0.21,1.066-0.28,1.599l-2.869,16.365
		C227.624,263.941,227.472,264.066,227.297,264.066z M226.191,237.24l1.293,23.294l2.321-13.242c0.071-0.54,0.278-1.592,0.287-1.637
		c0.965-4.408,3.643-8.613,7.307-11.582L226.191,237.24z"/>
</g>
<g>
	<polygon fill="#414042" points="224.809,219.234 225.812,236.971 239.236,233.178 	"/>
	<path fill="#9ABA9A" d="M225.812,237.333c-0.075,0-0.148-0.023-0.211-0.067c-0.089-0.064-0.145-0.165-0.151-0.275l-1.002-17.735
		c-0.009-0.149,0.075-0.288,0.211-0.351c0.135-0.062,0.296-0.035,0.404,0.069l14.426,13.943c0.093,0.09,0.132,0.223,0.1,0.35
		c-0.031,0.125-0.128,0.225-0.253,0.26l-13.425,3.793C225.878,237.328,225.845,237.333,225.812,237.333z M225.224,220.14
		l0.925,16.358L238.53,233L225.224,220.14z"/>
</g>
</svg>
