<?xml version="1.0" encoding="utf-8"?>
<!-- Generator: Adobe Illustrator 16.0.4, SVG Export Plug-In . SVG Version: 6.00 Build 0)  -->
<!DOCTYPE svg PUBLIC "-//W3C//DTD SVG 1.1//EN" "http://www.w3.org/Graphics/SVG/1.1/DTD/svg11.dtd">
<svg version="1.1" id="Layer_1" xmlns="http://www.w3.org/2000/svg" xmlns:xlink="http://www.w3.org/1999/xlink" x="0px" y="0px"
	 width="100px" height="100px" viewBox="0 0 100 100" enable-background="new 0 0 100 100" xml:space="preserve">
<g>
	<path fill="#F37463" d="M83.674,55.57c6.016-5.488,13.511-12.313,13.511-23.92c0-5.783-4.7-10.485-10.485-10.485
		c-1.992,0-3.851,0.555-5.442,1.525c0.159-3.912,0.199-7.163,0.199-9.39c0-2.821-1.766-6.82-10.168-9.876
		C65.56,1.34,57.998,0.193,50,0.193c-8,0-15.56,1.147-21.286,3.231C20.31,6.48,18.543,10.479,18.543,13.3
		c0,2.228,0.036,5.479,0.2,9.39c-1.59-0.97-3.451-1.525-5.443-1.525c-5.783,0-10.485,4.702-10.485,10.485
		c0,11.607,7.493,18.442,13.511,23.92c3.999,3.65,7.46,6.799,7.46,10.158c0,1.444-1.175,2.622-2.622,2.622
		c-1.447,0-2.622-1.177-2.622-2.622c0-1.443-1.175-2.622-2.622-2.622c-1.446,0-2.622,1.178-2.622,2.622
		c0,4.337,3.528,7.865,7.865,7.865c2.532,0,4.787-1.208,6.228-3.067c1.475,3.436,3.116,6.405,4.923,8.894
		c4.777,6.574,10.726,9.907,17.684,9.907s12.908-3.328,17.685-9.907c1.807-2.478,3.451-5.458,4.925-8.894
		c1.438,1.869,3.697,3.067,6.226,3.067c4.337,0,7.865-3.528,7.865-7.865c0-1.443-1.177-2.622-2.622-2.622
		c-1.443,0-2.622,1.178-2.622,2.622c0,1.444-1.177,2.622-2.622,2.622c-1.443,0-2.621-1.177-2.621-2.622
		C76.215,62.37,79.67,59.221,83.674,55.57z M30.508,8.352C35.672,6.475,42.597,5.436,50,5.436c7.404,0,14.326,1.034,19.492,2.916
		c4.644,1.687,6.723,3.702,6.723,4.948c0,1.247-2.079,3.262-6.723,4.949C64.326,20.125,57.404,21.165,50,21.165
		c-7.403,0-14.328-1.034-19.492-2.916c-4.641-1.687-6.722-3.702-6.722-4.949C23.786,12.053,25.862,10.039,30.508,8.352z
		 M8.058,31.65c0-2.888,2.354-5.243,5.242-5.243s5.243,2.355,5.243,5.243c0,2.333-1.536,4.697-3.497,5.394
		c-1.362,0.484-2.081,1.984-1.6,3.346c0.483,1.361,1.981,2.081,3.346,1.6c1.216-0.43,2.333-1.124,3.297-2.01
		c0.551,4.603,1.286,9.375,2.276,14.044c-0.811-0.778-1.656-1.546-2.511-2.324C14.05,46.408,8.052,40.94,8.052,31.65H8.058z
		 M63.445,76.337c-3.789,5.212-8.187,7.742-13.445,7.742s-9.656-2.529-13.442-7.742c-3.377-4.649-6.154-11.346-8.258-19.906
		c-3.042-12.385-4.058-26.186-4.377-35.481c1.29,0.775,2.87,1.526,4.792,2.228C34.44,25.26,42,26.407,50,26.407
		c7.998,0,15.56-1.146,21.289-3.23c1.926-0.702,3.502-1.452,4.793-2.228c-0.323,9.295-1.332,23.102-4.383,35.481
		C69.589,64.991,66.819,71.688,63.445,76.337z M77.627,54.024c0.994-4.669,1.731-9.446,2.278-14.044
		c0.968,0.881,2.084,1.58,3.297,2.01c1.362,0.481,2.862-0.233,3.344-1.6c0.481-1.367-0.23-2.862-1.598-3.346
		c-1.961-0.691-3.497-3.062-3.497-5.394c0-2.888,2.355-5.243,5.243-5.243c2.887,0,5.243,2.355,5.243,5.243
		c0,9.291-5.996,14.763-11.802,20.05C79.281,52.478,78.437,53.246,77.627,54.024L77.627,54.024z"/>
	<path fill="#F37463" d="M50,99.807c-5.248,0-10.225-0.891-14.008-2.519c-6.062-2.591-6.964-6.103-6.964-7.966
		c0-1.505,0.566-2.99,1.646-4.291c0.924-1.116,2.575-1.271,3.691-0.354c1.116,0.917,1.275,2.575,0.356,3.691
		c-0.294,0.354-0.445,0.681-0.445,0.953c0,1.853,5.973,5.242,15.729,5.242c9.753,0,15.729-3.389,15.729-5.242
		c0-0.272-0.148-0.599-0.445-0.953c-0.922-1.116-0.758-2.77,0.358-3.691c1.116-0.927,2.765-0.768,3.687,0.354
		c1.075,1.311,1.648,2.79,1.648,4.291c0,1.863-0.906,5.375-6.963,7.966c-3.784,1.623-8.761,2.519-14.009,2.519H50z"/>
</g>
</svg>
