<?xml version="1.0" encoding="utf-8"?>
<!-- Generator: Adobe Illustrator 16.0.4, SVG Export Plug-In . SVG Version: 6.00 Build 0)  -->
<!DOCTYPE svg PUBLIC "-//W3C//DTD SVG 1.1//EN" "http://www.w3.org/Graphics/SVG/1.1/DTD/svg11.dtd">
<svg version="1.1" id="Layer_1" xmlns="http://www.w3.org/2000/svg" xmlns:xlink="http://www.w3.org/1999/xlink" x="0px" y="0px"
	 width="100px" height="100px" viewBox="0 0 100 100" enable-background="new 0 0 100 100" xml:space="preserve">
<path fill="none" stroke="#F37463" stroke-width="4" stroke-linecap="round" stroke-miterlimit="10" d="M50.167,2.75
	c15.97,0,28.917,4.72,28.917,10.542c0,5.822-12.946,10.542-28.917,10.542c-15.971,0-28.917-4.72-28.917-10.542
	C21.25,7.469,34.196,2.75,50.167,2.75"/>
<path fill="none" stroke="#F37463" stroke-width="4" stroke-linecap="round" stroke-miterlimit="10" d="M21.25,13.291
	c0,3.115,0,5.925,0,9.168c0,35.461,12.946,64.208,28.917,64.208c15.97,0,28.917-28.747,28.917-64.208c0-3.216,0.206-6.376,0-9.465"
	/>
<path fill="none" stroke="#F37463" stroke-width="4" stroke-linecap="round" stroke-miterlimit="10" d="M34.508,84.637
	c-2.004,1.316-3.174,2.903-3.174,4.612c0,4.556,8.32,8.249,18.583,8.249c10.263,0,18.583-3.693,18.583-8.249
	c0-1.646-1.086-3.179-2.958-4.466"/>
<path fill="none" stroke="#F37463" stroke-width="4" stroke-linecap="round" stroke-miterlimit="10" d="M16.083,66.084
	c0,1.828,1.667,5.083,5.167,5.083c1.831,0,5.416-1.833,5.416-5.166c0-4.251-2.635-6.389-7.696-11.008
	c-1.986-1.808-4.099-3.732-6.137-5.852l0,0c-4.055-4.715-7.583-9.89-7.046-17.59h0.007c0-3.655,2.983-7.383,6.623-7.718
	c5.417-0.499,8.834,3.097,8.834,6.751c0,2.952-1.917,8.167-5.584,9"/>
<path fill="none" stroke="#F37463" stroke-width="4" stroke-linecap="round" stroke-miterlimit="10" d="M84.559,39.584
	c-3.667-0.833-5.584-6.048-5.584-9c0-3.655,3.417-7.25,8.834-6.751c3.639,0.335,6.623,4.063,6.623,7.718h0.007
	c0.537,7.7-2.992,12.875-7.046,17.59l0,0c-2.038,2.119-4.151,4.043-6.137,5.852c-5.061,4.62-7.696,6.757-7.696,11.008
	c0,3.333,3.585,5.166,5.416,5.166c3.5,0,5.167-3.255,5.167-5.083"/>
</svg>
