<?xml version="1.0" encoding="utf-8"?>
<!-- Generator: Adobe Illustrator 16.0.4, SVG Export Plug-In . SVG Version: 6.00 Build 0)  -->
<!DOCTYPE svg PUBLIC "-//W3C//DTD SVG 1.1//EN" "http://www.w3.org/Graphics/SVG/1.1/DTD/svg11.dtd">
<svg version="1.1" id="Layer_1" xmlns="http://www.w3.org/2000/svg" xmlns:xlink="http://www.w3.org/1999/xlink" x="0px" y="0px"
	 width="500px" height="500px" viewBox="0 0 500 500" enable-background="new 0 0 500 500" xml:space="preserve">
<g>
	<polygon fill="#414042" points="258.836,241.034 247.119,244.397 255.565,271.711 	"/>
	<path fill="#9ABA9A" d="M255.565,272.02c-0.135,0-0.254-0.088-0.295-0.218l-8.446-27.313c-0.025-0.079-0.017-0.165,0.023-0.238
		c0.039-0.072,0.106-0.127,0.187-0.149l11.717-3.362c0.099-0.028,0.205-0.006,0.283,0.06c0.079,0.066,0.12,0.167,0.109,0.27
		l-3.271,30.676c-0.016,0.146-0.131,0.261-0.276,0.275C255.586,272.019,255.575,272.02,255.565,272.02z M247.507,244.607
		l7.911,25.579l3.062-28.729L247.507,244.607z"/>
</g>
<g>
	<path fill="#414042" d="M235.641,284.188h-1.113c-1.71,0-3.094,1.385-3.094,3.095s1.384,3.095,3.094,3.095h3.096L235.641,284.188z"
		/>
	<path fill="#9ABA9A" d="M237.623,290.686h-3.096c-1.876,0-3.402-1.526-3.402-3.403c0-1.876,1.526-3.403,3.402-3.403h1.113
		c0.135,0,0.253,0.087,0.294,0.215l1.982,6.189c0.03,0.094,0.014,0.196-0.045,0.276
		C237.814,290.639,237.722,290.686,237.623,290.686z M234.527,284.497c-1.535,0-2.785,1.25-2.785,2.785
		c0,1.536,1.25,2.786,2.785,2.786h2.673l-1.784-5.571H234.527z"/>
</g>
<g>
	<polygon fill="#414042" points="235.641,284.188 237.623,290.377 251.143,284.188 	"/>
	<path fill="#9ABA9A" d="M237.623,290.686c-0.043,0-0.085-0.009-0.125-0.026c-0.08-0.035-0.143-0.104-0.169-0.188l-1.982-6.188
		c-0.03-0.095-0.014-0.197,0.045-0.276c0.058-0.08,0.15-0.127,0.249-0.127h15.502c0.146,0,0.271,0.102,0.302,0.243
		s-0.041,0.286-0.173,0.347l-13.521,6.189C237.711,290.677,237.667,290.686,237.623,290.686z M236.063,284.497l1.747,5.454
		l11.916-5.454H236.063z"/>
</g>
<g>
	<polygon fill="#414042" points="251.143,284.188 248.896,292.646 262.376,290.377 	"/>
	<path fill="#9ABA9A" d="M248.896,292.954c-0.086,0-0.169-0.036-0.229-0.101c-0.07-0.078-0.097-0.186-0.07-0.287l2.246-8.458
		c0.025-0.092,0.09-0.167,0.178-0.204c0.086-0.038,0.187-0.033,0.271,0.014l11.232,6.188c0.115,0.063,0.178,0.192,0.156,0.322
		c-0.022,0.13-0.124,0.231-0.254,0.253l-13.479,2.269C248.931,292.953,248.913,292.954,248.896,292.954z M251.34,284.649
		l-2.021,7.612l12.132-2.042L251.34,284.649z"/>
</g>
<g>
	<polygon fill="#414042" points="248.896,292.646 257.221,299.283 257.931,291.125 	"/>
	<path fill="#9ABA9A" d="M257.221,299.592c-0.112,0-0.112,0-8.517-6.705c-0.096-0.076-0.137-0.201-0.106-0.318
		c0.03-0.118,0.128-0.207,0.248-0.228l9.033-1.521c0.095-0.017,0.191,0.013,0.261,0.078c0.07,0.064,0.106,0.158,0.099,0.253
		l-0.711,8.158C257.514,299.47,257.381,299.592,257.221,299.592z M249.63,292.835c2.41,1.924,6.07,4.843,7.333,5.849l0.626-7.188
		L249.63,292.835z"/>
</g>
<g>
	<polygon fill="#414042" points="237.623,290.377 248.896,292.646 251.143,284.188 	"/>
	<path fill="#9ABA9A" d="M248.896,292.954c-0.02,0-0.04-0.002-0.061-0.006l-11.274-2.269c-0.131-0.026-0.229-0.135-0.245-0.267
		c-0.016-0.133,0.057-0.261,0.178-0.317l13.521-6.188c0.108-0.051,0.236-0.033,0.327,0.045c0.092,0.076,0.13,0.199,0.1,0.314
		l-2.246,8.458C249.158,292.862,249.034,292.954,248.896,292.954z M238.616,290.262l10.057,2.023l2.004-7.544L238.616,290.262z"/>
</g>
<g>
	<polygon fill="#414042" points="257.221,299.283 248.896,292.646 243.912,295.69 	"/>
	<path fill="#9ABA9A" d="M257.221,299.592c-0.027,0-0.054-0.003-0.081-0.011l-13.308-3.593c-0.119-0.032-0.208-0.132-0.226-0.254
		s0.039-0.243,0.145-0.308l4.984-3.045c0.111-0.066,0.253-0.058,0.354,0.022l8.323,6.638c0.115,0.091,0.149,0.25,0.084,0.381
		C257.442,299.528,257.334,299.592,257.221,299.592z M244.686,295.58l11.18,3.018l-6.992-5.576L244.686,295.58z"/>
</g>
<g>
	<path fill="#414042" d="M243.912,295.69l-3.271,2.062c0.928,1.03,2.012,1.708,3.169,1.708h1.786L243.912,295.69z"/>
	<path fill="#9ABA9A" d="M245.597,299.77h-1.786c-1.157,0-2.332-0.626-3.397-1.811c-0.062-0.067-0.09-0.158-0.077-0.248
		c0.013-0.091,0.064-0.171,0.142-0.219l3.27-2.062c0.076-0.048,0.169-0.061,0.255-0.034c0.085,0.025,0.155,0.088,0.192,0.169
		l1.685,3.771c0.042,0.096,0.034,0.206-0.023,0.294C245.799,299.716,245.701,299.77,245.597,299.77z M241.124,297.813
		c0.659,0.662,1.6,1.338,2.687,1.338h1.311l-1.346-3.01L241.124,297.813z"/>
</g>
<g>
	<path fill="#414042" d="M243.912,295.69l1.685,3.771h10.593c0.288,0,0.752-0.1,1.031-0.178L243.912,295.69z"/>
	<path fill="#9ABA9A" d="M256.189,299.77h-10.593c-0.122,0-0.232-0.072-0.281-0.183l-1.686-3.771
		c-0.048-0.109-0.03-0.235,0.048-0.326c0.077-0.091,0.199-0.129,0.314-0.098l13.309,3.593c0.134,0.036,0.228,0.157,0.229,0.296
		c0,0.14-0.092,0.262-0.226,0.299C257.055,299.65,256.539,299.77,256.189,299.77z M245.797,299.151h9.752l-11.09-2.993
		L245.797,299.151z"/>
</g>
<g>
	<path fill="#414042" d="M248.896,292.646l-11.273-2.269c0.002,0.048,0.019,0.257,0.019,0.257c0.159,2.234,1.321,5.253,3,7.119
		L248.896,292.646z"/>
	<path fill="#9ABA9A" d="M240.642,298.062c-0.085,0-0.169-0.035-0.229-0.103c-1.637-1.818-2.902-4.821-3.079-7.304l0,0
		c-0.001,0-0.017-0.213-0.02-0.263c-0.005-0.095,0.034-0.188,0.107-0.25c0.071-0.062,0.169-0.087,0.262-0.068l11.273,2.269
		c0.125,0.025,0.221,0.124,0.243,0.248c0.022,0.125-0.033,0.251-0.142,0.317l-8.254,5.107
		C240.754,298.047,240.698,298.062,240.642,298.062z M237.962,290.76c0.198,2.21,1.324,4.911,2.741,6.593l7.366-4.559
		L237.962,290.76z"/>
</g>
<g>
	<path fill="#414042" d="M257.931,291.125l-0.71,8.158c2.829-0.977,5.012-5.815,5.155-8.906L257.931,291.125z"/>
	<path fill="#9ABA9A" d="M257.221,299.592c-0.068,0-0.136-0.022-0.19-0.064c-0.083-0.065-0.127-0.167-0.117-0.271l0.71-8.158
		c0.012-0.141,0.117-0.255,0.256-0.278l4.445-0.748c0.093-0.015,0.187,0.012,0.257,0.074c0.069,0.062,0.107,0.151,0.103,0.245
		c-0.14,3.038-2.3,8.126-5.362,9.184C257.288,299.587,257.254,299.592,257.221,299.592z M258.218,291.39l-0.646,7.406
		c2.267-1.175,4.188-5.089,4.468-8.049L258.218,291.39z"/>
</g>
<g>
	<polygon fill="#414042" points="258.753,284.188 251.143,284.188 262.376,290.377 	"/>
	<path fill="#9ABA9A" d="M262.376,290.686c-0.051,0-0.102-0.013-0.149-0.038l-11.232-6.189c-0.124-0.067-0.186-0.21-0.15-0.348
		c0.035-0.136,0.158-0.231,0.299-0.231h7.61c0.109,0,0.211,0.059,0.267,0.152l3.623,6.189c0.069,0.12,0.052,0.272-0.046,0.372
		C262.537,290.653,262.457,290.686,262.376,290.686z M252.343,284.497l9.2,5.069l-2.967-5.069H252.343z"/>
</g>
<g>
	<polygon fill="#414042" points="258.753,284.188 262.376,290.377 265.458,284.188 	"/>
	<path fill="#9ABA9A" d="M262.376,290.686c-0.109,0-0.211-0.058-0.267-0.152l-3.623-6.189c-0.056-0.096-0.056-0.214-0.001-0.31
		s0.157-0.155,0.268-0.155h6.705c0.107,0,0.207,0.056,0.263,0.146c0.057,0.091,0.062,0.205,0.014,0.3l-3.082,6.189
		c-0.051,0.102-0.153,0.167-0.267,0.171C262.383,290.686,262.38,290.686,262.376,290.686z M259.292,284.497l3.062,5.231l2.605-5.231
		H259.292z"/>
</g>
<g>
	<path fill="#414042" d="M265.472,284.188h-0.014l-3.082,6.189h3.096c1.71,0,3.095-1.186,3.095-2.896
		C268.566,285.771,267.182,284.188,265.472,284.188z"/>
	<path fill="#9ABA9A" d="M265.472,290.686h-3.096c-0.106,0-0.206-0.056-0.263-0.146c-0.057-0.091-0.062-0.205-0.014-0.301
		l3.083-6.188c0.052-0.105,0.159-0.172,0.275-0.172c1.858,0,3.417,1.649,3.417,3.602
		C268.875,289.308,267.412,290.686,265.472,290.686z M262.875,290.068h2.597c1.588,0,2.786-1.112,2.786-2.588
		c0-1.527-1.201-2.873-2.611-2.978L262.875,290.068z"/>
</g>
<g>
	<path fill="#414042" d="M246.843,210.255l13.141-8.069c-3.132-1.067-6.489-1.646-9.984-1.646c-5.887,0-11.389,1.645-16.073,4.497
		L246.843,210.255z"/>
	<path fill="#9ABA9A" d="M246.843,210.563c-0.039,0-0.078-0.007-0.116-0.022l-12.916-5.219c-0.108-0.044-0.183-0.146-0.192-0.262
		s0.048-0.228,0.147-0.289c4.879-2.971,10.492-4.541,16.233-4.541c3.452,0,6.846,0.56,10.084,1.663
		c0.113,0.038,0.194,0.139,0.208,0.258c0.013,0.119-0.044,0.234-0.146,0.298l-13.142,8.069
		C246.955,210.549,246.899,210.563,246.843,210.563z M234.619,204.982l12.195,4.928l12.44-7.64
		c-2.983-0.944-6.094-1.422-9.256-1.422C244.579,200.849,239.275,202.276,234.619,204.982z"/>
</g>
<g>
	<path fill="#414042" d="M233.926,205.036c-2.994,1.823-5.811,4.336-8.022,7.035l20.939-1.816L233.926,205.036z"/>
	<path fill="#9ABA9A" d="M225.903,212.38c-0.114,0-0.22-0.062-0.273-0.165c-0.058-0.109-0.044-0.243,0.034-0.34
		c2.29-2.793,5.167-5.315,8.102-7.104c0.083-0.051,0.186-0.059,0.276-0.021l12.916,5.219c0.133,0.054,0.211,0.19,0.19,0.332
		c-0.021,0.142-0.137,0.25-0.279,0.262l-20.939,1.816C225.921,212.38,225.912,212.38,225.903,212.38z M233.954,205.38
		c-2.63,1.624-5.208,3.847-7.336,6.319l18.915-1.641L233.954,205.38z"/>
</g>
<g>
	<path fill="#414042" d="M272.614,210.362l-9.66,14.611l17.033-1.155C278.684,218.704,276.107,214.1,272.614,210.362z"/>
	<path fill="#9ABA9A" d="M262.954,225.282c-0.109,0-0.211-0.058-0.267-0.153c-0.059-0.102-0.056-0.228,0.009-0.326l9.661-14.611
		c0.052-0.078,0.138-0.129,0.231-0.137c0.099-0.012,0.187,0.027,0.251,0.097c3.583,3.833,6.157,8.533,7.446,13.591
		c0.022,0.089,0.005,0.183-0.049,0.257s-0.139,0.121-0.229,0.127l-17.032,1.155C262.968,225.282,262.961,225.282,262.954,225.282z
		 M272.655,210.861l-9.1,13.762l16.038-1.088C278.335,218.84,275.944,214.474,272.655,210.861z"/>
</g>
<g>
	<polygon fill="#414042" points="262.954,224.974 258.836,241.034 279.987,223.818 	"/>
	<path fill="#9ABA9A" d="M258.836,241.343c-0.058,0-0.115-0.016-0.166-0.048c-0.112-0.072-0.166-0.208-0.133-0.337l4.118-16.062
		c0.033-0.129,0.146-0.222,0.277-0.231l17.033-1.155c0.144-0.006,0.26,0.07,0.309,0.195s0.012,0.268-0.093,0.353l-21.15,17.216
		C258.975,241.32,258.905,241.343,258.836,241.343z M263.197,225.267l-3.829,14.937l19.67-16.011L263.197,225.267z"/>
</g>
<g>
	<polygon fill="#414042" points="237.674,211.05 225.903,212.071 242.841,230.384 	"/>
	<path fill="#9ABA9A" d="M242.841,230.692c-0.083,0-0.166-0.033-0.227-0.099l-16.938-18.313c-0.08-0.086-0.104-0.211-0.062-0.32
		c0.042-0.11,0.144-0.187,0.262-0.196l11.771-1.021c0.141-0.016,0.286,0.083,0.325,0.229l5.167,19.334
		c0.036,0.137-0.025,0.281-0.149,0.35C242.943,230.68,242.893,230.692,242.841,230.692z M226.558,212.324l15.663,16.935
		l-4.777-17.879L226.558,212.324z"/>
</g>
<path fill="#414042" stroke="#9ABA9A" stroke-linejoin="round" stroke-miterlimit="10" d="M242.938,230.748"/>
<g>
	<path fill="#414042" d="M242.841,230.384l-23.782,0.725c-0.001,0.125-0.003,0.25-0.003,0.375c0,9.157,3.004,13.91,6.048,19.299
		L242.841,230.384z"/>
	<path fill="#9ABA9A" d="M225.104,251.091c-0.011,0-0.021-0.001-0.031-0.002c-0.1-0.01-0.188-0.067-0.237-0.155l-0.501-0.882
		c-2.873-5.057-5.587-9.833-5.587-18.568l0.003-0.38c0.003-0.165,0.135-0.299,0.3-0.305l23.782-0.724
		c0.116-0.006,0.235,0.065,0.288,0.177c0.053,0.11,0.034,0.242-0.046,0.335l-17.737,20.397
		C225.277,251.052,225.192,251.091,225.104,251.091z M219.365,231.407v0.076c0,8.572,2.674,13.279,5.506,18.263l0.286,0.504
		l16.988-19.536L219.365,231.407z"/>
</g>
<g>
	<path fill="#414042" d="M225.903,212.071c-4.117,5.172-6.74,11.936-6.845,19.037l14.646-10.602L225.903,212.071z"/>
	<path fill="#9ABA9A" d="M219.059,231.417c-0.049,0-0.098-0.012-0.142-0.035c-0.104-0.054-0.169-0.162-0.167-0.278
		c0.103-6.926,2.557-13.754,6.911-19.225c0.057-0.07,0.141-0.113,0.23-0.116c0.092-0.01,0.177,0.032,0.238,0.099l7.802,8.436
		c0.061,0.065,0.09,0.152,0.081,0.24s-0.055,0.168-0.127,0.22l-14.646,10.602C219.187,231.396,219.123,231.417,219.059,231.417z
		 M225.922,212.546c-4.003,5.151-6.311,11.488-6.539,17.946l13.859-10.031L225.922,212.546z"/>
</g>
<path fill="#414042" stroke="#9ABA9A" stroke-linejoin="round" stroke-miterlimit="10" d="M242.866,230.911"/>
<g>
	<polygon fill="#414042" points="233.705,220.507 219.059,231.108 242.841,230.384 	"/>
	<path fill="#9ABA9A" d="M219.059,231.417c-0.131,0-0.249-0.084-0.292-0.21c-0.043-0.128,0.002-0.27,0.111-0.35l14.646-10.601
		c0.126-0.092,0.301-0.075,0.407,0.04l9.137,9.878c0.082,0.089,0.104,0.217,0.058,0.329c-0.047,0.111-0.154,0.185-0.275,0.188
		l-23.782,0.725C219.065,231.417,219.062,231.417,219.059,231.417z M233.664,220.917l-13.609,9.852l22.1-0.673L233.664,220.917z"/>
</g>
<g>
	<polygon fill="#414042" points="246.843,210.255 237.674,211.05 242.841,230.384 	"/>
	<path fill="#9ABA9A" d="M242.841,230.692c-0.139,0-0.262-0.093-0.298-0.229l-5.167-19.334c-0.023-0.088-0.007-0.183,0.046-0.257
		c0.052-0.075,0.135-0.123,0.226-0.131l9.169-0.795c0.094-0.013,0.191,0.029,0.256,0.102c0.065,0.073,0.092,0.172,0.073,0.267
		l-4.002,20.129c-0.027,0.141-0.148,0.244-0.292,0.248C242.848,230.692,242.845,230.692,242.841,230.692z M238.067,211.326
		l4.729,17.696l3.663-18.424L238.067,211.326z"/>
</g>
<g>
	<polygon fill="#414042" points="246.843,210.255 242.841,230.384 262.954,224.974 	"/>
	<path fill="#9ABA9A" d="M242.841,230.692c-0.077,0-0.152-0.028-0.211-0.083c-0.077-0.072-0.112-0.181-0.092-0.285l4.002-20.129
		c0.021-0.109,0.101-0.199,0.206-0.233c0.106-0.033,0.223-0.01,0.305,0.065l16.111,14.718c0.083,0.076,0.119,0.191,0.092,0.302
		c-0.026,0.109-0.11,0.195-0.22,0.225l-20.112,5.411C242.895,230.689,242.868,230.692,242.841,230.692z M247.039,210.853
		l-3.798,19.104l19.089-5.136L247.039,210.853z"/>
</g>
<g>
	<polygon fill="#414042" points="262.954,224.936 242.841,230.384 258.836,240.996 	"/>
	<path fill="#9ABA9A" d="M258.836,241.306c-0.06,0-0.119-0.018-0.17-0.052l-15.995-10.612c-0.102-0.067-0.153-0.188-0.135-0.307
		c0.02-0.12,0.107-0.217,0.225-0.249l20.112-5.448c0.105-0.028,0.22,0.001,0.298,0.078s0.109,0.19,0.082,0.297l-4.117,16.061
		c-0.025,0.097-0.096,0.176-0.188,0.212C258.911,241.298,258.874,241.306,258.836,241.306z M243.58,230.504l15.065,9.995
		l3.878-15.127L243.58,230.504z"/>
</g>
<g>
	<path fill="#414042" d="M279.987,223.818l-21.151,17.216l21.637-3.693c0.301-1.749,0.472-3.679,0.472-5.857
		C280.944,229.014,280.533,226.121,279.987,223.818z"/>
	<path fill="#9ABA9A" d="M258.836,241.343c-0.119,0-0.23-0.069-0.28-0.181c-0.059-0.128-0.023-0.278,0.086-0.367l21.15-17.216
		c0.082-0.067,0.193-0.087,0.294-0.054c0.101,0.034,0.177,0.118,0.201,0.222c0.604,2.547,0.966,5.439,0.966,7.736
		c0,2.114-0.156,4.047-0.476,5.909c-0.022,0.129-0.123,0.23-0.253,0.252l-21.637,3.694
		C258.871,241.342,258.854,241.343,258.836,241.343z M279.797,224.371l-19.854,16.161l20.263-3.459
		c0.289-1.762,0.43-3.593,0.43-5.59C280.635,229.375,280.324,226.752,279.797,224.371z"/>
</g>
<g>
	<path fill="#414042" d="M280.473,237.341l-21.637,3.693l15.715,10.361C276.931,247.163,279.487,243.083,280.473,237.341z"/>
	<path fill="#9ABA9A" d="M274.551,251.704c-0.061,0-0.119-0.017-0.171-0.051l-15.714-10.361c-0.105-0.069-0.158-0.197-0.132-0.32
		c0.026-0.125,0.125-0.221,0.25-0.241l21.637-3.694c0.099-0.018,0.2,0.015,0.271,0.086c0.071,0.071,0.103,0.172,0.086,0.271
		c-0.902,5.253-3.128,9.17-5.279,12.957l-0.679,1.197c-0.042,0.075-0.113,0.129-0.196,0.149
		C274.6,251.701,274.574,251.704,274.551,251.704z M259.659,241.207l14.785,9.749l0.517-0.911c2.065-3.637,4.201-7.393,5.13-12.326
		L259.659,241.207z"/>
</g>
<g>
	<path fill="#414042" d="M230.046,262.498c0.353,1.584,0.853,4.219,1.049,6.119h0.006c0,1.709,1.384,3.094,3.095,3.094h21.37
		L230.046,262.498z"/>
	<path fill="#9ABA9A" d="M255.565,272.02h-21.37c-1.857,0-3.371-1.494-3.403-3.342c-0.002-0.01-0.003-0.02-0.004-0.028
		c-0.186-1.801-0.658-4.354-1.044-6.084c-0.024-0.11,0.013-0.225,0.098-0.299c0.084-0.075,0.202-0.097,0.309-0.06l25.521,9.213
		c0.141,0.052,0.225,0.196,0.198,0.344C255.844,271.911,255.716,272.02,255.565,272.02z M231.396,268.53
		c0.008,0.028,0.013,0.057,0.013,0.087c0,1.535,1.25,2.785,2.786,2.785h19.605l-23.335-8.424
		C230.825,264.668,231.224,266.893,231.396,268.53z"/>
</g>
<g>
	<polygon fill="#414042" points="230.046,262.498 251.986,260.136 247.119,244.397 	"/>
	<path fill="#9ABA9A" d="M230.046,262.807c-0.116,0-0.225-0.065-0.276-0.171c-0.058-0.116-0.037-0.255,0.052-0.35l17.073-18.101
		c0.075-0.08,0.188-0.113,0.294-0.089c0.107,0.024,0.193,0.104,0.226,0.209l4.867,15.739c0.027,0.088,0.014,0.184-0.037,0.26
		c-0.051,0.077-0.133,0.128-0.225,0.138l-21.94,2.362C230.067,262.807,230.057,262.807,230.046,262.807z M246.98,244.994
		l-16.137,17.107l20.736-2.233L246.98,244.994z"/>
</g>
<g>
	<path fill="#414042" d="M225.104,250.782c1.856,3.287,3.729,6.812,4.942,11.716l12.795-32.114L225.104,250.782z"/>
	<path fill="#9ABA9A" d="M230.046,262.807c-0.007,0-0.014,0-0.021,0c-0.134-0.01-0.246-0.104-0.278-0.234
		c-1.197-4.837-3.007-8.266-4.911-11.639c-0.064-0.113-0.05-0.256,0.035-0.354l17.738-20.397c0.099-0.114,0.266-0.14,0.394-0.062
		c0.128,0.079,0.182,0.238,0.126,0.378l-12.796,32.114C230.285,262.73,230.171,262.807,230.046,262.807z M225.479,250.82
		c1.766,3.135,3.441,6.34,4.628,10.688l11.774-29.551L225.479,250.82z"/>
</g>
<g>
	<polygon fill="#414042" points="242.841,230.384 230.046,262.498 247.119,244.397 	"/>
	<path fill="#9ABA9A" d="M230.046,262.807c-0.058,0-0.115-0.016-0.166-0.048c-0.125-0.08-0.176-0.237-0.121-0.375l12.796-32.114
		c0.048-0.121,0.169-0.206,0.299-0.194c0.132,0.006,0.244,0.094,0.283,0.219l4.277,14.013c0.032,0.106,0.006,0.222-0.07,0.303
		l-17.073,18.101C230.21,262.773,230.128,262.807,230.046,262.807z M242.803,231.315l-11.871,29.793l15.84-16.793L242.803,231.315z"
		/>
</g>
<g>
	<polygon fill="#414042" points="251.986,260.136 230.046,262.498 255.565,271.711 	"/>
	<path fill="#9ABA9A" d="M255.565,272.02c-0.035,0-0.07-0.006-0.104-0.019l-25.521-9.212c-0.135-0.049-0.219-0.185-0.201-0.328
		c0.017-0.143,0.13-0.255,0.273-0.27l21.94-2.362c0.15-0.018,0.284,0.074,0.328,0.216l3.579,11.575
		c0.035,0.111,0.003,0.232-0.081,0.313C255.721,271.99,255.644,272.02,255.565,272.02z M231.408,262.662l23.68,8.548l-3.321-10.74
		L231.408,262.662z"/>
</g>
<g>
	<polygon fill="#414042" points="258.836,241.034 242.841,230.384 247.119,244.397 	"/>
	<path fill="#9ABA9A" d="M247.119,244.706c-0.133,0-0.255-0.086-0.296-0.219l-4.277-14.013c-0.038-0.125,0.007-0.26,0.111-0.338
		s0.246-0.082,0.355-0.01l15.995,10.65c0.1,0.067,0.152,0.186,0.134,0.305c-0.019,0.118-0.104,0.216-0.221,0.249l-11.717,3.362
		C247.176,244.702,247.146,244.706,247.119,244.706z M243.389,231.119l3.937,12.897l10.784-3.095L243.389,231.119z"/>
</g>
<g>
	<polygon fill="#414042" points="258.836,241.034 257.494,253.621 274.551,251.396 	"/>
	<path fill="#9ABA9A" d="M257.494,253.93c-0.08,0-0.157-0.031-0.216-0.088c-0.067-0.065-0.102-0.159-0.091-0.253l1.342-12.587
		c0.012-0.107,0.078-0.201,0.176-0.247c0.097-0.046,0.211-0.037,0.301,0.021l15.715,10.362c0.107,0.07,0.159,0.201,0.131,0.326
		c-0.029,0.126-0.134,0.221-0.262,0.237l-17.056,2.226C257.521,253.93,257.507,253.93,257.494,253.93z M259.09,241.571
		l-1.247,11.693l15.846-2.067L259.09,241.571z"/>
</g>
<g>
	<path fill="#414042" d="M255.565,271.711h10.238c1.019,0,1.922-0.491,2.485-1.25l-10.795-16.84L255.565,271.711z"/>
	<path fill="#9ABA9A" d="M265.804,272.02h-10.238c-0.087,0-0.171-0.037-0.229-0.103s-0.087-0.152-0.077-0.239l1.929-18.089
		c0.014-0.13,0.108-0.237,0.235-0.268c0.131-0.033,0.261,0.023,0.331,0.134l10.795,16.84c0.069,0.107,0.064,0.247-0.012,0.351
		C267.898,271.506,266.876,272.02,265.804,272.02z M255.909,271.402h9.895c0.82,0,1.577-0.348,2.105-0.961l-10.201-15.914
		L255.909,271.402z"/>
</g>
<g>
	<path fill="#414042" d="M274.551,251.396l-17.057,2.226l10.795,16.84c0.383-0.515,0.609-1.152,0.609-1.844
		C269.727,260.63,272.116,255.749,274.551,251.396z"/>
	<path fill="#9ABA9A" d="M268.289,270.771c-0.004,0-0.008,0-0.011,0c-0.102-0.004-0.194-0.058-0.249-0.143l-10.795-16.84
		c-0.058-0.089-0.064-0.201-0.021-0.297c0.045-0.096,0.136-0.162,0.24-0.176l17.057-2.226c0.115-0.018,0.23,0.036,0.295,0.133
		c0.065,0.097,0.071,0.222,0.015,0.324c-2.387,4.267-4.786,9.103-5.615,17.103c0.002,0.705-0.23,1.407-0.668,1.996
		C268.479,270.725,268.386,270.771,268.289,270.771z M258.017,253.864l10.27,16.021c0.199-0.39,0.304-0.82,0.304-1.268
		c0.808-7.813,3.076-12.641,5.393-16.836L258.017,253.864z"/>
</g>
<g>
	<polygon fill="#414042" points="259.983,202.186 246.843,210.255 262.954,224.974 	"/>
	<path fill="#9ABA9A" d="M262.954,225.282c-0.075,0-0.15-0.027-0.208-0.081l-16.111-14.718c-0.072-0.065-0.108-0.161-0.1-0.258
		c0.01-0.096,0.063-0.183,0.146-0.233l13.142-8.069c0.089-0.056,0.199-0.062,0.295-0.016c0.094,0.045,0.159,0.135,0.173,0.238
		l2.971,22.788c0.016,0.129-0.049,0.254-0.164,0.313C263.052,225.271,263.003,225.282,262.954,225.282z M247.354,210.304
		l15.186,13.872l-2.8-21.478L247.354,210.304z"/>
</g>
<g>
	<path fill="#414042" d="M262.954,224.974l9.66-14.611c-3.416-3.657-7.796-6.514-12.631-8.177L262.954,224.974z"/>
	<path fill="#9ABA9A" d="M262.954,225.282c-0.022,0-0.047-0.003-0.069-0.008c-0.126-0.029-0.22-0.134-0.237-0.261l-2.97-22.788
		c-0.015-0.106,0.028-0.212,0.11-0.279c0.084-0.067,0.194-0.088,0.296-0.053c4.86,1.672,9.271,4.527,12.756,8.258
		c0.098,0.104,0.111,0.262,0.032,0.381l-9.66,14.611C263.153,225.231,263.056,225.282,262.954,225.282z M260.354,202.645
		l2.799,21.468l9.068-13.717C268.946,206.945,264.856,204.275,260.354,202.645z"/>
</g>
<g>
	<path fill="#414042" d="M233.43,275.105c-1.168,0.442-1.996,1.57-1.996,2.895c0,1.709,1.384,3.094,3.094,3.094h4.029
		L233.43,275.105z"/>
	<path fill="#9ABA9A" d="M238.557,281.402h-4.029c-1.876,0-3.402-1.526-3.402-3.402c0-1.406,0.882-2.686,2.195-3.184
		c0.121-0.045,0.259-0.011,0.344,0.088l5.127,5.988c0.079,0.092,0.097,0.22,0.046,0.33
		C238.787,281.332,238.678,281.402,238.557,281.402z M233.342,275.478c-0.965,0.455-1.6,1.443-1.6,2.522
		c0,1.535,1.25,2.784,2.785,2.784h3.358L233.342,275.478z"/>
</g>
<g>
	<polygon fill="#414042" points="246.098,274.806 246.095,274.806 246.098,274.808 	"/>
	<path fill="#9ABA9A" d="M246.096,275.116c-0.068,0-0.136-0.023-0.191-0.067l-0.003-0.002c-0.103-0.082-0.142-0.22-0.099-0.344
		c0.075-0.215,0.397-0.266,0.537-0.088c0.059,0.075,0.081,0.173,0.058,0.266c-0.025,0.102-0.102,0.185-0.201,0.218
		C246.164,275.109,246.13,275.116,246.096,275.116z"/>
</g>
<g>
	<path fill="#414042" d="M234.527,274.904c-0.386,0-0.757,0.071-1.098,0.201l5.127,5.988l7.541-6.188L234.527,274.904z"/>
	<path fill="#9ABA9A" d="M238.557,281.402c-0.087,0-0.174-0.037-0.234-0.108l-5.127-5.987c-0.065-0.076-0.09-0.18-0.064-0.277
		c0.024-0.098,0.095-0.177,0.188-0.212c0.386-0.147,0.792-0.222,1.208-0.222l11.57,0.002c0.13,0,0.247,0.082,0.29,0.205
		c0.044,0.122,0.007,0.26-0.095,0.343l-7.54,6.187C238.695,281.379,238.626,281.402,238.557,281.402z M233.975,275.268l4.62,5.396
		l6.64-5.448l-10.707-0.002C234.341,275.213,234.155,275.231,233.975,275.268z"/>
</g>
<g>
	<polygon fill="#414042" points="244.596,281.094 246.098,274.906 238.557,281.094 	"/>
	<path fill="#9ABA9A" d="M244.596,281.402h-6.039c-0.13,0-0.246-0.082-0.29-0.205s-0.007-0.26,0.095-0.343l7.54-6.187
		c0.104-0.084,0.248-0.093,0.36-0.023c0.112,0.071,0.167,0.206,0.136,0.335l-1.502,6.187
		C244.862,281.305,244.738,281.402,244.596,281.402z M239.42,280.784h4.934l1.227-5.054L239.42,280.784z"/>
</g>
<g>
	<polygon fill="#414042" points="255.828,281.094 253.516,274.904 246.098,274.906 	"/>
	<path fill="#9ABA9A" d="M255.828,281.402c-0.058,0-0.115-0.016-0.166-0.049l-9.73-6.187c-0.116-0.073-0.169-0.215-0.131-0.347
		s0.159-0.223,0.297-0.223l7.418-0.002c0.13,0,0.244,0.08,0.29,0.2l2.312,6.189c0.047,0.124,0.008,0.264-0.095,0.348
		C255.966,281.379,255.897,281.402,255.828,281.402z M247.158,275.215l8.059,5.124l-1.915-5.126L247.158,275.215z"/>
</g>
<g>
	<polygon fill="#414042" points="255.828,281.094 262.296,274.904 253.516,274.904 	"/>
	<path fill="#9ABA9A" d="M255.828,281.402c-0.023,0-0.046-0.003-0.069-0.008c-0.101-0.023-0.184-0.097-0.221-0.193l-2.312-6.189
		c-0.035-0.095-0.021-0.2,0.035-0.283c0.059-0.084,0.153-0.133,0.254-0.133h8.78c0.126,0,0.239,0.076,0.287,0.193
		c0.047,0.117,0.018,0.251-0.073,0.338l-6.469,6.189C255.983,281.372,255.906,281.402,255.828,281.402z M253.961,275.213
		l1.992,5.334l5.573-5.334H253.961z"/>
</g>
<g>
	<path fill="#414042" d="M262.296,274.904l-6.468,6.189h9.644c0.149,0,0.296-0.012,0.439-0.032L262.296,274.904z"/>
	<path fill="#9ABA9A" d="M265.472,281.402h-9.644c-0.126,0-0.239-0.077-0.287-0.194c-0.047-0.116-0.018-0.25,0.073-0.338
		l6.469-6.189c0.068-0.064,0.16-0.094,0.256-0.082c0.094,0.013,0.176,0.068,0.224,0.149l3.615,6.158
		c0.052,0.088,0.056,0.197,0.012,0.29c-0.045,0.093-0.133,0.157-0.234,0.171C265.797,281.39,265.637,281.402,265.472,281.402z
		 M256.598,280.784h8.793l-3.163-5.388L256.598,280.784z"/>
</g>
<g>
	<path fill="#414042" d="M268.566,278c0-1.711-1.385-3.096-3.095-3.096h-3.176l3.615,6.157
		C267.413,280.849,268.566,279.56,268.566,278z"/>
	<path fill="#9ABA9A" d="M265.911,281.371c-0.108,0-0.21-0.058-0.267-0.153l-3.615-6.157c-0.055-0.096-0.057-0.214-0.001-0.31
		c0.055-0.097,0.157-0.155,0.268-0.155h3.176c1.876,0,3.403,1.527,3.403,3.404c0,1.683-1.256,3.131-2.92,3.367
		C265.94,281.369,265.926,281.371,265.911,281.371z M262.835,275.213l3.233,5.507c1.262-0.275,2.189-1.411,2.189-2.72
		c0-1.537-1.25-2.787-2.786-2.787H262.835z"/>
</g>
<g>
	<polygon fill="#414042" points="246.098,274.906 244.596,281.094 255.828,281.094 	"/>
	<path fill="#9ABA9A" d="M255.828,281.402h-11.232c-0.095,0-0.184-0.044-0.242-0.118s-0.08-0.172-0.058-0.264l1.502-6.187
		c0.023-0.097,0.092-0.177,0.184-0.214c0.093-0.037,0.197-0.027,0.281,0.026l9.731,6.187c0.115,0.073,0.168,0.215,0.131,0.347
		C256.086,281.312,255.966,281.402,255.828,281.402z M244.988,280.784h9.778l-8.471-5.386L244.988,280.784z"/>
</g>
</svg>
