<?xml version="1.0" encoding="utf-8"?>
<!-- Generator: Adobe Illustrator 16.0.4, SVG Export Plug-In . SVG Version: 6.00 Build 0)  -->
<!DOCTYPE svg PUBLIC "-//W3C//DTD SVG 1.1//EN" "http://www.w3.org/Graphics/SVG/1.1/DTD/svg11.dtd">
<svg version="1.1" id="Layer_1" xmlns="http://www.w3.org/2000/svg" xmlns:xlink="http://www.w3.org/1999/xlink" x="0px" y="0px"
	 width="100px" height="100px" viewBox="0 0 100 100" enable-background="new 0 0 100 100" xml:space="preserve">
<g>
	<path fill="#F37463" d="M98.086,53.458c-0.768-1.339-1.752-2.504-2.907-3.458c3.731-3.118,5.536-8.229,4.195-13.225
		c-1.33-5-5.463-8.525-10.251-9.36c1.675-4.563,0.68-9.901-2.974-13.558c-3.66-3.657-8.989-4.649-13.55-2.982
		c-0.252-1.477-0.768-2.912-1.541-4.247c-1.722-2.984-4.495-5.115-7.824-6.001c-5-1.34-10.112,0.469-13.23,4.2
		c-3.118-3.731-8.234-5.541-13.23-4.2c-5,1.339-8.525,5.463-9.357,10.253c-4.566-1.672-9.9-0.68-13.56,2.977
		c-3.657,3.657-4.649,8.983-2.982,13.547c-1.477,0.255-2.912,0.773-4.247,1.541c-2.984,1.722-5.115,4.497-6.001,7.824
		c-0.887,3.325-0.433,6.798,1.289,9.772C2.686,47.879,3.672,49.044,4.822,50c-3.727,3.118-5.53,8.231-4.195,13.225
		c1.334,5,5.463,8.525,10.253,9.354c-1.672,4.566-0.68,9.896,2.977,13.565c2.432,2.433,5.669,3.772,9.109,3.772
		c1.541,0,3.036-0.273,4.44-0.788c0.258,1.469,0.771,2.901,1.542,4.237c1.719,2.984,4.494,5.118,7.821,6.004
		c1.108,0.294,2.237,0.443,3.355,0.443c2.231,0,4.435-0.587,6.425-1.732c1.334-0.773,2.499-1.762,3.456-2.907
		c2.422,2.897,6.056,4.628,9.896,4.628c1.103,0,2.221-0.139,3.329-0.433c5-1.34,8.525-5.463,9.354-10.256
		c1.438,0.521,2.943,0.794,4.453,0.794c3.298,0,6.597-1.258,9.112-3.773c2.433-2.432,3.772-5.669,3.772-9.107
		c0-1.541-0.268-3.035-0.789-4.437c1.469-0.258,2.902-0.773,4.236-1.547c2.985-1.716,5.118-4.494,6.005-7.818
		c0.886-3.324,0.433-6.798-1.289-9.777V53.458z M94.282,38.141c0.526,1.963,0.258,4.013-0.763,5.775
		c-0.959,1.667-2.484,2.881-4.309,3.451H73.604c-0.268-2.417-0.902-4.729-1.84-6.875l13.509-7.803
		C89.231,31.801,93.22,34.192,94.282,38.141L94.282,38.141z M49.999,68.477c-10.187,0-18.472-8.288-18.472-18.472
		c0-10.187,8.285-18.472,18.472-18.472c10.184,0,18.472,8.285,18.472,18.472C68.471,60.189,60.183,68.477,49.999,68.477z
		 M82.418,17.589c2.886,2.889,2.963,7.543,0.216,10.524L69.11,35.924c-1.413-1.917-3.113-3.615-5.031-5.03l7.804-13.522
		C74.867,14.628,79.521,14.703,82.418,17.589z M56.091,6.484c1.752-1.013,3.81-1.289,5.773-0.76
		c1.964,0.528,3.607,1.786,4.618,3.543c0.959,1.667,1.258,3.592,0.84,5.455L59.513,28.24c-2.144-0.938-4.453-1.577-6.875-1.842
		V10.796C53.208,8.971,54.426,7.446,56.091,6.484z M38.135,5.725c1.963-0.529,4.012-0.253,5.774,0.76
		c1.668,0.961,2.881,2.487,3.451,4.307v15.606c-2.417,0.271-4.729,0.904-6.878,1.842l-7.798-13.511
		c-0.889-3.953,1.502-7.947,5.451-9.009V5.725z M17.583,17.589c2.886-2.886,7.543-2.966,10.524-0.221l7.812,13.526
		c-1.915,1.415-3.616,3.113-5.03,5.03l-13.522-7.806c-2.744-2.981-2.669-7.636,0.217-10.524V17.589z M5.718,38.141
		c0.528-1.964,1.786-3.605,3.541-4.618c1.67-0.961,3.595-1.255,5.458-0.84l13.516,7.808c-0.938,2.146-1.577,4.453-1.842,6.875H10.79
		c-1.824-0.57-3.35-1.788-4.311-3.451C5.466,42.158,5.19,40.104,5.718,38.141z M5.718,61.87c-0.528-1.964-0.252-4.01,0.76-5.772
		c0.961-1.67,2.487-2.886,4.307-3.453h15.606c0.271,2.417,0.904,4.731,1.842,6.875l-13.511,7.804
		c-3.953,0.886-7.947-1.505-9.009-5.453H5.718z M17.583,82.424c-2.886-2.892-2.966-7.545-0.222-10.524l13.527-7.809
		c1.415,1.917,3.115,3.613,5.03,5.031L28.112,82.64c-2.981,2.748-7.638,2.67-10.524-0.216H17.583z M43.909,93.526
		c-1.757,1.01-3.811,1.288-5.774,0.763c-1.964-0.531-3.605-1.789-4.619-3.546c-0.961-1.669-1.254-3.592-0.84-5.453l7.806-13.519
		c2.149,0.938,4.456,1.577,6.878,1.84v15.606C46.791,91.041,45.572,92.567,43.909,93.526z M61.864,94.289
		c-1.963,0.525-4.01,0.257-5.773-0.763c-1.67-0.959-2.883-2.485-3.453-4.309V73.61c2.417-0.268,4.732-0.902,6.875-1.84l7.803,13.508
		C68.203,89.238,65.812,93.227,61.864,94.289L61.864,94.289z M82.418,82.424c-2.886,2.886-7.545,2.964-10.525,0.216l-7.808-13.524
		c1.917-1.412,3.613-3.113,5.03-5.03l13.519,7.803C85.381,74.873,85.304,79.527,82.418,82.424L82.418,82.424z M94.282,61.87
		c-0.531,1.964-1.788,3.608-3.546,4.618c-1.67,0.959-3.592,1.258-5.453,0.84l-13.519-7.809c0.938-2.144,1.577-4.453,1.84-6.875
		H89.21c1.825,0.567,3.35,1.788,4.309,3.453C94.53,57.85,94.808,59.906,94.282,61.87z"/>
</g>
</svg>
