<?xml version="1.0" encoding="utf-8"?>
<!-- Generator: Adobe Illustrator 16.0.4, SVG Export Plug-In . SVG Version: 6.00 Build 0)  -->
<!DOCTYPE svg PUBLIC "-//W3C//DTD SVG 1.1//EN" "http://www.w3.org/Graphics/SVG/1.1/DTD/svg11.dtd">
<svg version="1.1" id="Layer_1" xmlns="http://www.w3.org/2000/svg" xmlns:xlink="http://www.w3.org/1999/xlink" x="0px" y="0px"
	 width="100px" height="100px" viewBox="0 0 100 100" enable-background="new 0 0 100 100" xml:space="preserve">
<path fill="none" stroke="#F37463" stroke-width="4" stroke-linecap="round" stroke-linejoin="round" stroke-miterlimit="10" d="
	M44.348,11.966c-0.256,0-0.505,0.013-0.757,0.031C41.748,6.761,36.754,3,30.899,3c-4.334,0-8.389,2.125-10.896,5.564
	c-1.483-0.705-3.119-1.081-4.795-1.081C9.03,7.483,4,12.514,4,18.691c0,6.177,5.03,11.208,11.208,11.208h29.14
	c4.945,0,8.967-4.022,8.967-8.967S49.293,11.966,44.348,11.966z"/>
<path fill="none" stroke="#F37463" stroke-width="4" stroke-linecap="round" stroke-linejoin="round" stroke-miterlimit="10" d="
	M67.125,27.562c0,0,5.137-0.062,5.256,4.938c0,0,5.057-5.247,9.807-4.938"/>
<path fill="none" stroke="#F37463" stroke-width="4" stroke-linecap="round" stroke-linejoin="round" stroke-miterlimit="10" d="
	M82.265,12.712c0,0,5.137-0.062,5.256,4.938c0,0,5.057-5.247,9.807-4.938"/>
<path fill="none" stroke="#F37463" stroke-width="4" stroke-linecap="round" stroke-linejoin="round" stroke-miterlimit="10" d="
	M67.125,2.772c0,0,5.137-0.062,5.256,4.938c0,0,5.057-5.247,9.807-4.938"/>
<path fill="none" stroke="#F37463" stroke-width="4" stroke-linecap="round" stroke-linejoin="round" stroke-miterlimit="10" d="
	M34.583,47.042l5.583,5.625"/>
<path fill="none" stroke="#F37463" stroke-width="4" stroke-linecap="round" stroke-linejoin="round" stroke-miterlimit="10" d="
	M52.485,41.792V48"/>
<path fill="none" stroke="#F37463" stroke-width="4" stroke-linecap="round" stroke-linejoin="round" stroke-miterlimit="10" d="
	M70.2,47.185l-5.583,5.625"/>
<path fill="none" stroke="#F37463" stroke-width="4" stroke-linecap="round" stroke-linejoin="round" stroke-miterlimit="10" d="
	M65.125,64.583c0,0-3.583-7.125-12.458-7.125c-9.555,0-13.792,8.167-13.792,8.167"/>
<path fill="none" stroke="#F37463" stroke-width="4" stroke-linecap="round" stroke-linejoin="round" stroke-miterlimit="10" d="
	M2.793,72.667l18.187-19.82c0.394-0.442,1.071-0.898,1.576-0.889c0.498,0,0.986,0.258,1.365,0.709l38.33,44.999"/>
<path fill="none" stroke="#F37463" stroke-width="4" stroke-linecap="round" stroke-linejoin="round" stroke-miterlimit="10" d="
	M52.815,82.482l15.197-15.819c0.189-0.155,0.364-0.335,0.496-0.539l12.276-13.151c0.417-0.442,0.942-0.685,1.477-0.675
	c0.54,0.01,1.06,0.271,1.448,0.733l13.126,15.217"/>
</svg>
