<?xml version="1.0" encoding="utf-8"?>
<!-- Generator: Adobe Illustrator 16.0.4, SVG Export Plug-In . SVG Version: 6.00 Build 0)  -->
<!DOCTYPE svg PUBLIC "-//W3C//DTD SVG 1.1//EN" "http://www.w3.org/Graphics/SVG/1.1/DTD/svg11.dtd">
<svg version="1.1" id="Layer_1" xmlns="http://www.w3.org/2000/svg" xmlns:xlink="http://www.w3.org/1999/xlink" x="0px" y="0px"
	 width="50px" height="50px" viewBox="0 0 50 50" enable-background="new 0 0 50 50" xml:space="preserve">
<path fill="#565B70" d="M46.11,11.339H34.932V7.613c0-2.054-1.67-3.725-3.724-3.725H18.79c-2.052,0-3.726,1.671-3.726,3.725v3.726
	H3.888c-2.054,0-3.726,1.671-3.726,3.725v27.324c0,2.053,1.672,3.724,3.726,3.724H46.11c2.055,0,3.728-1.671,3.728-3.724V15.063
	C49.838,13.01,48.165,11.339,46.11,11.339z M17.549,7.613c0-0.685,0.557-1.24,1.241-1.24h12.418c0.686,0,1.245,0.556,1.245,1.24
	v3.726H17.549V7.613z M3.888,13.823H46.11c0.687,0,1.245,0.557,1.245,1.24v18.628h-4.971v-1.24c0-0.686-0.558-1.241-1.241-1.241
	h-4.967c-0.685,0-1.241,0.556-1.241,1.241v1.24H15.064v-1.24c0-0.686-0.558-1.241-1.242-1.241H8.854
	c-0.685,0-1.243,0.556-1.243,1.241v1.24H2.645V15.063C2.645,14.38,3.202,13.823,3.888,13.823z M39.9,33.695v2.482h-2.482v-2.482
	H39.9z M12.581,33.695v2.482h-2.484v-2.482H12.581z M46.11,43.625H3.888c-0.686,0-1.241-0.554-1.241-1.237v-6.21h4.966v1.241
	c0,0.684,0.559,1.243,1.243,1.243h4.969c0.685,0,1.242-0.56,1.242-1.243v-1.241h19.869v1.241c0,0.684,0.559,1.243,1.245,1.243h4.965
	c0.684,0,1.241-0.56,1.241-1.243v-1.241h4.969v6.21C47.355,43.071,46.795,43.625,46.11,43.625z"/>
</svg>
