<?xml version="1.0" encoding="utf-8"?>
<!-- Generator: Adobe Illustrator 16.0.4, SVG Export Plug-In . SVG Version: 6.00 Build 0)  -->
<!DOCTYPE svg PUBLIC "-//W3C//DTD SVG 1.1//EN" "http://www.w3.org/Graphics/SVG/1.1/DTD/svg11.dtd">
<svg version="1.1" id="Layer_1" xmlns="http://www.w3.org/2000/svg" xmlns:xlink="http://www.w3.org/1999/xlink" x="0px" y="0px"
	 width="60px" height="60px" viewBox="0 0 60 60" enable-background="new 0 0 60 60" xml:space="preserve">
<circle fill="#F37463" cx="30" cy="30" r="29.871"/>
<path fill="#FFF1CA" d="M29.966,0C13.416,0,0,13.416,0,29.967C0,46.52,13.416,59.934,29.966,59.934
	c16.554,0,29.968-13.414,29.968-29.967C59.934,13.416,46.52,0,29.966,0z M47.766,47.764c-2.314,2.312-5.006,4.127-8.002,5.396
	c-0.763,0.321-1.537,0.604-2.318,0.849v-4.492c0-2.359-0.812-4.097-2.43-5.209c1.012-0.098,1.943-0.232,2.797-0.41
	c0.847-0.174,1.744-0.429,2.688-0.76c0.948-0.332,1.795-0.727,2.549-1.186c0.749-0.457,1.472-1.055,2.164-1.784
	c0.69-0.731,1.272-1.562,1.742-2.487c0.467-0.928,0.84-2.039,1.11-3.338c0.274-1.297,0.408-2.726,0.408-4.287
	c0-3.023-0.984-5.599-2.955-7.725c0.896-2.341,0.801-4.888-0.293-7.639l-0.73-0.088c-0.506-0.058-1.419,0.157-2.734,0.644
	c-1.316,0.487-2.798,1.288-4.436,2.4c-2.322-0.644-4.73-0.966-7.227-0.966c-2.516,0-4.917,0.322-7.199,0.966
	c-1.035-0.702-2.016-1.283-2.942-1.741c-0.927-0.459-1.667-0.771-2.224-0.936c-0.557-0.166-1.074-0.268-1.551-0.308
	c-0.477-0.039-0.785-0.049-0.923-0.029c-0.137,0.02-0.234,0.04-0.292,0.059c-1.091,2.771-1.188,5.316-0.291,7.639
	c-1.974,2.126-2.956,4.702-2.956,7.725c0,1.561,0.137,2.99,0.409,4.287c0.271,1.298,0.644,2.41,1.112,3.339
	c0.469,0.924,1.049,1.754,1.741,2.486c0.692,0.73,1.415,1.327,2.167,1.784c0.748,0.459,1.6,0.854,2.543,1.187
	c0.948,0.33,1.843,0.586,2.694,0.76c0.846,0.177,1.778,0.312,2.794,0.41c-1.6,1.094-2.4,2.827-2.4,5.209v4.58
	c-0.884-0.266-1.754-0.574-2.609-0.938c-2.995-1.268-5.689-3.084-8.001-5.396s-4.129-5.005-5.395-8.002
	c-1.312-3.1-1.977-6.395-1.977-9.794c0-3.399,0.665-6.694,1.977-9.795c1.266-2.996,3.083-5.689,5.395-8
	c2.312-2.313,5.006-4.128,8.001-5.396c3.1-1.311,6.395-1.976,9.793-1.976c3.4,0,6.697,0.666,9.797,1.976
	c2.997,1.268,5.688,3.083,8.002,5.396c2.312,2.312,4.129,5.005,5.396,8c1.312,3.101,1.975,6.396,1.975,9.795
	c0,3.399-0.663,6.694-1.975,9.794C51.895,42.758,50.076,45.449,47.766,47.764z"/>
</svg>
