<?xml version="1.0" encoding="utf-8"?>
<!-- Generator: Adobe Illustrator 16.0.4, SVG Export Plug-In . SVG Version: 6.00 Build 0)  -->
<!DOCTYPE svg PUBLIC "-//W3C//DTD SVG 1.1//EN" "http://www.w3.org/Graphics/SVG/1.1/DTD/svg11.dtd">
<svg version="1.1" id="Layer_1" xmlns="http://www.w3.org/2000/svg" xmlns:xlink="http://www.w3.org/1999/xlink" x="0px" y="0px"
	 width="60px" height="60px" viewBox="0 0 60 60" enable-background="new 0 0 60 60" xml:space="preserve">
<circle fill="#F37463" cx="30" cy="30" r="29.871"/>
<path fill="#FFF1CA" d="M30.029,0C1.204,1.047,0,30.073,0,30.028v0.045c0,5.553,3.163,28.629,30.029,30.028h0.045
	c30.059-2.34,30.029-30.074,30.029-30.074C58.546,0,30.029,0,30.029,0z M22.539,48.833h-7.513V22.539h7.513V48.833z M18.782,18.781
	c-2.074,0-3.756-1.682-3.756-3.756c0-2.075,1.682-3.756,3.756-3.756c2.075,0,3.756,1.682,3.756,3.756
	C22.539,17.1,20.857,18.781,18.782,18.781z M48.834,48.833H41.32V33.809c0-2.076-1.682-3.758-3.756-3.758
	c-2.076,0-3.758,1.682-3.758,3.758v15.024h-7.513V22.539h7.513v4.664c1.551-2.128,3.918-4.664,6.573-4.664
	c4.669,0,8.453,4.205,8.453,9.391L48.834,48.833L48.834,48.833z"/>
</svg>
