<?xml version="1.0" encoding="utf-8"?>
<!-- Generator: Adobe Illustrator 16.0.4, SVG Export Plug-In . SVG Version: 6.00 Build 0)  -->
<!DOCTYPE svg PUBLIC "-//W3C//DTD SVG 1.1//EN" "http://www.w3.org/Graphics/SVG/1.1/DTD/svg11.dtd">
<svg version="1.1" id="Layer_1" xmlns="http://www.w3.org/2000/svg" xmlns:xlink="http://www.w3.org/1999/xlink" x="0px" y="0px"
	 width="60px" height="60px" viewBox="0 0 60 60" enable-background="new 0 0 60 60" xml:space="preserve">
<circle fill="#F37463" cx="30" cy="30" r="29.871"/>
<path fill="#FFF0C9" d="M29.989,0C13.427,0,0,13.427,0,29.989c0,16.564,13.427,29.989,29.989,29.989s29.989-13.427,29.989-29.989
	C59.979,13.427,46.553,0,29.989,0z M48.29,22.04c0.018,0.38,0.024,0.765,0.024,1.15c0,11.751-8.945,25.302-25.301,25.302
	c-5.021,0-9.696-1.474-13.632-3.998c0.695,0.084,1.404,0.124,2.122,0.124c4.166,0,8-1.422,11.044-3.805
	c-3.892-0.07-7.175-2.643-8.307-6.176c0.543,0.104,1.1,0.16,1.674,0.16c0.811,0,1.596-0.108,2.343-0.312
	c-4.068-0.817-7.134-4.412-7.134-8.72c0-0.037,0-0.075,0.002-0.112c1.198,0.665,2.57,1.066,4.027,1.112
	c-2.387-1.595-3.956-4.316-3.956-7.402c0-1.629,0.438-3.157,1.204-4.47c4.386,5.38,10.938,8.92,18.328,9.291
	c-0.151-0.651-0.229-1.329-0.229-2.026c0-4.911,3.982-8.893,8.893-8.893c2.559,0,4.87,1.08,6.49,2.808
	c2.027-0.398,3.931-1.139,5.648-2.157c-0.664,2.076-2.074,3.819-3.911,4.918c1.8-0.214,3.514-0.692,5.109-1.4
	C51.533,19.22,50.027,20.787,48.29,22.04z"/>
</svg>
