<?xml version="1.0" encoding="utf-8"?>
<!-- Generator: Adobe Illustrator 16.0.4, SVG Export Plug-In . SVG Version: 6.00 Build 0)  -->
<!DOCTYPE svg PUBLIC "-//W3C//DTD SVG 1.1//EN" "http://www.w3.org/Graphics/SVG/1.1/DTD/svg11.dtd">
<svg version="1.1" id="Layer_1" xmlns="http://www.w3.org/2000/svg" xmlns:xlink="http://www.w3.org/1999/xlink" x="0px" y="0px"
	 width="159px" height="60px" viewBox="0 0 159 60" enable-background="new 0 0 158.571 60" xml:space="preserve">
<g>
	<polygon fill="#9DA6BF" points="85.953,37.96 85.957,37.965 85.957,37.962 	"/>
	<path fill="#C9D0E5" d="M119.252,26.198L119.252,26.198L119.252,26.198z"/>
	<path fill="#656F8C" d="M145.421,14.885L145.421,14.885L145.421,14.885z"/>
	<polygon fill="#F8A17B" points="65.965,13.066 52.987,-0.089 53.171,16.11 	"/>
	<polygon fill="#F8A17B" points="79.894,24.864 66.003,24.864 85.99,37.978 	"/>
	<polygon fill="#F8A17B" points="85.99,37.978 93.034,49.582 93.034,19.615 	"/>
	<polygon fill="#F8A17B" points="79.894,37.978 79.894,60.006 85.99,37.978 	"/>
	<polygon fill="#F8A17B" points="66.003,24.864 59.335,38.037 65.965,37.978 	"/>
	<polygon fill="#F8A17B" points="65.965,37.978 58.125,51.448 65.965,60.006 	"/>
	<polygon fill="#F8A17B" points="93.034,13.07 93.034,-0.089 79.894,13.066 	"/>
	<polygon fill="#F8A17B" points="26.825,-0.067 26.886,12.496 31.669,12.386 	"/>
	<polygon fill="#F8A17B" points="0.164,-0.067 12.96,12.496 26.825,-0.067 	"/>
	<polygon fill="#F8A17B" points="12.96,12.496 0.164,12.518 0.164,29.146 	"/>
	<polygon fill="#F8A17B" points="12.96,37.805 0.164,29.146 0.164,47.772 	"/>
	<polygon fill="#F8A17B" points="12.96,47.843 0.164,60.123 26.882,60.123 	"/>
	<polygon fill="#F8A17B" points="26.886,47.843 40.026,60.123 40.026,47.809 	"/>
	<polygon fill="#F8A17B" points="119.257,12.991 113.6,7.368 119.23,26.175 	"/>
	<polygon fill="#F8A17B" points="113.571,35.896 109.829,47.981 119.23,43.351 	"/>
	<polygon fill="#F8A17B" points="139.392,31.635 132.343,13.066 132.343,37.978 	"/>
	<polygon fill="#F8A17B" points="158.566,60.006 158.578,41.071 150.82,52.182 	"/>
	<polygon fill="#F8A17B" points="158.587,14.865 145.421,14.756 145.455,26.175 	"/>
	<polygon fill="#F47A53" points="132.343,13.066 119.257,-0.098 119.257,15.28 	"/>
	<polygon fill="#F47A53" points="75.328,30.985 66.003,24.864 65.965,37.978 	"/>
	<polygon fill="#F47A53" points="79.894,60.006 93.034,49.582 85.99,37.978 	"/>
	<polygon fill="#F47A53" points="59.335,38.037 53.171,16.11 53.171,38.049 	"/>
	<polygon fill="#F47A53" points="58.125,51.448 53.171,60.006 65.965,60.006 	"/>
	<polygon fill="#F47A53" points="93.034,13.07 79.894,13.066 93.034,19.615 	"/>
	<polygon fill="#F47A53" points="79.652,-0.089 65.818,-0.089 65.965,13.066 	"/>
	<polygon fill="#F47A53" points="26.886,19.525 31.669,12.386 26.886,12.496 	"/>
	<polygon fill="#F47A53" points="26.825,-0.067 12.96,12.496 26.886,12.496 	"/>
	<polygon fill="#F47A53" points="12.96,12.496 0.164,29.146 12.96,23.585 	"/>
	<polygon fill="#F47A53" points="0.164,47.772 0.164,60.123 12.96,47.843 	"/>
	<polygon fill="#F47A53" points="26.886,47.843 40.026,47.809 40.026,40.811 	"/>
	<polygon fill="#F47A53" points="119.23,26.175 113.6,7.368 106.146,26.17 	"/>
	<polygon fill="#F47A53" points="106.146,59.933 119.23,60.025 109.829,47.981 	"/>
	<polygon fill="#F47A53" points="106.146,26.17 106.146,40.138 113.571,35.896 	"/>
	<polygon fill="#F47A53" points="119.23,26.175 132.343,37.978 132.348,26.12 	"/>
	<polygon fill="#F47A53" points="158.595,-0.098 145.484,-0.098 158.587,14.865 	"/>
	<polygon fill="#F47A53" points="158.578,41.071 151.405,21.022 145.455,26.175 	"/>
	<polygon fill="#F47A53" points="145.455,60.006 158.578,41.071 145.455,41.071 	"/>
	<polygon fill="#F47A53" points="145.421,14.756 139.392,31.635 145.455,26.175 	"/>
	<polygon fill="#FCC9A2" points="79.894,13.066 79.894,24.864 93.034,19.615 	"/>
	<polygon fill="#FCC9A2" points="65.965,13.066 53.171,16.11 66.003,24.864 	"/>
	<polygon fill="#FCC9A2" points="85.99,37.978 75.328,30.985 65.965,37.978 	"/>
	<polygon fill="#FCC9A2" points="65.965,37.978 53.171,38.049 53.171,60.006 	"/>
	<polygon fill="#FCC9A2" points="79.652,-0.089 71.58,7.668 79.894,13.066 	"/>
	<polygon fill="#FCC9A2" points="12.96,47.843 26.882,60.123 26.886,47.843 	"/>
	<polygon fill="#FCC9A2" points="12.96,23.585 0.164,29.146 12.96,37.805 	"/>
	<polygon fill="#FCC9A2" points="106.146,-0.098 106.146,26.17 113.6,7.368 	"/>
	<polygon fill="#FCC9A2" points="119.23,26.175 106.146,26.17 119.23,43.351 	"/>
	<polygon fill="#FCC9A2" points="109.829,47.981 119.23,60.025 119.23,43.351 	"/>
	<polygon fill="#FCC9A2" points="132.343,13.066 119.23,26.175 132.348,26.12 	"/>
	<polygon fill="#FCC9A2" points="158.578,41.071 158.587,14.865 151.405,21.022 	"/>
	<polygon fill="#FCC9A2" points="145.484,-0.098 132.343,13.066 145.421,14.756 	"/>
	<polygon fill="#FCC9A2" points="26.886,19.525 40.026,19.525 40.026,-0.067 	"/>
	<polygon fill="#FFF0C9" points="119.257,15.28 119.23,26.175 132.343,13.066 	"/>
	<polygon fill="#FFF0C9" points="79.894,13.066 93.034,-0.089 79.652,-0.089 	"/>
	<polygon fill="#FFF0C9" points="65.818,-0.089 52.987,-0.089 65.965,13.066 	"/>
	<polygon fill="#FFF0C9" points="93.034,19.615 79.894,24.864 85.99,37.978 	"/>
	<polygon fill="#FFF0C9" points="79.894,60.006 93.034,60.006 93.034,49.582 	"/>
	<polygon fill="#FFF0C9" points="66.003,24.864 53.171,16.11 59.335,38.037 	"/>
	<polygon fill="#FFF0C9" points="26.825,-0.067 31.669,12.386 39.991,-0.067 	"/>
	<polygon fill="#FFF0C9" points="0.164,-0.067 0.164,12.518 12.96,12.496 	"/>
	<polygon fill="#FFF0C9" points="12.96,37.805 0.164,47.772 12.96,47.843 	"/>
	<polygon fill="#FFF0C9" points="26.886,40.811 26.886,47.843 40.026,40.811 	"/>
	<polygon fill="#FFF0C9" points="26.882,60.123 40.026,60.123 26.886,47.843 	"/>
	<polygon fill="#FFF0C9" points="119.257,-0.098 106.146,-0.098 119.257,12.991 	"/>
	<polygon fill="#FFF0C9" points="113.571,35.896 106.146,40.138 106.146,59.933 	"/>
	<polygon fill="#FFF0C9" points="150.82,52.182 145.455,60.006 158.566,60.006 	"/>
	<polygon fill="#FFF0C9" points="158.587,14.865 145.484,-0.098 145.421,14.756 	"/>
	<polygon fill="#FFF0C9" points="145.455,26.175 145.455,41.071 158.578,41.071 	"/>
	<polygon fill="#FFF0C9" points="132.343,13.066 139.392,31.635 145.421,14.756 	"/>
	<polygon fill="#FFF0C9" points="65.965,13.066 71.58,7.668 79.894,13.066 	"/>
	<polygon fill="#9DA6BF" points="85.953,37.96 85.957,37.965 85.957,37.962 	"/>
	<path fill="#C9D0E5" d="M119.253,26.198L119.253,26.198L119.253,26.198z"/>
	<path fill="#656F8C" d="M145.421,14.885L145.421,14.885L145.421,14.885z"/>
</g>
</svg>
