<?xml version="1.0" encoding="utf-8"?>
<!-- Generator: Adobe Illustrator 16.0.4, SVG Export Plug-In . SVG Version: 6.00 Build 0)  -->
<!DOCTYPE svg PUBLIC "-//W3C//DTD SVG 1.1//EN" "http://www.w3.org/Graphics/SVG/1.1/DTD/svg11.dtd">
<svg version="1.1" id="Layer_1" xmlns="http://www.w3.org/2000/svg" xmlns:xlink="http://www.w3.org/1999/xlink" x="0px" y="0px"
	 width="400px" height="400px" viewBox="0 0 400 400" enable-background="new 0 0 400 400" xml:space="preserve">
<g>
	<path fill="#414042" d="M220.812,184.422c3.251,4.331,5.213,9.755,5.213,15.578c0,2.75-0.526,5.695-1.321,8.181l12.151-25.288
		L220.812,184.422z"/>
	<path fill="#9ABA9A" d="M224.704,208.653c-0.056,0-0.116-0.013-0.175-0.032c-0.231-0.093-0.35-0.349-0.274-0.582
		c0.838-2.619,1.297-5.473,1.297-8.039c0-5.467-1.817-10.899-5.117-15.295c-0.104-0.137-0.124-0.318-0.055-0.475
		c0.07-0.156,0.217-0.263,0.387-0.279l16.043-1.529c0.165-0.021,0.333,0.06,0.432,0.198c0.095,0.14,0.112,0.32,0.037,0.474
		l-12.15,25.291C225.05,208.555,224.881,208.653,224.704,208.653z M221.679,184.812c3.111,4.433,4.818,9.794,4.818,15.188
		c0,1.303-0.113,2.675-0.331,4.053l9.903-20.612L221.679,184.812z"/>
</g>
<g>
	<polygon fill="#414042" points="154.222,167.749 150.635,157.081 138.006,178.892 	"/>
	<path fill="#9ABA9A" d="M138.006,179.363c-0.116,0-0.231-0.043-0.321-0.127c-0.163-0.15-0.199-0.392-0.089-0.582l12.63-21.809
		c0.092-0.16,0.276-0.246,0.456-0.233c0.184,0.019,0.34,0.143,0.4,0.318l3.587,10.667c0.067,0.2-0.007,0.42-0.18,0.54
		l-16.218,11.141C138.191,179.334,138.1,179.363,138.006,179.363z M150.521,158.221l-11.06,19.097l14.199-9.756L150.521,158.221z"/>
</g>
<g>
	<path fill="#414042" d="M138.006,178.892c3.638,2.061,6.783,5.077,9.023,8.944c0.765,1.321,1.429,2.8,1.919,4.188l5.274-24.274
		L138.006,178.892z"/>
	<path fill="#9ABA9A" d="M148.948,192.496c-0.199,0-0.378-0.125-0.444-0.313c-0.501-1.417-1.17-2.877-1.883-4.109
		c-2.119-3.658-5.178-6.691-8.849-8.771c-0.142-0.08-0.232-0.227-0.238-0.39c-0.006-0.162,0.071-0.317,0.205-0.409l16.216-11.141
		c0.159-0.11,0.37-0.111,0.531-0.004c0.161,0.107,0.239,0.302,0.197,0.491l-5.273,24.276c-0.045,0.207-0.221,0.355-0.431,0.37
		C148.969,192.496,148.958,192.496,148.948,192.496z M138.884,178.858c3.528,2.145,6.476,5.153,8.555,8.741
		c0.494,0.854,0.967,1.813,1.383,2.792l4.687-21.58L138.884,178.858z"/>
</g>
<g>
	<path fill="#414042" d="M167.244,159.995c-5.434,0.903-11.45,0.047-16.609-2.914l3.587,10.667L167.244,159.995z"/>
	<path fill="#9ABA9A" d="M154.222,168.221c-0.055,0-0.11-0.01-0.164-0.028c-0.135-0.05-0.238-0.157-0.283-0.293l-3.588-10.668
		c-0.062-0.186-0.003-0.39,0.149-0.515c0.151-0.123,0.363-0.141,0.534-0.044c3.643,2.09,7.86,3.194,12.201,3.194
		c1.377,0,2.756-0.114,4.095-0.338c0.219-0.04,0.442,0.09,0.52,0.303c0.079,0.213-0.006,0.451-0.201,0.568l-13.023,7.754
		C154.389,168.197,154.306,168.221,154.222,168.221z M151.464,158.066l3.02,8.978l10.6-6.312
		C160.351,161.098,155.576,160.16,151.464,158.066z"/>
</g>
<g>
	<path fill="#414042" d="M154.222,167.749l-5.274,24.274l18.296-32.028C167.166,160.01,154.222,167.749,154.222,167.749z"/>
	<path fill="#9ABA9A" d="M148.948,192.496c-0.057,0-0.113-0.01-0.169-0.031c-0.217-0.081-0.34-0.312-0.292-0.539l5.274-24.275
		c0.027-0.128,0.107-0.239,0.218-0.305c13.02-7.784,13.066-7.793,13.183-7.813c0.179-0.033,0.362,0.043,0.468,0.191
		c0.106,0.15,0.115,0.349,0.025,0.507l-18.295,32.029C149.271,192.408,149.115,192.496,148.948,192.496z M154.64,168.049
		l-4.578,21.078l15.895-27.828C163.207,162.931,157.397,166.4,154.64,168.049z"/>
</g>
<g>
	<path fill="#414042" d="M149.078,207.513c-1.807,5.538-5.594,10.468-11.05,13.637l12.628,21.807L149.078,207.513z"/>
	<path fill="#9ABA9A" d="M150.657,243.43c-0.166,0-0.324-0.088-0.408-0.237l-12.628-21.81c-0.132-0.224-0.055-0.514,0.17-0.643
		c5.151-2.992,9-7.741,10.838-13.374c0.07-0.217,0.291-0.351,0.512-0.32c0.226,0.03,0.398,0.219,0.407,0.445l1.579,35.445
		c0.01,0.219-0.13,0.413-0.34,0.474C150.747,243.424,150.701,243.43,150.657,243.43z M138.67,221.316l11.431,19.738l-1.392-31.233
		C146.652,214.582,143.155,218.6,138.67,221.316z"/>
</g>
<g>
	<path fill="#414042" d="M149.078,207.513l1.58,35.444c3.598-2.088,7.773-3.285,12.225-3.285c1.262,0,2.5,0.098,3.712,0.284
		L149.078,207.513z"/>
	<path fill="#9ABA9A" d="M150.657,243.43c-0.078,0-0.156-0.021-0.226-0.059c-0.145-0.08-0.238-0.229-0.246-0.394l-1.577-35.445
		c-0.011-0.219,0.134-0.415,0.346-0.475c0.212-0.062,0.436,0.035,0.541,0.229l17.518,32.442c0.084,0.157,0.075,0.351-0.03,0.497
		c-0.101,0.146-0.276,0.222-0.456,0.193c-5.388-0.821-10.954,0.23-15.631,2.943C150.821,243.408,150.741,243.43,150.657,243.43z
		 M149.642,209.549l1.453,32.623c4.443-2.396,9.577-3.386,14.646-2.806L149.642,209.549z"/>
</g>
<g>
	<polygon fill="#414042" points="166.596,239.956 170.479,217.82 149.078,207.513 	"/>
	<path fill="#9ABA9A" d="M166.596,240.427c-0.171,0-0.331-0.093-0.414-0.245l-17.518-32.443c-0.098-0.183-0.068-0.403,0.074-0.55
		c0.141-0.148,0.363-0.189,0.545-0.1l21.401,10.308c0.189,0.092,0.296,0.298,0.26,0.507l-3.882,22.135
		c-0.033,0.196-0.191,0.352-0.389,0.385C166.647,240.425,166.623,240.427,166.596,240.427z M150.185,208.569l16.182,29.968
		l3.586-20.447L150.185,208.569z"/>
</g>
<g>
	<path fill="#414042" d="M148.948,192.023c1.68,4.978,1.668,10.654,0.13,15.489l21.401,10.308L148.948,192.023z"/>
	<path fill="#9ABA9A" d="M170.479,218.292c-0.07,0-0.14-0.016-0.205-0.049l-21.4-10.306c-0.212-0.102-0.316-0.346-0.244-0.569
		c1.542-4.848,1.495-10.384-0.127-15.195c-0.073-0.215,0.018-0.451,0.217-0.563c0.196-0.113,0.447-0.063,0.593,0.109l21.53,25.798
		c0.141,0.171,0.146,0.415,0.01,0.591C170.759,218.228,170.622,218.292,170.479,218.292z M149.649,207.265l19.071,9.184
		l-18.707-22.412C151.031,198.349,150.912,203.042,149.649,207.265z"/>
</g>
<g>
	<polygon fill="#414042" points="168.548,183.06 148.948,192.023 169.375,197.949 	"/>
	<path fill="#9ABA9A" d="M169.375,198.42c-0.043,0-0.087-0.006-0.131-0.02l-20.427-5.925c-0.19-0.055-0.326-0.222-0.34-0.419
		c-0.014-0.196,0.096-0.38,0.273-0.463l19.6-8.967c0.142-0.063,0.307-0.053,0.439,0.026c0.135,0.081,0.218,0.223,0.227,0.379
		l0.829,14.889c0.009,0.154-0.057,0.301-0.177,0.397C169.584,198.386,169.482,198.42,169.375,198.42z M150.3,191.925l18.568,5.386
		l-0.752-13.535L150.3,191.925z"/>
</g>
<g>
	<polygon fill="#414042" points="170.479,217.82 169.375,197.949 148.948,192.023 	"/>
	<path fill="#9ABA9A" d="M170.479,218.292c-0.137,0-0.271-0.062-0.363-0.17l-21.529-25.797c-0.134-0.159-0.146-0.387-0.033-0.561
		c0.113-0.175,0.326-0.254,0.527-0.193l20.425,5.924c0.193,0.056,0.329,0.228,0.339,0.426l1.103,19.873
		c0.011,0.202-0.108,0.392-0.298,0.463C170.596,218.282,170.536,218.292,170.479,218.292z M150.3,192.907l19.629,23.518
		l-1.005-18.117L150.3,192.907z"/>
</g>
<g>
	<polygon fill="#414042" points="168.548,183.06 167.244,159.995 148.948,192.023 	"/>
	<path fill="#9ABA9A" d="M148.948,192.496c-0.129,0-0.256-0.053-0.348-0.153c-0.137-0.15-0.163-0.374-0.061-0.552l18.296-32.029
		c0.104-0.183,0.312-0.271,0.518-0.226c0.202,0.048,0.351,0.224,0.362,0.433l1.303,23.063c0.012,0.191-0.097,0.373-0.273,0.454
		l-19.6,8.967C149.082,192.481,149.016,192.496,148.948,192.496z M166.863,161.613l-16.779,29.372l17.974-8.222L166.863,161.613z"/>
</g>
<g>
	<path fill="#414042" d="M170.479,217.82l-3.883,22.136c5.178,0.824,10.035,3.38,13.588,6.925L170.479,217.82z"/>
	<path fill="#9ABA9A" d="M180.184,247.354c-0.122,0-0.241-0.047-0.332-0.138c-3.54-3.53-8.398-6.01-13.33-6.796
		c-0.125-0.021-0.235-0.09-0.311-0.191c-0.073-0.104-0.102-0.23-0.081-0.355l3.881-22.134c0.038-0.213,0.214-0.373,0.431-0.39
		c0.221-0.019,0.413,0.118,0.482,0.321l9.707,29.064c0.069,0.205-0.013,0.435-0.198,0.55
		C180.356,247.331,180.272,247.354,180.184,247.354z M167.143,239.569c4.416,0.794,8.605,2.794,12.01,5.717l-8.531-25.55
		L167.143,239.569z"/>
</g>
<g>
	<path fill="#414042" d="M186.714,222.311c-7.625-4.523-12.734-12.823-12.734-22.311c0-1.164,0.076-2.313,0.226-3.44l-3.727,21.261
		L186.714,222.311z"/>
	<path fill="#9ABA9A" d="M186.714,222.782c-0.042,0-0.084-0.006-0.125-0.017l-16.234-4.489c-0.234-0.067-0.381-0.298-0.34-0.536
		l3.729-21.261c0.044-0.252,0.282-0.422,0.537-0.385c0.253,0.039,0.43,0.274,0.396,0.527c-0.148,1.108-0.222,2.243-0.222,3.378
		c0,8.937,4.792,17.33,12.504,21.905c0.204,0.12,0.286,0.373,0.194,0.59C187.073,222.673,186.898,222.782,186.714,222.782z
		 M171.016,217.479l13.022,3.601c-5.878-4.443-9.68-11.2-10.403-18.522L171.016,217.479z"/>
</g>
<g>
	<path fill="#414042" d="M213.146,222.396c-3.833,2.218-8.39,3.55-13.143,3.55c-4.821,0-9.417-1.355-13.289-3.635l6.788,14.806
		L213.146,222.396z"/>
	<path fill="#9ABA9A" d="M193.5,237.588c-0.039,0-0.078-0.005-0.116-0.015c-0.137-0.035-0.253-0.133-0.312-0.262l-6.785-14.804
		c-0.086-0.189-0.041-0.409,0.113-0.549c0.153-0.139,0.378-0.16,0.555-0.056c3.967,2.337,8.479,3.569,13.05,3.569
		c4.502,0,8.967-1.206,12.908-3.487c0.219-0.128,0.493-0.06,0.631,0.148c0.136,0.209,0.088,0.488-0.11,0.638l-19.646,14.719
		C193.7,237.556,193.602,237.588,193.5,237.588z M187.739,223.417l5.947,12.973l15.503-11.618
		C202.241,227.33,194.323,226.827,187.739,223.417z"/>
</g>
<g>
	<polygon fill="#414042" points="186.714,222.311 170.479,217.82 180.184,246.884 	"/>
	<path fill="#9ABA9A" d="M180.184,247.354c-0.203,0-0.382-0.131-0.447-0.322l-9.707-29.062c-0.055-0.166-0.015-0.349,0.106-0.475
		c0.119-0.126,0.301-0.176,0.468-0.13l16.234,4.49c0.249,0.067,0.397,0.325,0.33,0.575l-6.528,24.572
		c-0.053,0.201-0.232,0.343-0.441,0.351C180.195,247.354,180.19,247.354,180.184,247.354z M171.206,218.51l8.929,26.729
		l6.004-22.599L171.206,218.51z"/>
</g>
<g>
	<polygon fill="#414042" points="186.714,222.311 180.184,246.884 193.5,237.116 	"/>
	<path fill="#9ABA9A" d="M180.184,247.354c-0.091,0-0.185-0.026-0.264-0.082c-0.165-0.112-0.242-0.317-0.19-0.511l6.529-24.571
		c0.052-0.192,0.217-0.333,0.416-0.351c0.195-0.019,0.386,0.093,0.469,0.274l6.786,14.807c0.093,0.203,0.032,0.444-0.15,0.576
		l-13.313,9.768C180.382,247.323,180.283,247.354,180.184,247.354z M186.832,223.701l-5.848,22.012l11.927-8.75L186.832,223.701z"/>
</g>
<g>
	<polygon fill="#414042" points="193.5,237.116 219.426,247.158 221.91,231.471 	"/>
	<path fill="#9ABA9A" d="M219.426,247.629c-0.056,0-0.114-0.01-0.167-0.032l-25.929-10.04c-0.197-0.076-0.318-0.271-0.298-0.481
		c0.017-0.208,0.172-0.381,0.378-0.422l28.412-5.646c0.153-0.03,0.307,0.016,0.419,0.125c0.112,0.106,0.163,0.259,0.139,0.411
		l-2.484,15.686c-0.021,0.142-0.107,0.266-0.23,0.337C219.592,247.607,219.509,247.629,219.426,247.629z M195.184,237.261
		l23.869,9.245l2.285-14.44L195.184,237.261z"/>
</g>
<g>
	<polygon fill="#414042" points="213.146,222.396 193.5,237.116 221.91,231.471 	"/>
	<path fill="#9ABA9A" d="M193.5,237.588c-0.184,0-0.354-0.105-0.432-0.281c-0.09-0.198-0.029-0.438,0.148-0.569l19.648-14.72
		c0.189-0.145,0.455-0.123,0.622,0.048l8.765,9.076c0.119,0.124,0.163,0.303,0.109,0.469c-0.049,0.165-0.189,0.287-0.357,0.319
		l-28.412,5.646C193.561,237.586,193.531,237.588,193.5,237.588z M213.098,223.021l-17.654,13.227l25.527-5.073L213.098,223.021z"/>
</g>
<g>
	<path fill="#414042" d="M221.91,231.471l-2.484,15.688c3.083-3.158,6.977-5.41,11.122-6.532l0.125-0.081L221.91,231.471z"/>
	<path fill="#9ABA9A" d="M219.426,247.629c-0.071,0-0.142-0.017-0.211-0.05c-0.183-0.091-0.286-0.294-0.254-0.495l2.484-15.688
		c0.028-0.177,0.155-0.322,0.324-0.375c0.169-0.055,0.357-0.006,0.481,0.122l8.761,9.076c0.098,0.1,0.145,0.242,0.13,0.384
		c-0.017,0.139-0.096,0.266-0.217,0.343l-0.125,0.078c-0.042,0.025-0.083,0.045-0.13,0.058c-4.137,1.122-7.91,3.339-10.906,6.406
		C219.674,247.581,219.552,247.629,219.426,247.629z M222.23,232.479l-2.115,13.358c2.778-2.535,6.099-4.416,9.706-5.496
		L222.23,232.479z"/>
</g>
<g>
	<path fill="#414042" d="M230.674,240.547l-0.125,0.08c0.053-0.017,0.105-0.031,0.159-0.045L230.674,240.547z"/>
	<path fill="#9ABA9A" d="M230.588,241.086c-0.188,0-0.371-0.102-0.447-0.274c-0.097-0.214-0.043-0.46,0.155-0.585l0.125-0.08
		c0.19-0.118,0.439-0.087,0.597,0.075c0.112,0.122,0.173,0.312,0.127,0.472c-0.046,0.16-0.156,0.301-0.317,0.344l-0.103,0.028
		C230.679,241.079,230.634,241.086,230.588,241.086z"/>
</g>
<g>
	<polygon fill="#414042" points="193.5,237.116 180.184,246.884 219.426,247.158 	"/>
	<path fill="#9ABA9A" d="M219.426,247.629c0,0,0,0-0.002,0l-39.243-0.274c-0.204-0.001-0.382-0.133-0.444-0.326
		s0.005-0.406,0.169-0.526l13.315-9.767c0.132-0.095,0.299-0.115,0.45-0.059l25.928,10.04c0.213,0.083,0.335,0.306,0.293,0.528
		C219.848,247.469,219.655,247.629,219.426,247.629z M181.612,246.421l35.244,0.247l-23.286-9.02L181.612,246.421z"/>
</g>
<g>
	<path fill="#414042" d="M187.389,135.932c0.034,4.181-1.014,8.42-3.259,12.295c-0.208,0.359-0.72,1.159-0.945,1.503l29.442-13.767
		L187.389,135.932z"/>
	<path fill="#9ABA9A" d="M183.185,150.202c-0.134,0-0.265-0.056-0.356-0.162c-0.138-0.159-0.155-0.391-0.039-0.567
		c0.221-0.341,0.727-1.127,0.932-1.482c2.125-3.667,3.229-7.835,3.196-12.056c-0.001-0.126,0.05-0.246,0.137-0.338
		c0.088-0.087,0.209-0.138,0.333-0.138l0,0l25.239,0.031c0.22,0,0.412,0.153,0.461,0.369c0.045,0.216-0.062,0.436-0.262,0.529
		l-29.443,13.768C183.319,150.188,183.252,150.202,183.185,150.202z M187.862,136.405c-0.049,4.224-1.194,8.384-3.322,12.059
		c-0.027,0.045-0.059,0.097-0.094,0.155l26.065-12.188L187.862,136.405z"/>
</g>
<g>
	<path fill="#414042" d="M216.859,149.699c-2.657-3.927-4.232-8.634-4.232-13.734l-29.442,13.767L216.859,149.699z"/>
	<path fill="#9ABA9A" d="M183.185,150.202c-0.221,0-0.413-0.152-0.46-0.368c-0.048-0.216,0.06-0.437,0.261-0.53l29.442-13.767
		c0.147-0.067,0.317-0.058,0.454,0.028c0.138,0.086,0.219,0.236,0.219,0.399c0,4.802,1.435,9.458,4.149,13.47
		c0.098,0.144,0.109,0.332,0.026,0.485c-0.082,0.153-0.243,0.251-0.416,0.251L183.185,150.202L183.185,150.202z M212.166,136.699
		l-26.854,12.558l30.676-0.028C213.609,145.44,212.296,141.14,212.166,136.699z"/>
</g>
<g>
	<path fill="#414042" d="M167.244,159.995l18.759,18.13l-2.819-28.396C179.382,155.246,173.502,158.886,167.244,159.995z"/>
	<path fill="#9ABA9A" d="M186.003,178.598c-0.12,0-0.238-0.046-0.328-0.133l-18.76-18.131c-0.127-0.123-0.174-0.307-0.124-0.476
		c0.052-0.17,0.194-0.297,0.368-0.328c6.293-1.115,11.992-4.784,15.636-10.067c0.111-0.163,0.314-0.237,0.505-0.188
		c0.191,0.049,0.333,0.212,0.353,0.408l2.82,28.396c0.019,0.196-0.086,0.386-0.265,0.47
		C186.144,178.582,186.074,178.598,186.003,178.598z M168.222,160.283l17.185,16.609l-2.569-25.883
		C179.229,155.711,173.999,159.035,168.222,160.283z"/>
</g>
<g>
	<path fill="#414042" d="M183.185,149.731l2.819,28.396c4.002-2.528,8.84-4.054,13.926-4.07L183.185,149.731z"/>
	<path fill="#9ABA9A" d="M186.003,178.598c-0.07,0-0.14-0.016-0.207-0.049c-0.147-0.07-0.246-0.213-0.263-0.377l-2.819-28.395
		c-0.021-0.214,0.105-0.415,0.306-0.489c0.202-0.074,0.43-0.003,0.55,0.175l16.745,24.325c0.1,0.144,0.111,0.333,0.03,0.487
		c-0.081,0.156-0.242,0.252-0.417,0.254c-4.83,0.014-9.559,1.396-13.676,3.995C186.179,178.572,186.092,178.598,186.003,178.598z
		 M183.835,151.508l2.564,25.823c3.855-2.289,8.194-3.566,12.644-3.729L183.835,151.508z"/>
</g>
<g>
	<path fill="#414042" d="M199.929,174.057l16.93-24.356c0,0-33.667,0.022-33.674,0.031
		C183.185,149.731,199.926,174.057,199.929,174.057z"/>
	<path fill="#9ABA9A" d="M199.929,174.529c-0.25,0-0.25,0-8.763-12.368l-8.371-12.164c-0.113-0.164-0.111-0.383,0.007-0.546
		c0.149-0.204,0.149-0.204,34.056-0.226l0,0c0.176,0,0.336,0.098,0.417,0.252c0.082,0.156,0.07,0.345-0.03,0.489l-16.93,24.355
		C200.228,174.453,200.083,174.529,199.929,174.529z M184.079,150.2c2.518,3.657,13.636,19.812,15.851,23.027l16.027-23.056
		C211.166,150.177,188.819,150.189,184.079,150.2z"/>
</g>
<g>
	<path fill="#414042" d="M216.859,149.699l-16.93,24.355l26.361-16.117C222.51,156.067,219.226,153.164,216.859,149.699z"/>
	<path fill="#9ABA9A" d="M199.929,174.529c-0.126,0-0.253-0.053-0.343-0.149c-0.154-0.162-0.172-0.409-0.046-0.593l16.931-24.356
		c0.088-0.127,0.233-0.202,0.387-0.202h0.001c0.156,0.001,0.3,0.078,0.389,0.204c2.363,3.464,5.563,6.258,9.25,8.085
		c0.155,0.077,0.255,0.231,0.263,0.402c0.007,0.171-0.081,0.334-0.225,0.423l-26.361,16.119
		C200.1,174.507,200.014,174.529,199.929,174.529z M216.86,150.523l-15.265,21.961l23.733-14.511
		C222.01,156.186,219.106,153.628,216.86,150.523z"/>
</g>
<g>
	<path fill="#414042" d="M199.929,174.057c1.578,0,3.202,0.139,4.702,0.408c1.335,0.239,2.637,0.58,3.893,1.015l11.776,3.065
		l5.989-20.607L199.929,174.057z"/>
	<path fill="#9ABA9A" d="M220.3,179.019c-0.039,0-0.08-0.006-0.119-0.016l-11.776-3.066c-1.278-0.44-2.566-0.775-3.859-1.008
		c-1.466-0.261-3.062-0.399-4.617-0.399c-0.212,0-0.396-0.141-0.454-0.345c-0.058-0.203,0.027-0.42,0.207-0.531l26.359-16.117
		c0.168-0.1,0.379-0.09,0.534,0.027s0.221,0.318,0.167,0.507l-5.99,20.609C220.695,178.885,220.506,179.019,220.3,179.019z
		 M201.53,173.632c1.085,0.062,2.165,0.188,3.184,0.368c1.341,0.241,2.675,0.589,3.965,1.033l11.297,2.944l5.521-19L201.53,173.632z
		"/>
</g>
<g>
	<path fill="#414042" d="M234.415,160.312c-2.805-0.335-5.695-1.169-8.125-2.372l-5.99,20.607L234.415,160.312z"/>
	<path fill="#9ABA9A" d="M220.3,179.019c-0.071,0-0.144-0.017-0.211-0.051c-0.203-0.103-0.304-0.336-0.241-0.553l5.989-20.609
		c0.038-0.135,0.134-0.244,0.264-0.299c0.126-0.056,0.273-0.052,0.397,0.01c2.366,1.17,5.196,1.997,7.971,2.326
		c0.17,0.021,0.315,0.13,0.38,0.286c0.064,0.156,0.043,0.337-0.061,0.471l-14.114,18.236
		C220.582,178.955,220.442,179.019,220.3,179.019z M226.589,158.604l-5.142,17.691l12.094-15.629
		C231.125,160.302,228.702,159.583,226.589,158.604z"/>
</g>
<g>
	<polygon fill="#414042" points="234.415,160.312 220.3,178.546 236.854,182.893 	"/>
	<path fill="#9ABA9A" d="M236.854,183.363c-0.042,0-0.082-0.005-0.12-0.018l-16.553-4.343c-0.152-0.04-0.277-0.154-0.328-0.303
		c-0.05-0.151-0.022-0.316,0.075-0.442l14.114-18.236c0.117-0.15,0.313-0.217,0.5-0.163c0.185,0.051,0.32,0.211,0.34,0.403
		l2.439,22.58c0.017,0.153-0.045,0.307-0.161,0.407C237.075,183.323,236.965,183.363,236.854,183.363z M221.11,178.272l15.202,3.987
		l-2.24-20.734L221.11,178.272z"/>
</g>
<g>
	<path fill="#414042" d="M237.088,160.456c-0.902,0-1.796-0.048-2.673-0.144l2.44,22.58l12.513-25.754
		C245.799,159.185,241.49,160.456,237.088,160.456z"/>
	<path fill="#9ABA9A" d="M236.854,183.363c-0.026,0-0.054-0.003-0.082-0.008c-0.206-0.036-0.365-0.204-0.386-0.414l-2.441-22.58
		c-0.015-0.14,0.035-0.283,0.136-0.384c0.102-0.1,0.24-0.149,0.385-0.135c4.904,0.54,10.224-0.565,14.667-3.112
		c0.179-0.104,0.406-0.079,0.556,0.064c0.152,0.14,0.193,0.364,0.103,0.551L237.281,183.1
		C237.199,183.262,237.032,183.363,236.854,183.363z M234.947,160.837l2.199,20.373l11.162-22.97
		C244.152,160.31,239.419,161.221,234.947,160.837z"/>
</g>
<g>
	<path fill="#414042" d="M236.854,182.893l16.581,4.289c2.065-3.293,4.948-6.147,8.56-8.231L236.854,182.893z"/>
	<path fill="#9ABA9A" d="M253.436,187.652c-0.038,0-0.078-0.004-0.118-0.016l-16.58-4.289c-0.218-0.057-0.363-0.257-0.353-0.479
		c0.01-0.226,0.176-0.408,0.397-0.445l25.141-3.94c0.225-0.035,0.441,0.095,0.517,0.308c0.076,0.215-0.012,0.453-0.208,0.567
		c-3.417,1.971-6.319,4.763-8.399,8.072C253.747,187.571,253.595,187.652,253.436,187.652z M239.176,183.005l14.046,3.634
		c1.735-2.682,3.996-5.023,6.623-6.875L239.176,183.005z"/>
</g>
<g>
	<polygon fill="#414042" points="249.368,157.139 236.854,182.893 261.996,178.95 	"/>
	<path fill="#9ABA9A" d="M236.854,183.363c-0.147,0-0.29-0.07-0.38-0.191c-0.103-0.139-0.121-0.327-0.044-0.486l12.513-25.753
		c0.076-0.157,0.231-0.259,0.408-0.266c0.183-0.012,0.338,0.084,0.423,0.235l12.629,21.811c0.078,0.134,0.084,0.298,0.017,0.439
		c-0.066,0.141-0.199,0.239-0.352,0.263l-25.141,3.942C236.903,183.36,236.877,183.363,236.854,183.363z M249.404,158.143
		l-11.729,24.144l23.569-3.696L249.404,158.143z"/>
</g>
<g>
	<path fill="#414042" d="M224.704,208.181c-1.353,4.031-3.691,7.68-6.702,10.557c-1.465,1.398-3.094,2.627-4.856,3.655l8.764,9.076
		L224.704,208.181z"/>
	<path fill="#9ABA9A" d="M221.91,231.942c-0.124,0-0.247-0.051-0.339-0.145l-8.763-9.074c-0.102-0.104-0.15-0.248-0.13-0.394
		c0.021-0.143,0.106-0.269,0.229-0.342c1.722-1.007,3.327-2.215,4.768-3.593c2.986-2.852,5.261-6.438,6.582-10.365
		c0.078-0.229,0.32-0.362,0.551-0.309c0.235,0.053,0.394,0.274,0.366,0.516l-2.793,23.289c-0.023,0.18-0.145,0.332-0.319,0.39
		C222.012,231.936,221.961,231.942,221.91,231.942z M213.9,222.494l7.662,7.935l2.263-18.867c-1.376,2.804-3.24,5.361-5.496,7.517
		C216.978,220.368,215.49,221.516,213.9,222.494z"/>
</g>
<g>
	<path fill="#414042" d="M220.3,178.546l-11.774-3.065c4.94,1.706,9.204,4.855,12.286,8.941L220.3,178.546z"/>
	<path fill="#9ABA9A" d="M220.812,184.894c-0.143,0-0.285-0.067-0.376-0.188c-3.078-4.082-7.251-7.118-12.064-8.78
		c-0.24-0.082-0.371-0.34-0.298-0.582c0.073-0.243,0.327-0.383,0.57-0.319l11.776,3.067c0.191,0.05,0.334,0.216,0.352,0.414
		l0.512,5.875c0.018,0.209-0.105,0.405-0.301,0.481C220.925,184.883,220.868,184.894,220.812,184.894z M213.512,177.266
		c2.52,1.49,4.78,3.392,6.696,5.646l-0.349-3.99L213.512,177.266z"/>
</g>
<g>
	<polygon fill="#414042" points="236.854,182.893 220.3,178.546 220.812,184.422 	"/>
	<path fill="#9ABA9A" d="M220.812,184.894c-0.109,0-0.217-0.037-0.301-0.11c-0.097-0.081-0.157-0.195-0.167-0.321l-0.512-5.873
		c-0.012-0.152,0.048-0.304,0.165-0.402c0.119-0.099,0.276-0.136,0.425-0.096l16.555,4.344c0.221,0.059,0.368,0.267,0.351,0.495
		c-0.021,0.227-0.198,0.409-0.426,0.431l-16.042,1.53C220.841,184.892,220.829,184.894,220.812,184.894z M220.829,179.173
		l0.412,4.733l12.924-1.232L220.829,179.173z"/>
</g>
<path fill="#414042" stroke="#9ABA9A" stroke-linejoin="round" stroke-miterlimit="10" d="M236.879,183.082"/>
<g>
	<path fill="#414042" d="M236.854,182.893c0,0-12.117,25.19-12.151,25.288l26.005-1.025
		C250.643,206.929,236.854,182.893,236.854,182.893z"/>
	<path fill="#9ABA9A" d="M224.704,208.653c-0.148,0-0.289-0.07-0.378-0.19c-0.093-0.126-0.118-0.287-0.068-0.435
		c0.012-0.035,0.04-0.124,12.17-25.342c0.076-0.158,0.233-0.261,0.409-0.268c0.172-0.008,0.34,0.084,0.427,0.238
		c13.813,24.084,13.878,24.293,13.897,24.361c0.042,0.139,0.018,0.291-0.067,0.41c-0.085,0.116-0.22,0.188-0.365,0.193
		l-26.003,1.029C224.717,208.653,224.71,208.653,224.704,208.653z M236.892,183.904c-3.728,7.748-9.933,20.652-11.426,23.774
		l24.47-0.967C248.331,203.868,241.167,191.358,236.892,183.904z"/>
</g>
<g>
	<polygon fill="#414042" points="224.704,208.181 221.91,231.471 250.709,207.155 	"/>
	<path fill="#9ABA9A" d="M221.91,231.942c-0.076,0-0.152-0.021-0.224-0.059c-0.17-0.09-0.266-0.276-0.244-0.47l2.794-23.289
		c0.027-0.231,0.218-0.406,0.45-0.414l26.004-1.028c0.19-0.021,0.384,0.112,0.459,0.3c0.072,0.188,0.019,0.403-0.137,0.53
		l-28.796,24.318C222.128,231.905,222.02,231.942,221.91,231.942z M225.124,208.639l-2.601,21.699l26.832-22.659L225.124,208.639z"
		/>
</g>
<path fill="#414042" stroke="#9ABA9A" stroke-linejoin="round" stroke-miterlimit="10" d="M236.971,182.893"/>
<g>
	<path fill="#414042" d="M236.854,182.893l13.854,24.263c-1.739-6.564-0.828-14.312,2.728-19.974L236.854,182.893z"/>
	<path fill="#9ABA9A" d="M250.709,207.625c-0.165,0-0.324-0.085-0.408-0.236l-13.855-24.264c-0.094-0.165-0.081-0.37,0.035-0.521
		c0.114-0.15,0.309-0.217,0.493-0.17l16.58,4.288c0.146,0.038,0.264,0.143,0.32,0.284c0.056,0.139,0.042,0.297-0.038,0.424
		c-3.414,5.437-4.435,12.945-2.67,19.603c0.062,0.229-0.06,0.467-0.278,0.558C250.829,207.614,250.77,207.625,250.709,207.625z
		 M237.819,183.627l11.837,20.734c-0.859-5.881,0.236-12.087,3.046-16.883L237.819,183.627z"/>
</g>
<g>
	<polygon fill="#414042" points="230.708,240.581 250.709,207.155 221.91,231.471 	"/>
	<path fill="#9ABA9A" d="M230.708,241.053c-0.127,0-0.251-0.051-0.341-0.144l-8.794-9.111c-0.092-0.094-0.137-0.221-0.133-0.354
		c0.007-0.129,0.068-0.251,0.167-0.336l28.799-24.316c0.175-0.147,0.435-0.147,0.609,0.003c0.175,0.148,0.216,0.403,0.099,0.602
		l-20.002,33.425c-0.075,0.128-0.206,0.211-0.354,0.226C230.744,241.05,230.725,241.053,230.708,241.053z M222.601,231.506
		l8.018,8.306l18.232-30.47L222.601,231.506z"/>
</g>
<g>
	<path fill="#414042" d="M252.939,212.297c-0.959-1.657-1.7-3.385-2.231-5.142l-20.001,33.426l31.201-19.371
		C258.32,219.15,255.155,216.12,252.939,212.297z"/>
	<path fill="#9ABA9A" d="M230.708,241.053c-0.122,0-0.241-0.046-0.333-0.136c-0.153-0.151-0.185-0.393-0.073-0.578l20.002-33.428
		c0.097-0.16,0.283-0.245,0.462-0.227c0.186,0.025,0.339,0.152,0.393,0.334c0.528,1.744,1.264,3.44,2.188,5.041
		c2.095,3.616,5.138,6.638,8.795,8.74c0.145,0.082,0.234,0.234,0.238,0.399c0.003,0.168-0.082,0.322-0.224,0.409l-31.201,19.373
		C230.879,241.029,230.792,241.053,230.708,241.053z M250.581,208.286l-18.472,30.867l28.89-17.938
		c-3.502-2.159-6.42-5.146-8.467-8.683C251.747,211.176,251.093,209.75,250.581,208.286z"/>
</g>
<g>
	<path fill="#414042" d="M230.708,240.581c6.024-1.574,12.726-0.897,18.57,2.437l10.163-17.55l2.467-4.258L230.708,240.581z"/>
	<path fill="#9ABA9A" d="M249.278,243.491c-0.08,0-0.16-0.021-0.235-0.064c-5.457-3.114-12.129-3.982-18.217-2.39
		c-0.23,0.059-0.461-0.056-0.553-0.271c-0.093-0.214-0.015-0.462,0.184-0.587l31.202-19.372c0.186-0.112,0.422-0.087,0.577,0.062
		c0.157,0.151,0.188,0.389,0.081,0.575l-12.631,21.81C249.599,243.405,249.441,243.491,249.278,243.491z M237.014,239.3
		c4.226,0,8.396,1.063,12.087,3.08l11.453-19.776l-27.353,16.983C234.461,239.396,235.737,239.3,237.014,239.3z"/>
</g>
<g>
	<path fill="#414042" d="M219.426,247.158l-39.242-0.274c4.221,4.381,7.101,10.617,7.137,17.187l17.493-9.209l0,0
		C204.813,254.861,219.419,247.166,219.426,247.158z"/>
	<path fill="#9ABA9A" d="M187.321,264.541c-0.084,0-0.167-0.022-0.243-0.067c-0.141-0.084-0.227-0.239-0.229-0.403
		c-0.034-6.129-2.586-12.273-7.003-16.861c-0.132-0.136-0.167-0.339-0.094-0.514c0.076-0.175,0.247-0.286,0.433-0.286
		c0.002,0,0.003,0,0.005,0l39.243,0.273c0.189,0.003,0.36,0.118,0.432,0.295c0.075,0.176,0.033,0.377-0.102,0.514
		c-0.058,0.058-0.058,0.058-14.729,7.785l-17.494,9.208C187.472,264.522,187.396,264.541,187.321,264.541z M181.27,247.363
		c3.95,4.463,6.284,10.176,6.505,15.934l16.818-8.854c0.113-0.06,9.156-4.823,12.956-6.827L181.27,247.363z"/>
</g>
<g>
	<path fill="#414042" d="M215.84,251.903c1.015-1.751,2.24-3.353,3.588-4.745l-14.614,7.703l7.767,9.209
		C212.569,259.932,213.621,255.738,215.84,251.903z"/>
	<path fill="#9ABA9A" d="M212.58,264.541c-0.135,0-0.269-0.059-0.36-0.168l-7.768-9.208c-0.09-0.108-0.128-0.254-0.103-0.395
		c0.028-0.141,0.116-0.26,0.245-0.327l14.615-7.704c0.206-0.107,0.458-0.051,0.597,0.134c0.137,0.186,0.123,0.447-0.04,0.612
		c-1.357,1.405-2.542,2.971-3.52,4.655c-2.1,3.632-3.206,7.757-3.195,11.927c0,0.198-0.123,0.376-0.31,0.444
		C212.689,264.531,212.634,264.541,212.58,264.541z M205.552,255.004l6.585,7.809c0.19-3.906,1.32-7.735,3.294-11.146
		c0.589-1.014,1.25-1.986,1.975-2.909L205.552,255.004z"/>
</g>
<g>
	<polygon fill="#414042" points="187.321,264.07 212.58,264.07 204.813,254.861 	"/>
	<path fill="#9ABA9A" d="M212.58,264.541h-25.259c-0.26,0-0.472-0.21-0.472-0.471c0-0.107,0-0.176,0.472-0.464l0.013-0.008
		c0.799-0.489,2.913-1.603,8.514-4.551l8.746-4.604c0.197-0.103,0.438-0.055,0.581,0.113l7.768,9.208
		c0.118,0.14,0.144,0.337,0.067,0.504C212.933,264.436,212.763,264.541,212.58,264.541z M189.228,263.597h22.335l-6.867-8.142
		C202.776,256.466,193.165,261.525,189.228,263.597z"/>
</g>
<g>
	<path fill="#414042" d="M168.548,183.06l1.931,34.761l3.727-21.261c0.094-0.716,0.372-2.117,0.372-2.117
		c1.466-6.705,5.867-12.652,11.427-16.317L168.548,183.06z"/>
	<path fill="#9ABA9A" d="M170.479,218.292c-0.009,0-0.019,0-0.028-0.003c-0.239-0.013-0.431-0.203-0.442-0.444l-1.931-34.761
		c-0.013-0.222,0.131-0.419,0.343-0.48l17.456-4.931c0.225-0.065,0.46,0.044,0.557,0.256s0.025,0.461-0.17,0.591
		c-5.647,3.722-9.843,9.712-11.224,16.022c0,0.006-0.273,1.386-0.365,2.079l-3.731,21.279
		C170.904,218.129,170.707,218.292,170.479,218.292z M169.041,183.409l1.681,30.289l3.019-17.219
		c0.092-0.702,0.362-2.07,0.373-2.129c1.255-5.731,4.737-11.199,9.501-15.06L169.041,183.409z"/>
</g>
<g>
	<polygon fill="#414042" points="167.244,159.995 168.548,183.06 186.003,178.126 	"/>
	<path fill="#9ABA9A" d="M168.548,183.529c-0.098,0-0.193-0.029-0.275-0.087c-0.115-0.083-0.188-0.215-0.196-0.357l-1.303-23.062
		c-0.012-0.193,0.097-0.375,0.274-0.457c0.175-0.081,0.385-0.045,0.525,0.09l18.759,18.131c0.121,0.117,0.171,0.291,0.129,0.456
		c-0.04,0.162-0.166,0.292-0.329,0.337l-17.457,4.933C168.634,183.523,168.592,183.529,168.548,183.529z M167.783,161.173
		l1.203,21.271l16.099-4.549L167.783,161.173z"/>
</g>
</svg>
