<?xml version="1.0" encoding="utf-8"?>
<!-- Generator: Adobe Illustrator 16.0.4, SVG Export Plug-In . SVG Version: 6.00 Build 0)  -->
<!DOCTYPE svg PUBLIC "-//W3C//DTD SVG 1.1//EN" "http://www.w3.org/Graphics/SVG/1.1/DTD/svg11.dtd">
<svg version="1.1" id="Layer_1" xmlns="http://www.w3.org/2000/svg" xmlns:xlink="http://www.w3.org/1999/xlink" x="0px" y="0px"
	 width="400px" height="400px" viewBox="0 0 400 400" enable-background="new 0 0 400 400" xml:space="preserve">
<g>
	<polygon fill="#414042" points="211.521,188.31 196.243,192.694 207.255,228.31 	"/>
	<path fill="#9ABA9A" d="M207.255,228.711c-0.176,0-0.331-0.114-0.385-0.283l-11.012-35.612c-0.033-0.104-0.022-0.216,0.03-0.312
		c0.05-0.094,0.138-0.165,0.243-0.193l15.277-4.384c0.129-0.037,0.268-0.009,0.37,0.077c0.103,0.087,0.156,0.218,0.141,0.353
		l-4.265,39.998c-0.021,0.191-0.17,0.341-0.359,0.359C207.282,228.711,207.269,228.711,207.255,228.711z M196.748,192.968
		l10.315,33.353l3.993-37.459L196.748,192.968z"/>
</g>
<g>
	<path fill="#414042" d="M181.276,244.577h-1.451c-2.229,0-4.034,1.808-4.034,4.036c0,2.229,1.805,4.036,4.034,4.036h4.037
		L181.276,244.577z"/>
	<path fill="#9ABA9A" d="M183.86,253.051h-4.037c-2.445,0-4.435-1.989-4.435-4.438c0-2.445,1.989-4.437,4.435-4.437h1.452
		c0.176,0,0.329,0.112,0.383,0.279l2.585,8.071c0.039,0.122,0.019,0.256-0.059,0.359C184.109,252.989,183.99,253.051,183.86,253.051
		z M179.823,244.981c-2.001,0-3.631,1.629-3.631,3.631c0,2.003,1.63,3.633,3.631,3.633h3.486l-2.326-7.264H179.823z"/>
</g>
<g>
	<polygon fill="#414042" points="181.276,244.577 183.86,252.647 201.489,244.577 	"/>
	<path fill="#9ABA9A" d="M183.86,253.051c-0.056,0-0.11-0.012-0.162-0.034c-0.105-0.045-0.188-0.135-0.221-0.244l-2.584-8.069
		c-0.04-0.123-0.019-0.257,0.059-0.36c0.075-0.104,0.195-0.165,0.324-0.165h20.213c0.19,0,0.354,0.132,0.395,0.317
		c0.04,0.184-0.054,0.372-0.227,0.451l-17.63,8.07C183.976,253.039,183.918,253.051,183.86,253.051z M181.827,244.981l2.277,7.111
		l15.537-7.111H181.827z"/>
</g>
<g>
	<polygon fill="#414042" points="201.489,244.577 198.56,255.607 216.136,252.647 	"/>
	<path fill="#9ABA9A" d="M198.56,256.008c-0.112,0-0.22-0.047-0.299-0.131c-0.091-0.102-0.126-0.243-0.091-0.374l2.928-11.03
		c0.033-0.119,0.119-0.216,0.233-0.265c0.112-0.05,0.243-0.043,0.353,0.018l14.645,8.068c0.15,0.083,0.233,0.251,0.204,0.42
		c-0.028,0.171-0.161,0.302-0.331,0.331l-17.575,2.958C198.605,256.007,198.582,256.008,198.56,256.008z M201.746,245.179
		l-2.635,9.926l15.818-2.663L201.746,245.179z"/>
</g>
<g>
	<polygon fill="#414042" points="198.56,255.607 209.414,264.261 210.341,253.623 	"/>
	<path fill="#9ABA9A" d="M209.414,264.663c-0.146,0-0.146,0-11.104-8.743c-0.125-0.099-0.179-0.262-0.139-0.415
		c0.039-0.152,0.167-0.27,0.324-0.297l11.777-1.981c0.125-0.023,0.249,0.016,0.341,0.102c0.091,0.082,0.138,0.206,0.128,0.328
		l-0.927,10.638C209.796,264.505,209.623,264.663,209.414,264.663z M199.517,255.853c3.143,2.509,7.915,6.314,9.562,7.626
		l0.816-9.371L199.517,255.853z"/>
</g>
<g>
	<polygon fill="#414042" points="183.86,252.647 198.56,255.607 201.489,244.577 	"/>
	<path fill="#9ABA9A" d="M198.56,256.008c-0.025,0-0.053-0.002-0.079-0.007l-14.7-2.959c-0.171-0.035-0.299-0.177-0.319-0.349
		c-0.021-0.173,0.073-0.341,0.232-0.412l17.63-8.069c0.141-0.067,0.307-0.043,0.425,0.059c0.12,0.098,0.171,0.259,0.131,0.408
		l-2.929,11.03C198.901,255.887,198.739,256.008,198.56,256.008z M185.156,252.497l13.112,2.639l2.613-9.837L185.156,252.497z"/>
</g>
<g>
	<polygon fill="#414042" points="209.414,264.261 198.56,255.607 192.062,259.574 	"/>
	<path fill="#9ABA9A" d="M209.414,264.663c-0.035,0-0.07-0.004-0.104-0.015l-17.353-4.685c-0.156-0.042-0.271-0.173-0.295-0.331
		c-0.023-0.16,0.051-0.316,0.189-0.401l6.498-3.971c0.146-0.086,0.33-0.075,0.462,0.027l10.853,8.656
		c0.15,0.119,0.193,0.326,0.109,0.497C209.702,264.579,209.562,264.663,209.414,264.663z M193.07,259.433l14.578,3.935l-9.117-7.271
		L193.07,259.433z"/>
</g>
<g>
	<path fill="#414042" d="M192.062,259.574l-4.266,2.689c1.21,1.344,2.623,2.228,4.132,2.228h2.329L192.062,259.574z"/>
	<path fill="#9ABA9A" d="M194.258,264.895h-2.328c-1.509,0-3.041-0.814-4.43-2.36c-0.081-0.087-0.117-0.207-0.101-0.324
		c0.017-0.118,0.084-0.223,0.186-0.284l4.264-2.689c0.1-0.062,0.22-0.079,0.332-0.043c0.11,0.031,0.202,0.113,0.251,0.219
		l2.196,4.917c0.055,0.125,0.045,0.269-0.029,0.384C194.521,264.824,194.394,264.895,194.258,264.895z M188.426,262.343
		c0.859,0.863,2.086,1.745,3.504,1.745h1.709l-1.755-3.925L188.426,262.343z"/>
</g>
<g>
	<path fill="#414042" d="M192.062,259.574l2.196,4.918h13.812c0.377,0,0.98-0.13,1.345-0.231L192.062,259.574z"/>
	<path fill="#9ABA9A" d="M208.069,264.895h-13.812c-0.159,0-0.302-0.093-0.367-0.237l-2.197-4.917
		c-0.062-0.143-0.039-0.307,0.062-0.425c0.101-0.12,0.26-0.169,0.41-0.128l17.354,4.684c0.174,0.048,0.297,0.206,0.299,0.387
		c0,0.183-0.119,0.342-0.295,0.39C209.198,264.739,208.525,264.895,208.069,264.895z M194.519,264.088h12.716l-14.46-3.901
		L194.519,264.088z"/>
</g>
<g>
	<path fill="#414042" d="M198.56,255.607l-14.699-2.96c0.003,0.062,0.025,0.335,0.025,0.335c0.207,2.914,1.723,6.85,3.912,9.283
		L198.56,255.607z"/>
	<path fill="#9ABA9A" d="M187.798,262.669c-0.111,0-0.221-0.046-0.299-0.135c-2.135-2.371-3.784-6.285-4.015-9.523l0,0
		c-0.002,0-0.022-0.279-0.026-0.343c-0.007-0.124,0.045-0.246,0.14-0.326c0.093-0.081,0.22-0.114,0.342-0.089l14.698,2.96
		c0.163,0.031,0.288,0.16,0.317,0.321c0.028,0.163-0.043,0.327-0.186,0.414l-10.763,6.66
		C187.943,262.648,187.871,262.669,187.798,262.669z M184.303,253.147c0.259,2.882,1.727,6.403,3.574,8.597l9.604-5.944
		L184.303,253.147z"/>
</g>
<g>
	<path fill="#414042" d="M210.341,253.623l-0.927,10.638c3.689-1.273,6.535-7.583,6.722-11.613L210.341,253.623z"/>
	<path fill="#9ABA9A" d="M209.414,264.663c-0.089,0-0.177-0.028-0.247-0.084c-0.108-0.084-0.166-0.217-0.152-0.353l0.926-10.637
		c0.015-0.185,0.152-0.334,0.333-0.363l5.797-0.975c0.12-0.02,0.243,0.015,0.335,0.096c0.089,0.081,0.14,0.197,0.135,0.32
		c-0.184,3.96-3,10.595-6.992,11.975C209.502,264.657,209.458,264.663,209.414,264.663z M210.714,253.97l-0.841,9.655
		c2.955-1.531,5.46-6.635,5.825-10.494L210.714,253.97z"/>
</g>
<g>
	<polygon fill="#414042" points="211.412,244.577 201.489,244.577 216.136,252.647 	"/>
	<path fill="#9ABA9A" d="M216.136,253.051c-0.065,0-0.134-0.017-0.194-0.049l-14.645-8.07c-0.162-0.087-0.243-0.274-0.195-0.454
		c0.045-0.178,0.205-0.301,0.39-0.301h9.922c0.143,0,0.275,0.077,0.35,0.198l4.724,8.069c0.089,0.156,0.066,0.355-0.062,0.486
		C216.347,253.007,216.242,253.051,216.136,253.051z M203.054,244.981l11.996,6.609l-3.868-6.609H203.054z"/>
</g>
<g>
	<polygon fill="#414042" points="211.412,244.577 216.136,252.647 220.154,244.577 	"/>
	<path fill="#9ABA9A" d="M216.136,253.051c-0.141,0-0.274-0.075-0.348-0.198l-4.724-8.068c-0.074-0.127-0.074-0.281-0.003-0.405
		c0.073-0.125,0.207-0.202,0.351-0.202h8.742c0.14,0,0.271,0.072,0.343,0.189c0.074,0.119,0.082,0.268,0.019,0.392l-4.019,8.07
		c-0.067,0.133-0.199,0.217-0.347,0.223C216.146,253.051,216.142,253.051,216.136,253.051z M212.115,244.981l3.992,6.821
		l3.396-6.821H212.115z"/>
</g>
<g>
	<path fill="#414042" d="M220.174,244.577h-0.02l-4.019,8.07h4.038c2.229,0,4.034-1.545,4.034-3.776
		C224.208,246.643,222.402,244.577,220.174,244.577z"/>
	<path fill="#9ABA9A" d="M220.174,253.051h-4.038c-0.139,0-0.268-0.073-0.342-0.19c-0.074-0.118-0.082-0.268-0.018-0.392
		l4.019-8.069c0.068-0.138,0.207-0.225,0.358-0.225c2.423,0,4.456,2.149,4.456,4.696
		C224.61,251.255,222.703,253.051,220.174,253.051z M216.787,252.245h3.387c2.07,0,3.632-1.45,3.632-3.374
		c0-1.991-1.566-3.746-3.405-3.884L216.787,252.245z"/>
</g>
<g>
	<path fill="#414042" d="M195.883,148.177l17.135-10.521c-4.085-1.391-8.461-2.146-13.019-2.146c-7.676,0-14.851,2.145-20.958,5.863
		L195.883,148.177z"/>
	<path fill="#9ABA9A" d="M195.883,148.578c-0.051,0-0.102-0.009-0.151-0.028l-16.841-6.805c-0.141-0.058-0.239-0.191-0.251-0.342
		c-0.012-0.151,0.063-0.297,0.192-0.377c6.361-3.874,13.68-5.921,21.166-5.921c4.501,0,8.928,0.73,13.148,2.168
		c0.146,0.05,0.253,0.182,0.271,0.337c0.018,0.154-0.058,0.305-0.191,0.389l-17.136,10.521
		C196.029,148.56,195.955,148.578,195.883,148.578z M179.944,141.302l15.9,6.425l16.221-9.962c-3.889-1.23-7.946-1.854-12.068-1.854
		C192.931,135.912,186.015,137.772,179.944,141.302z"/>
</g>
<g>
	<path fill="#414042" d="M179.04,141.372c-3.903,2.376-7.576,5.653-10.46,9.173l27.303-2.368L179.04,141.372z"/>
	<path fill="#9ABA9A" d="M168.579,150.947c-0.148,0-0.286-0.081-0.356-0.215c-0.075-0.143-0.057-0.316,0.045-0.443
		c2.986-3.642,6.737-6.931,10.564-9.263c0.108-0.066,0.242-0.077,0.359-0.027l16.841,6.805c0.174,0.07,0.275,0.248,0.248,0.434
		c-0.027,0.185-0.178,0.325-0.363,0.341l-27.303,2.368C168.603,150.947,168.591,150.947,168.579,150.947z M179.077,141.82
		c-3.43,2.117-6.791,5.017-9.565,8.239l24.663-2.14L179.077,141.82z"/>
</g>
<g>
	<path fill="#414042" d="M229.486,148.316l-12.597,19.052l22.209-1.507C237.399,159.193,234.041,153.19,229.486,148.316z"/>
	<path fill="#9ABA9A" d="M216.89,167.771c-0.141,0-0.274-0.075-0.348-0.199c-0.077-0.134-0.073-0.298,0.011-0.426l12.599-19.051
		c0.067-0.103,0.179-0.168,0.3-0.179c0.13-0.016,0.245,0.035,0.327,0.127c4.673,4.997,8.029,11.126,9.71,17.721
		c0.027,0.116,0.006,0.238-0.063,0.336c-0.072,0.096-0.182,0.157-0.3,0.165l-22.208,1.506
		C216.908,167.771,216.898,167.771,216.89,167.771z M229.538,148.967l-11.865,17.944l20.912-1.419
		C236.945,159.37,233.827,153.679,229.538,148.967z"/>
</g>
<g>
	<polygon fill="#414042" points="216.89,167.369 211.521,188.31 239.099,165.861 	"/>
	<path fill="#9ABA9A" d="M211.521,188.712c-0.076,0-0.15-0.021-0.217-0.062c-0.146-0.094-0.217-0.271-0.173-0.439l5.369-20.943
		c0.042-0.167,0.19-0.289,0.36-0.301l22.21-1.506c0.188-0.008,0.339,0.091,0.402,0.255c0.064,0.162,0.017,0.35-0.12,0.46
		l-27.577,22.448C211.701,188.683,211.609,188.712,211.521,188.712z M217.207,167.751l-4.993,19.477l25.647-20.877L217.207,167.751z
		"/>
</g>
<g>
	<polygon fill="#414042" points="183.928,149.214 168.579,150.545 190.664,174.423 	"/>
	<path fill="#9ABA9A" d="M190.664,174.824c-0.107,0-0.216-0.042-0.295-0.129l-22.087-23.878c-0.104-0.112-0.135-0.275-0.08-0.418
		c0.056-0.143,0.188-0.243,0.342-0.255l15.349-1.331c0.184-0.021,0.373,0.108,0.423,0.298l6.738,25.21
		c0.046,0.179-0.033,0.366-0.194,0.457C190.798,174.81,190.732,174.824,190.664,174.824z M169.434,150.875l20.423,22.081
		l-6.229-23.312L169.434,150.875z"/>
</g>
<path fill="#414042" stroke="#9ABA9A" stroke-linejoin="round" stroke-miterlimit="10" d="M190.791,174.897"/>
<g>
	<path fill="#414042" d="M190.664,174.423l-31.009,0.945c-0.001,0.163-0.004,0.326-0.004,0.489c0,11.939,3.917,18.137,7.886,25.164
		L190.664,174.423z"/>
	<path fill="#9ABA9A" d="M167.537,201.423c-0.015,0-0.027-0.002-0.04-0.003c-0.131-0.013-0.246-0.088-0.31-0.202l-0.652-1.149
		c-3.747-6.594-7.285-12.822-7.285-24.211l0.004-0.495c0.003-0.216,0.175-0.39,0.391-0.398l31.01-0.943
		c0.151-0.009,0.306,0.085,0.376,0.23c0.068,0.144,0.043,0.315-0.061,0.437l-23.127,26.597
		C167.763,201.371,167.652,201.423,167.537,201.423z M160.055,175.757v0.1c0,11.177,3.486,17.314,7.179,23.812l0.373,0.657
		l22.15-25.474L160.055,175.757z"/>
</g>
<g>
	<path fill="#414042" d="M168.579,150.545c-5.368,6.744-8.788,15.562-8.925,24.822l19.097-13.824L168.579,150.545z"/>
	<path fill="#9ABA9A" d="M159.655,175.77c-0.064,0-0.128-0.015-0.186-0.046c-0.136-0.069-0.22-0.21-0.218-0.361
		c0.135-9.031,3.335-17.935,9.012-25.068c0.074-0.091,0.184-0.147,0.3-0.15c0.12-0.014,0.23,0.041,0.311,0.129l10.173,10.999
		c0.079,0.085,0.117,0.199,0.105,0.313s-0.071,0.219-0.166,0.286l-19.096,13.824C159.822,175.742,159.738,175.77,159.655,175.77z
		 M168.604,151.164c-5.22,6.717-8.229,14.979-8.526,23.4l18.071-13.08L168.604,151.164z"/>
</g>
<path fill="#414042" stroke="#9ABA9A" stroke-linejoin="round" stroke-miterlimit="10" d="M190.697,175.11"/>
<g>
	<polygon fill="#414042" points="178.752,161.544 159.655,175.367 190.664,174.423 	"/>
	<path fill="#9ABA9A" d="M159.655,175.77c-0.171,0-0.325-0.109-0.381-0.273c-0.056-0.167,0.003-0.353,0.145-0.456l19.097-13.823
		c0.164-0.119,0.394-0.098,0.531,0.053l11.913,12.879c0.107,0.117,0.136,0.284,0.076,0.43c-0.062,0.145-0.2,0.241-0.358,0.245
		l-31.01,0.945C159.663,175.77,159.659,175.77,159.655,175.77z M178.698,162.079l-17.744,12.846l28.816-0.877L178.698,162.079z"/>
</g>
<g>
	<polygon fill="#414042" points="195.883,148.177 183.928,149.214 190.664,174.423 	"/>
	<path fill="#9ABA9A" d="M190.664,174.824c-0.181,0-0.341-0.121-0.389-0.298l-6.736-25.21c-0.03-0.114-0.01-0.238,0.06-0.335
		c0.068-0.098,0.177-0.161,0.295-0.171l11.955-1.037c0.123-0.017,0.249,0.039,0.334,0.134s0.12,0.225,0.096,0.348l-5.219,26.246
		c-0.035,0.185-0.193,0.318-0.381,0.323C190.674,174.824,190.67,174.824,190.664,174.824z M184.439,149.573l6.166,23.073
		l4.776-24.022L184.439,149.573z"/>
</g>
<g>
	<polygon fill="#414042" points="195.883,148.177 190.664,174.423 216.89,167.369 	"/>
	<path fill="#9ABA9A" d="M190.664,174.824c-0.1,0-0.197-0.036-0.274-0.108c-0.101-0.093-0.146-0.235-0.12-0.371l5.218-26.246
		c0.028-0.143,0.132-0.26,0.269-0.304c0.139-0.043,0.291-0.013,0.398,0.084l21.007,19.191c0.108,0.099,0.155,0.249,0.12,0.394
		c-0.033,0.143-0.143,0.255-0.287,0.294l-26.225,7.055C190.735,174.82,190.7,174.824,190.664,174.824z M196.139,148.956
		l-4.952,24.91l24.89-6.697L196.139,148.956z"/>
</g>
<g>
	<polygon fill="#414042" points="216.89,167.319 190.664,174.423 211.521,188.26 	"/>
	<path fill="#9ABA9A" d="M211.521,188.664c-0.079,0-0.155-0.022-0.222-0.068l-20.855-13.836c-0.134-0.088-0.2-0.245-0.176-0.4
		c0.025-0.157,0.139-0.283,0.292-0.325l26.225-7.104c0.138-0.037,0.286,0.002,0.389,0.102c0.102,0.101,0.142,0.248,0.106,0.388
		l-5.368,20.942c-0.032,0.126-0.125,0.229-0.244,0.275C211.618,188.653,211.57,188.664,211.521,188.664z M191.628,174.579
		l19.643,13.033l5.058-19.725L191.628,174.579z"/>
</g>
<g>
	<path fill="#414042" d="M239.099,165.861l-27.578,22.448l28.212-4.815c0.393-2.28,0.616-4.797,0.616-7.637
		C240.347,172.637,239.812,168.864,239.099,165.861z"/>
	<path fill="#9ABA9A" d="M211.521,188.712c-0.155,0-0.301-0.089-0.364-0.235c-0.078-0.167-0.031-0.363,0.112-0.479l27.576-22.448
		c0.107-0.087,0.251-0.112,0.384-0.07c0.132,0.045,0.231,0.154,0.262,0.29c0.787,3.32,1.26,7.092,1.26,10.087
		c0,2.756-0.203,5.276-0.62,7.704c-0.029,0.169-0.16,0.3-0.331,0.329l-28.212,4.816
		C211.566,188.711,211.543,188.712,211.521,188.712z M238.852,166.583l-25.887,21.072l26.42-4.51
		c0.377-2.298,0.561-4.686,0.561-7.289C239.943,173.107,239.539,169.688,238.852,166.583z"/>
</g>
<g>
	<path fill="#414042" d="M239.732,183.494l-28.212,4.815l20.49,13.509C235.115,196.301,238.446,190.981,239.732,183.494z"/>
	<path fill="#9ABA9A" d="M232.011,202.223c-0.079,0-0.155-0.022-0.223-0.067l-20.489-13.509c-0.138-0.091-0.206-0.258-0.172-0.418
		c0.034-0.162,0.163-0.288,0.326-0.314l28.212-4.816c0.129-0.023,0.261,0.02,0.353,0.112c0.095,0.093,0.135,0.225,0.112,0.354
		c-1.175,6.849-4.077,11.956-6.883,16.895l-0.885,1.561c-0.056,0.099-0.147,0.168-0.256,0.195
		C232.074,202.219,232.041,202.223,232.011,202.223z M212.594,188.535l19.277,12.712l0.675-1.188
		c2.691-4.741,5.478-9.64,6.688-16.071L212.594,188.535z"/>
</g>
<g>
	<path fill="#414042" d="M173.98,216.297c0.461,2.065,1.113,5.501,1.369,7.979h0.007c0,2.229,1.805,4.034,4.035,4.034h27.865
		L173.98,216.297z"/>
	<path fill="#9ABA9A" d="M207.255,228.711h-27.864c-2.421,0-4.395-1.947-4.437-4.356c-0.003-0.013-0.004-0.025-0.006-0.036
		c-0.242-2.348-0.857-5.678-1.361-7.933c-0.03-0.144,0.018-0.294,0.128-0.39c0.109-0.1,0.264-0.127,0.402-0.079l33.277,12.013
		c0.184,0.069,0.293,0.256,0.259,0.448S207.452,228.711,207.255,228.711z M175.741,224.16c0.011,0.039,0.018,0.075,0.018,0.115
		c0,2.002,1.63,3.631,3.632,3.631h25.563l-30.427-10.983C174.997,219.126,175.518,222.026,175.741,224.16z"/>
</g>
<g>
	<polygon fill="#414042" points="173.98,216.297 202.589,213.217 196.243,192.694 	"/>
	<path fill="#9ABA9A" d="M173.98,216.698c-0.15,0-0.293-0.083-0.359-0.221c-0.075-0.153-0.048-0.334,0.068-0.457l22.261-23.603
		c0.099-0.104,0.246-0.146,0.384-0.116c0.14,0.032,0.252,0.136,0.295,0.272l6.346,20.522c0.034,0.115,0.018,0.24-0.048,0.34
		c-0.068,0.1-0.175,0.166-0.294,0.179l-28.607,3.081C174.009,216.698,173.995,216.698,173.98,216.698z M196.062,193.473
		l-21.041,22.307l27.037-2.912L196.062,193.473z"/>
</g>
<g>
	<path fill="#414042" d="M167.537,201.021c2.42,4.284,4.862,8.882,6.443,15.276l16.684-41.874L167.537,201.021z"/>
	<path fill="#9ABA9A" d="M173.98,216.698c-0.009,0-0.017,0-0.027,0c-0.174-0.012-0.32-0.135-0.362-0.304
		c-1.561-6.307-3.92-10.778-6.403-15.177c-0.083-0.147-0.064-0.334,0.046-0.461l23.129-26.596c0.129-0.149,0.347-0.183,0.514-0.081
		c0.166,0.104,0.237,0.311,0.164,0.493l-16.685,41.873C174.293,216.6,174.145,216.698,173.98,216.698z M168.026,201.07
		c2.303,4.087,4.486,8.267,6.034,13.936l15.353-38.531L168.026,201.07z"/>
</g>
<g>
	<polygon fill="#414042" points="190.664,174.423 173.98,216.297 196.243,192.694 	"/>
	<path fill="#9ABA9A" d="M173.98,216.698c-0.075,0-0.149-0.02-0.216-0.062c-0.163-0.104-0.229-0.31-0.158-0.489l16.686-41.873
		c0.062-0.158,0.22-0.269,0.39-0.253c0.172,0.008,0.318,0.122,0.369,0.285l5.576,18.271c0.042,0.139,0.008,0.289-0.092,0.396
		l-22.261,23.602C174.194,216.655,174.088,216.698,173.98,216.698z M190.615,175.637l-15.479,38.847l20.653-21.896L190.615,175.637z
		"/>
</g>
<g>
	<polygon fill="#414042" points="202.589,213.217 173.98,216.297 207.255,228.31 	"/>
	<path fill="#9ABA9A" d="M207.255,228.711c-0.046,0-0.091-0.007-0.135-0.023l-33.277-12.012c-0.176-0.063-0.285-0.242-0.262-0.428
		c0.021-0.186,0.17-0.332,0.355-0.352l28.607-3.08c0.195-0.024,0.371,0.096,0.427,0.281l4.669,15.093
		c0.046,0.145,0.002,0.302-0.107,0.409C207.458,228.674,207.359,228.711,207.255,228.711z M175.758,216.511l30.875,11.146
		l-4.329-14.003L175.758,216.511z"/>
</g>
<g>
	<polygon fill="#414042" points="211.521,188.31 190.664,174.423 196.243,192.694 	"/>
	<path fill="#9ABA9A" d="M196.243,193.098c-0.174,0-0.333-0.112-0.387-0.286l-5.577-18.271c-0.049-0.162,0.01-0.339,0.146-0.44
		c0.135-0.102,0.32-0.106,0.463-0.013l20.855,13.886c0.131,0.088,0.198,0.243,0.175,0.398c-0.024,0.154-0.136,0.281-0.288,0.324
		l-15.277,4.384C196.316,193.093,196.278,193.098,196.243,193.098z M191.38,175.382l5.133,16.816l14.061-4.036L191.38,175.382z"/>
</g>
<g>
	<polygon fill="#414042" points="211.521,188.31 209.771,204.722 232.011,201.821 	"/>
	<path fill="#9ABA9A" d="M209.771,205.124c-0.104,0-0.205-0.04-0.282-0.114c-0.087-0.084-0.133-0.207-0.117-0.33l1.749-16.412
		c0.016-0.14,0.103-0.262,0.229-0.322c0.126-0.06,0.275-0.048,0.393,0.027l20.49,13.513c0.14,0.09,0.207,0.261,0.171,0.424
		c-0.037,0.164-0.175,0.289-0.342,0.31l-22.238,2.901C209.807,205.124,209.787,205.124,209.771,205.124z M211.852,189.01
		l-1.626,15.246l20.662-2.694L211.852,189.01z"/>
</g>
<g>
	<path fill="#414042" d="M207.255,228.31h13.35c1.329,0,2.506-0.64,3.24-1.63l-14.075-21.958L207.255,228.31z"/>
	<path fill="#9ABA9A" d="M220.607,228.711h-13.351c-0.114,0-0.224-0.048-0.299-0.133c-0.075-0.086-0.113-0.198-0.101-0.312
		l2.517-23.587c0.017-0.169,0.14-0.31,0.305-0.35c0.171-0.042,0.342,0.03,0.432,0.175l14.076,21.958
		c0.09,0.14,0.082,0.322-0.016,0.458C223.337,228.042,222.004,228.711,220.607,228.711z M207.704,227.906h12.903
		c1.067,0,2.055-0.453,2.743-1.252l-13.301-20.751L207.704,227.906z"/>
</g>
<g>
	<path fill="#414042" d="M232.011,201.821l-22.24,2.901l14.076,21.958c0.499-0.671,0.794-1.502,0.794-2.404
		C225.721,213.86,228.837,207.496,232.011,201.821z"/>
	<path fill="#9ABA9A" d="M223.847,227.084c-0.006,0-0.011,0-0.016,0c-0.133-0.005-0.252-0.076-0.323-0.188l-14.075-21.957
		c-0.077-0.116-0.085-0.262-0.028-0.387c0.059-0.126,0.178-0.212,0.312-0.23l22.241-2.902c0.149-0.023,0.3,0.047,0.384,0.175
		c0.086,0.125,0.093,0.288,0.021,0.421c-3.112,5.563-6.241,11.869-7.321,22.301c0.002,0.919-0.301,1.836-0.871,2.603
		C224.093,227.023,223.973,227.084,223.847,227.084z M210.453,205.039l13.391,20.889c0.26-0.508,0.396-1.069,0.396-1.652
		c1.054-10.187,4.012-16.482,7.033-21.952L210.453,205.039z"/>
</g>
<g>
	<polygon fill="#414042" points="213.015,137.655 195.883,148.177 216.89,167.369 	"/>
	<path fill="#9ABA9A" d="M216.89,167.771c-0.098,0-0.194-0.035-0.271-0.105l-21.008-19.19c-0.094-0.086-0.141-0.21-0.13-0.337
		c0.013-0.125,0.082-0.238,0.19-0.304l17.136-10.521c0.116-0.072,0.259-0.081,0.385-0.021c0.122,0.059,0.207,0.176,0.226,0.311
		l3.873,29.713c0.021,0.169-0.063,0.331-0.214,0.408C217.018,167.757,216.953,167.771,216.89,167.771z M196.549,148.241
		l19.801,18.087l-3.65-28.005L196.549,148.241z"/>
</g>
<g>
	<path fill="#414042" d="M216.89,167.369l12.597-19.052c-4.454-4.769-10.165-8.493-16.472-10.662L216.89,167.369z"/>
	<path fill="#9ABA9A" d="M216.89,167.771c-0.029,0-0.061-0.004-0.09-0.011c-0.164-0.037-0.286-0.174-0.309-0.34l-3.873-29.714
		c-0.02-0.138,0.037-0.276,0.144-0.363c0.109-0.088,0.253-0.115,0.386-0.069c6.336,2.181,12.089,5.903,16.633,10.768
		c0.127,0.136,0.145,0.342,0.042,0.497l-12.597,19.052C217.148,167.704,217.023,167.771,216.89,167.771z M213.499,138.255
		l3.649,27.991l11.824-17.886C224.702,143.86,219.369,140.38,213.499,138.255z"/>
</g>
<g>
	<path fill="#414042" d="M178.394,232.735c-1.522,0.575-2.603,2.046-2.603,3.774c0,2.229,1.805,4.033,4.034,4.033h5.254
		L178.394,232.735z"/>
	<path fill="#9ABA9A" d="M185.079,240.946h-5.254c-2.446,0-4.436-1.99-4.436-4.437c0-1.834,1.149-3.502,2.861-4.151
		c0.158-0.059,0.338-0.016,0.449,0.114l6.685,7.809c0.104,0.12,0.127,0.285,0.06,0.431
		C185.379,240.854,185.236,240.946,185.079,240.946z M178.278,233.222c-1.258,0.594-2.086,1.881-2.086,3.288
		c0,2.001,1.63,3.63,3.631,3.63h4.379L178.278,233.222z"/>
</g>
<g>
	<polygon fill="#414042" points="194.911,232.346 194.908,232.346 194.911,232.349 	"/>
	<path fill="#9ABA9A" d="M194.909,232.75c-0.09,0-0.178-0.031-0.25-0.089l-0.004-0.002c-0.134-0.107-0.186-0.287-0.129-0.448
		c0.098-0.28,0.519-0.347,0.7-0.115c0.077,0.097,0.105,0.226,0.076,0.347c-0.033,0.133-0.134,0.242-0.263,0.285
		C194.997,232.74,194.953,232.75,194.909,232.75z"/>
</g>
<g>
	<path fill="#414042" d="M179.823,232.473c-0.503,0-0.986,0.092-1.431,0.263l6.686,7.807l9.832-8.069H179.823z"/>
	<path fill="#9ABA9A" d="M185.079,240.946c-0.113,0-0.228-0.049-0.306-0.142l-6.686-7.808c-0.084-0.099-0.117-0.233-0.083-0.361
		c0.031-0.127,0.124-0.229,0.245-0.274c0.503-0.192,1.032-0.291,1.575-0.291l15.086,0.003c0.17,0,0.322,0.106,0.379,0.268
		c0.057,0.159,0.009,0.339-0.124,0.448l-9.832,8.066C185.259,240.915,185.168,240.946,185.079,240.946z M179.104,232.947
		l6.023,7.036l8.658-7.104l-13.961-0.002C179.581,232.875,179.339,232.898,179.104,232.947z"/>
</g>
<g>
	<polygon fill="#414042" points="192.953,240.543 194.911,232.476 185.079,240.543 	"/>
	<path fill="#9ABA9A" d="M192.953,240.946h-7.874c-0.17,0-0.321-0.107-0.379-0.268c-0.057-0.161-0.009-0.339,0.124-0.448
		l9.831-8.067c0.136-0.109,0.323-0.121,0.471-0.028c0.146,0.092,0.217,0.268,0.177,0.435l-1.959,8.068
		C193.3,240.818,193.138,240.946,192.953,240.946z M186.204,240.14h6.434l1.6-6.589L186.204,240.14z"/>
</g>
<g>
	<polygon fill="#414042" points="207.599,240.543 204.583,232.473 194.911,232.476 	"/>
	<path fill="#9ABA9A" d="M207.599,240.946c-0.076,0-0.15-0.021-0.217-0.064l-12.687-8.067c-0.151-0.096-0.221-0.28-0.172-0.453
		c0.05-0.171,0.208-0.291,0.388-0.291l9.672-0.002c0.171,0,0.318,0.104,0.38,0.261l3.014,8.069c0.062,0.163,0.01,0.345-0.123,0.454
		C207.778,240.915,207.688,240.946,207.599,240.946z M196.294,232.878l10.508,6.682l-2.497-6.685L196.294,232.878z"/>
</g>
<g>
	<polygon fill="#414042" points="207.599,240.543 216.032,232.473 204.583,232.473 	"/>
	<path fill="#9ABA9A" d="M207.599,240.946c-0.03,0-0.061-0.005-0.091-0.011c-0.131-0.03-0.239-0.127-0.287-0.252l-3.015-8.07
		c-0.046-0.124-0.028-0.26,0.046-0.369c0.077-0.109,0.199-0.174,0.331-0.174h11.447c0.164,0,0.312,0.1,0.375,0.253
		c0.061,0.152,0.022,0.326-0.096,0.44l-8.435,8.07C207.8,240.906,207.7,240.946,207.599,240.946z M205.164,232.875l2.598,6.955
		l7.266-6.955H205.164z"/>
</g>
<g>
	<path fill="#414042" d="M216.032,232.473l-8.434,8.069h12.575c0.193,0,0.385-0.016,0.572-0.042L216.032,232.473z"/>
	<path fill="#9ABA9A" d="M220.174,240.946h-12.575c-0.164,0-0.312-0.101-0.375-0.254c-0.061-0.151-0.022-0.326,0.095-0.44
		l8.436-8.069c0.088-0.084,0.209-0.123,0.334-0.106c0.123,0.015,0.23,0.087,0.292,0.193l4.714,8.029
		c0.068,0.115,0.073,0.258,0.015,0.377c-0.059,0.122-0.173,0.206-0.304,0.225C220.597,240.931,220.388,240.946,220.174,240.946z
		 M208.602,240.14h11.466l-4.124-7.025L208.602,240.14z"/>
</g>
<g>
	<path fill="#414042" d="M224.208,236.51c0-2.231-1.806-4.037-4.037-4.037h-4.141l4.714,8.027
		C222.704,240.226,224.208,238.544,224.208,236.51z"/>
	<path fill="#9ABA9A" d="M220.746,240.905c-0.142,0-0.274-0.076-0.348-0.2l-4.714-8.028c-0.072-0.125-0.074-0.277-0.003-0.403
		c0.072-0.126,0.206-0.203,0.351-0.203h4.142c2.445,0,4.437,1.992,4.437,4.439c0,2.195-1.638,4.082-3.808,4.391
		C220.783,240.902,220.765,240.905,220.746,240.905z M216.734,232.875l4.216,7.182c1.646-0.358,2.854-1.841,2.854-3.547
		c0-2.004-1.63-3.635-3.634-3.635H216.734z"/>
</g>
<g>
	<polygon fill="#414042" points="194.911,232.476 192.953,240.543 207.599,240.543 	"/>
	<path fill="#9ABA9A" d="M207.599,240.946h-14.646c-0.124,0-0.24-0.059-0.315-0.154c-0.076-0.097-0.104-0.226-0.076-0.346
		l1.959-8.066c0.029-0.126,0.12-0.23,0.239-0.278c0.122-0.049,0.257-0.036,0.367,0.033l12.688,8.067
		c0.149,0.095,0.219,0.28,0.17,0.453C207.935,240.829,207.778,240.946,207.599,240.946z M193.464,240.14h12.749l-11.045-7.022
		L193.464,240.14z"/>
</g>
</svg>
