<?xml version="1.0" encoding="utf-8"?>
<!-- Generator: Adobe Illustrator 16.0.4, SVG Export Plug-In . SVG Version: 6.00 Build 0)  -->
<!DOCTYPE svg PUBLIC "-//W3C//DTD SVG 1.1//EN" "http://www.w3.org/Graphics/SVG/1.1/DTD/svg11.dtd">
<svg version="1.1" id="Layer_1" xmlns="http://www.w3.org/2000/svg" xmlns:xlink="http://www.w3.org/1999/xlink" x="0px" y="0px"
	 width="400px" height="400px" viewBox="0 0 400 400" enable-background="new 0 0 400 400" xml:space="preserve">
<polygon fill="#414042" points="173.673,214.688 173.66,214.693 173.674,214.698 "/>
<polygon fill="#414042" points="229.439,197.864 229.439,197.864 229.438,197.864 "/>
<g>
	<polygon fill="#414042" points="235.269,160.134 244.161,177.646 244.725,161.489 	"/>
	<path fill="#9ABA9A" d="M244.161,178.076c-0.161,0-0.31-0.088-0.385-0.236l-8.89-17.511c-0.074-0.143-0.06-0.314,0.034-0.447
		c0.095-0.131,0.244-0.199,0.411-0.176l9.456,1.354c0.217,0.031,0.377,0.222,0.37,0.442l-0.565,16.156
		c-0.006,0.195-0.146,0.361-0.337,0.404C244.222,178.073,244.191,178.076,244.161,178.076z M236.027,160.678l7.761,15.284
		l0.492-14.104L236.027,160.678z"/>
</g>
<g>
	<path fill="#414042" d="M173.673,214.688l2.107,18.637l17.902-6.534C193.682,226.781,173.673,214.688,173.673,214.688z"/>
	<path fill="#9ABA9A" d="M175.781,233.755c-0.08,0-0.16-0.021-0.228-0.063c-0.111-0.07-0.187-0.188-0.201-0.318l-2.107-18.634
		c-0.019-0.166,0.058-0.324,0.196-0.415c0.138-0.087,0.315-0.089,0.455-0.005c20.184,12.198,20.184,12.198,20.215,12.412
		c0.027,0.199-0.087,0.396-0.279,0.465l-17.903,6.533C175.879,233.746,175.83,233.755,175.781,233.755z M174.199,215.509
		l1.947,17.222l16.548-6.034C189.922,225.015,180.183,219.128,174.199,215.509z"/>
</g>
<g>
	<path fill="#414042" d="M167.121,243.452l-10.153,11.949c5.794,0.22,12.178-0.477,18.192-2.549L167.121,243.452z"/>
	<path fill="#9ABA9A" d="M159.036,255.87C159.036,255.87,159.035,255.87,159.036,255.87c-0.702,0-1.398-0.014-2.086-0.041
		c-0.164-0.006-0.312-0.104-0.377-0.256s-0.04-0.326,0.066-0.453l10.154-11.947c0.081-0.096,0.201-0.15,0.326-0.15h0.001
		c0.125,0,0.245,0.054,0.327,0.15l8.039,9.398c0.092,0.108,0.126,0.255,0.089,0.394c-0.038,0.136-0.141,0.246-0.275,0.294
		C170.344,254.968,164.719,255.87,159.036,255.87z M157.876,254.994c0.384,0.009,0.771,0.015,1.158,0.015
		c5.361,0,10.663-0.816,15.383-2.361l-7.295-8.531L157.876,254.994z"/>
</g>
<g>
	<path fill="#414042" d="M198.012,189.837l20.44-4.231l-2.643-10.384C209.788,179.114,203.123,184.321,198.012,189.837z"/>
	<path fill="#9ABA9A" d="M198.012,190.267c-0.154,0-0.298-0.08-0.375-0.219c-0.094-0.164-0.068-0.366,0.059-0.505
		c6.29-6.786,13.903-12.113,17.881-14.685c0.118-0.074,0.262-0.09,0.391-0.038c0.131,0.05,0.226,0.161,0.261,0.294l2.641,10.385
		c0.031,0.112,0.012,0.234-0.053,0.333c-0.062,0.101-0.163,0.172-0.275,0.194l-20.441,4.23
		C198.07,190.265,198.042,190.267,198.012,190.267z M215.542,175.911c-3.845,2.52-10.505,7.25-16.273,13.227l18.657-3.861
		L215.542,175.911z"/>
</g>
<g>
	<path fill="#414042" d="M218.453,185.605l10.985,12.259l0,0c1.818-2.477,3.478-4.953,4.922-7.307
		c1.659-2.854,3.928-5.889,6.427-8.936L218.453,185.605z"/>
	<path fill="#9ABA9A" d="M229.439,198.294c-0.121,0-0.24-0.053-0.32-0.144l-10.986-12.257c-0.105-0.116-0.138-0.281-0.085-0.426
		c0.05-0.15,0.175-0.258,0.331-0.286l22.334-3.986c0.178-0.032,0.356,0.052,0.448,0.207s0.076,0.351-0.039,0.491
		c-2.825,3.441-4.914,6.344-6.387,8.879c-1.506,2.454-3.168,4.922-4.947,7.346c-0.077,0.104-0.196,0.168-0.327,0.176
		C229.453,198.294,229.445,198.294,229.439,198.294z M219.292,185.896l10.113,11.285c1.648-2.266,3.189-4.568,4.59-6.85
		c1.362-2.341,3.241-4.994,5.729-8.084L219.292,185.896z"/>
</g>
<g>
	<polygon fill="#414042" points="231.41,169.842 225.653,180.772 240.635,170.72 	"/>
	<path fill="#9ABA9A" d="M225.653,181.204c-0.103,0-0.208-0.037-0.287-0.111c-0.147-0.133-0.187-0.348-0.094-0.52l5.756-10.934
		c0.08-0.154,0.238-0.242,0.422-0.227l9.226,0.877c0.182,0.02,0.333,0.146,0.375,0.324c0.046,0.176-0.026,0.361-0.176,0.463
		l-14.983,10.053C225.818,181.181,225.736,181.204,225.653,181.204z M231.656,170.298l-4.827,9.168l12.564-8.431L231.656,170.298z"
		/>
</g>
<g>
	<path fill="#414042" d="M256.528,152.155l-11.803,9.334l12.197,1.514C256.941,162.978,256.528,152.155,256.528,152.155z"/>
	<path fill="#9ABA9A" d="M256.923,163.433c-0.019,0-0.036-0.002-0.053-0.002l-12.198-1.516c-0.172-0.023-0.314-0.146-0.362-0.312
		c-0.047-0.166,0.013-0.347,0.148-0.455l11.802-9.332c0.13-0.102,0.302-0.121,0.449-0.053s0.243,0.213,0.25,0.375
		c0.418,10.971,0.418,10.971,0.311,11.117C257.188,163.37,257.06,163.433,256.923,163.433z M245.8,161.187l10.682,1.326
		c-0.049-1.467-0.217-5.982-0.35-9.494L245.8,161.187z"/>
</g>
<g>
	<path fill="#414042" d="M210.971,202.774l-0.142-0.142l-6.064-6.118l-0.079,0.064l0.079-0.064l-6.752-6.678l7.529,28.676
		c4.284-1.246,8.724-4.27,12.938-8.159L210.971,202.774z"/>
	<path fill="#9ABA9A" d="M205.541,218.944c-0.074,0-0.146-0.02-0.21-0.055c-0.103-0.058-0.176-0.152-0.205-0.266l-7.531-28.678
		c-0.051-0.188,0.032-0.385,0.201-0.482c0.166-0.096,0.379-0.07,0.518,0.066l6.75,6.678c0.002,0.002,0.004,0.002,0.005,0.004
		l13.716,13.837c0.08,0.082,0.127,0.194,0.125,0.312c-0.003,0.116-0.055,0.228-0.14,0.306c-4.667,4.307-9.076,7.086-13.109,8.262
		C205.623,218.938,205.584,218.944,205.541,218.944z M198.829,191.251l7.017,26.722c3.696-1.175,7.735-3.741,12.014-7.636
		l-13.213-13.328c-0.11-0.01-0.217-0.062-0.294-0.154c-0.056-0.07-0.088-0.151-0.096-0.235L198.829,191.251z"/>
</g>
<g>
	<polygon fill="#414042" points="240.635,170.72 218.453,185.605 240.788,181.62 	"/>
	<path fill="#9ABA9A" d="M218.453,186.037c-0.174,0-0.335-0.105-0.4-0.271c-0.076-0.188-0.009-0.404,0.161-0.518l22.181-14.887
		c0.13-0.088,0.298-0.098,0.439-0.023c0.14,0.074,0.23,0.217,0.232,0.374l0.152,10.901c0.004,0.211-0.147,0.393-0.355,0.43
		l-22.335,3.985C218.504,186.034,218.479,186.037,218.453,186.037z M240.214,171.521l-19.821,13.301l19.958-3.561L240.214,171.521z"
		/>
</g>
<g>
	<path fill="#414042" d="M177.665,214.007c-1.499,0-2.813,0.24-3.991,0.682l20.01,12.103
		C191.937,219.735,186.095,214.007,177.665,214.007z"/>
	<path fill="#9ABA9A" d="M193.684,227.224c-0.077,0-0.154-0.021-0.222-0.064l-20.011-12.102c-0.142-0.084-0.221-0.244-0.207-0.408
		c0.015-0.166,0.124-0.307,0.277-0.363c1.272-0.477,2.628-0.709,4.144-0.709c8.014,0,14.464,5.146,16.437,13.111
		c0.042,0.17-0.023,0.347-0.163,0.451C193.863,227.194,193.772,227.224,193.684,227.224z M174.704,214.81l18.274,11.051
		c-2.158-6.976-8.063-11.423-15.313-11.423C176.601,214.438,175.625,214.561,174.704,214.81z"/>
</g>
<g>
	<polygon fill="#414042" points="175.828,233.36 175.834,233.408 175.828,233.36 175.781,233.325 167.12,243.452 183.139,238.286 	
		"/>
	<path fill="#9ABA9A" d="M167.12,243.882c-0.142,0-0.276-0.068-0.358-0.189c-0.106-0.161-0.095-0.375,0.031-0.518l8.659-10.131
		c0.146-0.168,0.397-0.199,0.579-0.067c0.008,0.005,0.017,0.013,0.025,0.017c0.004,0.004,0.007,0.008,0.013,0.01l7.31,4.928
		c0.137,0.09,0.208,0.253,0.186,0.416c-0.023,0.164-0.137,0.299-0.294,0.35l-16.019,5.166
		C167.208,243.876,167.164,243.882,167.12,243.882z M175.856,233.899l-7.419,8.677l13.726-4.427L175.856,233.899z"/>
</g>
<g>
	<path fill="#414042" d="M152.885,241.833c-3.98,3.535-9.26,6.475-16.668,8.076c4.018,2.678,11.841,5.137,20.751,5.489
		L152.885,241.833z"/>
	<path fill="#9ABA9A" d="M156.968,255.829c-0.006,0-0.012,0-0.018,0c-8.159-0.323-16.39-2.505-20.973-5.56
		c-0.144-0.096-0.217-0.269-0.186-0.439c0.032-0.17,0.163-0.304,0.332-0.34c6.664-1.443,12.052-4.052,16.473-7.979
		c0.109-0.098,0.261-0.134,0.403-0.092c0.142,0.041,0.253,0.15,0.295,0.291l4.083,13.564c0.04,0.134,0.013,0.277-0.072,0.39
		C157.227,255.769,157.101,255.829,156.968,255.829z M137.337,250.097c3.611,2.089,10.372,4.408,19.043,4.846l-3.716-12.346
		C148.461,246.179,143.432,248.642,137.337,250.097z"/>
</g>
<g>
	<path fill="#414042" d="M210.829,202.633l7.65,7.721c3.953-3.65,7.71-8.062,10.958-12.489L210.829,202.633z"/>
	<path fill="#9ABA9A" d="M218.481,210.782c-0.11,0-0.223-0.045-0.306-0.129l-7.653-7.718c-0.108-0.108-0.148-0.269-0.108-0.417
		c0.04-0.148,0.159-0.266,0.309-0.302l18.61-4.772c0.177-0.044,0.363,0.027,0.464,0.178c0.104,0.15,0.1,0.349-0.008,0.496
		c-3.552,4.836-7.358,9.176-11.014,12.549C218.689,210.743,218.584,210.782,218.481,210.782z M211.664,202.864l6.828,6.887
		c3.276-3.064,6.667-6.9,9.876-11.168L211.664,202.864z"/>
</g>
<g>
	<polygon fill="#414042" points="218.453,185.605 198.012,189.837 204.765,196.515 	"/>
	<path fill="#9ABA9A" d="M204.765,196.945c-0.11,0-0.22-0.042-0.302-0.126l-6.752-6.676c-0.113-0.113-0.155-0.277-0.111-0.43
		c0.045-0.152,0.171-0.268,0.326-0.3l20.44-4.23c0.2-0.04,0.394,0.06,0.478,0.239c0.084,0.182,0.034,0.396-0.122,0.521
		l-13.688,10.908C204.954,196.915,204.86,196.945,204.765,196.945z M198.887,190.095l5.91,5.845l11.977-9.547L198.887,190.095z"/>
</g>
<g>
	<path fill="#414042" d="M215.81,175.222l9.843,5.551c-0.287-3.908-0.812-7.664-0.983-11.574
		C222.315,171.044,216.467,174.797,215.81,175.222z"/>
	<path fill="#9ABA9A" d="M225.653,181.204c-0.073,0-0.146-0.02-0.213-0.057l-9.84-5.55c-0.133-0.075-0.216-0.212-0.218-0.362
		c-0.005-0.152,0.07-0.293,0.196-0.375l0.138-0.089c4.171-2.688,7.257-4.789,8.688-5.911c0.129-0.1,0.303-0.119,0.448-0.052
		c0.146,0.067,0.242,0.21,0.25,0.372c0.101,2.306,0.329,4.605,0.553,6.828c0.153,1.541,0.312,3.135,0.429,4.732
		c0.012,0.158-0.064,0.311-0.198,0.396C225.813,181.182,225.733,181.204,225.653,181.204z M216.644,175.198l8.516,4.803
		c-0.106-1.316-0.237-2.629-0.365-3.905c-0.198-1.974-0.4-4.007-0.514-6.06C222.718,171.188,220.064,172.985,216.644,175.198z"/>
</g>
<g>
	<path fill="#414042" d="M245.116,151.595c-3.129,2.527-6.49,5.541-9.848,8.539l9.457,1.355L245.116,151.595z"/>
	<path fill="#9ABA9A" d="M244.725,161.919c-0.021,0-0.042-0.002-0.062-0.004l-9.456-1.354c-0.166-0.025-0.304-0.143-0.352-0.302
		c-0.05-0.161,0-0.336,0.125-0.447l0.464-0.415c3.15-2.812,6.406-5.721,9.4-8.139c0.131-0.106,0.312-0.126,0.462-0.05
		c0.153,0.075,0.245,0.233,0.238,0.401l-0.392,9.893c-0.005,0.123-0.062,0.238-0.155,0.315
		C244.922,161.883,244.824,161.919,244.725,161.919z M236.248,159.839l8.066,1.154l0.335-8.461
		C241.951,154.751,239.06,157.325,236.248,159.839z"/>
</g>
<g>
	<path fill="#414042" d="M263.366,152.492l-6.838-0.337l0.395,10.848C258.934,160.239,262.671,154.774,263.366,152.492z"/>
	<path fill="#9ABA9A" d="M256.923,163.433c-0.042,0-0.083-0.006-0.126-0.019c-0.176-0.054-0.297-0.212-0.307-0.396l-0.393-10.85
		c-0.005-0.12,0.042-0.236,0.127-0.322c0.089-0.083,0.201-0.133,0.325-0.123l6.836,0.337c0.133,0.007,0.257,0.075,0.332,0.183
		c0.076,0.109,0.098,0.245,0.06,0.373c-0.868,2.842-5.934,9.85-6.508,10.639C257.188,163.371,257.058,163.433,256.923,163.433z
		 M256.977,152.61l0.33,9.119c1.923-2.706,4.574-6.688,5.456-8.836L256.977,152.61z"/>
</g>
<g>
	<path fill="#414042" d="M201.573,203.396l-11.158,8.633c0.594,1.178,1.419,2.312,2.503,3.396c3.737,3.737,8.094,4.409,12.626,3.091
		L201.573,203.396z"/>
	<path fill="#9ABA9A" d="M201.446,219.563L201.446,219.563c-3.316,0-6.288-1.291-8.833-3.836c-1.09-1.09-1.959-2.271-2.584-3.506
		c-0.093-0.185-0.041-0.408,0.121-0.535l11.159-8.631c0.113-0.086,0.263-0.112,0.401-0.067c0.135,0.048,0.241,0.159,0.277,0.298
		l3.972,15.117c0.058,0.226-0.074,0.457-0.296,0.524C204.209,219.349,202.79,219.563,201.446,219.563z M190.962,212.146
		c0.568,1.042,1.327,2.04,2.259,2.971c2.378,2.38,5.146,3.584,8.224,3.584l0,0c1.137,0,2.337-0.163,3.573-0.488l-3.698-14.079
		L190.962,212.146z"/>
</g>
<g>
	<path fill="#414042" d="M173.66,214.693c-8.607,3.229-10.108,17.445-20.775,27.14l22.896-8.508l-2.106-18.627L173.66,214.693z"/>
	<path fill="#9ABA9A" d="M152.885,242.265c-0.147,0-0.288-0.078-0.369-0.207c-0.106-0.177-0.075-0.402,0.079-0.543
		c4.973-4.52,7.956-10.078,10.588-14.982c3.019-5.623,5.623-10.479,10.326-12.241c0.113-0.042,0.239-0.034,0.346,0.019
		c0.129,0.065,0.231,0.197,0.249,0.344l2.106,18.624c0.021,0.196-0.093,0.384-0.278,0.454l-22.895,8.508
		C152.985,242.255,152.935,242.265,152.885,242.265z M173.308,215.303c-4.093,1.812-6.545,6.379-9.365,11.636
		c-2.394,4.463-5.075,9.457-9.28,13.776l20.651-7.675L173.308,215.303z"/>
</g>
<g>
	<path fill="#414042" d="M183.139,238.286l-7.983,14.563c3.735-1.306,7.442-3.183,10.801-5.702c1.67-1.254,3.066-2.645,4.208-4.128
		L183.139,238.286z"/>
	<path fill="#9ABA9A" d="M175.155,253.282c-0.123,0-0.245-0.054-0.328-0.152c-0.115-0.135-0.135-0.328-0.049-0.486l7.982-14.565
		c0.057-0.105,0.159-0.183,0.275-0.21c0.117-0.029,0.242-0.008,0.342,0.061l7.026,4.734c0.099,0.066,0.166,0.171,0.185,0.289
		s-0.012,0.238-0.084,0.332c-1.202,1.559-2.646,2.974-4.29,4.208c-3.219,2.417-6.892,4.358-10.917,5.767
		C175.251,253.272,175.203,253.282,175.155,253.282z M183.289,238.907l-7.205,13.146c3.523-1.34,6.751-3.104,9.613-5.251
		c1.455-1.093,2.746-2.329,3.841-3.685L183.289,238.907z"/>
</g>
<g>
	<path fill="#414042" d="M231.41,169.842l-6.741-0.642c0.172,3.91,0.696,7.665,0.984,11.574L231.41,169.842z"/>
	<path fill="#9ABA9A" d="M225.653,181.204c-0.029,0-0.058-0.004-0.087-0.01c-0.188-0.039-0.329-0.198-0.344-0.391
		c-0.115-1.586-0.273-3.175-0.426-4.709c-0.225-2.235-0.455-4.549-0.558-6.877c-0.005-0.125,0.043-0.245,0.134-0.331
		c0.09-0.085,0.208-0.128,0.338-0.116l6.74,0.643c0.143,0.012,0.269,0.096,0.338,0.223c0.069,0.127,0.069,0.279,0.001,0.404
		l-5.757,10.934C225.958,181.117,225.811,181.204,225.653,181.204z M225.124,169.676c0.107,2.14,0.321,4.271,0.526,6.335
		c0.108,1.063,0.215,2.152,0.311,3.251l4.766-9.052L225.124,169.676z"/>
</g>
<g>
	<path fill="#414042" d="M244.725,161.489l-0.287,6.664l0.002-0.003l-0.002,0.003l-0.279,9.492
		c3.75-4.309,9.355-10.574,12.763-14.643L244.725,161.489z"/>
	<path fill="#9ABA9A" d="M244.161,178.076c-0.054,0-0.106-0.009-0.157-0.028c-0.17-0.067-0.278-0.234-0.273-0.416l0.278-9.491
		c0-0.001,0-0.004,0-0.007l0.283-6.664c0.008-0.12,0.063-0.232,0.153-0.311c0.092-0.077,0.213-0.113,0.331-0.097l12.199,1.515
		c0.158,0.02,0.291,0.124,0.349,0.27c0.058,0.146,0.03,0.313-0.07,0.436c-2.28,2.722-5.479,6.352-8.571,9.864
		c-1.502,1.71-2.952,3.354-4.197,4.784C244.401,178.024,244.282,178.076,244.161,178.076z M244.867,168.214l-0.239,8.242
		c1.052-1.203,2.213-2.521,3.41-3.881c2.863-3.252,5.817-6.608,8.045-9.241l-10.947-1.361l-0.263,6.151c0,0.01,0,0.02,0,0.029
		C244.872,168.174,244.869,168.192,244.867,168.214z"/>
</g>
<g>
	<path fill="#414042" d="M262.226,146.114c-3.742-3.741-9.984-0.265-17.109,5.48l18.248,0.897
		C264.139,149.965,263.905,147.793,262.226,146.114z"/>
	<path fill="#9ABA9A" d="M263.366,152.922c-0.006,0-0.014,0-0.021,0l-18.249-0.897c-0.178-0.008-0.333-0.127-0.389-0.297
		c-0.055-0.168,0-0.355,0.139-0.467c6.115-4.931,10.302-7.131,13.57-7.131c1.613,0,2.997,0.564,4.113,1.682
		c1.692,1.689,2.112,3.982,1.248,6.808C263.722,152.8,263.554,152.922,263.366,152.922z M246.279,151.221l16.769,0.825
		c0.649-2.378,0.28-4.221-1.127-5.626c-0.962-0.96-2.106-1.429-3.504-1.429C255.554,144.991,251.682,146.976,246.279,151.221z"/>
</g>
<g>
	<polygon fill="#414042" points="218.453,185.605 204.765,196.515 210.829,202.633 	"/>
	<path fill="#9ABA9A" d="M210.829,203.064c-0.114,0-0.227-0.044-0.307-0.128l-6.065-6.119c-0.085-0.086-0.131-0.207-0.125-0.329
		c0.007-0.122,0.066-0.235,0.162-0.311l13.689-10.909c0.154-0.125,0.375-0.126,0.533-0.004c0.156,0.123,0.208,0.336,0.128,0.516
		l-7.626,17.029c-0.058,0.13-0.175,0.223-0.314,0.248C210.878,203.062,210.854,203.064,210.829,203.064z M205.408,196.552
		l5.284,5.331l6.643-14.838L205.408,196.552z"/>
</g>
<g>
	<path fill="#414042" d="M198.012,189.837c-6.792,7.371-10.984,15.482-7.599,22.189l11.157-8.631l-3.548-13.512L198.012,189.837z"/>
	<path fill="#9ABA9A" d="M190.415,212.458c-0.033,0-0.063-0.004-0.095-0.012c-0.124-0.027-0.23-0.11-0.29-0.227
		c-3.063-6.068-0.412-13.909,7.667-22.676c0.108-0.116,0.272-0.164,0.426-0.125c0.154,0.041,0.274,0.162,0.31,0.316l3.557,13.551
		c0.044,0.168-0.016,0.344-0.153,0.451l-11.157,8.631C190.601,212.427,190.508,212.458,190.415,212.458z M197.797,190.716
		c-5.161,5.751-10.29,13.756-7.223,20.644l10.51-8.13L197.797,190.716z"/>
</g>
<g>
	<polygon fill="#414042" points="167.12,243.452 175.155,252.85 183.139,238.286 	"/>
	<path fill="#9ABA9A" d="M175.155,253.282c-0.124,0-0.245-0.056-0.327-0.15l-8.035-9.397c-0.095-0.111-0.127-0.261-0.087-0.397
		c0.04-0.139,0.145-0.25,0.282-0.295l16.019-5.166c0.167-0.055,0.352,0,0.463,0.135c0.111,0.135,0.131,0.328,0.046,0.482
		l-7.982,14.564c-0.068,0.125-0.193,0.206-0.334,0.221C175.184,253.281,175.17,253.282,175.155,253.282z M167.867,243.663
		l7.21,8.434l7.165-13.07L167.867,243.663z"/>
</g>
<g>
	<path fill="#414042" d="M193.684,226.791l-17.902,6.534l14.383,9.694C194.004,238.046,194.974,232.042,193.684,226.791z"/>
	<path fill="#9ABA9A" d="M190.164,243.45c-0.082,0-0.167-0.023-0.241-0.074l-14.383-9.695c-0.134-0.09-0.207-0.248-0.188-0.408
		s0.128-0.296,0.28-0.353l17.904-6.532c0.116-0.041,0.243-0.033,0.351,0.025c0.108,0.057,0.186,0.16,0.216,0.277
		c1.413,5.752,0.102,11.803-3.598,16.594C190.42,243.393,190.292,243.45,190.164,243.45z M176.722,233.44l13.346,8.994
		c3.254-4.398,4.447-9.844,3.307-15.069L176.722,233.44z"/>
</g>
<g>
	<polygon fill="#414042" points="218.453,185.605 210.829,202.633 229.438,197.864 	"/>
	<path fill="#9ABA9A" d="M210.829,203.064c-0.126,0-0.247-0.055-0.331-0.152c-0.106-0.128-0.131-0.302-0.063-0.454l7.625-17.028
		c0.058-0.134,0.182-0.228,0.326-0.249c0.146-0.025,0.289,0.028,0.386,0.137l10.986,12.258c0.102,0.113,0.136,0.268,0.092,0.412
		c-0.044,0.144-0.161,0.254-0.306,0.293l-18.61,4.771C210.899,203.061,210.864,203.064,210.829,203.064z M218.575,186.386
		l-6.988,15.606l17.059-4.371L218.575,186.386z"/>
</g>
<g>
	<polygon fill="#414042" points="215.81,175.222 218.453,185.605 225.653,180.772 	"/>
	<path fill="#9ABA9A" d="M218.453,186.037c-0.053,0-0.104-0.01-0.154-0.028c-0.13-0.05-0.228-0.16-0.263-0.295l-2.642-10.385
		c-0.042-0.167,0.019-0.345,0.156-0.449c0.135-0.105,0.321-0.117,0.474-0.032l9.842,5.552c0.13,0.072,0.213,0.209,0.218,0.357
		c0.005,0.149-0.066,0.293-0.191,0.375l-7.199,4.832C218.622,186.011,218.537,186.037,218.453,186.037z M216.476,176.093
		l2.244,8.814l6.111-4.101L216.476,176.093z"/>
</g>
<g>
	<path fill="#414042" d="M224.671,169.198l15.964,1.523l-5.366-10.587C231.748,163.278,228.152,166.468,224.671,169.198z"/>
	<path fill="#9ABA9A" d="M240.635,171.149c-0.012,0-0.026,0-0.04-0.001l-15.965-1.522c-0.174-0.018-0.323-0.139-0.372-0.308
		c-0.05-0.169,0.008-0.351,0.146-0.46c3.357-2.631,6.778-5.652,10.578-9.046c0.1-0.089,0.234-0.128,0.366-0.103
		c0.133,0.026,0.245,0.109,0.305,0.229l5.366,10.586c0.071,0.14,0.061,0.308-0.027,0.438
		C240.908,171.08,240.775,171.149,240.635,171.149z M225.776,168.87l14.122,1.348l-4.761-9.39
		C231.806,163.799,228.761,166.483,225.776,168.87z"/>
</g>
<g>
	<path fill="#414042" d="M244.014,177.769l0.017-0.38l-3.396-6.669l0.152,10.9c1.081-1.312,2.221-2.651,3.373-3.977l-0.129-0.255
		L244.014,177.769z"/>
	<path fill="#9ABA9A" d="M240.788,182.05c-0.048,0-0.096-0.007-0.143-0.023c-0.17-0.061-0.286-0.22-0.288-0.4l-0.153-10.9
		c-0.004-0.2,0.133-0.376,0.326-0.424c0.193-0.047,0.396,0.043,0.486,0.223l3.398,6.67c0,0,0,0,0.001,0.002l0.128,0.254
		c0.08,0.156,0.055,0.346-0.06,0.477c-1.238,1.423-2.37,2.758-3.364,3.967C241.038,181.995,240.914,182.05,240.788,182.05z
		 M241.091,172.567l0.111,7.879c0.737-0.883,1.535-1.82,2.388-2.801l0.005-0.16L241.091,172.567z"/>
</g>
<g>
	<polygon fill="#414042" points="256.528,152.155 245.116,151.595 244.725,161.489 	"/>
	<path fill="#9ABA9A" d="M244.725,161.919c-0.066,0-0.134-0.016-0.196-0.047c-0.148-0.077-0.242-0.234-0.235-0.4l0.393-9.895
		c0.005-0.113,0.055-0.223,0.141-0.299c0.085-0.078,0.2-0.117,0.311-0.113l11.414,0.562c0.179,0.011,0.334,0.13,0.39,0.3
		c0.054,0.17-0.003,0.356-0.144,0.469l-11.804,9.332C244.915,161.886,244.819,161.919,244.725,161.919z M245.53,152.046
		l-0.337,8.522l10.167-8.038L245.53,152.046z"/>
</g>
<g>
	<polygon fill="#414042" points="175.781,233.325 152.885,241.833 156.968,255.393 	"/>
	<path fill="#9ABA9A" d="M156.968,255.823c-0.03,0-0.06-0.002-0.088-0.009c-0.155-0.03-0.278-0.146-0.325-0.296l-4.083-13.561
		c-0.065-0.217,0.051-0.451,0.262-0.528l22.896-8.509c0.185-0.068,0.391-0.002,0.504,0.157c0.111,0.16,0.103,0.378-0.026,0.526
		l-18.812,22.07C157.213,255.771,157.092,255.823,156.968,255.823z M153.414,242.097l3.738,12.416l17.226-20.208L153.414,242.097z"
		/>
</g>
</svg>
