<?xml version="1.0" encoding="utf-8"?>
<!-- Generator: Adobe Illustrator 16.0.4, SVG Export Plug-In . SVG Version: 6.00 Build 0)  -->
<!DOCTYPE svg PUBLIC "-//W3C//DTD SVG 1.1//EN" "http://www.w3.org/Graphics/SVG/1.1/DTD/svg11.dtd">
<svg version="1.1" id="Layer_1" xmlns="http://www.w3.org/2000/svg" xmlns:xlink="http://www.w3.org/1999/xlink" x="0px" y="0px"
	 width="500px" height="500px" viewBox="0 0 500 500" enable-background="new 0 0 500 500" xml:space="preserve">
<polygon fill="#414042" points="229.5,261.438 229.49,261.441 229.501,261.446 "/>
<polygon fill="#414042" points="272.923,248.337 272.923,248.337 272.922,248.337 "/>
<g>
	<polygon fill="#414042" points="277.462,218.958 284.386,232.594 284.825,220.013 	"/>
	<path fill="#9ABA9A" d="M284.386,232.929c-0.125,0-0.241-0.068-0.3-0.184l-6.923-13.635c-0.057-0.111-0.046-0.245,0.027-0.348
		c0.073-0.102,0.19-0.155,0.32-0.137l7.363,1.055c0.169,0.024,0.293,0.173,0.288,0.344l-0.44,12.581
		c-0.005,0.152-0.114,0.282-0.263,0.315C284.434,232.927,284.409,232.929,284.386,232.929z M278.053,219.382l6.043,11.9l0.383-10.98
		L278.053,219.382z"/>
</g>
<g>
	<path fill="#414042" d="M229.5,261.438l1.641,14.511l13.94-5.087C245.08,270.854,229.5,261.438,229.5,261.438z"/>
	<path fill="#9ABA9A" d="M231.141,276.284c-0.062,0-0.124-0.017-0.177-0.05c-0.087-0.054-0.145-0.146-0.157-0.248l-1.641-14.51
		c-0.014-0.128,0.045-0.252,0.153-0.321c0.107-0.069,0.245-0.07,0.354-0.004c15.716,9.497,15.716,9.497,15.74,9.664
		c0.021,0.156-0.068,0.308-0.217,0.362l-13.941,5.086C231.218,276.277,231.179,276.284,231.141,276.284z M229.91,262.077
		l1.516,13.41l12.885-4.7C242.153,269.479,234.569,264.894,229.91,262.077z"/>
</g>
<g>
	<path fill="#414042" d="M224.398,283.835l-7.906,9.303c4.512,0.173,9.483-0.37,14.166-1.984L224.398,283.835z"/>
	<path fill="#9ABA9A" d="M218.103,293.504C218.103,293.504,218.102,293.504,218.103,293.504c-0.547,0-1.089-0.011-1.624-0.031
		c-0.128-0.005-0.243-0.083-0.294-0.2c-0.051-0.118-0.031-0.254,0.052-0.353l7.906-9.303c0.063-0.074,0.157-0.117,0.254-0.117
		c0,0,0.001,0,0.001,0c0.098,0,0.191,0.042,0.255,0.117l6.259,7.318c0.072,0.085,0.098,0.199,0.069,0.306
		c-0.029,0.107-0.109,0.193-0.214,0.229C226.908,292.801,222.528,293.504,218.103,293.504z M217.2,292.822
		c0.299,0.007,0.6,0.011,0.902,0.011c4.174,0,8.303-0.635,11.978-1.839l-5.681-6.642L217.2,292.822z"/>
</g>
<g>
	<path fill="#414042" d="M248.452,242.087l15.916-3.295l-2.057-8.085C257.621,233.737,252.432,237.792,248.452,242.087z"/>
	<path fill="#9ABA9A" d="M248.452,242.422c-0.12,0-0.232-0.063-0.292-0.171c-0.072-0.127-0.053-0.285,0.046-0.393
		c4.897-5.284,10.826-9.432,13.923-11.434c0.091-0.059,0.204-0.07,0.305-0.03c0.101,0.039,0.176,0.125,0.203,0.229l2.057,8.086
		c0.023,0.088,0.008,0.183-0.041,0.26c-0.049,0.078-0.127,0.133-0.216,0.15l-15.916,3.295
		C248.497,242.42,248.475,242.422,248.452,242.422z M262.102,231.243c-2.995,1.962-8.18,5.646-12.672,10.299l14.528-3.007
		L262.102,231.243z"/>
</g>
<g>
	<path fill="#414042" d="M264.368,238.792l8.554,9.545h0c1.415-1.928,2.708-3.857,3.832-5.689c1.292-2.222,3.058-4.586,5.005-6.958
		L264.368,238.792z"/>
	<path fill="#9ABA9A" d="M272.923,248.672c-0.095,0-0.186-0.041-0.249-0.112l-8.555-9.544c-0.082-0.09-0.107-0.218-0.067-0.332
		c0.04-0.116,0.138-0.2,0.258-0.222l17.391-3.104c0.139-0.025,0.277,0.04,0.349,0.161c0.071,0.121,0.059,0.273-0.03,0.383
		c-2.199,2.679-3.826,4.94-4.974,6.913c-1.173,1.911-2.467,3.833-3.852,5.72c-0.06,0.081-0.153,0.131-0.254,0.137
		C272.934,248.672,272.928,248.672,272.923,248.672z M265.021,239.017l7.876,8.788c1.282-1.764,2.483-3.557,3.573-5.333
		c1.061-1.823,2.524-3.889,4.461-6.294L265.021,239.017z"/>
</g>
<g>
	<polygon fill="#414042" points="274.457,226.517 269.975,235.029 281.641,227.201 	"/>
	<path fill="#9ABA9A" d="M269.975,235.364c-0.081,0-0.162-0.028-0.224-0.086c-0.115-0.103-0.145-0.27-0.073-0.405l4.482-8.513
		c0.063-0.12,0.186-0.188,0.329-0.177l7.184,0.684c0.141,0.014,0.258,0.114,0.293,0.252c0.035,0.137-0.021,0.281-0.138,0.36
		l-11.666,7.828C270.104,235.346,270.039,235.364,269.975,235.364z M274.649,226.872l-3.759,7.139l9.784-6.564L274.649,226.872z"/>
</g>
<g>
	<path fill="#414042" d="M294.016,212.746l-9.191,7.267l9.498,1.18C294.338,221.172,294.016,212.746,294.016,212.746z"/>
	<path fill="#9ABA9A" d="M294.323,221.527c-0.014,0-0.028-0.001-0.041-0.002l-9.498-1.18c-0.134-0.018-0.245-0.113-0.282-0.243
		c-0.037-0.13,0.009-0.27,0.115-0.354l9.19-7.267c0.101-0.078,0.235-0.094,0.349-0.041c0.115,0.053,0.19,0.166,0.195,0.292
		c0.326,8.542,0.326,8.542,0.242,8.657C294.53,221.478,294.429,221.527,294.323,221.527z M285.662,219.778l8.316,1.033
		c-0.037-1.142-0.168-4.659-0.271-7.393L285.662,219.778z"/>
</g>
<g>
	<path fill="#414042" d="M258.542,252.161l-0.111-0.11l-4.721-4.765l-0.061,0.051l0.061-0.051l-5.258-5.199l5.863,22.329
		c3.335-0.971,6.792-3.325,10.074-6.354L258.542,252.161z"/>
	<path fill="#9ABA9A" d="M254.315,264.752c-0.058,0-0.114-0.015-0.165-0.043c-0.08-0.045-0.137-0.119-0.159-0.207l-5.864-22.33
		c-0.039-0.146,0.025-0.3,0.156-0.376c0.13-0.075,0.296-0.055,0.404,0.052l5.257,5.2c0.001,0.001,0.002,0.002,0.003,0.003
		l10.68,10.774c0.063,0.064,0.099,0.152,0.097,0.243s-0.042,0.178-0.108,0.239c-3.633,3.353-7.067,5.517-10.208,6.432
		C254.378,264.747,254.347,264.752,254.315,264.752z M249.088,243.188l5.464,20.807c2.877-0.915,6.022-2.913,9.354-5.945
		l-10.288-10.378c-0.086-0.008-0.169-0.049-0.229-0.121c-0.044-0.055-0.069-0.118-0.075-0.183L249.088,243.188z"/>
</g>
<g>
	<polygon fill="#414042" points="281.641,227.201 264.368,238.792 281.76,235.689 	"/>
	<path fill="#9ABA9A" d="M264.368,239.128c-0.135,0-0.26-0.082-0.311-0.21c-0.059-0.147-0.007-0.315,0.124-0.404l17.272-11.591
		c0.102-0.068,0.233-0.076,0.343-0.019c0.109,0.058,0.178,0.169,0.18,0.292l0.119,8.488c0.002,0.164-0.115,0.306-0.276,0.335
		l-17.392,3.103C264.408,239.126,264.388,239.128,264.368,239.128z M281.313,227.824l-15.434,10.357l15.541-2.772L281.313,227.824z"
		/>
</g>
<g>
	<path fill="#414042" d="M232.609,260.907c-1.167,0-2.191,0.187-3.108,0.531l15.581,9.424
		C243.721,265.368,239.173,260.907,232.609,260.907z"/>
	<path fill="#9ABA9A" d="M245.082,271.198c-0.06,0-0.12-0.016-0.173-0.049l-15.582-9.425c-0.11-0.065-0.172-0.189-0.161-0.317
		c0.012-0.129,0.096-0.238,0.216-0.282c0.991-0.372,2.046-0.553,3.227-0.553c6.239,0,11.262,4.008,12.798,10.21
		c0.033,0.132-0.018,0.27-0.127,0.351C245.221,271.176,245.151,271.198,245.082,271.198z M230.303,261.532l14.229,8.605
		c-1.68-5.432-6.278-8.895-11.923-8.895C231.78,261.243,231.02,261.338,230.303,261.532z"/>
</g>
<g>
	<polygon fill="#414042" points="231.178,275.976 231.183,276.014 231.178,275.976 231.141,275.949 224.397,283.835 
		236.871,279.812 	"/>
	<path fill="#9ABA9A" d="M224.397,284.17c-0.11,0-0.215-0.054-0.279-0.149c-0.083-0.125-0.074-0.29,0.024-0.403l6.743-7.887
		c0.113-0.132,0.309-0.156,0.451-0.054c0.006,0.005,0.013,0.01,0.019,0.014c0.003,0.003,0.006,0.005,0.01,0.007l5.692,3.837
		c0.107,0.071,0.163,0.198,0.145,0.325s-0.107,0.232-0.229,0.272l-12.473,4.022C224.467,284.165,224.432,284.17,224.397,284.17z
		 M231.2,276.396l-5.777,6.756l10.688-3.446L231.2,276.396z"/>
</g>
<g>
	<path fill="#414042" d="M213.313,282.574c-3.099,2.753-7.21,5.041-12.979,6.289c3.129,2.085,9.22,3.998,16.158,4.274
		L213.313,282.574z"/>
	<path fill="#9ABA9A" d="M216.492,293.473c-0.004,0-0.009,0-0.013,0c-6.353-0.253-12.762-1.952-16.331-4.33
		c-0.112-0.075-0.169-0.209-0.144-0.342c0.025-0.132,0.127-0.237,0.258-0.265c5.189-1.124,9.385-3.155,12.827-6.213
		c0.085-0.076,0.203-0.104,0.314-0.072c0.11,0.032,0.197,0.117,0.23,0.227l3.179,10.562c0.031,0.104,0.01,0.217-0.056,0.303
		C216.694,293.425,216.596,293.473,216.492,293.473z M201.207,289.009c2.812,1.626,8.076,3.433,14.828,3.772l-2.894-9.612
		C209.869,285.958,205.952,287.875,201.207,289.009z"/>
</g>
<g>
	<path fill="#414042" d="M258.431,252.051l5.958,6.011c3.078-2.842,6.003-6.278,8.533-9.725L258.431,252.051z"/>
	<path fill="#9ABA9A" d="M264.39,258.396c-0.086,0-0.173-0.034-0.238-0.1l-5.958-6.01c-0.084-0.085-0.117-0.209-0.085-0.325
		s0.124-0.206,0.24-0.235l14.492-3.715c0.137-0.035,0.282,0.02,0.361,0.138c0.08,0.117,0.077,0.271-0.007,0.386
		c-2.765,3.766-5.729,7.145-8.576,9.772C264.553,258.366,264.471,258.396,264.39,258.396z M259.082,252.23l5.317,5.363
		c2.55-2.386,5.191-5.373,7.69-8.696L259.082,252.23z"/>
</g>
<g>
	<polygon fill="#414042" points="264.368,238.792 248.452,242.087 253.71,247.286 	"/>
	<path fill="#9ABA9A" d="M253.71,247.622c-0.086,0-0.171-0.033-0.236-0.098l-5.257-5.199c-0.088-0.087-0.121-0.216-0.086-0.334
		c0.035-0.118,0.133-0.208,0.254-0.233l15.916-3.294c0.155-0.032,0.306,0.046,0.372,0.186c0.065,0.141,0.026,0.309-0.095,0.405
		l-10.658,8.494C253.857,247.598,253.784,247.622,253.71,247.622z M249.133,242.288l4.601,4.551l9.327-7.434L249.133,242.288z"/>
</g>
<g>
	<path fill="#414042" d="M262.311,230.707l7.664,4.322c-0.224-3.043-0.632-5.968-0.766-9.012
		C267.376,227.454,262.822,230.376,262.311,230.707z"/>
	<path fill="#9ABA9A" d="M269.975,235.364c-0.057,0-0.114-0.014-0.166-0.043l-7.663-4.322c-0.103-0.058-0.167-0.165-0.17-0.282
		c-0.003-0.118,0.055-0.228,0.153-0.292l0.107-0.069c3.248-2.094,5.65-3.729,6.765-4.603c0.1-0.077,0.235-0.093,0.348-0.04
		c0.114,0.052,0.189,0.164,0.195,0.289c0.079,1.796,0.257,3.587,0.43,5.318c0.12,1.199,0.244,2.44,0.335,3.685
		c0.009,0.123-0.05,0.241-0.155,0.308C270.1,235.347,270.037,235.364,269.975,235.364z M262.96,230.688l6.631,3.74
		c-0.083-1.025-0.185-2.047-0.284-3.041c-0.154-1.537-0.312-3.12-0.401-4.718C267.69,227.566,265.623,228.965,262.96,230.688z"/>
</g>
<g>
	<path fill="#414042" d="M285.13,212.309c-2.437,1.968-5.054,4.315-7.668,6.649l7.363,1.055L285.13,212.309z"/>
	<path fill="#9ABA9A" d="M284.825,220.348c-0.016,0-0.032-0.001-0.048-0.003l-7.363-1.054c-0.129-0.02-0.236-0.111-0.273-0.235
		c-0.039-0.125,0-0.261,0.097-0.348l0.362-0.323c2.453-2.19,4.988-4.455,7.319-6.337c0.102-0.083,0.243-0.099,0.361-0.039
		c0.118,0.059,0.19,0.182,0.185,0.313l-0.305,7.703c-0.004,0.095-0.048,0.185-0.121,0.245
		C284.979,220.32,284.903,220.348,284.825,220.348z M278.224,218.729l6.281,0.899l0.261-6.589
		C282.665,214.766,280.414,216.772,278.224,218.729z"/>
</g>
<g>
	<path fill="#414042" d="M299.34,213.008l-5.324-0.262l0.307,8.446C295.889,219.041,298.799,214.785,299.34,213.008z"/>
	<path fill="#9ABA9A" d="M294.323,221.527c-0.033,0-0.065-0.005-0.099-0.015c-0.136-0.041-0.231-0.165-0.237-0.308l-0.307-8.447
		c-0.003-0.094,0.033-0.185,0.1-0.251c0.067-0.065,0.156-0.104,0.252-0.097l5.323,0.263c0.104,0.005,0.199,0.058,0.258,0.142
		c0.06,0.085,0.077,0.191,0.047,0.291c-0.675,2.213-4.62,7.67-5.067,8.284C294.53,221.479,294.428,221.527,294.323,221.527z
		 M294.364,213.1l0.258,7.101c1.497-2.107,3.562-5.208,4.248-6.88L294.364,213.1z"/>
</g>
<g>
	<path fill="#414042" d="M251.224,252.645l-8.688,6.721c0.463,0.917,1.105,1.801,1.949,2.645c2.91,2.91,6.302,3.432,9.831,2.406
		L251.224,252.645z"/>
	<path fill="#9ABA9A" d="M251.126,265.234L251.126,265.234c-2.582,0-4.896-1.005-6.878-2.987c-0.849-0.848-1.526-1.768-2.012-2.73
		c-0.072-0.144-0.032-0.318,0.094-0.417l8.689-6.72c0.089-0.068,0.206-0.088,0.313-0.053c0.106,0.037,0.188,0.124,0.216,0.232
		l3.092,11.771c0.046,0.176-0.057,0.356-0.23,0.408C253.277,265.067,252.172,265.234,251.126,265.234z M242.963,259.458
		c0.442,0.812,1.033,1.589,1.758,2.314c1.852,1.852,4.007,2.791,6.404,2.791l0,0c0.886,0,1.821-0.128,2.782-0.381l-2.879-10.963
		L242.963,259.458z"/>
</g>
<g>
	<path fill="#414042" d="M229.49,261.441c-6.702,2.515-7.871,13.584-16.177,21.133l17.828-6.625l-1.64-14.503L229.49,261.441z"/>
	<path fill="#9ABA9A" d="M213.313,282.91c-0.115,0-0.224-0.06-0.287-0.161c-0.083-0.138-0.058-0.314,0.061-0.423
		c3.872-3.52,6.195-7.848,8.245-11.667c2.35-4.378,4.378-8.158,8.04-9.531c0.088-0.033,0.186-0.027,0.269,0.014
		c0.101,0.051,0.181,0.154,0.194,0.268l1.64,14.502c0.017,0.153-0.072,0.299-0.216,0.353l-17.828,6.625
		C213.391,282.903,213.352,282.91,213.313,282.91z M229.216,261.916c-3.187,1.41-5.096,4.967-7.292,9.061
		c-1.864,3.474-3.952,7.363-7.226,10.726l16.08-5.976L229.216,261.916z"/>
</g>
<g>
	<path fill="#414042" d="M236.871,279.812l-6.216,11.341c2.908-1.018,5.794-2.478,8.41-4.441c1.3-0.976,2.387-2.06,3.277-3.214
		L236.871,279.812z"/>
	<path fill="#9ABA9A" d="M230.654,291.489c-0.096,0-0.191-0.042-0.255-0.119c-0.09-0.105-0.105-0.256-0.038-0.378l6.215-11.341
		c0.045-0.083,0.124-0.143,0.215-0.165c0.091-0.022,0.188-0.005,0.266,0.048l5.471,3.686c0.077,0.052,0.129,0.134,0.144,0.225
		c0.015,0.092-0.009,0.186-0.065,0.259c-0.936,1.213-2.06,2.315-3.341,3.277c-2.506,1.882-5.366,3.393-8.5,4.489
		C230.729,291.483,230.691,291.489,230.654,291.489z M236.988,280.296l-5.61,10.236c2.743-1.043,5.257-2.416,7.485-4.088
		c1.133-0.851,2.138-1.814,2.991-2.87L236.988,280.296z"/>
</g>
<g>
	<path fill="#414042" d="M274.457,226.517l-5.249-0.499c0.134,3.044,0.542,5.969,0.766,9.012L274.457,226.517z"/>
	<path fill="#9ABA9A" d="M269.975,235.364c-0.023,0-0.046-0.002-0.069-0.007c-0.146-0.03-0.255-0.154-0.267-0.304
		c-0.09-1.235-0.213-2.472-0.333-3.667c-0.174-1.74-0.354-3.541-0.434-5.354c-0.004-0.098,0.034-0.191,0.104-0.258
		c0.071-0.067,0.163-0.1,0.264-0.091l5.248,0.5c0.111,0.01,0.209,0.075,0.263,0.174s0.054,0.217,0.001,0.315l-4.482,8.513
		C270.212,235.297,270.097,235.364,269.975,235.364z M269.562,226.388c0.085,1.666,0.251,3.325,0.411,4.933
		c0.083,0.828,0.167,1.676,0.242,2.531l3.711-7.048L269.562,226.388z"/>
</g>
<g>
	<path fill="#414042" d="M284.825,220.013l-0.224,5.19l0.003-0.003l-0.003,0.003l-0.216,7.391c2.92-3.355,7.284-8.233,9.937-11.401
		L284.825,220.013z"/>
	<path fill="#9ABA9A" d="M284.386,232.929c-0.042,0-0.083-0.007-0.122-0.022c-0.133-0.052-0.217-0.182-0.213-0.323l0.216-7.391
		c0-0.001,0-0.003,0-0.005l0.222-5.189c0.005-0.094,0.048-0.182,0.119-0.242s0.166-0.088,0.258-0.076l9.498,1.18
		c0.122,0.015,0.226,0.096,0.271,0.21s0.024,0.244-0.055,0.339c-1.775,2.119-4.265,4.946-6.673,7.681
		c-1.171,1.331-2.3,2.611-3.269,3.725C284.573,232.889,284.481,232.929,284.386,232.929z M284.936,225.25l-0.187,6.418
		c0.819-0.937,1.723-1.964,2.655-3.022c2.23-2.532,4.53-5.146,6.264-7.196l-8.523-1.06l-0.206,4.79c0,0.008,0,0.016,0,0.023
		C284.939,225.219,284.938,225.234,284.936,225.25z"/>
</g>
<g>
	<path fill="#414042" d="M298.452,208.042c-2.914-2.913-7.774-0.206-13.322,4.267l14.209,0.699
		C299.941,211.04,299.76,209.349,298.452,208.042z"/>
	<path fill="#9ABA9A" d="M299.34,213.343c-0.005,0-0.011,0-0.016,0l-14.209-0.699c-0.139-0.007-0.26-0.099-0.303-0.231
		c-0.043-0.132,0-0.277,0.108-0.364c4.762-3.839,8.021-5.552,10.566-5.552c1.256,0,2.334,0.44,3.203,1.309
		c1.318,1.316,1.645,3.101,0.972,5.301C299.617,213.248,299.486,213.343,299.34,213.343z M286.035,212.018l13.057,0.642
		c0.506-1.851,0.219-3.286-0.877-4.38c-0.749-0.748-1.641-1.112-2.729-1.112C293.257,207.167,290.242,208.712,286.035,212.018z"/>
</g>
<g>
	<polygon fill="#414042" points="264.368,238.792 253.71,247.286 258.431,252.051 	"/>
	<path fill="#9ABA9A" d="M258.431,252.387c-0.088,0-0.175-0.035-0.238-0.1l-4.722-4.765c-0.067-0.067-0.102-0.161-0.097-0.256
		s0.052-0.184,0.126-0.242l10.659-8.494c0.12-0.098,0.292-0.099,0.415-0.003c0.122,0.095,0.163,0.261,0.1,0.401l-5.937,13.26
		c-0.045,0.101-0.137,0.174-0.246,0.193C258.471,252.385,258.451,252.387,258.431,252.387z M254.211,247.315l4.114,4.152
		l5.173-11.554L254.211,247.315z"/>
</g>
<g>
	<path fill="#414042" d="M248.452,242.087c-5.289,5.739-8.553,12.056-5.917,17.278l8.688-6.721l-2.763-10.52L248.452,242.087z"/>
	<path fill="#9ABA9A" d="M242.536,259.701c-0.025,0-0.049-0.003-0.074-0.009c-0.097-0.021-0.18-0.087-0.226-0.176
		c-2.385-4.726-0.321-10.831,5.97-17.657c0.084-0.091,0.212-0.128,0.332-0.098c0.12,0.032,0.213,0.126,0.241,0.247l2.77,10.551
		c0.034,0.13-0.013,0.268-0.119,0.351l-8.688,6.721C242.681,259.677,242.609,259.701,242.536,259.701z M248.284,242.771
		c-4.018,4.478-8.012,10.712-5.624,16.075l8.184-6.33L248.284,242.771z"/>
</g>
<g>
	<polygon fill="#414042" points="224.397,283.835 230.654,291.153 236.871,279.812 	"/>
	<path fill="#9ABA9A" d="M230.654,291.489c-0.097,0-0.191-0.043-0.254-0.117l-6.257-7.318c-0.073-0.086-0.099-0.202-0.068-0.31
		c0.031-0.108,0.113-0.194,0.22-0.229l12.473-4.022c0.13-0.043,0.274-0.001,0.361,0.105c0.087,0.105,0.102,0.255,0.036,0.375
		l-6.216,11.341c-0.053,0.097-0.15,0.161-0.26,0.173C230.677,291.488,230.666,291.489,230.654,291.489z M224.979,283.999
		l5.615,6.567l5.578-10.177L224.979,283.999z"/>
</g>
<g>
	<path fill="#414042" d="M245.082,270.862l-13.94,5.087l11.2,7.549C245.331,279.625,246.086,274.95,245.082,270.862z"/>
	<path fill="#9ABA9A" d="M242.341,283.834c-0.064,0-0.13-0.019-0.188-0.058l-11.2-7.549c-0.104-0.071-0.161-0.194-0.146-0.319
		c0.015-0.125,0.1-0.23,0.218-0.274l13.941-5.087c0.09-0.032,0.189-0.025,0.273,0.02c0.084,0.045,0.145,0.124,0.168,0.216
		c1.101,4.479,0.08,9.189-2.801,12.921C242.541,283.788,242.441,283.834,242.341,283.834z M231.874,276.039l10.392,7.003
		c2.534-3.425,3.463-7.664,2.575-11.734L231.874,276.039z"/>
</g>
<g>
	<polygon fill="#414042" points="264.368,238.792 258.431,252.051 272.922,248.337 	"/>
	<path fill="#9ABA9A" d="M258.431,252.387c-0.097,0-0.192-0.043-0.256-0.119c-0.083-0.099-0.103-0.235-0.05-0.354l5.937-13.259
		c0.046-0.104,0.142-0.177,0.254-0.194c0.113-0.019,0.225,0.022,0.301,0.107l8.555,9.544c0.079,0.088,0.105,0.209,0.071,0.321
		c-0.034,0.112-0.125,0.198-0.238,0.228l-14.491,3.715C258.487,252.384,258.459,252.387,258.431,252.387z M264.463,239.4
		l-5.441,12.152l13.283-3.404L264.463,239.4z"/>
</g>
<g>
	<polygon fill="#414042" points="262.311,230.707 264.368,238.792 269.975,235.029 	"/>
	<path fill="#9ABA9A" d="M264.368,239.128c-0.041,0-0.081-0.008-0.12-0.022c-0.101-0.039-0.178-0.125-0.205-0.23l-2.057-8.086
		c-0.033-0.13,0.015-0.268,0.122-0.349c0.105-0.082,0.25-0.092,0.369-0.026l7.663,4.323c0.101,0.057,0.166,0.163,0.17,0.279
		c0.005,0.116-0.051,0.227-0.148,0.291l-5.606,3.763C264.5,239.108,264.434,239.128,264.368,239.128z M262.829,231.385l1.747,6.864
		l4.759-3.194L262.829,231.385z"/>
</g>
<g>
	<path fill="#414042" d="M269.21,226.017l12.431,1.185l-4.179-8.243C274.72,221.406,271.921,223.89,269.21,226.017z"/>
	<path fill="#9ABA9A" d="M281.641,227.536c-0.01,0-0.021,0-0.032-0.001l-12.431-1.186c-0.136-0.013-0.251-0.107-0.29-0.239
		s0.006-0.273,0.114-0.358c2.614-2.049,5.277-4.402,8.236-7.044c0.078-0.069,0.183-0.099,0.286-0.079
		c0.103,0.02,0.19,0.085,0.237,0.178l4.179,8.243c0.055,0.109,0.046,0.239-0.022,0.341
		C281.854,227.482,281.75,227.536,281.641,227.536z M270.071,225.761l10.995,1.049l-3.706-7.311
		C274.765,221.812,272.394,223.903,270.071,225.761z"/>
</g>
<g>
	<path fill="#414042" d="M284.272,232.69l0.013-0.296l-2.645-5.193l0.119,8.488c0.84-1.022,1.729-2.065,2.626-3.096l-0.101-0.199
		L284.272,232.69z"/>
	<path fill="#9ABA9A" d="M281.76,236.024c-0.038,0-0.075-0.006-0.111-0.019c-0.133-0.047-0.223-0.171-0.225-0.312l-0.12-8.487
		c-0.002-0.156,0.104-0.293,0.255-0.33c0.15-0.037,0.308,0.033,0.379,0.173l2.645,5.193c0,0.001,0,0.001,0.001,0.002l0.1,0.198
		c0.062,0.122,0.043,0.269-0.047,0.371c-0.964,1.108-1.846,2.147-2.62,3.089C281.954,235.981,281.858,236.024,281.76,236.024z
		 M281.996,228.639l0.086,6.136c0.574-0.687,1.196-1.417,1.859-2.181l0.005-0.125L281.996,228.639z"/>
</g>
<g>
	<polygon fill="#414042" points="294.016,212.746 285.13,212.309 284.825,220.013 	"/>
	<path fill="#9ABA9A" d="M284.825,220.348c-0.052,0-0.104-0.012-0.152-0.036c-0.117-0.06-0.189-0.182-0.184-0.312l0.306-7.704
		c0.004-0.089,0.043-0.174,0.109-0.233c0.066-0.061,0.156-0.092,0.243-0.088l8.886,0.437c0.139,0.008,0.26,0.101,0.303,0.233
		c0.042,0.133-0.002,0.278-0.112,0.365l-9.19,7.267C284.973,220.323,284.899,220.348,284.825,220.348z M285.452,212.66l-0.263,6.637
		l7.917-6.26L285.452,212.66z"/>
</g>
<g>
	<polygon fill="#414042" points="231.141,275.949 213.313,282.574 216.492,293.133 	"/>
	<path fill="#9ABA9A" d="M216.492,293.468c-0.023,0-0.046-0.002-0.068-0.007c-0.121-0.024-0.217-0.114-0.253-0.231l-3.179-10.559
		c-0.051-0.169,0.039-0.35,0.204-0.411l17.828-6.625c0.144-0.054,0.304-0.002,0.392,0.122c0.087,0.125,0.08,0.294-0.02,0.41
		l-14.648,17.184C216.683,293.427,216.589,293.468,216.492,293.468z M213.725,282.779l2.911,9.668l13.413-15.735L213.725,282.779z"
		/>
</g>
</svg>
